<svg width="131" height="43" viewBox="0 0 131 43" fill="none" xmlns="http://www.w3.org/2000/svg">
<path d="M1.06 41.6684L1.252 41.1884C1.3 41.0924 1.252 41.0444 1.3 40.9964C1.3 40.9484 1.348 40.9484 1.348 40.9004C1.396 40.8044 1.396 40.7084 1.396 40.6124L1.54 40.4204C1.588 40.3724 1.636 40.3244 1.636 40.2764C1.636 40.2284 1.684 40.2764 1.684 40.2284C1.732 40.1324 1.684 40.0364 1.732 39.9404C1.828 39.8924 1.828 39.7484 1.924 39.7484C1.924 39.6044 2.068 39.6044 2.02 39.4604C2.068 39.4604 2.068 39.3644 2.116 39.3164C2.164 39.2204 2.308 39.1244 2.356 38.9324C2.452 38.7404 2.5 38.5484 2.692 38.4524C2.692 38.3084 2.788 38.3084 2.836 38.1644L3.028 37.9244C3.124 37.5884 3.364 37.3484 3.556 37.0604L3.7 36.8684C3.748 36.7724 3.748 36.7244 3.748 36.6764C3.796 36.6284 3.844 36.6284 3.844 36.6284C3.94 36.4844 3.988 36.2924 4.132 36.1964L4.276 35.8124C4.42 35.7644 4.516 35.6684 4.564 35.4764L4.9 35.0924C4.948 34.9004 5.044 34.8044 5.092 34.6124C5.236 34.5644 5.332 34.3724 5.428 34.2284L5.716 33.8444C5.956 33.5564 6.1 33.2684 6.388 33.0284C6.484 33.0284 6.58 32.9804 6.676 32.9324C7.06 32.9324 7.348 32.8844 7.732 32.8844C7.876 32.8364 8.068 32.7884 8.26 32.8364C8.356 32.8364 8.404 32.7884 8.5 32.6924C8.596 32.6924 8.74 32.6924 8.788 32.6444C8.884 32.5964 8.932 32.6444 9.028 32.6444C9.076 32.6444 9.124 32.5484 9.124 32.5484C9.268 32.5004 9.364 32.5484 9.508 32.5004H9.556C9.604 32.4524 9.604 32.4524 9.652 32.4524L9.748 32.4044H9.796C9.892 32.3564 10.036 32.3564 10.084 32.3084H10.132C10.276 32.2604 10.42 32.2124 10.564 32.1164C10.708 32.1164 10.804 32.0684 10.948 32.0684L11.14 31.9244C11.188 31.8764 11.236 31.9244 11.236 31.9244L11.332 31.7804C11.38 31.7804 11.428 31.7324 11.476 31.7324C11.764 31.6844 12.004 31.5404 12.244 31.4444L12.628 31.3004C12.628 31.3004 12.628 31.2524 12.676 31.2524C12.676 31.2044 12.724 31.2524 12.724 31.2524C12.82 31.2044 12.916 31.2044 12.964 31.1084C13.108 31.1084 13.156 30.9644 13.348 31.0124C13.396 30.9644 13.444 30.9164 13.492 30.9164C13.54 30.8204 13.684 30.9164 13.684 30.8204C13.78 30.8684 13.78 30.7244 13.876 30.7244C13.876 30.6764 14.02 30.7244 14.02 30.6284C14.116 30.5804 14.164 30.4364 14.308 30.3884C14.452 30.4364 14.452 30.3884 14.596 30.3884C14.74 30.2444 14.932 30.1004 15.22 30.0044C15.316 29.9084 15.412 29.8124 15.508 29.7644C15.844 29.6684 16.084 29.5244 16.324 29.3324L16.612 29.2364C16.66 29.2364 16.66 29.1884 16.708 29.1404H16.804C16.852 29.0924 16.852 29.0444 16.9 29.0444C16.948 29.0444 16.948 29.0444 16.996 28.9964C17.044 28.9964 17.044 28.9484 17.092 28.9484C17.14 28.9004 17.14 28.9004 17.188 28.9004C17.236 28.9004 17.236 28.8524 17.284 28.8044H17.38C17.524 28.7084 17.668 28.5164 17.86 28.5164C17.956 28.3724 18.052 28.3244 18.148 28.2284H18.388C18.484 28.0844 18.628 28.0364 18.724 27.9404C18.868 27.8924 18.916 27.7004 19.108 27.7004L19.444 27.4124C19.588 27.3644 19.78 27.3164 19.828 27.1724C20.116 27.0284 20.308 26.7884 20.596 26.6924C20.692 26.5484 20.836 26.5004 20.98 26.4044C21.076 26.3084 21.172 26.1644 21.364 26.1644C21.556 25.9244 21.796 25.8284 22.036 25.6364C22.18 25.5884 22.276 25.4444 22.372 25.3964L22.564 25.2524C22.804 25.1564 22.996 24.9644 23.188 24.8204C23.188 24.8204 23.236 24.8204 23.284 24.7724C23.38 24.7244 23.476 24.5804 23.524 24.5324C23.572 24.4844 23.62 24.5324 23.62 24.4844C23.668 24.4364 23.716 24.3884 23.812 24.3884C23.86 24.2444 24.004 24.1964 24.1 24.0524C24.196 24.0524 24.292 24.0044 24.388 23.9564C24.436 23.8604 24.532 23.8124 24.628 23.7644V23.7164C24.628 23.6204 24.82 23.6684 24.82 23.5244C24.964 23.5724 24.916 23.3804 25.06 23.3804C25.108 23.2844 25.156 23.1884 25.252 23.1884C25.348 23.0924 25.444 23.0444 25.54 22.9964C25.588 22.9004 25.732 22.9004 25.78 22.8044C25.876 22.7564 25.876 22.7084 25.876 22.6604C25.924 22.6604 25.972 22.5644 26.02 22.5644C26.068 22.5644 26.02 22.5164 26.068 22.5164L26.356 22.2764L26.548 22.1324C26.932 21.9884 27.124 21.6044 27.46 21.4124L27.7 21.0764C27.796 21.0284 27.94 21.0284 27.988 20.9804C28.132 20.6924 28.372 20.5004 28.66 20.3564L28.804 20.1644C28.804 20.0204 28.996 20.0204 29.044 19.9724L29.14 19.8284C29.188 19.7804 29.284 19.7324 29.284 19.6364C29.428 19.6364 29.476 19.5404 29.572 19.4924C29.668 19.4444 29.716 19.3004 29.812 19.2524C29.86 19.1084 30.052 19.1084 30.1 19.0124L30.484 18.5804C30.628 18.4844 30.724 18.3404 30.82 18.2444H30.916L31.06 18.0524C31.156 17.9564 31.204 17.8124 31.348 17.7164L31.684 17.4764C31.78 17.1884 32.02 17.0924 32.212 16.9004C32.212 16.7564 32.356 16.7084 32.452 16.6604L32.74 16.3244C32.74 16.2284 32.884 16.1804 32.932 16.1324V16.0364L33.124 15.9404L33.22 15.7484L33.46 15.4124C33.556 15.3164 33.652 15.2204 33.796 15.1724C33.796 15.0284 33.844 14.9324 33.892 14.7884C33.988 14.7884 34.084 14.6924 34.18 14.6924C34.276 14.4044 34.468 14.2124 34.708 14.0204C34.756 13.8764 34.852 13.8284 34.9 13.6844C35.044 13.5884 35.044 13.3964 35.236 13.3484C35.236 13.2524 35.236 13.1084 35.284 13.0124C35.38 12.9644 35.476 12.9644 35.524 12.8204C35.572 12.8204 35.572 12.7244 35.572 12.6284C35.668 12.6284 35.668 12.5324 35.716 12.4364C35.956 12.2924 36.004 12.0044 36.244 11.8124C36.244 11.7164 36.292 11.5724 36.34 11.4764C36.388 11.3804 36.484 11.3804 36.532 11.2844C36.58 11.2364 36.532 11.1884 36.58 11.1404C36.58 11.0924 36.628 11.0924 36.628 11.0444H36.676C36.772 10.9004 36.772 10.7084 36.82 10.5644C36.868 10.5164 36.868 10.5164 36.868 10.4684C36.868 10.4204 36.916 10.4204 36.964 10.3724C36.964 10.3244 37.06 10.2764 37.06 10.1804C37.108 10.1324 37.06 9.94042 37.156 9.89242C37.156 9.79642 37.204 9.79642 37.252 9.74842V9.65242L37.3 9.60442L37.396 9.41242C37.396 9.36442 37.396 9.31642 37.444 9.26842C37.444 9.26842 37.492 9.22042 37.492 9.17242C37.54 9.12442 37.54 9.12442 37.54 9.07642C37.54 9.02842 37.54 8.98042 37.588 8.98042C37.588 8.83642 37.732 8.78842 37.732 8.64442C37.78 8.50042 37.684 8.45242 37.684 8.35642C37.78 8.26042 37.732 8.11642 37.828 8.06842C37.876 7.73242 38.02 7.44442 38.02 7.01242C38.068 6.82042 38.116 6.62842 38.116 6.38842C38.116 6.05242 37.972 5.86042 38.02 5.57242L37.876 4.85242L37.684 4.51642L37.492 4.27642C37.444 4.08442 37.252 3.98842 37.156 3.84442C37.156 3.79642 37.108 3.74842 37.06 3.70042C37.012 3.70042 36.964 3.70042 36.964 3.65242C36.916 3.65242 36.916 3.60442 36.868 3.55642C36.772 3.55642 36.724 3.50842 36.628 3.46042C36.58 3.46042 36.484 3.46042 36.436 3.36442C36.292 3.31642 36.148 3.26842 36.052 3.17242C35.812 3.22042 35.572 3.12442 35.38 3.07642C35.092 3.02842 34.564 3.02842 34.324 3.07642C34.276 3.07642 34.276 3.02842 34.228 3.02842C34.132 2.98042 33.892 3.02842 33.796 3.02842L32.836 3.12442C32.74 3.17242 32.644 3.26842 32.5 3.26842C32.212 3.22042 32.02 3.31642 31.684 3.31642C31.588 3.41242 31.396 3.41242 31.3 3.46042V3.50842H31.204C31.204 3.55642 31.156 3.55642 31.156 3.55642C31.012 3.55642 30.964 3.55642 30.964 3.60442H30.82V3.65242C30.676 3.65242 30.628 3.60442 30.58 3.65242C30.58 3.70042 30.532 3.65242 30.484 3.65242C30.388 3.70042 30.292 3.70042 30.148 3.65242C30.052 3.70042 29.956 3.84442 29.812 3.84442C29.62 3.84442 29.524 3.94042 29.38 3.98842C29.188 3.98842 29.044 4.03642 28.9 4.13242C28.564 4.18042 28.324 4.32442 27.988 4.42042H27.652C27.652 4.51642 27.556 4.46842 27.46 4.51642L27.412 4.56442C27.364 4.61242 27.316 4.56442 27.316 4.61242C27.076 4.61242 27.028 4.75642 26.884 4.80442C26.596 4.80442 26.5 4.94842 26.26 4.94842C26.164 5.04442 26.068 5.09242 25.972 5.14042C25.732 5.14042 25.588 5.28442 25.348 5.33242C25.348 5.38042 25.3 5.33242 25.204 5.38042V5.42842H25.012C24.868 5.42842 24.82 5.52442 24.724 5.52442C24.676 5.57242 24.58 5.66842 24.484 5.66842C24.436 5.66842 24.388 5.76442 24.34 5.76442C24.244 5.76442 24.244 5.90842 24.148 5.86042C24.1 5.90842 23.956 5.90842 23.86 5.90842C23.86 5.95642 23.764 6.00442 23.716 6.00442C23.668 6.00442 23.716 6.05242 23.668 6.05242C23.572 6.10042 23.476 6.10042 23.428 6.10042C23.38 6.14842 23.38 6.19642 23.332 6.19642C23.284 6.19642 23.236 6.24442 23.188 6.24442C23.092 6.24442 22.996 6.29242 22.9 6.29242C22.708 6.43642 22.564 6.58042 22.276 6.62842L21.844 6.91642H21.556C21.22 7.30042 20.5 7.34842 20.116 7.73242C19.972 7.68442 19.876 7.82842 19.828 7.82842C19.78 7.82842 19.828 7.82842 19.78 7.87642C19.684 7.92442 19.54 7.92442 19.444 8.02042C19.396 8.06842 19.3 8.06842 19.204 8.11642C19.06 8.16442 19.012 8.30842 18.82 8.35642C18.676 8.40442 18.532 8.54842 18.34 8.54842C18.196 8.64442 18.1 8.78842 17.956 8.83642C17.812 8.83642 17.716 8.88442 17.62 8.93242C17.572 8.98042 17.476 8.98042 17.428 9.07642C17.38 9.07642 17.38 9.17242 17.332 9.17242C17.284 9.22042 17.236 9.17242 17.188 9.22042C17.044 9.31642 16.852 9.36442 16.756 9.50842L16.372 9.65242L15.892 9.94042L15.46 10.2284C15.364 10.3244 15.268 10.3724 15.172 10.4204L14.98 10.5164C14.74 10.5644 14.692 10.7564 14.452 10.7564C14.356 10.9484 14.068 10.9964 13.972 11.2364C13.684 11.2844 13.54 11.4764 13.252 11.5244C13.156 11.6204 13.06 11.7164 12.916 11.7644C12.724 11.9564 12.58 12.1004 12.292 12.1964C12.244 12.2924 12.148 12.2924 12.004 12.3404C11.956 12.4364 11.908 12.5324 11.812 12.6284C11.716 12.6764 11.572 12.6764 11.476 12.7724L11.284 12.9644C11.236 13.0124 11.14 13.0124 11.14 13.0604C11.092 13.1084 11.044 13.1564 10.996 13.1564H10.948V13.2044C10.852 13.2524 10.756 13.2524 10.756 13.3484C10.708 13.3964 10.66 13.4924 10.612 13.4924C10.468 13.4924 10.468 13.5884 10.372 13.5884C10.276 13.6844 10.228 13.8284 10.132 13.8764C9.844 14.1164 9.508 14.3564 9.22 14.6444L9.076 14.8364C9.028 14.8364 8.98 14.8364 8.98 14.8844C8.884 14.9804 8.788 15.0764 8.74 15.1724C8.548 15.2204 8.5 15.4124 8.356 15.4604C8.356 15.5084 8.356 15.5564 8.308 15.6044L8.212 15.7964C8.212 15.8444 8.212 15.8444 8.164 15.8444C8.164 15.9404 8.116 16.0364 8.068 16.0844V16.1804C8.068 16.2284 8.02 16.2284 8.02 16.2284C7.972 16.4684 8.02 16.6604 8.164 16.8044C8.26 16.7564 8.26 16.8524 8.356 16.8524C8.404 16.8044 8.548 16.8524 8.548 16.8044C8.788 16.8044 8.884 16.7564 8.98 16.7084C9.076 16.6124 9.076 16.3724 9.22 16.3244C9.172 16.1324 9.22 16.0364 9.22 15.8924C9.316 15.8444 9.316 15.7484 9.364 15.7004C9.46 15.6524 9.556 15.6044 9.556 15.5084C9.652 15.5084 9.652 15.3164 9.748 15.3164L9.988 15.1724L10.228 14.8364C10.516 14.7404 10.612 14.4524 10.948 14.3564C10.948 14.2604 11.092 14.3084 11.092 14.1644L11.332 14.0204C11.428 13.8764 11.62 13.7804 11.812 13.7324C11.86 13.6364 11.908 13.4924 12.052 13.4444C12.148 13.4444 12.148 13.3484 12.196 13.3004C12.292 13.2524 12.436 13.3004 12.532 13.2524C12.58 13.1564 12.724 13.0124 12.82 13.0124C12.916 13.0124 12.964 12.8204 13.06 12.8204C13.252 12.7724 13.348 12.6284 13.492 12.6284C13.588 12.5324 13.636 12.3884 13.732 12.3404C13.876 12.2444 14.116 12.2444 14.164 12.1004C14.404 12.0524 14.452 11.8604 14.644 11.7644C14.74 11.7164 14.932 11.6684 14.98 11.5724C15.172 11.5244 15.268 11.4284 15.364 11.3324C15.46 11.2844 15.508 11.2364 15.556 11.2364C15.604 11.1404 15.748 11.1884 15.748 11.0924C15.844 10.9964 15.988 10.9484 16.18 10.9004C16.276 10.7564 16.372 10.6604 16.564 10.5644C16.612 10.5164 16.708 10.5164 16.804 10.5164L17.38 10.1324C17.62 10.0364 17.764 9.84442 18.052 9.79642C18.196 9.55642 18.628 9.50842 18.772 9.31642H18.868V9.26842C18.868 9.26842 18.916 9.31642 18.916 9.26842C18.916 9.22042 18.964 9.26842 19.012 9.26842V9.22042H19.06C19.156 9.17242 19.3 9.12442 19.3 9.12442C19.348 9.07642 19.396 9.07642 19.396 9.02842C19.444 9.02842 19.492 9.02842 19.492 8.98042C19.54 8.93242 19.588 8.83642 19.732 8.78842C19.78 8.74042 19.924 8.74042 20.02 8.74042C20.212 8.54842 20.452 8.40442 20.692 8.26042C21.028 8.16442 21.364 8.02042 21.556 7.78042C21.652 7.78042 21.7 7.73242 21.7 7.68442C21.748 7.68442 21.796 7.73242 21.796 7.68442C21.796 7.68442 21.796 7.63642 21.844 7.63642C21.94 7.58842 22.036 7.58842 22.132 7.49242C22.42 7.44442 22.564 7.30042 22.804 7.30042C22.948 7.15642 23.14 7.06042 23.284 7.01242C23.476 6.91642 23.668 6.82042 23.908 6.82042C23.908 6.72442 24.052 6.72442 24.052 6.62842C24.1 6.62842 24.244 6.62842 24.292 6.58042C24.484 6.58042 24.532 6.43642 24.676 6.38842C25.012 6.38842 25.156 6.19642 25.444 6.19642C25.588 6.10042 25.732 6.00442 25.876 5.95642C26.164 5.95642 26.26 5.81242 26.5 5.81242C26.5 5.76442 26.596 5.81242 26.596 5.76442C26.644 5.76442 26.644 5.66842 26.692 5.66842L26.932 5.57242H27.364C27.412 5.47642 27.556 5.47642 27.604 5.42842C27.7 5.38042 27.796 5.38042 27.844 5.28442C27.988 5.28442 28.036 5.23642 28.18 5.23642L28.468 5.09242H28.9C29.044 5.09242 29.14 4.94842 29.284 4.90042H29.572C29.668 4.85242 29.812 4.85242 29.86 4.80442C30.34 4.75642 30.58 4.46842 31.156 4.51642C31.444 4.46842 31.684 4.37242 32.068 4.37242C32.116 4.37242 32.26 4.32442 32.356 4.32442C32.5 4.27642 32.596 4.32442 32.692 4.22842C32.884 4.32442 33.268 4.27642 33.46 4.18042C33.7 4.32442 34.036 4.18042 34.42 4.22842L34.708 4.32442C34.9 4.32442 34.9 4.27642 35.044 4.32442C35.188 4.42042 35.428 4.42042 35.62 4.51642H35.668C35.764 4.56442 35.812 4.61242 35.908 4.61242L36.052 4.70842C36.052 4.70842 36.1 4.66042 36.1 4.70842C36.148 4.75642 36.196 4.70842 36.196 4.70842V4.75642H36.292C36.292 4.80442 36.34 4.85242 36.388 4.90042L36.82 5.33242C36.868 5.42842 36.964 5.62042 36.964 5.71642C36.964 5.76442 37.012 5.71642 37.012 5.76442C37.108 6.00442 37.156 6.19642 37.204 6.48442C37.204 6.58042 37.108 6.67642 37.108 6.82042C37.156 6.96442 37.108 7.15642 37.108 7.25242C37.06 7.39642 37.06 7.49242 37.06 7.54042C37.012 7.63642 37.012 7.73242 36.964 7.78042V7.92442C36.964 7.97242 36.916 7.97242 36.916 7.97242C36.868 8.11642 36.916 8.21242 36.916 8.35642C36.82 8.40442 36.868 8.54842 36.772 8.59642C36.772 8.64442 36.724 8.64442 36.724 8.74042C36.676 8.74042 36.724 8.88442 36.628 8.88442C36.628 9.12442 36.532 9.26842 36.484 9.50842L36.34 9.74842C36.244 9.74842 36.292 9.94042 36.196 9.98842C36.196 10.0844 36.148 10.1324 36.052 10.1804C36.052 10.3244 36.004 10.4204 35.956 10.5164C35.86 10.6604 35.716 10.8524 35.668 11.0924C35.476 11.2844 35.38 11.5724 35.188 11.7644C35.14 11.9084 35.092 12.0044 34.948 12.1004C34.804 12.3884 34.66 12.6764 34.42 12.8204C34.42 12.9644 34.324 13.0124 34.324 13.1564C34.132 13.3004 33.988 13.4444 33.94 13.6364C33.892 13.7324 33.748 13.6844 33.748 13.8284C33.652 13.9244 33.652 14.0204 33.604 14.1164C33.412 14.2604 33.22 14.4044 33.124 14.5484C33.076 14.6444 33.028 14.6444 33.028 14.7404H32.932C32.932 14.7884 32.884 14.7884 32.884 14.8364C32.836 14.8844 32.884 14.9324 32.836 14.9324L32.644 15.0764C32.548 15.2204 32.452 15.3644 32.404 15.5084C32.212 15.6524 32.116 15.7964 31.924 15.8924C31.924 16.0364 31.732 16.0844 31.684 16.1804V16.2284C31.636 16.2764 31.636 16.3244 31.636 16.3244C31.588 16.4204 31.54 16.3724 31.492 16.4684C31.396 16.4684 31.396 16.5644 31.3 16.6124C31.252 16.7564 31.108 16.8524 31.012 16.9964C30.868 17.0924 30.772 17.1884 30.676 17.3804C30.58 17.3804 30.484 17.4284 30.388 17.4764C30.34 17.5724 30.292 17.6684 30.196 17.7164L30.052 17.9564C29.956 18.0524 29.812 18.1004 29.764 18.1964C29.668 18.2924 29.572 18.3884 29.524 18.4844C29.38 18.4844 29.332 18.5804 29.236 18.5804C29.236 18.7244 29.092 18.7244 29.044 18.8684L28.228 19.6364C28.132 19.6844 27.988 19.6844 27.94 19.7804C27.844 19.8764 27.844 20.0204 27.7 20.1164C27.604 20.2124 27.46 20.2604 27.316 20.3564C27.268 20.3564 27.268 20.5004 27.172 20.5484C27.172 20.5964 27.076 20.6444 27.028 20.6924C26.884 20.7404 26.836 20.8364 26.692 20.8844C26.596 20.9804 26.548 21.1244 26.404 21.1724L26.212 21.3164C26.116 21.3644 26.068 21.4604 25.972 21.4604C25.78 21.7484 25.54 21.9404 25.3 22.1324C25.156 22.1804 25.06 22.3244 24.916 22.4204C24.82 22.5164 24.676 22.6124 24.484 22.6604C24.436 22.8044 24.244 22.8524 24.148 22.9964L23.476 23.5724H23.428C23.38 23.5724 23.38 23.6204 23.332 23.6684L23.044 23.8604L22.66 24.0524C22.564 24.1004 22.564 24.2924 22.42 24.3404C22.132 24.4364 21.94 24.6764 21.7 24.8204C21.7 24.8684 21.604 24.9164 21.508 24.9164C21.364 25.0604 21.172 25.2044 20.98 25.2524C20.932 25.3484 20.788 25.3484 20.788 25.4444C20.74 25.4924 20.74 25.5884 20.596 25.5884L20.404 25.7324C20.356 25.8284 20.308 25.8764 20.212 25.9244C20.02 25.9244 19.972 26.0204 19.876 26.1164C19.732 26.0684 19.78 26.2124 19.684 26.1644C19.684 26.2604 19.54 26.2124 19.54 26.3084C19.204 26.5004 18.916 26.7404 18.532 26.8844C18.484 27.0284 18.34 27.0764 18.244 27.1244C18.148 27.1724 18.052 27.3164 17.908 27.3164L17.62 27.5564C17.524 27.6044 17.428 27.6524 17.284 27.6524C17.188 27.7964 17.092 27.8444 16.948 27.8924C16.948 27.9404 16.9 27.9404 16.852 27.9404C16.756 28.0364 16.708 28.0844 16.564 28.1324C16.516 28.1804 16.42 28.2284 16.324 28.2284L16.084 28.4204C16.084 28.4684 16.036 28.4204 16.036 28.4204L15.796 28.6124C15.796 28.6124 15.748 28.5644 15.7 28.6124C15.7 28.6604 15.652 28.6124 15.652 28.6124C15.652 28.6604 15.604 28.7084 15.604 28.7084L15.508 28.7564C15.364 28.7564 15.316 28.8524 15.22 28.9004L15.028 28.9964C15.028 29.0924 14.98 29.1404 14.884 29.1404H14.644C14.596 29.2844 14.452 29.2844 14.308 29.3324C14.308 29.3804 14.212 29.3324 14.212 29.4284C14.116 29.4284 14.164 29.5244 14.068 29.4764C13.876 29.5244 13.78 29.6684 13.588 29.6684C13.492 29.7164 13.492 29.8604 13.348 29.8604C12.916 29.9564 12.628 30.2444 12.196 30.3884C12.052 30.4844 11.86 30.5804 11.668 30.6284C11.428 30.7244 11.236 30.7724 10.996 30.8204C10.9 30.8684 10.852 30.9644 10.804 30.9644C10.804 31.0124 10.708 30.9644 10.708 31.0124C10.516 30.9644 10.468 31.1084 10.324 31.1564C10.036 31.1564 9.94 31.3004 9.748 31.3484C9.46 31.3484 9.22 31.3964 9.028 31.4444C8.836 31.5404 8.644 31.6364 8.356 31.5884C8.212 31.6844 8.02 31.7324 7.78 31.7804C7.684 31.6844 7.588 31.5404 7.588 31.3484C7.588 31.2044 7.732 31.2044 7.732 31.0604C7.78 31.0604 7.732 30.9164 7.828 30.9164L7.972 30.8204C8.116 30.4844 8.308 30.3404 8.5 30.0524C8.596 30.0044 8.692 29.8604 8.788 29.7644C8.788 29.6684 8.884 29.6684 8.884 29.5724C8.884 29.4764 8.98 29.4284 8.98 29.3324C9.268 29.2364 9.316 28.9004 9.556 28.7564C9.604 28.6124 9.652 28.5164 9.748 28.4204C9.796 28.3724 9.892 28.3244 9.892 28.2764C9.892 28.1324 9.988 28.1324 9.988 28.0364C10.036 27.9884 10.132 27.9404 10.132 27.8924C10.132 27.8924 10.18 27.9404 10.18 27.8924V27.8444L10.372 27.6044C10.516 27.4604 10.612 27.3164 10.804 27.2204C10.804 27.0764 10.9 26.9804 10.948 26.8364C11.092 26.7404 11.188 26.5964 11.284 26.4524C11.38 26.4524 11.332 26.2604 11.476 26.3084C11.476 26.2124 11.572 26.1644 11.572 26.0204L11.86 25.8284L12.004 25.4444C12.148 25.3004 12.292 25.2044 12.436 25.1084C12.436 25.0124 12.532 24.9164 12.532 24.8684C12.628 24.7244 12.676 24.6764 12.82 24.5804C12.82 24.4364 12.964 24.4364 12.964 24.2444C13.108 24.1484 13.252 24.0044 13.3 23.9084C13.348 23.9084 13.348 23.8604 13.396 23.8604L13.492 23.6684C13.492 23.6204 13.54 23.6204 13.588 23.6204V23.5244C13.636 23.4764 13.732 23.4284 13.78 23.3324V23.2844C13.876 23.1884 13.924 23.0924 14.02 23.0444C14.02 22.9484 14.068 22.8524 14.116 22.7564L14.356 22.6124C14.404 22.4204 14.5 22.3244 14.548 22.1804C14.692 22.1804 14.692 21.9884 14.836 21.9404C14.884 21.8444 14.98 21.7964 15.076 21.7484C15.124 21.5564 15.268 21.4124 15.364 21.2204C15.508 21.1724 15.556 20.9804 15.652 20.7884C15.748 20.7404 15.796 20.5964 15.892 20.5484C15.94 20.4524 16.084 20.4044 16.132 20.3084C16.228 20.0684 16.372 19.9244 16.468 19.6844C16.708 19.5404 16.852 19.3004 17.044 19.1564C17.092 18.9644 17.188 18.9164 17.236 18.7244L17.476 18.5324C17.524 18.4844 17.476 18.3884 17.524 18.3884L17.668 18.2924C17.716 18.1004 17.86 18.1004 17.908 17.9084C17.908 17.8604 18.004 17.8124 18.052 17.7644L18.196 17.5724C18.244 17.4284 18.436 17.3804 18.484 17.1884C18.58 17.0924 18.676 16.9484 18.676 16.8044C18.964 16.6124 19.108 16.2764 19.3 16.0844C19.396 16.0364 19.396 15.8924 19.54 15.8444C19.684 15.4124 20.02 15.0764 20.308 14.7884C20.356 14.5964 20.5 14.5004 20.5 14.3084C20.596 14.2604 20.692 14.2124 20.692 14.0684C20.788 13.9724 20.884 13.9724 20.932 13.8284C20.98 13.8284 20.98 13.7804 20.98 13.7324C21.076 13.5884 21.22 13.4924 21.22 13.3004C21.46 13.1564 21.508 12.9164 21.7 12.7244C21.7 12.5804 21.748 12.4364 21.796 12.2924C21.844 12.1964 21.988 12.1964 21.988 12.0524C21.988 12.0044 21.988 12.0044 22.036 12.0044C21.988 11.7644 22.084 11.6684 22.036 11.4284L21.844 11.2364L21.556 11.0924C21.46 11.0924 21.364 11.0924 21.268 11.0444C21.268 11.1404 21.124 11.0924 21.124 11.1404C20.98 11.2844 20.884 11.4284 20.788 11.5724C20.74 11.8124 20.596 11.9564 20.548 12.2444C20.452 12.2924 20.404 12.4364 20.356 12.4844L20.116 12.7244C20.068 12.8204 20.068 12.8684 20.068 12.9164C20.02 12.9644 20.068 13.0604 20.02 13.1084C19.876 13.1564 19.828 13.3004 19.684 13.3964C19.588 13.7324 19.3 13.8764 19.204 14.2124L18.964 14.3564C18.964 14.5484 18.82 14.5964 18.82 14.7404C18.58 14.9324 18.436 15.2204 18.244 15.4124C18.196 15.5564 18.1 15.5564 18.004 15.6524C17.956 15.8924 17.812 15.9884 17.764 16.1804C17.668 16.2284 17.62 16.3244 17.572 16.3244L17.476 16.4204C17.428 16.5644 17.38 16.7084 17.236 16.8044C17.092 17.1404 16.804 17.3804 16.564 17.6204C16.516 17.7164 16.468 17.8124 16.372 17.9084C16.372 18.0044 16.228 18.1484 16.18 18.1964V18.2444H16.132V18.3404C16.132 18.3404 16.084 18.3404 16.036 18.3884V18.4844C15.988 18.5324 15.94 18.5804 15.892 18.5804V18.6764L15.604 19.0604C15.46 19.1564 15.412 19.3004 15.364 19.4924L15.076 19.6364L14.98 20.0204C14.788 20.1644 14.692 20.3564 14.452 20.4524L14.308 20.7884L14.068 20.9804C14.068 21.2684 13.78 21.3644 13.78 21.6044C13.684 21.7004 13.54 21.7484 13.444 21.7964C13.444 21.9404 13.3 22.0364 13.252 22.1324C13.252 22.1324 13.252 22.1804 13.204 22.2284C13.156 22.3244 13.06 22.3244 13.06 22.4204C12.964 22.4684 12.964 22.5644 12.916 22.6604L12.244 23.3804C12.196 23.4764 12.148 23.6204 12.148 23.7164C12.004 23.8124 11.956 23.9564 11.86 24.0524C11.716 24.0524 11.764 24.1964 11.716 24.2444C11.716 24.3404 11.572 24.3404 11.524 24.3884C11.476 24.5804 11.332 24.6284 11.332 24.8204C11.188 24.9164 11.044 25.0124 11.044 25.2524C10.852 25.3964 10.612 25.5884 10.564 25.8764C10.42 25.8764 10.42 26.0204 10.276 26.0204C10.276 26.1644 10.18 26.2124 10.228 26.3564C9.94 26.5484 9.748 26.7884 9.556 27.1244L9.364 27.2684C9.316 27.3644 9.268 27.4124 9.268 27.5564C9.076 27.6044 8.98 27.7964 8.836 27.8924C8.788 28.0364 8.692 28.1324 8.692 28.2764C8.644 28.3724 8.5 28.4204 8.5 28.5644C8.404 28.5644 8.452 28.6604 8.308 28.6124C8.356 28.7084 8.26 28.7564 8.212 28.8044C8.212 28.9484 8.068 28.9964 8.02 29.1404C7.828 29.1884 7.828 29.4284 7.732 29.5244C7.684 29.5724 7.588 29.6204 7.636 29.6684C7.396 29.8124 7.348 30.1004 7.108 30.1964C7.108 30.3884 7.012 30.4844 6.964 30.6284C6.772 30.6764 6.724 30.8684 6.676 30.9644L6.58 31.0604C6.436 31.2524 6.292 31.3964 6.052 31.4444C6.004 31.3964 6.004 31.3484 5.956 31.3484C5.86 31.3004 5.908 31.2524 5.86 31.2044C5.812 31.1564 5.764 31.0604 5.764 31.0124C5.716 30.8204 5.812 30.6764 5.764 30.4844C5.86 30.4364 5.812 30.2444 5.908 30.1964C5.956 30.1004 6.052 30.0524 6.052 29.9084C6.196 29.9084 6.34 29.7644 6.34 29.5724C6.34 29.4284 6.292 29.3804 6.196 29.3324C6.148 29.2364 6.196 29.0924 6.052 29.0924C5.908 29.0924 5.812 29.1404 5.668 29.1404L5.524 29.3804C5.428 29.3804 5.428 29.5244 5.332 29.5244C5.332 29.6204 5.236 29.6684 5.236 29.7164L5.14 29.9084C5.14 30.1004 5.044 30.1964 4.948 30.3404C4.948 30.5324 4.9 30.6284 4.852 30.7724C4.9 31.0604 4.852 31.2044 4.804 31.4444C4.852 31.5884 4.9 31.7804 4.852 31.9724L5.092 32.3084C5.188 32.4524 5.284 32.5004 5.236 32.7404C5.188 32.9804 4.996 33.1244 4.852 33.2684C4.852 33.3644 4.804 33.4124 4.804 33.4604C4.804 33.5084 4.708 33.5564 4.708 33.6044C4.708 33.7004 4.564 33.7964 4.516 33.8444C4.468 33.8924 4.468 33.9404 4.468 33.9884L4.324 34.0844C4.276 34.1804 4.18 34.2764 4.084 34.3244C4.132 34.3724 4.084 34.3724 4.084 34.4204C4.036 34.4204 4.036 34.4684 4.036 34.5164L3.94 34.6124V34.7084C3.892 34.7084 3.844 34.7564 3.844 34.7564C3.748 34.8524 3.652 34.9484 3.652 35.0444C3.556 35.1404 3.556 35.3804 3.412 35.4284L3.22 35.8124L3.076 36.0044C2.98 36.0044 2.98 36.1004 2.932 36.1484C2.932 36.3884 2.692 36.3884 2.692 36.6284L2.548 36.8204L2.5 36.9164C2.5 36.9644 2.452 36.9644 2.452 36.9644C2.404 37.0604 2.404 37.1564 2.308 37.2044C2.308 37.3484 2.212 37.3484 2.212 37.4924C2.116 37.5404 2.164 37.6364 2.068 37.6364C1.972 37.6364 2.02 37.7804 1.972 37.7324C1.972 37.9724 1.828 38.0204 1.828 38.2604C1.684 38.3084 1.684 38.5004 1.54 38.5484C1.444 38.8364 1.348 39.1244 1.156 39.3164C1.108 39.5084 1.06 39.7484 0.916 39.8444C0.916 40.2764 0.676 40.4204 0.676 40.8524L0.532 41.0924L0.436 41.3804C0.436 41.6684 0.388 41.8124 0.34 42.0524L0.484 42.3884L0.628 42.7244C0.868 42.8684 1.252 43.0124 1.588 42.8684C1.636 42.7244 1.78 42.6284 1.78 42.4844C1.78 42.2444 1.636 42.1004 1.492 42.0044C1.348 41.9084 1.108 41.8604 1.06 41.6684ZM37.6881 22.9004C37.7841 22.7564 37.7841 22.5644 37.8801 22.3724C37.7841 22.3244 37.8321 22.1804 37.7361 22.0844C37.7361 21.9884 37.6881 21.9404 37.5921 21.8444C37.4481 21.7964 37.3521 21.7484 37.2081 21.7484C37.1121 21.7484 37.0641 21.8444 37.0161 21.8444C36.9201 21.8924 36.8721 21.8924 36.7761 21.8924C36.6801 21.9884 36.5361 21.9884 36.3441 22.0364C36.2961 22.1324 36.2001 22.1804 36.0561 22.2284L35.7681 22.6124C35.6241 22.6124 35.5761 22.7564 35.4321 22.8044C35.2881 22.9484 35.1921 23.1404 34.9521 23.1884C34.8561 23.3804 34.7121 23.5244 34.5201 23.6684C34.4721 23.8604 34.2801 23.9084 34.2321 24.1004C34.1361 24.2444 34.0401 24.3884 33.8961 24.5324C33.8961 24.7724 33.7521 24.9164 33.6081 25.0604C33.6081 25.1564 33.5601 25.2044 33.5121 25.2524C33.5121 25.3484 33.5121 25.4444 33.4161 25.4444C33.4161 25.5884 33.3681 25.7324 33.3681 25.8764C33.3681 25.9244 33.3201 25.9244 33.3201 25.9244C33.2241 26.1644 33.3201 26.4524 33.2241 26.7404C33.3201 26.8364 33.4641 26.8364 33.5121 26.9324C33.6561 26.9804 33.6561 27.0764 33.7041 27.1244C33.7041 27.1724 33.7521 27.1724 33.7521 27.2204C34.0401 27.2204 34.1841 27.2204 34.3761 27.1244C34.5201 27.1244 34.5201 27.1724 34.6161 27.1244L35.0481 26.8364C35.1441 26.6924 35.2881 26.6444 35.4321 26.5484L35.8641 25.9724C35.9601 25.9244 36.0081 25.8764 36.0561 25.7804C36.0561 25.7804 36.1521 25.7324 36.1521 25.6844V25.6364L36.3441 25.4444C36.3921 25.1564 36.5841 25.1084 36.5841 24.8684C36.7761 24.6764 36.9201 24.4844 37.1601 24.3884C37.8321 24.3884 38.4561 24.2924 38.9841 24.1964C39.1761 24.2444 39.4161 24.1964 39.5121 24.1484C39.6081 24.1964 39.7521 24.1964 39.8481 24.1964C40.1361 24.0524 40.6641 24.1004 41.0481 24.0524C41.0961 24.0044 41.1921 24.0044 41.2881 24.0044C41.2881 24.0044 41.2401 23.9564 41.2881 23.9564H41.4321V23.9084C41.6721 23.8604 41.9121 23.8604 42.1521 23.8604C42.2481 23.7644 42.4881 23.7164 42.4881 23.4764C42.4401 23.3324 42.2481 23.3804 42.1521 23.3324C41.7681 23.2844 41.3841 23.3324 41.0481 23.4284C40.7121 23.4284 40.4721 23.4764 40.1841 23.5244C39.9441 23.5244 39.8961 23.5244 39.7041 23.5724C39.5601 23.6204 39.5601 23.5244 39.4161 23.5244C39.2721 23.6204 39.0801 23.6204 38.9361 23.6684C38.6961 23.5724 38.5521 23.6204 38.3121 23.6684L37.9761 23.5724C37.8801 23.6684 37.5921 23.6684 37.4481 23.6684L37.4001 23.6204H37.2081V23.5724C37.1601 23.5724 37.0641 23.5724 37.0161 23.5244L36.9201 23.3324C36.9201 23.1404 37.1121 23.1404 37.2081 23.0444C37.3041 22.9484 37.5441 22.9484 37.6881 22.9004ZM35.0481 25.2524C35.1441 25.3004 35.1921 25.3484 35.1921 25.4444C35.1921 25.5884 34.9521 25.6844 34.8081 25.6364C34.8081 25.3964 35.0001 25.3964 35.0481 25.2524ZM42.9936 22.6124C42.8976 22.5164 42.7056 22.5644 42.6576 22.4204H42.5616L42.3696 22.5644C42.2736 22.5644 42.1296 22.5164 41.9856 22.5644L41.6496 22.8044C41.5536 22.9004 41.4096 22.9484 41.4096 23.1404C41.2656 23.3804 41.4576 23.6684 41.5056 23.8604C41.6976 24.0524 42.1296 24.1484 42.1776 24.4844C42.1776 24.5804 42.0816 24.6764 42.0816 24.8204C42.0336 24.8204 42.0816 24.8684 42.0336 24.9164H41.9376C41.8896 24.9644 41.8416 25.0124 41.8416 25.0604C41.6976 25.1564 41.6976 25.3004 41.5536 25.3484L41.2176 25.4924L40.8816 25.9244C40.5936 26.0204 40.4496 26.2604 40.2576 26.5004C40.1136 26.5484 40.0176 26.6444 39.8736 26.6444C39.6816 26.8844 39.4416 27.0764 39.2016 27.2204C39.1536 27.3164 39.1056 27.4604 39.0096 27.5564C38.9136 27.5564 38.8656 27.6044 38.8176 27.7004C38.7216 27.7484 38.6256 27.7964 38.5776 27.8924C38.4336 27.9884 38.3376 28.1324 38.1456 28.2284C38.0496 28.5164 37.7616 28.6604 37.7136 28.9964C37.6176 28.9964 37.6176 29.0924 37.5696 29.1404C37.5216 29.2364 37.4256 29.1884 37.4256 29.2364V29.2844L37.1856 29.5724C37.1856 29.9084 37.0416 30.0524 36.9456 30.2924C37.0416 30.4844 37.0416 30.7724 37.0896 30.9644C37.1856 31.0604 37.2816 31.2044 37.4736 31.2044C37.4736 31.3484 37.6656 31.3004 37.6656 31.3964C37.8096 31.3964 37.8096 31.4924 37.9536 31.4924C38.1936 31.4924 38.4336 31.4924 38.6256 31.5404C38.8656 31.4444 39.1056 31.3964 39.3936 31.3964C39.4896 31.2524 39.6816 31.3004 39.8256 31.2044C40.0176 31.2044 40.0656 31.0604 40.3056 31.1084C40.4016 31.0124 40.5456 30.9644 40.6896 30.8684H40.9296C41.0256 30.8204 41.1216 30.7244 41.2656 30.7244L41.5056 30.5324H41.7456C41.7936 30.4364 41.9376 30.4364 42.0336 30.3884L42.3696 30.2444C42.4656 30.1964 42.5616 30.1484 42.7056 30.1964C42.8016 30.0524 42.8976 30.0044 43.0896 30.0044C43.3296 29.6684 43.8096 29.6204 44.0976 29.3804C44.4336 29.3324 44.6256 29.1884 44.8176 29.0444C45.1056 28.9964 45.2976 28.8044 45.5376 28.6604C45.5856 28.6124 45.6816 28.5644 45.8256 28.6124C45.9216 28.4684 46.0176 28.3724 46.1616 28.2764C46.2576 28.2764 46.3536 28.2284 46.4496 28.2284L46.8336 27.8924C46.9296 27.8924 46.9776 27.8444 47.1216 27.8444C47.3616 27.6044 47.6976 27.5084 47.9376 27.2684C48.0816 27.2684 48.1776 27.2204 48.2256 27.1244C48.3696 27.0764 48.4176 27.0284 48.5616 27.0284C48.7536 26.7404 49.1376 26.6444 49.3776 26.4524C49.6176 26.4524 49.6656 26.2124 49.9056 26.2124C50.0016 26.0684 50.1456 25.9724 50.3376 25.9724L50.4816 25.7804C50.5296 25.7324 50.5776 25.7324 50.6256 25.7324L50.7216 25.6364C50.8656 25.5404 51.0096 25.4924 51.1536 25.3484C51.2016 25.3004 51.2976 25.3004 51.3936 25.2524C51.5376 25.1084 51.6816 25.0124 51.9216 24.9644C52.0656 24.9164 52.1136 24.7724 52.2576 24.7244L52.6416 24.5324C52.7376 24.4844 52.7856 24.3884 52.9296 24.3404C52.9776 24.1964 53.1216 24.1484 53.2656 24.1004C53.3616 24.0524 53.4576 23.8604 53.6016 23.8604C53.6976 23.8604 53.7936 23.6684 53.7936 23.5724C53.7456 23.4284 53.5536 23.2844 53.4096 23.3324C53.1696 23.3324 53.1216 23.5724 52.9296 23.6684C52.7856 23.6684 52.7376 23.7644 52.6416 23.8604C52.2096 24.0044 51.7776 24.2444 51.4896 24.5324C51.3456 24.5804 51.2016 24.6284 51.1056 24.7244C51.0576 24.7244 51.0576 24.7724 51.0576 24.7724C51.0096 24.8204 50.9616 24.8204 50.9616 24.8204C50.9136 24.8204 50.9136 24.8684 50.8656 24.9164H50.7696C50.5296 25.0604 50.2416 25.2044 50.0496 25.3484C50.0016 25.3964 49.9056 25.3484 49.9056 25.4444C49.7616 25.3964 49.7616 25.5884 49.6176 25.5884C49.5696 25.6844 49.4256 25.6364 49.3296 25.7324C49.1856 25.7804 49.1856 25.9724 48.9936 25.9724H48.9456C48.8016 26.0684 48.7536 26.1644 48.6576 26.2124C48.5136 26.2124 48.3216 26.3084 48.2736 26.3084C48.2256 26.3564 48.2256 26.3564 48.1776 26.3564L48.0816 26.5004L47.7936 26.6444C47.7456 26.6924 47.6976 26.6444 47.6976 26.6444V26.6924H47.6016C47.6016 26.6924 47.6496 26.7404 47.6016 26.7404H47.5536V26.7884H47.4576V26.8364C47.4576 26.8364 47.4096 26.7884 47.4096 26.8364C47.4096 26.8844 47.3136 26.8364 47.3136 26.8364V26.8844H47.2656C47.2176 26.8844 47.2176 26.9324 47.1696 26.9324C47.1216 26.9324 47.0256 27.0284 47.0256 27.0764C47.0256 27.1724 46.9296 27.1244 46.9296 27.1724C46.7856 27.1724 46.6896 27.2204 46.5936 27.2204L46.4976 27.3644C46.4496 27.3644 46.4016 27.4604 46.3536 27.4604L46.0176 27.5564C45.9696 27.6524 45.7776 27.6044 45.7296 27.7004C45.6336 27.7484 45.5856 27.8924 45.4416 27.8924C45.3456 27.9404 45.2976 27.9884 45.2016 27.9884L44.8176 28.2764C44.6736 28.3244 44.5776 28.3724 44.4816 28.3724C44.4336 28.4204 44.4336 28.4204 44.3856 28.4204C44.3376 28.4684 44.3376 28.5164 44.2896 28.5164C44.2896 28.5164 44.2416 28.5164 44.1936 28.5644C44.1936 28.5644 44.1456 28.6124 44.0976 28.6124L43.9056 28.7084C43.7616 28.7564 43.7136 28.8044 43.5696 28.8044V28.8524C43.2816 28.9484 43.0896 29.1404 42.8016 29.1884C42.8016 29.2844 42.6576 29.2364 42.7056 29.2844C42.6096 29.3324 42.6576 29.4284 42.5616 29.4284H42.3696C42.1776 29.5724 41.9376 29.6684 41.6976 29.7164C41.6496 29.7644 41.6016 29.8124 41.5536 29.8124C41.5056 29.8604 41.5056 29.9564 41.4096 29.9564C41.2656 29.9564 41.1696 29.9564 41.0736 30.0044C40.9776 30.0044 40.8816 30.1004 40.7856 30.1484C40.6896 30.1484 40.5936 30.1964 40.4976 30.2444C40.2576 30.2924 40.1136 30.3884 39.8736 30.4844C39.5376 30.4364 39.3456 30.6284 39.1056 30.6764C38.7696 30.6764 38.3376 30.7244 38.1456 30.6284L38.0016 30.1964C38.0976 30.2444 38.0016 30.0044 38.0976 30.0044C38.0976 29.9084 38.0976 29.8604 38.1456 29.8124C38.1936 29.6684 38.3856 29.6684 38.4336 29.5244C38.5296 29.4284 38.6256 29.3324 38.7696 29.2844L39.0096 28.9004C39.2496 28.8044 39.3456 28.6124 39.6336 28.5644C39.9216 28.2284 40.3056 27.9884 40.6416 27.7004C40.8816 27.6044 41.0736 27.4604 41.2176 27.3164C41.4096 27.2684 41.5056 27.1244 41.6016 27.0284L41.8416 26.8364C41.9376 26.7884 42.0336 26.6444 42.0816 26.5964C42.1296 26.5484 42.1776 26.5964 42.1776 26.5484C42.2256 26.5484 42.2256 26.5004 42.2256 26.5004C42.2736 26.4524 42.3216 26.4524 42.3696 26.4524C42.3696 26.4044 42.4176 26.3084 42.4656 26.3084L42.8016 26.0684C42.9456 25.7804 43.1856 25.5404 43.4256 25.3004C43.4256 25.1084 43.4736 24.9644 43.5696 24.7724C43.5216 24.7244 43.5216 24.6284 43.4736 24.6284V24.5324C43.4736 24.4844 43.4256 24.4844 43.4256 24.4844C43.4256 24.3404 43.4256 24.2444 43.3776 24.1484H43.3296V24.0524C43.2816 23.9564 43.1376 23.9564 43.0896 23.8604L42.9936 23.6684C42.9456 23.6204 42.8496 23.6204 42.8976 23.4764C42.8496 23.1404 43.0896 22.9004 42.9936 22.6124ZM63.4574 13.7324C63.4574 13.4924 63.6974 13.3484 63.7934 13.2044L63.9374 13.1084C63.9374 13.0604 63.9854 13.0604 63.9854 13.0124C64.0334 13.0124 63.9854 12.9644 63.9854 12.9644C64.0814 12.8684 64.2254 12.8204 64.3214 12.7724C64.3214 12.6764 64.3694 12.5804 64.4174 12.4844C64.6094 12.4364 64.7054 12.2924 64.8494 12.1484C64.9454 12.0044 65.0894 11.9084 65.1854 11.7164L65.5214 11.4764C65.6174 11.3804 65.6654 11.2364 65.7614 11.0924L65.9054 10.9964L66.3374 10.6124C66.4334 10.5164 66.4814 10.3724 66.5294 10.2764C66.6254 10.2764 66.6254 10.2284 66.7214 10.1804C66.8654 10.1324 66.9614 9.89242 66.9614 9.70042C66.9134 9.50842 66.8174 9.41242 66.7214 9.31642C66.6734 9.12442 66.4334 8.88442 66.3374 8.88442C66.2894 8.88442 66.3374 8.83642 66.2894 8.83642C66.1454 8.78842 65.9054 8.78842 65.9054 8.88442C65.6174 8.83642 65.5694 9.02842 65.3774 9.07642C65.3774 9.17242 65.3294 9.31642 65.3294 9.41242C65.2334 9.46042 65.1374 9.55642 65.0414 9.65242C64.9934 9.70042 64.9934 9.84442 64.9454 9.89242C64.7054 9.94042 64.6574 10.1804 64.5134 10.3724C64.4174 10.4204 64.3214 10.5164 64.1774 10.5644C64.0814 10.8044 63.8414 10.9964 63.7454 11.2364L63.5054 11.4284C63.5054 11.4764 63.4574 11.5244 63.4574 11.5244C63.3134 11.7164 63.2174 11.9084 63.0734 12.0044C62.9294 12.1964 62.8334 12.3404 62.5934 12.4364C62.4974 12.7244 62.2094 12.8204 62.1134 13.1564L61.8254 13.4444C61.7294 13.5404 61.5854 13.7804 61.4894 13.7804V13.8284L61.2014 14.0204C61.0574 14.0684 60.7694 14.0204 60.6254 14.1164C60.5774 14.0684 60.3854 14.1164 60.2414 14.0684C60.0974 14.0684 60.0494 14.1644 59.9054 14.1644C59.7134 14.1644 59.6174 14.1164 59.4734 14.1164C59.1374 14.2124 58.6574 14.2604 58.3214 14.2124L57.8414 14.3084C57.6974 14.3084 57.6494 14.2124 57.5054 14.2124C57.0734 14.3564 56.3534 14.2604 55.9214 14.4044C55.7774 14.3084 55.7294 14.4044 55.5374 14.3564C55.2974 14.4044 55.2014 14.4524 55.0094 14.4044L54.5774 14.5004C54.4814 14.4524 54.3854 14.4524 54.2894 14.4524C54.0494 14.5484 53.7134 14.5484 53.5214 14.6444C53.3774 14.8364 53.2334 15.0284 53.2334 15.3644C53.2814 15.5084 53.3774 15.6044 53.4734 15.7484C53.7134 15.7484 53.8574 15.7964 54.0974 15.7964C54.4334 15.6524 54.9134 15.7004 55.2494 15.6044C55.2494 15.6524 55.2974 15.6044 55.3454 15.6044L55.4414 15.7004H55.5374C55.5374 15.7004 55.5854 15.7484 55.5854 15.7964H55.6814C55.7294 15.8444 55.7774 15.8924 55.8254 15.8924H56.0654C56.1134 15.8924 56.1134 15.8444 56.2094 15.8444C56.3054 15.7964 56.4014 15.7004 56.4494 15.6044C56.5454 15.4604 56.5934 15.3164 56.7374 15.2684C56.8334 15.2684 56.9294 15.3164 57.0254 15.3164L57.0734 15.2684H57.1694C57.4094 15.1724 57.6974 15.2684 57.9854 15.2684C58.1774 15.2684 58.4174 15.2204 58.6094 15.2684C58.7534 15.2684 58.7534 15.1244 58.8974 15.1244C59.0414 15.1724 59.1374 15.2204 59.2334 15.2204C59.2334 15.1244 59.3774 15.1724 59.4254 15.1724C59.4254 15.0764 59.6174 15.2204 59.5694 15.0764C59.7614 15.0764 59.8574 15.1724 59.9054 15.2684C59.9054 15.4604 59.8094 15.5564 59.7614 15.7484L59.2334 16.2284C59.1854 16.3244 59.1374 16.4204 59.1374 16.5164L58.7534 16.8524C58.7054 16.9004 58.7054 16.9484 58.7054 17.0444C58.4654 17.1404 58.4174 17.3804 58.1774 17.4764C58.1294 17.6204 58.0334 17.7164 57.9854 17.9084C57.8894 17.9564 57.8414 18.0524 57.7454 18.1484C57.6974 18.2924 57.5534 18.3404 57.4574 18.4364C57.4094 18.5324 57.3134 18.5804 57.2654 18.6284V18.7244C57.2174 18.7724 57.1214 18.8204 57.1214 18.8684C57.0734 18.9644 56.8814 19.0604 56.8814 19.1564H56.8334C56.7374 19.3484 56.6414 19.3964 56.4974 19.4924C56.4494 19.6844 56.2574 19.7324 56.1614 19.8284C56.0654 20.1164 55.8254 20.2604 55.7294 20.5484L55.3934 20.7884C55.3454 20.9804 55.2494 21.0284 55.1534 21.2204C54.9614 21.3644 54.7694 21.6044 54.6254 21.7964C54.4334 22.0364 54.2414 22.1804 54.1454 22.5164C54.0974 22.6124 53.9534 22.6124 53.9534 22.7564C53.8094 22.8044 53.8094 22.9484 53.7134 22.9964C53.5694 23.1884 53.4254 23.2844 53.3774 23.5244C53.2814 23.5724 53.2814 23.6684 53.2334 23.7164H53.0894V23.8604L52.8974 24.0044L52.8014 24.1964L52.6574 24.3404C52.5134 24.5324 52.3694 24.6764 52.1774 24.8204C52.1774 24.9644 52.0814 25.0604 52.0334 25.2044C51.8894 25.3484 51.7934 25.5404 51.6014 25.6364C51.5054 25.8284 51.5054 26.0204 51.3134 26.0684C51.2174 26.2124 51.1214 26.3564 51.0734 26.5004C50.8814 26.5964 50.7854 26.7404 50.7374 26.9324C50.5934 26.9804 50.5454 27.0764 50.4494 27.1244C50.4494 27.2684 50.3534 27.3164 50.3054 27.4124C50.2574 27.6044 50.0654 27.7004 49.9694 27.9404L49.8734 28.0844C49.8254 28.1324 49.8254 28.1804 49.7774 28.1804C49.7774 28.1804 49.7294 28.2284 49.7294 28.2764C49.6814 28.3244 49.6814 28.3724 49.6814 28.4204C49.5854 28.5164 49.4414 28.5644 49.3934 28.6604C49.2974 28.8524 49.1054 28.9964 49.0574 29.2364C48.8174 29.4284 48.6254 29.7164 48.4334 29.9084C48.3374 30.0524 48.3854 30.2444 48.2414 30.2924C48.2414 30.3404 48.1934 30.3404 48.1934 30.3884H48.1454V30.5804L47.9054 30.8204C47.7614 31.0124 47.7134 31.2044 47.5214 31.3484C47.3774 31.6364 47.2334 31.8284 47.0894 32.0684C46.9934 32.2124 46.8494 32.2604 46.8494 32.4524C46.8014 32.4524 46.8014 32.4524 46.8014 32.5004C46.7054 32.5964 46.6094 32.6444 46.5614 32.7884C46.5134 32.8364 46.5134 32.9324 46.5134 32.9324C46.4174 33.0284 46.3694 33.1724 46.3694 33.2684C46.1774 33.4604 46.0814 33.7004 45.8894 33.8924C45.8894 34.0844 45.7934 34.1324 45.7934 34.3244C45.6014 34.5164 45.5534 34.8524 45.3134 35.0444V35.3804C45.2654 35.4764 45.2654 35.5724 45.1694 35.6684C45.2174 35.7644 45.1214 35.8604 45.1214 36.0044C45.0734 36.2444 45.1214 36.5804 45.0254 36.7724C45.1214 36.8204 45.0734 37.0124 45.0734 37.0604C45.1694 37.1084 45.1214 37.2044 45.1694 37.2524C45.2174 37.3004 45.2654 37.3004 45.3134 37.3964C45.3614 37.3964 45.3614 37.4924 45.4574 37.4924C45.4574 37.5884 45.6014 37.5404 45.6014 37.5884C45.8894 37.6364 46.1294 37.6844 46.3694 37.6844C46.4654 37.6844 46.6094 37.6364 46.7534 37.5884C46.8974 37.5884 47.0414 37.6364 47.1854 37.5884C47.3294 37.5884 47.4254 37.4444 47.5694 37.3964H47.8094C47.9054 37.3484 47.9534 37.2524 48.0494 37.2524C48.0974 37.2044 48.1454 37.2044 48.1454 37.2044C48.2414 37.1564 48.3854 37.1084 48.4814 37.1084C48.6254 36.9644 48.8654 36.9164 49.0574 36.8684C49.2014 36.7244 49.3454 36.6764 49.5374 36.5804L49.9694 36.3404C50.1134 36.2924 50.2094 36.1964 50.4014 36.1964C50.4974 36.0524 50.6414 35.9564 50.7854 35.8604C51.1214 35.7644 51.4094 35.5724 51.6494 35.3804C51.6974 35.3324 51.7934 35.3324 51.8894 35.2844C51.9854 35.1884 52.0814 35.0924 52.1774 35.0444C52.3214 35.0924 52.3214 34.9964 52.4174 34.9964C52.6094 34.8524 52.8014 34.7564 53.0414 34.6604C53.1374 34.4684 53.4254 34.4204 53.6174 34.2764C53.6654 34.1324 53.8574 34.0844 54.0014 33.9884L54.2414 33.7964C54.2894 33.7484 54.3854 33.7484 54.4814 33.7484C54.5294 33.6044 54.6254 33.5564 54.7214 33.5084L55.0094 33.3644C55.2494 33.2204 55.4894 33.0284 55.7774 32.9324C55.8734 32.8364 55.9214 32.7404 56.0654 32.6924C56.2574 32.5004 56.5454 32.4524 56.7374 32.3084C56.8814 32.2604 56.8814 32.0684 57.0254 32.0204C57.2174 31.9724 57.3134 31.7804 57.6014 31.7804L58.0334 31.3004C58.3214 31.2044 58.4654 31.0124 58.7534 30.9164C58.8494 30.8204 58.8974 30.6764 59.0414 30.6284C59.2814 30.5804 59.4254 30.3884 59.6654 30.3404C59.8094 30.1484 59.9534 30.0044 60.1934 29.9564C60.2894 29.8604 60.2894 29.7644 60.4334 29.6684C60.6254 29.6204 60.7694 29.4284 61.0094 29.4284C61.1534 29.2364 61.3934 29.0924 61.5854 28.9004C61.6334 28.8524 61.7294 28.8524 61.8254 28.8044C61.8734 28.7564 61.8734 28.6604 61.9694 28.6124C62.3534 28.5164 62.5454 28.2764 62.8334 28.0844C63.0734 27.9884 63.2654 27.8444 63.4574 27.7004C63.4574 27.6044 63.5534 27.5564 63.6014 27.5084C63.7934 27.4124 63.8894 27.3164 64.1294 27.2684C64.1294 27.1724 64.2734 27.1724 64.3214 27.0284C64.4174 27.0284 64.4654 26.9324 64.5134 26.8844C64.5614 26.8844 64.5614 26.8364 64.6094 26.8364H64.6574C64.7054 26.8364 64.7054 26.7404 64.7054 26.7404C64.8494 26.6444 64.9934 26.5484 65.1854 26.5004C65.2814 26.4524 65.3294 26.3564 65.3774 26.2604C65.6654 26.2124 65.7614 25.9724 65.9534 25.8284C66.0494 25.7804 66.1934 25.7804 66.2414 25.7324C66.3374 25.6844 66.3374 25.6364 66.3854 25.6364L66.7694 25.3004C66.9134 25.2044 67.0574 25.1084 67.2494 25.0604C67.2494 24.9644 67.3934 24.9644 67.4414 24.9164C67.5374 24.8684 67.5374 24.7724 67.6334 24.7724C67.9214 24.5324 68.2094 24.3404 68.5454 24.1484C68.5934 23.9564 68.7374 23.8124 68.7374 23.5724C68.6414 23.4764 68.5454 23.3324 68.3534 23.3324C68.2094 23.3324 68.1614 23.4284 68.0174 23.4764C67.9214 23.5724 67.8254 23.5724 67.7294 23.6684C67.6814 23.6684 67.6334 23.7644 67.6334 23.7644L67.4414 23.8604C67.3454 23.9084 67.2494 24.0044 67.1054 24.0524C67.0574 24.0524 67.0094 24.1484 66.9614 24.1484L66.8174 24.2444C66.6734 24.2924 66.6254 24.3884 66.4814 24.4364C66.3854 24.6284 66.1934 24.6764 66.0494 24.7724C66.0974 24.8684 66.0014 24.9164 65.9534 24.9164C65.7134 25.0124 65.5694 25.1564 65.3774 25.2524C65.2814 25.2524 65.2814 25.3964 65.1854 25.4444C65.0414 25.5404 64.8494 25.5404 64.8014 25.6844C64.6574 25.7324 64.6094 25.8284 64.5134 25.8764L63.9854 26.2124L63.6014 26.5004L63.0254 26.8844C62.9774 26.9804 62.8814 27.0284 62.7854 27.0764L62.4494 27.2204C62.4014 27.2684 62.3534 27.3644 62.2094 27.4124C62.2094 27.5084 62.1134 27.5564 62.0174 27.6044C61.8254 27.6524 61.7294 27.7484 61.6334 27.8444C61.5854 27.9404 61.4894 27.8924 61.3934 27.9404C61.3934 27.9884 61.3454 28.0364 61.3454 28.0364C61.2974 28.0364 61.2494 28.0844 61.1534 28.0844C61.1054 28.2284 60.9614 28.2764 60.8654 28.3244C60.8654 28.3724 60.8174 28.3724 60.8174 28.4204C60.7694 28.4204 60.7214 28.4204 60.6734 28.4684L60.6254 28.5164C60.5774 28.5644 60.5294 28.5644 60.4814 28.5644C60.3854 28.7084 60.2894 28.8524 60.1454 28.9484C60.0974 28.9964 60.0014 28.9964 59.9054 29.0444C59.8094 29.0444 59.8574 29.1884 59.8094 29.1884C59.8094 29.2364 59.7134 29.1884 59.7614 29.2364H59.4734C59.3294 29.4284 59.1374 29.5724 58.8494 29.6684C58.7054 29.8604 58.5134 30.0044 58.2254 30.1004L57.9854 30.3884L57.6494 30.4844C57.5534 30.6284 57.4094 30.6764 57.3134 30.8204C57.1214 30.8684 56.9294 31.0604 56.7854 31.1564L56.4494 31.3964C56.3054 31.3964 56.2094 31.4924 56.0654 31.4924C56.0174 31.5884 55.9214 31.6364 55.8734 31.6844C55.7774 31.7804 55.7294 31.8764 55.6334 31.9244C55.5854 31.9724 55.4414 31.9244 55.3934 32.0204C55.3454 32.0684 55.2974 32.1644 55.2014 32.1644L54.9134 32.3084C54.8654 32.3084 54.8174 32.3564 54.8174 32.4044L54.4334 32.7404C54.3374 32.7404 54.2894 32.7884 54.1454 32.7884C54.0494 32.9324 53.8574 33.0284 53.7614 33.1244H53.7134L53.4254 33.2684C53.3774 33.3164 53.3294 33.4124 53.2334 33.4604C52.9934 33.5084 52.8974 33.6524 52.7054 33.7004C52.5614 33.7964 52.4174 33.9404 52.2254 34.0364L51.9374 34.1324C51.7454 34.2764 51.5534 34.4204 51.3614 34.6124C51.2654 34.5644 51.2174 34.6604 51.1214 34.6124C50.9294 34.9004 50.6414 35.0444 50.2574 35.1404C50.2574 35.1884 50.1614 35.2364 50.1134 35.2844C50.1134 35.3324 50.0174 35.3804 49.9694 35.4284C49.8734 35.4284 49.8254 35.4764 49.7294 35.4764C49.6814 35.6204 49.5374 35.5724 49.5374 35.6684C49.2974 35.6684 49.2494 35.8604 49.0574 35.9084C48.9614 35.9564 48.9614 35.8604 48.8654 35.8604C48.7694 36.0044 48.6734 36.1004 48.5294 36.1484H48.3374L48.0494 36.3404C47.9534 36.3884 47.7614 36.4364 47.7134 36.5324C47.7134 36.5324 47.6654 36.4844 47.6174 36.5324C47.6174 36.5804 47.5694 36.5324 47.5694 36.5324V36.5804H47.4734C47.4734 36.6284 47.4734 36.6284 47.4254 36.6764C47.3774 36.6764 47.2814 36.6764 47.2334 36.7244C47.1374 36.7244 47.0894 36.7724 47.0414 36.7724C46.8494 36.8204 46.6094 36.7724 46.3694 36.8204L46.2254 36.7244L46.0334 36.5804C46.0334 36.5804 46.0814 36.5324 46.0334 36.5324C45.9854 36.4844 46.0334 36.4364 46.0334 36.4364C45.9854 36.3884 45.9854 36.3884 45.9854 36.3404C45.9854 36.1484 46.0814 36.0044 46.1294 35.8124C46.1774 35.8124 46.1774 35.7644 46.1774 35.7164C46.1774 35.6204 46.2254 35.5724 46.2254 35.5244C46.2734 35.4764 46.2734 35.3804 46.3214 35.2844C46.3694 35.1404 46.4654 34.9964 46.5614 34.8524C46.6574 34.8044 46.6574 34.7084 46.7054 34.6124C46.7534 34.5644 46.8014 34.4684 46.8974 34.4204C46.8974 34.2284 47.0414 34.0364 47.0894 33.8924C47.1854 33.7004 47.2814 33.5084 47.4254 33.4124C47.4734 33.3164 47.5694 33.3164 47.5694 33.1724C47.6174 33.0764 47.7134 33.0764 47.7614 32.9324C47.8094 32.8844 47.8094 32.6924 47.9054 32.6924L48.0974 32.4524C48.0974 32.3084 48.1454 32.2604 48.1454 32.1644C48.2414 32.0684 48.2894 32.0204 48.4334 31.9724C48.4334 31.8284 48.5774 31.7804 48.6734 31.6844C48.6734 31.5884 48.7214 31.5404 48.7214 31.3964C48.8654 31.3004 48.9614 31.2044 49.0094 31.0604C49.1054 30.9164 49.2014 30.8204 49.2494 30.6284C49.5374 30.4364 49.7294 30.1484 49.9214 29.8604C49.9214 29.8604 50.0174 29.7644 50.0174 29.7164C50.0174 29.6684 50.0174 29.7164 50.0654 29.6684V29.5724C50.1134 29.5244 50.1614 29.5244 50.2094 29.5244C50.3054 29.3804 50.3534 29.1884 50.5454 29.1404C50.5934 28.8524 50.7854 28.6604 50.9774 28.4684L51.1214 28.1324C51.2654 28.0844 51.2654 27.8924 51.3134 27.7484C51.4574 27.7484 51.5534 27.6524 51.6494 27.6044C51.6494 27.4124 51.7934 27.3644 51.8414 27.1724L52.1774 26.8844C52.3214 26.7404 52.4174 26.5004 52.5614 26.4044C52.6574 26.2124 52.8014 26.0684 52.9934 25.9244C53.0414 25.6844 53.1854 25.5404 53.3294 25.4444C53.4254 25.2524 53.5694 25.1084 53.6174 24.9164C53.8574 24.7244 54.0014 24.4844 54.2414 24.2924C54.2894 24.1484 54.3854 24.0524 54.4814 23.9564L54.8174 23.6684C54.8654 23.5724 54.9134 23.4764 54.9134 23.3324C55.1534 23.1404 55.3454 22.8524 55.5854 22.6604C55.6814 22.5644 55.7294 22.4684 55.8734 22.4204C55.9214 22.3724 55.9214 22.2764 55.9214 22.2284L56.0174 22.1804C56.0174 22.1324 56.0174 22.0844 56.0654 22.0844C56.0654 22.0364 56.1134 21.9884 56.1614 21.9404C56.1614 21.8924 56.2094 21.9404 56.2094 21.9404C56.3054 21.8444 56.3534 21.7484 56.4014 21.7484C56.4974 21.4604 56.6894 21.3164 56.8334 21.1244L57.0734 20.8364C57.1214 20.8844 57.1694 20.7404 57.2174 20.7404L57.3614 20.5964L57.4574 20.4524C57.5054 20.4044 57.5534 20.3564 57.5534 20.3084C57.6494 20.2124 57.7454 20.1644 57.7934 20.0204V19.9244H57.8894C58.0334 19.7804 58.0814 19.5884 58.2734 19.5404C58.3214 19.3964 58.3694 19.3004 58.4654 19.2524C58.4654 19.2044 58.5134 19.1564 58.5614 19.1564C58.6574 19.0124 58.7534 18.8204 58.8974 18.7244C58.9934 18.6284 59.0414 18.5324 59.1854 18.4364C59.2334 18.2444 59.4254 18.1484 59.5214 17.9084C59.6654 17.8124 59.7614 17.5724 59.9534 17.4764C60.1934 17.0924 60.5294 16.8044 60.8174 16.5164C61.0094 16.1324 61.3934 15.8444 61.6814 15.5564L61.9694 15.2204C62.0654 15.1244 62.2574 15.0284 62.4494 14.9804C62.5934 14.9804 62.7374 15.0284 62.9294 15.0284C63.0254 15.0284 63.1214 14.9324 63.2654 14.9324C63.4094 14.9804 63.4574 15.0284 63.6014 15.0284C63.7934 14.9804 63.9374 14.9804 64.1294 14.9804C64.2734 14.9804 64.4654 14.9324 64.6094 14.9324H64.7534C65.0414 14.9804 65.2814 14.8844 65.5214 14.9324C65.6174 14.9324 65.7134 14.8364 65.8094 14.8364C66.0494 14.9804 66.3374 14.8844 66.5774 14.8844C66.6254 14.8844 66.7214 14.9324 66.8174 14.9324C66.9134 14.9324 67.0094 14.8844 67.1054 14.8844C67.2014 14.8844 67.2494 14.8844 67.3454 14.9324C67.8254 14.9324 68.3534 14.9804 68.6894 14.8844C68.7374 14.9324 68.8334 14.8844 68.8814 14.9324C68.9294 14.9804 68.9774 14.9324 68.9774 14.9324C69.0254 14.9804 69.0734 14.9324 69.0734 14.9804C69.1214 14.9324 69.2174 14.9324 69.2654 14.9324C69.4094 14.9324 69.5534 14.9804 69.6014 14.9804C69.7454 15.0284 69.7934 14.9804 69.8894 14.9324C69.8894 14.9804 69.8894 14.9804 69.9374 14.9804L70.1294 15.0764C70.2254 15.0764 70.3214 15.1244 70.4654 15.1244C70.5134 15.2204 70.5614 15.3644 70.6574 15.3644C70.7534 15.4604 70.8494 15.5084 70.9934 15.5084C71.1374 15.5084 71.1374 15.4604 71.1854 15.4124H71.2814C71.3294 15.3644 71.3774 15.3164 71.3774 15.2684L71.5214 15.1724C71.4734 14.9324 71.2814 14.7884 71.1374 14.6444C70.6574 14.6444 70.4174 14.4524 70.0334 14.4044H69.3614C69.2174 14.3564 69.1214 14.2604 68.9294 14.2124C68.6414 14.3084 68.3534 14.1644 68.0174 14.2124C67.6814 14.1644 67.3454 14.1164 66.9614 14.1164C66.7694 14.1644 66.7694 14.0204 66.6254 14.0204C66.5294 14.0684 66.4814 14.1644 66.2894 14.1164C66.1454 14.1644 66.0974 14.0204 65.9534 14.0204C65.8094 14.0204 65.7614 14.1164 65.6174 14.0684C65.3774 13.9244 64.8974 14.0684 64.6574 13.9724C64.5134 13.9724 64.4174 14.0204 64.3214 14.0684C64.2734 14.0204 64.0814 14.0684 64.0814 14.0204C63.9374 14.0204 63.9374 13.9724 63.7934 13.9724C63.6494 13.9244 63.4574 13.9244 63.4574 13.7324ZM82.093 11.1884C82.141 11.0444 82.237 10.9004 82.237 10.7084C82.237 10.6124 82.189 10.4684 82.141 10.4204C82.141 10.3244 82.189 10.2284 82.141 10.1804C81.997 10.0844 81.805 9.98842 81.709 9.89242C81.469 9.89242 81.277 9.84442 81.085 9.79642C80.941 9.89242 80.797 9.89242 80.701 9.94042C80.557 10.0364 80.413 10.1324 80.221 10.1804C80.221 10.2764 80.077 10.3244 80.029 10.4204C80.029 10.5164 79.837 10.5164 79.837 10.6124L79.597 10.8044C79.549 10.9004 79.405 10.8524 79.405 11.0444C79.213 11.0924 79.069 11.2844 78.973 11.3804L78.493 11.8124C78.397 11.9084 78.349 12.0524 78.205 12.1004C78.157 12.1484 78.109 12.1964 78.109 12.2444C77.965 12.4364 77.773 12.4844 77.725 12.6764L77.485 12.8684C77.485 12.9164 77.485 12.9164 77.437 12.9164L77.341 13.0124L77.245 13.1564C77.245 13.2044 77.197 13.2044 77.197 13.2044C77.101 13.3004 77.005 13.4444 76.861 13.4924C76.813 13.7324 76.621 13.7804 76.573 14.0204C76.333 14.1644 76.189 14.3564 75.949 14.5484L75.661 15.0764C75.517 15.0764 75.469 15.2204 75.421 15.2684C75.325 15.3644 75.229 15.4604 75.133 15.5084C75.085 15.7484 74.893 15.8444 74.797 16.0844C74.653 16.1804 74.509 16.3244 74.413 16.4684C74.317 16.5644 74.317 16.6604 74.221 16.7084L74.077 16.8044C74.077 16.8524 74.029 16.9004 73.981 16.9004C73.933 17.0444 73.837 17.1404 73.789 17.3324C73.645 17.3804 73.549 17.4764 73.453 17.5724C73.453 17.7164 73.357 17.7644 73.357 17.8604C73.213 17.9564 73.165 18.0524 73.021 18.1004C72.973 18.2924 72.925 18.4364 72.781 18.4844C72.733 18.6764 72.589 18.7244 72.493 18.8204V19.1084C72.349 19.1564 72.205 19.2044 72.109 19.3004L71.965 19.7324C71.773 19.7804 71.725 19.8764 71.581 19.9724L71.389 20.3564C71.245 20.4044 71.197 20.5004 71.149 20.5964C71.101 20.6924 71.005 20.7884 70.909 20.8364C70.861 21.0284 70.669 21.1724 70.621 21.4124C70.573 21.5084 70.333 21.6044 70.333 21.7004C70.333 21.7484 70.285 21.7004 70.285 21.7484L70.189 21.8924C70.093 22.0364 69.901 22.1804 69.757 22.3244C69.661 22.7564 69.421 23.0444 69.133 23.2364C69.037 23.4764 68.845 23.5724 68.797 23.8124C68.749 23.8604 68.653 23.9084 68.605 24.0044C68.509 24.0044 68.557 24.1964 68.413 24.1964C68.317 24.3404 68.221 24.5804 68.077 24.6764L67.933 24.8684L67.789 25.0124C67.741 25.0604 67.741 25.1564 67.741 25.2524C67.693 25.2524 67.645 25.3004 67.645 25.3004C67.597 25.3484 67.597 25.3964 67.549 25.3964C67.549 25.5404 67.453 25.5404 67.453 25.6844C67.405 25.7804 67.261 25.7804 67.213 25.9244C67.165 26.0204 67.117 26.1164 67.021 26.1644L66.829 26.4044C66.733 26.4524 66.733 26.6444 66.589 26.6444C66.253 26.5964 66.061 26.7404 65.725 26.6924C65.581 26.7404 65.533 26.8364 65.293 26.8364C65.293 26.8844 65.149 26.8364 65.149 26.9324C65.053 26.9324 64.957 26.9324 64.909 27.0284C64.813 26.9804 64.861 27.1244 64.717 27.0764C64.669 27.1724 64.573 27.1724 64.477 27.2204C64.381 27.2684 64.333 27.3644 64.189 27.3644C64.189 27.4604 64.141 27.5084 64.093 27.5564C64.093 27.6044 64.045 27.6044 64.045 27.6524C63.997 27.6524 63.997 27.7004 63.997 27.7484C63.997 27.7964 63.949 27.8444 63.901 27.8924C63.853 27.9884 63.709 28.0364 63.661 28.1804C63.709 28.2764 63.709 28.4204 63.709 28.5164C63.757 28.6124 63.757 28.7564 63.805 28.8044L64.045 28.9484C64.189 28.9484 64.189 29.0924 64.285 29.1404C64.381 29.1884 64.477 29.1884 64.525 29.2844C64.573 29.2844 64.573 29.3324 64.573 29.3804C64.621 29.4284 64.717 29.4284 64.669 29.5244C64.669 29.6204 64.621 29.6684 64.573 29.7164C64.573 29.7644 64.525 29.8124 64.477 29.8604C64.381 30.1004 64.189 30.2924 64.045 30.5324L63.901 30.8684L63.661 31.2044C63.565 31.3484 63.421 31.3484 63.373 31.5404C63.277 31.5404 63.373 31.6844 63.325 31.7804C63.133 31.8764 63.133 32.1644 62.941 32.3084L62.845 32.5964C62.653 32.6444 62.653 32.9324 62.509 33.0284C62.413 33.2204 62.365 33.4124 62.221 33.5084C62.221 33.6524 62.077 33.6524 62.125 33.7964C62.029 33.7964 62.029 33.8444 61.981 33.8924C61.933 34.1324 61.693 34.2764 61.693 34.5644C61.597 34.6604 61.501 34.7084 61.453 34.8524L61.309 35.2844C61.309 35.2844 61.261 35.3324 61.213 35.3324V35.4764C61.165 35.4764 61.165 35.4764 61.117 35.5244C61.117 35.5724 61.069 35.6204 61.069 35.6204C61.021 35.7644 60.973 35.8604 60.973 35.9564C60.925 36.0524 60.829 36.0524 60.829 36.1964C60.781 36.4364 60.637 36.5804 60.541 36.7244C60.541 36.9644 60.397 37.0604 60.349 37.2044C60.253 37.3964 60.157 37.5404 60.157 37.7324C60.061 37.7804 60.061 37.9724 59.965 38.0204C59.917 38.3564 59.725 38.5484 59.773 38.9804L59.677 39.1244H59.629V39.2684C59.533 39.3164 59.533 39.5084 59.485 39.6044C59.437 39.9884 59.341 40.2284 59.437 40.6124C59.533 40.8044 59.581 41.0924 59.725 41.2364C59.917 41.2844 60.109 41.3804 60.301 41.3804C60.541 41.3804 60.733 41.2844 60.973 41.2364C61.021 41.1884 61.069 41.1884 61.165 41.1884C61.213 41.1404 61.213 41.0444 61.309 41.0924L61.645 40.9964C61.789 40.8524 62.029 40.7084 62.269 40.6604C62.413 40.3724 62.797 40.2764 63.037 40.0844C63.133 39.9884 63.229 39.9404 63.325 39.8924C63.421 39.7484 63.517 39.6044 63.661 39.5084L64.045 39.3164C64.093 39.1724 64.237 39.1244 64.237 38.9804C64.381 38.8844 64.477 38.7884 64.573 38.6444C64.669 38.5964 64.813 38.5484 64.909 38.4524C64.957 38.3564 65.053 38.3084 65.101 38.1644C65.245 38.0684 65.341 37.9244 65.437 37.7804C65.533 37.7324 65.581 37.6844 65.629 37.5884C65.677 37.5884 65.629 37.5404 65.629 37.5404L65.725 37.4924L65.869 37.3964C65.869 37.3004 65.917 37.2524 65.965 37.1564C66.013 37.1084 66.157 37.1084 66.205 37.0604L66.349 36.6764C66.493 36.6764 66.589 36.5804 66.685 36.5324C66.781 36.4364 66.829 36.2924 66.877 36.1964C66.973 36.1004 67.069 36.0044 67.069 35.8604L67.405 35.6204L67.549 35.2844L67.933 34.9484C67.981 34.7564 68.077 34.6604 68.173 34.5644C68.269 34.4204 68.317 34.2764 68.461 34.2284C68.509 34.0364 68.605 33.9404 68.605 33.7964C68.749 33.7004 68.797 33.6044 68.845 33.5084C68.893 33.5084 68.893 33.4604 68.941 33.4124C68.941 33.3644 69.037 33.3164 69.037 33.2684C69.037 33.2204 69.085 33.2684 69.085 33.2204C69.133 33.1244 69.133 33.0284 69.181 32.9804C69.229 32.8364 69.325 32.7404 69.373 32.6444C69.373 32.5004 69.469 32.3564 69.469 32.3084C69.517 32.2124 69.613 32.0684 69.613 32.0684C69.661 31.9724 69.709 31.8284 69.709 31.7804C69.757 31.7324 69.757 31.6364 69.853 31.5884C69.853 31.3004 69.997 31.1084 70.045 30.8204C70.045 30.6284 70.141 30.5804 70.093 30.3404C70.141 30.3404 70.141 30.3404 70.141 30.2924C70.141 30.1964 70.189 30.1484 70.189 30.0044C70.189 29.6684 70.141 29.3804 70.189 28.9964C70.141 28.8524 70.045 28.8044 70.045 28.6124C70.045 28.4684 70.141 28.4684 70.189 28.4204C70.237 28.3724 70.285 28.2764 70.381 28.2764C70.669 28.1804 70.861 28.0364 71.245 28.0364C71.293 27.9404 71.437 27.9404 71.437 27.8924H71.533C71.677 27.7964 71.821 27.7004 71.965 27.6524L72.109 27.5564H72.253C72.349 27.5084 72.493 27.3644 72.637 27.4124C72.829 27.2684 73.021 27.2684 73.165 27.1724C73.261 27.1244 73.309 27.0284 73.357 27.0284H73.549V26.9804C73.645 26.9324 73.693 26.8844 73.693 26.8844C73.741 26.8844 73.741 26.8844 73.789 26.8364C73.789 26.8364 73.837 26.8844 73.885 26.8364C73.933 26.8364 73.981 26.7884 74.029 26.7884C74.077 26.7404 74.125 26.7404 74.221 26.7404C74.221 26.6924 74.317 26.7404 74.317 26.6444C74.413 26.5964 74.413 26.5484 74.461 26.5004C74.653 26.5004 74.749 26.4044 74.893 26.3084C75.037 26.2604 75.181 26.2604 75.277 26.1644C75.469 26.1644 75.469 26.0684 75.613 26.0684C75.757 25.9724 75.805 25.8764 75.949 25.8284C76.093 25.8284 76.141 25.7324 76.237 25.7324C76.333 25.6364 76.477 25.6844 76.525 25.5404C76.813 25.4444 77.053 25.2524 77.389 25.1084C77.437 25.0604 77.533 25.0604 77.581 25.0604C77.629 25.0604 77.629 24.9644 77.677 24.9644C77.725 24.9644 77.773 24.9644 77.821 24.9164C77.821 24.9164 77.869 24.8684 77.917 24.8684H77.965L78.013 24.7724C78.061 24.7724 78.109 24.7724 78.109 24.7244H78.157C78.205 24.6764 78.205 24.6764 78.253 24.6764L78.541 24.5804L78.733 24.4844C78.781 24.4364 78.877 24.3884 78.973 24.3884C78.973 24.2924 79.069 24.2924 79.165 24.2444C79.357 24.1484 79.597 24.0524 79.789 23.9084C79.981 23.8604 80.173 23.8124 80.173 23.6204C80.173 23.5724 80.125 23.5244 80.125 23.4284C80.029 23.3324 79.885 23.3804 79.789 23.3324C79.741 23.3804 79.597 23.3804 79.549 23.4284C79.549 23.5244 79.405 23.5244 79.309 23.5724L78.973 23.6684L78.733 23.8604L78.397 23.9564C78.397 23.9564 78.349 24.0044 78.349 24.0524C78.301 24.0524 78.253 24.0044 78.253 24.0524C78.205 24.1004 78.061 24.0524 78.109 24.1004C77.821 24.1484 77.677 24.3404 77.389 24.3884L77.005 24.6764C76.861 24.6764 76.765 24.6764 76.669 24.7244C76.525 24.7244 76.477 24.8684 76.333 24.9164C76.141 24.9164 75.949 25.0124 75.757 25.1084C75.469 25.1564 75.373 25.3484 75.085 25.3484C74.989 25.5404 74.797 25.5884 74.557 25.6364C74.461 25.6844 74.365 25.6844 74.317 25.7324C74.269 25.7804 74.221 25.7804 74.125 25.7804C74.077 25.7804 74.125 25.8284 74.077 25.8284L73.789 25.9724C73.693 26.0684 73.501 26.0204 73.405 26.0684C73.213 26.1164 73.117 26.3084 72.925 26.3564C72.781 26.3564 72.733 26.4524 72.589 26.4044C72.493 26.5004 72.397 26.5484 72.301 26.5484C72.157 26.5964 72.109 26.5964 72.061 26.6444C71.965 26.6924 71.869 26.7404 71.725 26.7404C71.629 26.7884 71.581 26.8844 71.437 26.8844C71.389 26.9324 71.293 26.9324 71.197 26.9324C70.957 27.1244 70.669 27.1724 70.285 27.2204C70.189 27.3164 70.045 27.3644 69.949 27.3644C69.853 27.4604 69.757 27.5084 69.613 27.5564C69.421 27.5564 69.325 27.4124 69.133 27.4604C69.085 27.3644 69.037 27.4124 68.941 27.3644V27.3164C68.797 27.2204 68.749 27.2204 68.605 27.1724V27.0764H68.509L68.461 27.0284C68.413 26.9324 68.365 26.9324 68.317 26.7884C68.317 26.6444 68.365 26.4524 68.413 26.3564C68.509 26.2604 68.605 26.1644 68.605 25.9724L68.941 25.7324V25.6364L69.037 25.5404L69.181 25.3484V25.2524C69.229 25.2524 69.229 25.2524 69.277 25.2044L69.517 24.8684C69.565 24.8204 69.613 24.7244 69.661 24.7244C69.757 24.4844 69.901 24.2924 70.045 24.1484C70.093 24.0044 70.189 23.9564 70.237 23.8604C70.285 23.7164 70.429 23.6684 70.525 23.6204C70.573 23.3324 70.813 23.2364 70.909 22.9964L71.149 22.8044C71.245 22.5164 71.533 22.3724 71.581 22.0844L71.821 21.8924C72.013 21.4124 72.445 21.2204 72.637 20.7404L72.877 20.5484C72.973 20.2124 73.309 20.0684 73.405 19.7324C73.501 19.6364 73.645 19.6364 73.693 19.4924C73.789 19.4924 73.693 19.3004 73.837 19.3004C73.837 19.2044 73.981 19.1084 74.077 19.0124C74.125 18.9164 74.269 18.8684 74.365 18.7724V18.7244C74.365 18.6764 74.365 18.6764 74.413 18.6764L74.509 18.4844C74.509 18.4364 74.557 18.4364 74.557 18.3884C74.653 18.2924 74.797 18.1964 74.845 18.0524C74.989 17.9564 75.037 17.8124 75.085 17.6684C75.181 17.6204 75.277 17.6204 75.325 17.5244C75.373 17.3324 75.565 17.2364 75.661 17.0444C75.757 16.9964 75.805 16.9004 75.853 16.8524C75.901 16.7564 75.949 16.7564 75.997 16.7084C76.045 16.6604 76.045 16.6124 76.093 16.6124L76.333 16.2764C76.525 16.1804 76.621 15.9884 76.717 15.8924L76.861 15.7484C77.053 15.5564 77.245 15.3164 77.389 15.0764C77.485 15.0284 77.581 14.9324 77.725 14.8844L77.869 14.5484C78.013 14.5484 78.013 14.4044 78.109 14.3564C78.157 14.2604 78.253 14.1644 78.301 14.0204C78.541 13.9244 78.685 13.7324 78.925 13.5884C78.973 13.4444 79.069 13.3484 79.165 13.3004C79.261 13.2044 79.309 13.0604 79.357 12.9644C79.501 12.9644 79.597 12.9164 79.645 12.8204C79.741 12.8204 79.741 12.6284 79.885 12.6284C79.933 12.5324 80.029 12.4364 80.077 12.2924C80.269 12.2924 80.317 12.1484 80.461 12.1004C80.557 11.9564 80.653 11.8124 80.845 11.7644L81.037 11.5724L81.277 11.4284C81.517 11.3324 81.805 11.3324 82.093 11.1884ZM60.781 40.7084C60.685 40.7564 60.541 40.7564 60.397 40.7564C60.301 40.6604 60.253 40.4684 60.253 40.2764V40.1804C60.253 40.1804 60.301 40.1324 60.301 40.0844C60.301 40.0844 60.349 39.8924 60.397 39.8444C60.397 39.6524 60.445 39.5564 60.445 39.3644L60.589 39.1724C60.637 39.0764 60.589 38.9324 60.685 38.8844C60.685 38.7884 60.781 38.7884 60.781 38.7884C60.829 38.7404 60.781 38.6924 60.829 38.6444C60.829 38.5964 60.877 38.6444 60.877 38.5964C60.877 38.5484 60.925 38.4524 60.973 38.4524C61.021 38.1644 61.165 38.0204 61.213 37.7324C61.261 37.6844 61.261 37.5884 61.309 37.4924C61.309 37.4924 61.357 37.4924 61.357 37.4444C61.357 37.4444 61.357 37.3964 61.405 37.3964C61.405 37.3484 61.453 37.3004 61.453 37.3004C61.549 37.1564 61.597 37.0124 61.645 36.8684C61.837 36.6764 61.933 36.3884 62.125 36.1484L62.221 35.9564C62.173 35.8604 62.317 35.8124 62.317 35.8124C62.365 35.7644 62.365 35.6684 62.461 35.6204C62.461 35.5724 62.461 35.4284 62.509 35.3804C62.509 35.2844 62.653 35.2844 62.653 35.1884C62.701 35.1404 62.653 34.9964 62.749 34.9484C62.845 34.9484 62.797 34.8044 62.893 34.8044C62.893 34.7084 62.989 34.6124 62.989 34.4684C63.037 34.4684 62.989 34.3724 63.085 34.3724C63.133 34.3244 63.181 34.3244 63.181 34.2284L63.325 33.8924C63.373 33.7484 63.565 33.7484 63.613 33.6044C63.661 33.5084 63.709 33.4604 63.661 33.3164C63.853 33.2204 63.901 32.9804 64.045 32.8844C64.141 32.6444 64.237 32.5004 64.381 32.3084C64.429 32.3084 64.429 32.2124 64.429 32.1644C64.477 32.1644 64.525 32.1164 64.573 32.0684C64.573 32.0204 64.669 31.9244 64.717 31.8764C64.765 31.8284 64.717 31.7804 64.765 31.7804L64.909 31.4444V31.3964C64.957 31.3004 65.149 31.2044 65.245 31.0604C65.245 31.0604 65.197 31.0124 65.245 31.0124L65.293 30.9644L65.437 30.6284C65.533 30.5324 65.629 30.3884 65.773 30.3404C65.773 30.0524 65.965 29.9564 66.013 29.7164C66.157 29.6684 66.205 29.5244 66.301 29.4284C66.445 29.3804 66.589 29.2844 66.685 29.1884C66.925 29.1884 67.069 29.0444 67.357 29.0924L67.741 28.9484C68.077 29.0444 68.365 28.9004 68.605 28.8044C68.845 28.7564 68.941 28.9004 69.085 28.9484C69.133 29.0444 69.085 29.1404 69.133 29.2844V29.3324C69.181 29.4284 69.133 29.5244 69.133 29.5724C69.181 29.7164 69.181 30.0524 69.133 30.3404C69.133 30.4364 69.133 30.4844 69.085 30.5324L68.989 30.7244V30.8204C68.989 30.8684 68.989 30.8684 68.941 30.8684C68.941 30.9164 68.989 30.9644 68.941 31.0604L68.893 31.1084C68.845 31.2044 68.893 31.3004 68.845 31.3964C68.893 31.4924 68.797 31.4924 68.797 31.5404C68.749 31.5404 68.749 31.5884 68.749 31.6364L68.653 31.6844C68.653 31.7324 68.653 31.7804 68.605 31.8284C68.605 32.0204 68.509 32.1164 68.461 32.2604C68.461 32.3084 68.413 32.3564 68.413 32.4524L68.269 32.5964C68.221 32.8364 68.077 33.0284 67.981 33.1724C67.933 33.2684 67.885 33.3644 67.885 33.5084C67.693 33.7004 67.501 33.9404 67.357 34.2284C67.309 34.3244 67.213 34.4204 67.117 34.5164C67.117 34.6604 67.021 34.7084 66.877 34.7564C66.877 34.9964 66.685 35.0924 66.637 35.2844L66.301 35.4764C66.205 35.6684 66.061 35.7164 66.061 35.9564L65.725 36.1964C65.677 36.3884 65.581 36.4364 65.437 36.5324C65.389 36.6284 65.293 36.6764 65.245 36.8204C65.101 36.9164 64.957 37.0604 64.861 37.2044C64.669 37.3004 64.621 37.5404 64.477 37.6844C64.381 37.7804 64.237 37.7804 64.189 37.9244C64.093 37.9244 64.141 38.0684 64.045 38.0204C63.997 38.1164 63.901 38.1164 63.853 38.1164C63.805 38.2604 63.709 38.3564 63.661 38.4524C63.517 38.5964 63.373 38.6924 63.277 38.8364L62.893 39.1724C62.797 39.3164 62.653 39.4124 62.509 39.5084C62.365 39.6044 62.269 39.7484 62.077 39.7964L61.693 40.2764C61.453 40.3244 61.261 40.4684 61.069 40.5644C60.973 40.6124 60.877 40.7084 60.781 40.7084ZM65.149 28.0844C65.245 27.7964 65.485 28.0844 65.629 28.1804C65.533 28.4204 65.149 28.3244 65.149 28.0844ZM112.445 23.3804C112.253 23.3324 112.301 23.5244 112.157 23.5244C112.061 23.5724 111.965 23.6684 111.869 23.7644C111.773 23.8604 111.629 23.9564 111.485 24.0044C111.437 24.1484 111.293 24.2444 111.197 24.3404C111.053 24.3884 111.005 24.5804 110.861 24.6764C110.717 24.7244 110.621 24.7724 110.525 24.9164C110.333 25.0124 110.141 25.2044 110.045 25.3484H109.997C109.949 25.3964 109.901 25.4444 109.853 25.4444L109.661 25.6844C109.469 25.7324 109.421 25.8284 109.277 25.9244C109.277 25.9724 109.181 25.9724 109.133 26.0204C109.133 26.1164 109.085 26.1644 108.989 26.1644C108.893 26.2604 108.797 26.3564 108.653 26.4044C108.605 26.5484 108.461 26.5964 108.269 26.6444C108.221 26.7404 108.221 26.8364 108.077 26.8844C107.933 26.9804 107.741 27.0284 107.693 27.2204C107.405 27.3164 107.261 27.5084 107.021 27.6524C106.973 27.7484 106.829 27.7004 106.829 27.7964C106.637 27.8444 106.541 28.0364 106.397 28.1324C106.253 28.1324 106.205 28.2284 106.061 28.2764C105.917 28.5164 105.581 28.5644 105.437 28.8044C105.053 28.8524 104.957 29.1404 104.669 29.2844C104.525 29.2844 104.429 29.3324 104.333 29.3804C103.997 29.6684 103.709 29.9084 103.229 30.0044C103.133 30.1484 103.037 30.2444 102.893 30.3404H102.749L102.701 30.3884L102.509 30.4844V30.5324H102.413C102.365 30.5804 102.365 30.5324 102.317 30.5324C102.317 30.5804 102.269 30.6284 102.269 30.6284C102.221 30.6284 102.173 30.6284 102.125 30.6764C101.885 30.7724 101.693 30.9164 101.405 31.0604H101.165L100.877 31.2044C100.829 31.2524 100.781 31.3004 100.685 31.3004L100.493 31.3964C100.445 31.3484 100.445 31.4444 100.397 31.4444C100.349 31.4924 100.301 31.4924 100.253 31.4924C100.157 31.5404 100.013 31.6364 99.9648 31.6364C99.8688 31.6844 99.7728 31.7324 99.7248 31.7324C99.5808 31.7324 99.3888 31.7804 99.3408 31.7804C99.2928 31.8284 99.1968 31.8764 99.1008 31.8764C98.8127 31.9724 98.4768 32.0204 98.2368 32.1164H97.9488C97.8048 32.1644 97.5648 32.1644 97.3728 32.2604C97.2768 32.2604 97.2288 32.1644 97.0848 32.1644C96.9888 32.2124 96.8448 32.2604 96.7008 32.2604C96.5568 32.2604 96.5088 32.1644 96.3648 32.1164C96.0288 32.1644 95.8368 31.9724 95.4528 32.0204C95.3568 31.9244 95.2608 31.8764 95.0688 31.8764C94.9248 31.6844 94.7328 31.5404 94.4448 31.4444C94.3968 31.3484 94.2528 31.3004 94.2048 31.1564C93.8208 31.0124 93.6288 30.7244 93.4848 30.3404L93.3888 30.1964L93.2448 30.0044C93.1968 29.9564 93.2448 29.8124 93.1488 29.7644C93.1008 29.6684 92.9568 29.6204 92.9568 29.4764V29.2364C92.8608 29.1884 92.8128 29.0924 92.7648 28.9964C92.7648 28.7084 92.6208 28.5644 92.6208 28.2764C92.6688 28.1804 92.6208 28.1804 92.6208 28.1324C92.5728 28.0844 92.5728 28.1324 92.5728 28.0844C92.5248 28.0364 92.5728 27.9404 92.5728 27.8924C92.5248 27.7484 92.4768 27.6524 92.4768 27.5084V27.0284C92.4768 26.8844 92.4288 26.7884 92.4288 26.6924C92.4288 26.5964 92.4768 26.4524 92.4768 26.3564C92.4768 26.2124 92.4288 26.1164 92.4288 25.9724C92.4288 25.8284 92.5248 25.6844 92.4768 25.5404C92.5248 25.4444 92.5248 25.3004 92.6208 25.2524V24.9164C92.6208 24.7724 92.7168 24.7724 92.7168 24.6284C92.6688 24.2444 92.7648 24.0044 92.8608 23.7164L93.0048 23.4284C93.0048 23.2844 93.0528 23.1884 93.0528 23.0444C93.1008 22.9964 93.1008 22.9004 93.1488 22.8044C93.2448 22.7084 93.2448 22.4684 93.2928 22.4204C93.3408 22.4204 93.2928 22.3244 93.2928 22.3244C93.3408 22.3244 93.3888 22.2764 93.3888 22.2764C93.4368 22.1804 93.3888 22.0844 93.4848 22.0844C93.4848 21.9404 93.4848 21.7964 93.5328 21.6524C93.6768 21.5084 93.7728 21.2684 93.9168 21.1244C93.9168 20.9804 93.9168 20.8844 93.9648 20.7884C94.0608 20.6444 94.1568 20.4524 94.3008 20.3564C94.3008 20.0684 94.4448 19.9724 94.5408 19.7804C94.6368 19.4444 94.8288 19.1564 94.9728 18.9644C95.0208 18.8684 95.0208 18.7244 95.1168 18.6764C95.2608 18.5324 95.3568 18.3404 95.4048 18.1004C95.4528 18.0044 95.5968 17.9564 95.5968 17.9084C95.6448 17.9084 95.6448 17.8604 95.6448 17.8124C95.7408 17.7164 95.7888 17.5724 95.8368 17.4284C95.9808 17.3804 96.0288 17.1884 96.1248 17.0444C96.1728 16.9484 96.2688 16.9484 96.2688 16.8524C96.3648 16.8044 96.3648 16.7084 96.4608 16.6604C96.5088 16.5164 96.6528 16.4204 96.6528 16.2284C96.7968 16.1324 96.8928 15.9404 96.9408 15.7964C97.0368 15.7004 97.0368 15.6044 97.1328 15.5564C97.1808 15.4604 97.3248 15.4124 97.3248 15.2684C97.4208 15.1244 97.6128 15.0284 97.6608 14.7404C97.8048 14.6444 97.9488 14.5484 97.9968 14.3564C98.0928 14.2124 98.2848 14.0684 98.2848 13.8284C98.3328 13.7804 98.4288 13.7804 98.4768 13.6844L99.0528 13.1564C99.1488 13.1564 99.1488 13.0604 99.2928 13.1084C99.3888 12.8684 99.6288 12.7724 99.8208 12.6284C99.9648 12.5804 100.061 12.3884 100.157 12.3884C100.205 12.3884 100.205 12.3404 100.205 12.3404C100.301 12.2924 100.397 12.1964 100.445 12.1004C100.541 12.1004 100.589 12.0044 100.685 11.9564C100.781 11.9084 100.877 11.9084 100.925 11.8124C101.021 11.8124 101.021 11.7164 101.069 11.7164C101.069 11.6204 101.213 11.6684 101.213 11.5724C101.309 11.5724 101.309 11.4764 101.405 11.4764C101.405 11.4284 101.501 11.3804 101.549 11.3804C101.549 11.2844 101.549 11.1884 101.645 11.1884C101.885 11.1404 101.981 10.9484 102.221 10.8524C102.317 10.7084 102.413 10.5644 102.605 10.4684C102.749 10.4204 102.845 10.2764 102.989 10.2284L103.277 9.94042C103.517 9.84442 103.661 9.65242 103.853 9.50842C104.045 9.41242 104.237 9.22042 104.381 9.02842C104.477 9.02842 104.477 8.93242 104.573 8.93242L104.717 8.74042C104.909 8.74042 105.005 8.59642 105.101 8.50042L105.773 7.87642C105.917 7.82842 105.917 7.73242 106.109 7.68442C106.157 7.58842 106.205 7.39642 106.301 7.30042C106.541 7.30042 106.637 7.15642 106.685 7.01242C106.877 7.01242 106.973 6.86842 107.117 6.82042C107.213 6.67642 107.261 6.53242 107.357 6.43642C107.357 6.38842 107.501 6.29242 107.501 6.29242H107.549C107.549 6.24442 107.597 6.24442 107.645 6.24442C107.693 6.19642 107.741 6.05242 107.789 6.05242C107.837 6.00442 107.885 6.05242 107.885 6.00442C107.981 5.95642 107.981 5.86042 108.077 5.76442C108.125 5.71642 108.221 5.66842 108.221 5.57242C108.365 5.57242 108.413 5.47642 108.557 5.42842C108.605 5.28442 108.701 5.23642 108.749 5.14042C108.893 5.09242 108.941 4.94842 108.989 4.80442C109.181 4.75642 109.277 4.51642 109.469 4.46842C109.517 4.22842 109.757 4.13242 109.805 3.84442C109.949 3.79642 109.997 3.70042 110.045 3.60442C110.141 3.60442 110.093 3.50842 110.189 3.50842C110.189 3.41242 110.285 3.41242 110.333 3.36442C110.333 3.22042 110.429 3.07642 110.525 2.93242C110.621 2.88442 110.669 2.74042 110.765 2.59642C110.765 2.30842 110.909 2.16442 110.957 1.92442C110.957 1.68442 110.861 1.54042 110.861 1.34842C110.813 1.34842 110.813 1.30042 110.813 1.25242C110.717 1.20442 110.621 1.10842 110.573 1.01242C110.429 0.96442 110.189 0.916421 110.045 0.820419C109.997 0.868422 109.997 0.868422 109.949 0.868422C109.805 0.916421 109.661 0.96442 109.469 0.96442C109.421 1.01242 109.325 1.01242 109.277 1.01242C109.229 1.06042 109.133 1.06042 109.037 1.06042C108.941 1.15642 108.797 1.20442 108.605 1.25242L108.413 1.39642C108.413 1.54042 108.317 1.54042 108.221 1.58842C108.125 1.63642 108.029 1.68442 107.885 1.68442L107.693 1.87642L107.549 2.06842C107.117 2.26042 106.829 2.59642 106.493 2.93242L106.253 3.07642C106.013 3.41242 105.677 3.60442 105.437 3.89242L105.197 4.08442C105.149 4.18042 105.005 4.18042 105.005 4.32442L104.573 4.70842C104.525 4.85242 104.429 4.94842 104.381 5.04442C104.093 5.23642 103.949 5.47642 103.661 5.62042C103.613 5.90842 103.373 6.00442 103.181 6.19642L103.085 6.48442C102.845 6.58042 102.749 6.77242 102.605 6.96442C102.365 7.15642 102.125 7.30042 102.029 7.63642C101.933 7.68442 101.837 7.78042 101.741 7.87642C101.693 8.02042 101.597 8.11642 101.501 8.21242L101.357 8.40442L101.213 8.54842C101.213 8.64442 101.117 8.69242 101.069 8.74042L101.021 8.78842C100.973 8.83642 100.973 8.88442 100.973 8.93242L100.637 9.22042C100.589 9.36442 100.493 9.46042 100.493 9.60442L100.157 9.89242C100.157 9.94042 100.109 9.98842 100.061 9.98842V10.0844C100.061 10.0844 100.013 10.0844 99.9648 10.1324C99.8688 10.2284 99.8208 10.3244 99.6768 10.4204C99.6288 10.5164 99.5328 10.6604 99.4368 10.7084C99.4848 10.9004 99.2928 10.9004 99.2928 11.0444C99.1488 11.0924 99.1488 11.2844 99.0048 11.3324C99.0048 11.3804 98.9568 11.3804 98.9568 11.3804C98.9568 11.4284 98.9568 11.4764 98.9088 11.5244C98.9088 11.5244 98.8608 11.5244 98.8608 11.5724C98.8127 11.5724 98.8608 11.6204 98.8127 11.6684C98.8127 11.6684 98.7648 11.6684 98.7648 11.7164C98.7168 11.7164 98.7168 11.7644 98.7168 11.8124C98.6688 11.8604 98.6208 11.8604 98.6208 11.9084C98.6208 11.9084 98.6208 12.0044 98.5728 12.0044L98.2368 12.2924L98.0448 12.6764C97.9488 12.7724 97.8528 12.9164 97.8048 13.0604C97.6128 13.1084 97.6128 13.3004 97.5168 13.4444C97.2768 13.6364 96.9888 13.7804 96.7968 13.9724C96.7008 14.0204 96.6528 14.1164 96.5568 14.2124C96.4608 14.2124 96.4128 14.2604 96.2688 14.2604C96.1728 14.4044 96.1248 14.5484 95.9328 14.6444C95.8368 14.6924 95.7888 14.7404 95.6448 14.7404C95.5488 14.8364 95.5488 14.9804 95.4528 15.0284C95.3088 15.0764 95.2128 15.1724 95.0688 15.2684C95.0688 15.3644 94.9728 15.3164 94.8768 15.3644L94.8288 15.4124C94.7808 15.4604 94.7808 15.4604 94.7328 15.4604C94.6368 15.6044 94.4928 15.6524 94.3488 15.7484C94.3008 15.8444 94.1568 15.9404 94.0128 15.9884C93.8208 16.1804 93.5328 16.3244 93.3408 16.5164C93.2928 16.5164 93.1968 16.6124 93.1488 16.6604C93.1008 16.7084 93.0528 16.7084 93.0048 16.8044C92.9568 16.8044 92.9088 16.8524 92.8128 16.9004C92.8608 17.0444 92.6688 16.9964 92.6688 17.0924L92.2368 17.2844C92.1888 17.2844 92.1408 17.3804 92.0928 17.4284C91.9968 17.5244 91.8528 17.5724 91.7088 17.6684C91.6608 17.7164 91.6608 17.7644 91.5648 17.8124C91.4688 17.9084 91.3248 17.9564 91.1808 18.0524C91.1328 18.0524 91.0848 18.1484 91.0368 18.1964C90.9888 18.2444 90.8928 18.2444 90.8448 18.3404C90.7488 18.2924 90.7008 18.4364 90.6048 18.4364L90.3168 18.6284V18.7244C90.2688 18.7244 90.2208 18.7244 90.1728 18.7724C90.1248 18.7724 90.1248 18.8684 90.0288 18.8684C89.9808 18.9644 89.8848 19.0124 89.7408 19.0604C89.7408 19.1084 89.6448 19.1084 89.5968 19.1084C89.5968 19.1564 89.6448 19.2044 89.5968 19.2044C89.5968 19.2524 89.5008 19.3004 89.4528 19.3004C89.2608 19.3964 89.0688 19.4924 88.9248 19.6364H88.7328C88.6368 19.7804 88.4928 19.9244 88.3008 19.9724L88.0128 20.2124H87.9168V20.2604H87.8688C87.8208 20.2604 87.8688 20.3084 87.8688 20.3084H87.7728V20.3564C87.7728 20.3564 87.7248 20.3084 87.6768 20.3564C87.6288 20.3564 87.6288 20.4524 87.5807 20.5004H87.4848C87.4848 20.5484 87.4368 20.5004 87.4368 20.5004V20.5484C87.4368 20.5964 87.3888 20.5484 87.3408 20.5484V20.5964C87.3408 20.6444 87.2448 20.5964 87.2448 20.6924L87.0048 20.8364C86.8608 20.8844 86.6688 20.9804 86.5728 21.0764C86.3808 21.1724 86.2368 21.2684 86.0448 21.3164C85.9488 21.4124 85.8528 21.4604 85.7568 21.5084C85.7568 21.5564 85.6608 21.5084 85.6128 21.5564C85.5648 21.6044 85.5648 21.7004 85.4688 21.7004C85.4208 21.7964 85.2768 21.7964 85.2288 21.8924C85.1328 21.9884 85.0368 22.0364 84.8928 22.0844C84.7488 22.0364 84.7008 22.0844 84.5568 22.0844C84.5088 22.1804 84.4128 22.2284 84.3168 22.2764C84.2688 22.3724 84.1728 22.4204 84.0768 22.4684C83.8368 22.4684 83.7408 22.6124 83.4528 22.6124C83.4048 22.7564 83.2608 22.8044 83.1168 22.8524C82.9728 22.9004 82.8768 22.9484 82.7328 22.9484C82.6848 22.9964 82.5888 22.9964 82.5888 22.9964C82.4928 23.0444 82.3968 23.0924 82.2528 23.0924C82.1568 22.9964 82.0608 23.0444 82.0608 22.9004C82.0128 22.8044 82.0128 22.6604 82.1088 22.6124C82.1568 22.5164 82.3008 22.5164 82.3488 22.4684C82.3968 22.3244 82.4448 22.2284 82.5408 22.1324C82.6368 22.0364 82.7328 21.9404 82.8288 21.9404C82.9728 21.8444 83.1648 21.8924 83.3088 21.8444C83.4528 21.6524 83.5968 21.4604 83.5488 21.1244C83.5008 21.1244 83.5008 21.0764 83.4528 21.0284C83.4048 21.0284 83.3568 20.9804 83.2608 20.9804C83.2128 20.8844 83.1168 20.7884 82.9728 20.7884C82.7328 20.8364 82.6368 20.8364 82.3968 20.7884C82.3488 20.8844 82.2048 20.8844 82.1088 20.9324C82.0128 20.9804 82.0128 21.1244 81.8688 21.1244C81.8688 21.2204 81.7248 21.1724 81.7248 21.2204C81.6768 21.2204 81.6288 21.2684 81.5808 21.3164C81.5328 21.4124 81.4368 21.4604 81.3408 21.5084C81.2448 21.6524 81.1488 21.7964 81.0048 21.8924L80.6688 22.2764C80.5247 22.5644 80.3328 22.8524 80.1408 23.0924C80.0928 23.1404 79.9968 23.1884 79.9488 23.3324C79.9008 23.3324 79.9008 23.4284 79.9008 23.4764C79.8528 23.5244 79.8528 23.5724 79.8528 23.6684C79.7568 23.7164 79.7088 23.8604 79.6128 23.9564C79.6608 24.2444 79.5168 24.3404 79.4208 24.4844C79.4208 24.6284 79.3728 24.7244 79.3248 24.8204C79.3248 24.8684 79.2768 24.8684 79.2768 24.9164H79.2288V25.1084L78.9888 25.7324C79.0848 25.9724 78.9408 26.3084 79.0368 26.5964C79.0848 26.5964 79.0368 26.7404 79.1328 26.7404C79.1808 26.7884 79.2288 26.8364 79.2768 26.8364C79.4688 27.2684 79.9488 26.9804 80.3808 27.0284C80.4768 26.9324 80.6208 26.8844 80.8128 26.8364C81.0048 26.6444 81.2928 26.5484 81.5328 26.3564C81.5808 26.2604 81.6768 26.2604 81.7248 26.1644C81.8688 26.1164 81.8208 25.9244 81.9168 25.9244C81.9648 25.8284 82.0608 25.8284 82.1088 25.7804V25.6844C82.2048 25.5884 82.2528 25.4924 82.3488 25.4444C82.3488 25.3004 82.4448 25.2044 82.4928 25.1084C82.5408 25.0604 82.5888 24.9644 82.5888 24.9164C82.5888 24.8684 82.6848 24.8684 82.6368 24.7724V24.3884C82.7328 24.3884 82.6368 24.1964 82.6848 24.1484C82.6368 24.0044 82.7328 24.0524 82.7328 23.9084C82.9728 23.7164 83.3088 23.6204 83.5968 23.4284C83.8368 23.4284 83.9328 23.2844 84.1248 23.2844L84.5088 22.9484C84.7488 22.9484 84.8448 22.8044 85.0848 22.8044L85.3248 22.6124H85.3728C85.4688 22.5164 85.5648 22.4684 85.7088 22.4684C85.7088 22.3724 85.7568 22.4204 85.8047 22.3724V22.2764C85.8528 22.2764 85.9008 22.2284 85.9488 22.1804C86.4288 22.0364 86.6688 21.7484 87.1488 21.6044L87.6288 21.2204C87.7728 21.1724 87.9648 21.1244 88.0128 20.9804C88.2048 20.9324 88.3008 20.7884 88.4448 20.6924C88.6368 20.6444 88.7328 20.5484 88.8768 20.4524C89.0688 20.4044 89.1168 20.2604 89.2608 20.1644C89.3568 20.1164 89.5008 20.1164 89.5488 20.0204C89.6928 19.8764 89.9328 19.7804 90.0768 19.6364C90.1728 19.6364 90.2208 19.5404 90.2688 19.5404C90.3168 19.5404 90.2688 19.5404 90.3168 19.4924C90.3648 19.4444 90.4128 19.4444 90.5088 19.4444V19.3484C90.5568 19.3484 90.6048 19.3484 90.6528 19.3004C90.7488 19.2524 90.7488 19.2044 90.7968 19.1564H90.8448C90.8928 19.1564 90.8928 19.0604 90.9888 19.1084C91.0368 18.9644 91.1328 18.8684 91.2288 18.7724C91.5168 18.6764 91.6608 18.4844 91.9488 18.4364C92.1408 18.1484 92.3808 18.0524 92.6208 17.8604C92.7168 17.8604 92.7648 17.7644 92.8608 17.7644C92.9088 17.7164 92.9568 17.6204 93.0048 17.6204C93.0528 17.6204 93.0528 17.5244 93.1488 17.5244C93.1968 17.5244 93.1968 17.3804 93.2928 17.4284C93.3408 17.3804 93.3888 17.3804 93.4368 17.3804C93.5328 17.1404 93.8208 17.0444 94.0128 16.8524C94.0608 16.8524 94.1088 16.8044 94.2048 16.7564L94.5408 16.4684L94.7328 16.3244C94.7808 16.2764 94.9728 16.2764 95.0208 16.1804C95.1168 16.1324 95.1168 15.9884 95.3088 15.9884C95.4048 16.0844 95.5008 16.2284 95.4048 16.3724C95.4048 16.6124 95.2608 16.7564 95.2128 16.8524C95.1168 16.9484 95.0208 16.9964 94.9728 17.0924C94.9728 17.1404 94.9248 17.1404 94.8768 17.1884V17.2844C94.8288 17.3324 94.7328 17.4284 94.7328 17.4764C94.6848 17.5244 94.6848 17.4764 94.6848 17.5244L94.5408 17.8604L94.4448 18.0044C94.4448 18.0044 94.3968 18.0044 94.3488 18.0524L94.3008 18.1004C94.3008 18.2444 94.1568 18.2924 94.2048 18.4364L93.8688 18.6764C93.8688 18.8684 93.8208 18.9164 93.8208 19.1084L93.4368 19.5884L93.2928 20.0684C93.1968 20.2124 93.1488 20.3564 93.1008 20.5004C93.0528 20.6924 92.9088 20.6924 92.8608 20.8844V21.1244C92.7648 21.1244 92.7648 21.2684 92.6688 21.3164C92.7168 21.4604 92.6208 21.5084 92.6208 21.6524C92.5248 21.7004 92.5248 21.7964 92.4768 21.9404C92.4288 22.0364 92.4288 22.1804 92.4288 22.3244C92.4288 22.4204 92.3328 22.5164 92.2368 22.6124C92.1888 22.9004 92.1408 23.1884 92.0448 23.4284C92.0448 23.7164 91.9968 23.9564 91.9008 24.1964V24.4364C91.6608 24.6764 91.7568 25.2044 91.6608 25.5404C91.6608 25.7804 91.6608 26.0684 91.6128 26.3084H91.5648V26.5004C91.5648 26.7884 91.5168 27.1244 91.5648 27.3644C91.6608 27.3644 91.5648 27.4124 91.5648 27.4604V27.6524C91.5648 27.7484 91.6608 27.7964 91.6608 27.8924C91.6128 28.1324 91.6608 28.1804 91.6608 28.4204L91.8048 28.8524C91.8048 28.9964 91.7568 28.9964 91.7568 29.1404C91.8528 29.2844 91.9008 29.4764 91.9488 29.6684H91.9968C91.9968 29.7644 91.9968 29.8124 92.0928 29.8604C92.0448 29.9564 92.0928 29.9564 92.0928 30.0044C92.1888 30.0044 92.1408 30.1484 92.1888 30.1484C92.2368 30.5324 92.5248 30.7724 92.7168 31.0604C92.7648 31.1084 92.8128 31.2524 92.8128 31.3484C93.0528 31.4444 93.1488 31.6364 93.2928 31.8284C93.3888 31.8764 93.4848 31.9244 93.5328 32.0684C93.6288 32.1164 93.7728 32.1644 93.8208 32.3084C94.1088 32.3564 94.3488 32.5004 94.5408 32.6924C94.6848 32.6924 94.7808 32.7884 94.8768 32.8364H95.0688C95.1168 32.8844 95.1648 32.9324 95.2128 32.9324C95.3568 32.9324 95.5008 32.9324 95.5968 32.9804C95.5968 33.0284 95.6448 32.9804 95.6928 32.9804H95.8848C96.0288 32.9804 96.0288 33.1244 96.1728 33.0764C96.3648 33.0764 96.5568 33.0764 96.7008 32.9804C96.8928 33.0764 97.2768 33.0284 97.5168 33.0284C97.6608 32.9804 97.7568 32.9804 97.8528 32.9804C97.9968 32.9804 98.0448 32.9324 98.1888 32.8844C98.3808 32.8364 98.6208 32.7404 98.9088 32.7884C99.0048 32.7404 99.1488 32.6444 99.1488 32.6444C99.1968 32.5964 99.2928 32.6444 99.2928 32.6444C99.3408 32.5964 99.4368 32.5484 99.4368 32.5484C99.6288 32.4524 99.8208 32.3564 100.013 32.3084C100.157 32.2604 100.301 32.2124 100.493 32.2604C100.493 32.1644 100.637 32.2124 100.637 32.1164C100.685 32.1164 100.733 32.0684 100.829 32.0204C101.021 32.0204 101.117 31.9244 101.261 31.8764C101.405 31.8284 101.501 31.7324 101.597 31.7324C101.693 31.7324 101.693 31.6364 101.741 31.6364C101.837 31.6364 101.837 31.5884 101.933 31.5884C101.981 31.5884 102.029 31.4924 102.077 31.4924C102.125 31.4924 102.077 31.4924 102.077 31.4444L102.509 31.3004C102.605 31.2044 102.701 31.1084 102.797 31.0604C103.037 31.0124 103.325 30.9644 103.421 30.7724C103.517 30.7244 103.613 30.6764 103.757 30.6764C103.901 30.4844 104.045 30.3884 104.237 30.2444C104.381 30.2444 104.525 30.1484 104.573 30.1004C104.669 30.0524 104.765 30.0524 104.813 30.0044C104.957 29.9564 104.957 29.8604 105.101 29.8604C105.101 29.7164 105.245 29.7164 105.293 29.6204C105.437 29.6204 105.437 29.5724 105.485 29.5244C105.533 29.4764 105.629 29.4284 105.677 29.4284C105.725 29.4284 105.677 29.3804 105.725 29.3804C105.821 29.3324 105.917 29.2844 105.965 29.1884C106.013 29.1404 106.109 29.0924 106.109 29.0924C106.205 29.0924 106.253 28.9964 106.301 28.9964C106.349 28.9964 106.493 28.8044 106.493 28.8044C106.541 28.7564 106.589 28.8044 106.589 28.8044V28.7564C106.589 28.7084 106.637 28.7564 106.637 28.7564C106.685 28.7564 106.637 28.7084 106.637 28.7084H106.733C106.781 28.6604 106.829 28.6124 106.877 28.6124C106.973 28.5644 106.973 28.4684 107.069 28.4204C107.165 28.3244 107.357 28.2764 107.501 28.1324C107.501 28.0364 107.645 28.0364 107.693 27.9884C107.741 27.8924 107.837 27.8444 107.885 27.7964L108.365 27.5084C108.509 27.4124 108.653 27.2684 108.797 27.2204C108.941 27.0284 109.037 26.8844 109.181 26.7884C109.277 26.7404 109.373 26.6924 109.469 26.6924C109.901 26.2124 110.429 25.8284 110.957 25.4444C111.005 25.3004 111.149 25.3004 111.197 25.2044C111.293 25.1084 111.293 25.0124 111.389 24.9164C111.485 24.9164 111.533 24.8204 111.677 24.8684C111.725 24.5804 111.965 24.5804 112.109 24.3884C112.205 24.2924 112.301 24.1964 112.349 24.0524C112.493 24.0044 112.685 24.0044 112.685 23.8124C112.685 23.6684 112.637 23.6204 112.589 23.5724L112.445 23.3804ZM109.325 1.87642C109.517 1.87642 109.709 1.87642 109.805 1.97242C109.853 2.11642 109.901 2.30842 109.805 2.35642C109.757 2.50042 109.661 2.54842 109.613 2.64442L109.517 2.93242L109.277 3.26842L109.133 3.41242C109.085 3.46042 108.989 3.50842 108.989 3.60442L108.701 3.89242C108.605 3.98842 108.557 4.13242 108.413 4.22842C108.413 4.32442 108.317 4.37242 108.221 4.37242C108.221 4.51642 108.125 4.56442 108.077 4.70842L107.789 4.90042C107.741 4.94842 107.741 5.04442 107.693 5.04442L107.501 5.14042C107.357 5.28442 107.309 5.42842 107.165 5.57242C107.117 5.66842 106.973 5.71642 106.829 5.76442C106.829 5.81242 106.877 5.81242 106.829 5.81242C106.733 5.81242 106.589 6.05242 106.493 6.10042C106.445 6.19642 106.349 6.29242 106.301 6.43642C105.965 6.53242 105.821 6.86842 105.581 7.10842C105.341 7.25242 105.101 7.39642 104.909 7.58842C104.813 7.68442 104.669 7.73242 104.621 7.87642C104.381 7.97242 104.237 8.21242 103.997 8.35642C103.949 8.35642 103.949 8.40442 103.901 8.40442C103.901 8.45242 103.805 8.59642 103.709 8.59642C103.661 8.59642 103.565 8.69242 103.517 8.74042L103.373 8.88442C103.325 8.98042 103.133 8.98042 103.037 9.07642C102.893 9.17242 102.845 9.36442 102.749 9.46042C102.557 9.55642 102.461 9.70042 102.269 9.79642C102.173 9.79642 102.173 9.94042 102.077 9.98842C101.981 10.0364 101.885 10.0364 101.837 10.1324C101.741 10.1804 101.693 10.2284 101.549 10.2284C101.453 10.2284 101.405 10.1804 101.357 10.1324C101.309 9.94042 101.405 9.89242 101.501 9.84442C101.645 9.60442 101.885 9.41242 101.981 9.07642C102.125 8.98042 102.269 8.88442 102.413 8.74042C102.509 8.64442 102.509 8.50042 102.605 8.40442C102.749 8.35642 102.797 8.21242 102.845 8.06842C103.085 7.92442 103.277 7.73242 103.373 7.49242L103.757 7.15642C103.853 7.01242 103.949 6.86842 104.093 6.82042C104.237 6.48442 104.477 6.29242 104.717 6.10042C104.765 5.90842 104.861 5.86042 104.909 5.71642C105.053 5.62042 105.149 5.47642 105.341 5.42842L105.629 5.04442C105.821 5.04442 105.869 4.85242 105.965 4.75642C106.157 4.51642 106.445 4.32442 106.637 4.08442L106.973 3.84442C106.973 3.79642 107.021 3.74842 107.021 3.74842C107.069 3.70042 107.069 3.65242 107.069 3.65242C107.117 3.60442 107.165 3.60442 107.165 3.60442C107.261 3.55642 107.309 3.46042 107.357 3.36442H107.453C107.453 3.36442 107.501 3.26842 107.549 3.22042L107.885 2.98042C107.837 2.88442 107.981 2.88442 107.981 2.78842C108.077 2.83642 108.077 2.74042 108.077 2.74042L108.317 2.59642C108.461 2.54842 108.605 2.35642 108.749 2.26042C109.037 2.16442 109.181 2.02042 109.325 1.87642ZM81.3888 24.0524C81.4848 23.9564 81.6768 24.0044 81.7248 24.1964C81.7728 24.2444 81.7728 24.4364 81.8208 24.5324C81.7728 24.6284 81.7248 24.7724 81.6288 24.8204C81.5808 24.9644 81.5328 25.0604 81.4368 25.1084C81.3888 25.2524 81.3408 25.3484 81.3408 25.4924C81.1488 25.5404 81.0528 25.6844 80.9568 25.7804C80.8128 25.9244 80.7648 26.0684 80.4768 26.0204C80.3328 26.0204 80.2848 25.8764 80.1888 25.7804C80.1888 25.3964 80.3808 25.2524 80.5728 25.0604C80.6208 24.7724 80.7648 24.6764 80.8128 24.3884C80.9088 24.3884 81.0528 24.2444 81.1488 24.1484L81.2928 24.0524H81.3888ZM123.964 23.4764C123.916 23.4764 123.82 23.3324 123.724 23.4284C123.628 23.4284 123.58 23.3324 123.436 23.3324C123.388 23.3804 123.292 23.4764 123.244 23.4764H123.196C123.148 23.5244 123.1 23.5244 123.052 23.5244C123.052 23.5724 123.052 23.6204 122.956 23.6204C122.908 23.6684 122.764 23.6204 122.668 23.6684C122.572 23.7164 122.476 23.7164 122.428 23.8124C122.332 23.8604 122.188 23.8124 122.14 23.8604C122.044 23.9084 121.996 24.0524 121.852 24.0524C121.612 24.1004 121.42 24.1484 121.228 24.2444C120.988 24.1964 120.892 24.2924 120.748 24.3404C120.556 24.3884 120.508 24.5324 120.364 24.5324C119.884 24.5804 119.596 24.7724 119.26 24.8684C119.116 24.9164 118.924 24.9644 118.876 24.9644H118.828C118.78 24.9644 118.828 25.0124 118.828 25.0124C118.732 25.0124 118.732 25.0124 118.636 25.0604C118.444 25.1084 118.3 25.2044 118.06 25.1564L117.868 25.2524H117.82C117.772 25.3004 117.724 25.3004 117.628 25.3004C117.628 25.3004 117.628 25.3484 117.58 25.3484C117.532 25.3484 117.532 25.3964 117.484 25.3964H117.388C117.34 25.3964 117.244 25.4444 117.196 25.4444C117.148 25.4924 117.052 25.5404 117.004 25.5404C116.908 25.5404 116.812 25.5404 116.716 25.5884L116.284 25.7324H115.996C115.9 25.7324 115.852 25.8284 115.804 25.8284H115.756L115.276 25.9724C115.036 25.9724 114.796 26.1164 114.556 26.1164C114.412 26.1644 114.268 26.1164 114.172 26.1164C114.028 26.1644 113.884 26.2604 113.74 26.2604C113.644 26.3084 113.548 26.2604 113.452 26.2604C113.356 26.2604 113.212 26.3084 113.068 26.3084L112.492 26.4044C112.444 26.3564 112.3 26.3564 112.204 26.3084C112.06 26.3084 111.964 26.2604 111.868 26.1644C111.724 25.8284 111.82 25.4444 112.06 25.2524C112.156 25.2044 112.204 25.0604 112.3 24.9164L112.636 24.6284C112.732 24.4364 112.876 24.3404 112.924 24.1484C113.068 24.0044 113.164 23.9084 113.212 23.6684C113.164 23.6204 113.164 23.4284 113.02 23.4284C112.924 23.1884 112.684 23.2364 112.348 23.2844C112.3 23.3804 112.156 23.4284 112.108 23.5244L111.82 23.8124C111.772 24.0044 111.628 24.1004 111.532 24.2924C111.484 24.3404 111.388 24.3404 111.388 24.4364L111.244 24.6764C111.196 24.6764 111.148 24.8204 111.1 24.8684C111.052 25.0124 111.004 25.2044 110.86 25.3004C110.86 25.4924 110.764 25.6364 110.764 25.8284C110.764 26.0684 110.86 26.2604 110.86 26.5004C110.956 26.5964 111.052 26.7404 111.1 26.8844L111.436 27.0284C111.532 27.0764 111.772 27.0764 111.82 27.1724H111.964C112.012 27.2204 112.108 27.2684 112.204 27.2684C112.732 27.3644 113.356 27.1244 113.884 27.1724L114.172 27.0284C114.316 26.9804 114.412 27.0284 114.46 26.9804C114.556 26.9324 114.652 26.9324 114.7 26.8844C115.036 26.9324 115.132 26.7404 115.468 26.7884C115.708 26.6444 116.092 26.6444 116.332 26.5484L116.716 26.3564H117.052C117.196 26.2604 117.292 26.1644 117.436 26.1164H117.772C117.772 26.0684 117.868 26.0684 117.916 26.0684L118.108 25.9244C118.108 25.9244 118.156 25.9724 118.156 25.9244C118.3 25.9244 118.396 25.8764 118.444 25.8284C118.636 25.8764 118.636 25.7804 118.828 25.7804C118.78 25.7324 118.876 25.7804 118.924 25.7804C118.924 25.7324 118.972 25.6844 118.972 25.6844C119.068 25.6364 119.116 25.5884 119.212 25.5884C119.356 25.5884 119.404 25.4924 119.548 25.5404C119.548 25.4444 119.74 25.5404 119.692 25.3964C119.788 25.3964 119.884 25.3964 119.884 25.3484C120.124 25.3484 120.268 25.2044 120.46 25.1084L121.084 24.9164C121.18 24.8684 121.372 24.8204 121.468 24.7244H121.564L121.804 24.6284C122.044 24.4844 122.38 24.4364 122.668 24.3404C122.812 24.2924 122.86 24.1964 123.004 24.1484C123.148 24.1484 123.244 24.1484 123.292 24.1004L123.724 23.8604C123.82 23.7644 124.012 23.7644 123.964 23.4764ZM114.22 22.2284L114.748 21.7484C114.796 21.6524 114.892 21.5564 114.94 21.4124C115.132 21.4124 115.18 21.2684 115.324 21.1724C115.66 21.0284 115.756 20.6924 116.14 20.5964C116.236 20.4524 116.38 20.3564 116.524 20.2604C116.572 20.1644 116.716 20.2124 116.764 20.1164C116.86 20.0684 116.908 19.9724 117.052 19.9724C117.244 19.8764 117.388 19.7324 117.388 19.4444C117.436 19.2044 117.292 19.1564 117.244 19.0124H116.956L116.908 19.0604C116.86 19.0604 116.86 19.0124 116.812 19.0124C116.764 19.0124 116.716 19.0604 116.668 19.0604C116.668 19.1084 116.62 19.0604 116.62 19.1084C116.476 19.1564 116.428 19.3004 116.332 19.3484C116.284 19.4444 116.14 19.3964 116.14 19.4924C116.044 19.4924 115.996 19.6364 115.9 19.6364C115.756 19.8764 115.468 19.9724 115.276 20.1644C115.18 20.2604 115.132 20.4044 115.084 20.5004C114.748 20.7884 114.508 21.0764 114.268 21.3644C114.172 21.5564 113.98 21.6524 113.884 21.8444C113.788 22.0364 113.644 22.1324 113.692 22.4684C113.932 22.5644 114.124 22.3724 114.22 22.2284ZM126.188 22.9004C126.284 22.7564 126.284 22.5644 126.38 22.3724C126.284 22.3244 126.332 22.1804 126.236 22.0844C126.236 21.9884 126.188 21.9404 126.092 21.8444C125.948 21.7964 125.852 21.7484 125.708 21.7484C125.612 21.7484 125.564 21.8444 125.516 21.8444C125.42 21.8924 125.372 21.8924 125.276 21.8924C125.18 21.9884 125.036 21.9884 124.844 22.0364C124.796 22.1324 124.7 22.1804 124.556 22.2284L124.268 22.6124C124.124 22.6124 124.076 22.7564 123.932 22.8044C123.788 22.9484 123.692 23.1404 123.452 23.1884C123.356 23.3804 123.212 23.5244 123.02 23.6684C122.972 23.8604 122.78 23.9084 122.732 24.1004C122.636 24.2444 122.54 24.3884 122.396 24.5324C122.396 24.7724 122.252 24.9164 122.108 25.0604C122.108 25.1564 122.06 25.2044 122.012 25.2524C122.012 25.3484 122.012 25.4444 121.916 25.4444C121.916 25.5884 121.868 25.7324 121.868 25.8764C121.868 25.9244 121.82 25.9244 121.82 25.9244C121.724 26.1644 121.82 26.4524 121.724 26.7404C121.82 26.8364 121.964 26.8364 122.012 26.9324C122.156 26.9804 122.156 27.0764 122.204 27.1244C122.204 27.1724 122.252 27.1724 122.252 27.2204C122.54 27.2204 122.684 27.2204 122.876 27.1244C123.02 27.1244 123.02 27.1724 123.116 27.1244L123.548 26.8364C123.644 26.6924 123.788 26.6444 123.932 26.5484L124.364 25.9724C124.46 25.9244 124.508 25.8764 124.556 25.7804C124.556 25.7804 124.652 25.7324 124.652 25.6844V25.6364L124.844 25.4444C124.892 25.1564 125.084 25.1084 125.084 24.8684C125.276 24.6764 125.42 24.4844 125.66 24.3884C126.332 24.3884 126.956 24.2924 127.484 24.1964C127.676 24.2444 127.916 24.1964 128.012 24.1484C128.108 24.1964 128.252 24.1964 128.348 24.1964C128.636 24.0524 129.164 24.1004 129.548 24.0524C129.596 24.0044 129.692 24.0044 129.788 24.0044C129.788 24.0044 129.74 23.9564 129.788 23.9564H129.932V23.9084C130.172 23.8604 130.412 23.8604 130.652 23.8604C130.748 23.7644 130.988 23.7164 130.988 23.4764C130.94 23.3324 130.748 23.3804 130.652 23.3324C130.268 23.2844 129.884 23.3324 129.548 23.4284C129.212 23.4284 128.972 23.4764 128.684 23.5244C128.444 23.5244 128.396 23.5244 128.204 23.5724C128.06 23.6204 128.06 23.5244 127.916 23.5244C127.772 23.6204 127.58 23.6204 127.436 23.6684C127.196 23.5724 127.052 23.6204 126.812 23.6684L126.476 23.5724C126.38 23.6684 126.092 23.6684 125.948 23.6684L125.9 23.6204H125.708V23.5724C125.66 23.5724 125.564 23.5724 125.516 23.5244L125.42 23.3324C125.42 23.1404 125.612 23.1404 125.708 23.0444C125.804 22.9484 126.044 22.9484 126.188 22.9004ZM123.548 25.2524C123.644 25.3004 123.692 25.3484 123.692 25.4444C123.692 25.5884 123.452 25.6844 123.308 25.6364C123.308 25.3964 123.5 25.3964 123.548 25.2524Z" fill="#333333"/>
</svg>
