<svg width="73" height="40" viewBox="0 0 73 40" fill="none" xmlns="http://www.w3.org/2000/svg">
<path d="M1.06 38.6684L1.252 38.1884C1.3 38.0924 1.252 38.0444 1.3 37.9964C1.3 37.9484 1.348 37.9484 1.348 37.9004C1.396 37.8044 1.396 37.7084 1.396 37.6124L1.54 37.4204C1.588 37.3724 1.636 37.3244 1.636 37.2764C1.636 37.2284 1.684 37.2764 1.684 37.2284C1.732 37.1324 1.684 37.0364 1.732 36.9404C1.828 36.8924 1.828 36.7484 1.924 36.7484C1.924 36.6044 2.068 36.6044 2.02 36.4604C2.068 36.4604 2.068 36.3644 2.116 36.3164C2.164 36.2204 2.308 36.1244 2.356 35.9324C2.452 35.7404 2.5 35.5484 2.692 35.4524C2.692 35.3084 2.788 35.3084 2.836 35.1644L3.028 34.9244C3.124 34.5884 3.364 34.3484 3.556 34.0604L3.7 33.8684C3.748 33.7724 3.748 33.7244 3.748 33.6764C3.796 33.6284 3.844 33.6284 3.844 33.6284C3.94 33.4844 3.988 33.2924 4.132 33.1964L4.276 32.8124C4.42 32.7644 4.516 32.6684 4.564 32.4764L4.9 32.0924C4.948 31.9004 5.044 31.8044 5.092 31.6124C5.236 31.5644 5.332 31.3724 5.428 31.2284L5.716 30.8444C5.956 30.5564 6.1 30.2684 6.388 30.0284C6.484 30.0284 6.58 29.9804 6.676 29.9324C7.06 29.9324 7.348 29.8844 7.732 29.8844C7.876 29.8364 8.068 29.7884 8.26 29.8364C8.356 29.8364 8.404 29.7884 8.5 29.6924C8.596 29.6924 8.74 29.6924 8.788 29.6444C8.884 29.5964 8.932 29.6444 9.028 29.6444C9.076 29.6444 9.124 29.5484 9.124 29.5484C9.268 29.5004 9.364 29.5484 9.508 29.5004H9.556C9.604 29.4524 9.604 29.4524 9.652 29.4524L9.748 29.4044H9.796C9.892 29.3564 10.036 29.3564 10.084 29.3084H10.132C10.276 29.2604 10.42 29.2124 10.564 29.1164C10.708 29.1164 10.804 29.0684 10.948 29.0684L11.14 28.9244C11.188 28.8764 11.236 28.9244 11.236 28.9244L11.332 28.7804C11.38 28.7804 11.428 28.7324 11.476 28.7324C11.764 28.6844 12.004 28.5404 12.244 28.4444L12.628 28.3004C12.628 28.3004 12.628 28.2524 12.676 28.2524C12.676 28.2044 12.724 28.2524 12.724 28.2524C12.82 28.2044 12.916 28.2044 12.964 28.1084C13.108 28.1084 13.156 27.9644 13.348 28.0124C13.396 27.9644 13.444 27.9164 13.492 27.9164C13.54 27.8204 13.684 27.9164 13.684 27.8204C13.78 27.8684 13.78 27.7244 13.876 27.7244C13.876 27.6764 14.02 27.7244 14.02 27.6284C14.116 27.5804 14.164 27.4364 14.308 27.3884C14.452 27.4364 14.452 27.3884 14.596 27.3884C14.74 27.2444 14.932 27.1004 15.22 27.0044C15.316 26.9084 15.412 26.8124 15.508 26.7644C15.844 26.6684 16.084 26.5244 16.324 26.3324L16.612 26.2364C16.66 26.2364 16.66 26.1884 16.708 26.1404H16.804C16.852 26.0924 16.852 26.0444 16.9 26.0444C16.948 26.0444 16.948 26.0444 16.996 25.9964C17.044 25.9964 17.044 25.9484 17.092 25.9484C17.14 25.9004 17.14 25.9004 17.188 25.9004C17.236 25.9004 17.236 25.8524 17.284 25.8044H17.38C17.524 25.7084 17.668 25.5164 17.86 25.5164C17.956 25.3724 18.052 25.3244 18.148 25.2284H18.388C18.484 25.0844 18.628 25.0364 18.724 24.9404C18.868 24.8924 18.916 24.7004 19.108 24.7004L19.444 24.4124C19.588 24.3644 19.78 24.3164 19.828 24.1724C20.116 24.0284 20.308 23.7884 20.596 23.6924C20.692 23.5484 20.836 23.5004 20.98 23.4044C21.076 23.3084 21.172 23.1644 21.364 23.1644C21.556 22.9244 21.796 22.8284 22.036 22.6364C22.18 22.5884 22.276 22.4444 22.372 22.3964L22.564 22.2524C22.804 22.1564 22.996 21.9644 23.188 21.8204C23.188 21.8204 23.236 21.8204 23.284 21.7724C23.38 21.7244 23.476 21.5804 23.524 21.5324C23.572 21.4844 23.62 21.5324 23.62 21.4844C23.668 21.4364 23.716 21.3884 23.812 21.3884C23.86 21.2444 24.004 21.1964 24.1 21.0524C24.196 21.0524 24.292 21.0044 24.388 20.9564C24.436 20.8604 24.532 20.8124 24.628 20.7644V20.7164C24.628 20.6204 24.82 20.6684 24.82 20.5244C24.964 20.5724 24.916 20.3804 25.06 20.3804C25.108 20.2844 25.156 20.1884 25.252 20.1884C25.348 20.0924 25.444 20.0444 25.54 19.9964C25.588 19.9004 25.732 19.9004 25.78 19.8044C25.876 19.7564 25.876 19.7084 25.876 19.6604C25.924 19.6604 25.972 19.5644 26.02 19.5644C26.068 19.5644 26.02 19.5164 26.068 19.5164L26.356 19.2764L26.548 19.1324C26.932 18.9884 27.124 18.6044 27.46 18.4124L27.7 18.0764C27.796 18.0284 27.94 18.0284 27.988 17.9804C28.132 17.6924 28.372 17.5004 28.66 17.3564L28.804 17.1644C28.804 17.0204 28.996 17.0204 29.044 16.9724L29.14 16.8284C29.188 16.7804 29.284 16.7324 29.284 16.6364C29.428 16.6364 29.476 16.5404 29.572 16.4924C29.668 16.4444 29.716 16.3004 29.812 16.2524C29.86 16.1084 30.052 16.1084 30.1 16.0124L30.484 15.5804C30.628 15.4844 30.724 15.3404 30.82 15.2444H30.916L31.06 15.0524C31.156 14.9564 31.204 14.8124 31.348 14.7164L31.684 14.4764C31.78 14.1884 32.02 14.0924 32.212 13.9004C32.212 13.7564 32.356 13.7084 32.452 13.6604L32.74 13.3244C32.74 13.2284 32.884 13.1804 32.932 13.1324V13.0364L33.124 12.9404L33.22 12.7484L33.46 12.4124C33.556 12.3164 33.652 12.2204 33.796 12.1724C33.796 12.0284 33.844 11.9324 33.892 11.7884C33.988 11.7884 34.084 11.6924 34.18 11.6924C34.276 11.4044 34.468 11.2124 34.708 11.0204C34.756 10.8764 34.852 10.8284 34.9 10.6844C35.044 10.5884 35.044 10.3964 35.236 10.3484C35.236 10.2524 35.236 10.1084 35.284 10.0124C35.38 9.96442 35.476 9.96442 35.524 9.82042C35.572 9.82042 35.572 9.72442 35.572 9.62842C35.668 9.62842 35.668 9.53242 35.716 9.43642C35.956 9.29242 36.004 9.00442 36.244 8.81242C36.244 8.71642 36.292 8.57242 36.34 8.47642C36.388 8.38042 36.484 8.38042 36.532 8.28442C36.58 8.23642 36.532 8.18842 36.58 8.14042C36.58 8.09242 36.628 8.09242 36.628 8.04442H36.676C36.772 7.90042 36.772 7.70842 36.82 7.56442C36.868 7.51642 36.868 7.51642 36.868 7.46842C36.868 7.42042 36.916 7.42042 36.964 7.37242C36.964 7.32442 37.06 7.27642 37.06 7.18042C37.108 7.13242 37.06 6.94042 37.156 6.89242C37.156 6.79642 37.204 6.79642 37.252 6.74842V6.65242L37.3 6.60442L37.396 6.41242C37.396 6.36442 37.396 6.31642 37.444 6.26842C37.444 6.26842 37.492 6.22042 37.492 6.17242C37.54 6.12442 37.54 6.12442 37.54 6.07642C37.54 6.02842 37.54 5.98042 37.588 5.98042C37.588 5.83642 37.732 5.78842 37.732 5.64442C37.78 5.50042 37.684 5.45242 37.684 5.35642C37.78 5.26042 37.732 5.11642 37.828 5.06842C37.876 4.73242 38.02 4.44442 38.02 4.01242C38.068 3.82042 38.116 3.62842 38.116 3.38842C38.116 3.05242 37.972 2.86042 38.02 2.57242L37.876 1.85242L37.684 1.51642L37.492 1.27642C37.444 1.08442 37.252 0.988421 37.156 0.84442C37.156 0.796421 37.108 0.748422 37.06 0.700419C37.012 0.700419 36.964 0.700419 36.964 0.65242C36.916 0.65242 36.916 0.604421 36.868 0.556421C36.772 0.556421 36.724 0.508419 36.628 0.46042C36.58 0.46042 36.484 0.46042 36.436 0.364421C36.292 0.316422 36.148 0.268419 36.052 0.172421C35.812 0.22042 35.572 0.124421 35.38 0.0764189C35.092 0.0284195 34.564 0.0284195 34.324 0.0764189C34.276 0.0764189 34.276 0.0284195 34.228 0.0284195C34.132 -0.0195799 33.892 0.0284195 33.796 0.0284195L32.836 0.124421C32.74 0.172421 32.644 0.268419 32.5 0.268419C32.212 0.22042 32.02 0.316422 31.684 0.316422C31.588 0.41242 31.396 0.41242 31.3 0.46042V0.508419H31.204C31.204 0.556421 31.156 0.556421 31.156 0.556421C31.012 0.556421 30.964 0.556421 30.964 0.604421H30.82V0.65242C30.676 0.65242 30.628 0.604421 30.58 0.65242C30.58 0.700419 30.532 0.65242 30.484 0.65242C30.388 0.700419 30.292 0.700419 30.148 0.65242C30.052 0.700419 29.956 0.84442 29.812 0.84442C29.62 0.84442 29.524 0.940419 29.38 0.988421C29.188 0.988421 29.044 1.03642 28.9 1.13242C28.564 1.18042 28.324 1.32442 27.988 1.42042H27.652C27.652 1.51642 27.556 1.46842 27.46 1.51642L27.412 1.56442C27.364 1.61242 27.316 1.56442 27.316 1.61242C27.076 1.61242 27.028 1.75642 26.884 1.80442C26.596 1.80442 26.5 1.94842 26.26 1.94842C26.164 2.04442 26.068 2.09242 25.972 2.14042C25.732 2.14042 25.588 2.28442 25.348 2.33242C25.348 2.38042 25.3 2.33242 25.204 2.38042V2.42842H25.012C24.868 2.42842 24.82 2.52442 24.724 2.52442C24.676 2.57242 24.58 2.66842 24.484 2.66842C24.436 2.66842 24.388 2.76442 24.34 2.76442C24.244 2.76442 24.244 2.90842 24.148 2.86042C24.1 2.90842 23.956 2.90842 23.86 2.90842C23.86 2.95642 23.764 3.00442 23.716 3.00442C23.668 3.00442 23.716 3.05242 23.668 3.05242C23.572 3.10042 23.476 3.10042 23.428 3.10042C23.38 3.14842 23.38 3.19642 23.332 3.19642C23.284 3.19642 23.236 3.24442 23.188 3.24442C23.092 3.24442 22.996 3.29242 22.9 3.29242C22.708 3.43642 22.564 3.58042 22.276 3.62842L21.844 3.91642H21.556C21.22 4.30042 20.5 4.34842 20.116 4.73242C19.972 4.68442 19.876 4.82842 19.828 4.82842C19.78 4.82842 19.828 4.82842 19.78 4.87642C19.684 4.92442 19.54 4.92442 19.444 5.02042C19.396 5.06842 19.3 5.06842 19.204 5.11642C19.06 5.16442 19.012 5.30842 18.82 5.35642C18.676 5.40442 18.532 5.54842 18.34 5.54842C18.196 5.64442 18.1 5.78842 17.956 5.83642C17.812 5.83642 17.716 5.88442 17.62 5.93242C17.572 5.98042 17.476 5.98042 17.428 6.07642C17.38 6.07642 17.38 6.17242 17.332 6.17242C17.284 6.22042 17.236 6.17242 17.188 6.22042C17.044 6.31642 16.852 6.36442 16.756 6.50842L16.372 6.65242L15.892 6.94042L15.46 7.22842C15.364 7.32442 15.268 7.37242 15.172 7.42042L14.98 7.51642C14.74 7.56442 14.692 7.75642 14.452 7.75642C14.356 7.94842 14.068 7.99642 13.972 8.23642C13.684 8.28442 13.54 8.47642 13.252 8.52442C13.156 8.62042 13.06 8.71642 12.916 8.76442C12.724 8.95642 12.58 9.10042 12.292 9.19642C12.244 9.29242 12.148 9.29242 12.004 9.34042C11.956 9.43642 11.908 9.53242 11.812 9.62842C11.716 9.67642 11.572 9.67642 11.476 9.77242L11.284 9.96442C11.236 10.0124 11.14 10.0124 11.14 10.0604C11.092 10.1084 11.044 10.1564 10.996 10.1564H10.948V10.2044C10.852 10.2524 10.756 10.2524 10.756 10.3484C10.708 10.3964 10.66 10.4924 10.612 10.4924C10.468 10.4924 10.468 10.5884 10.372 10.5884C10.276 10.6844 10.228 10.8284 10.132 10.8764C9.844 11.1164 9.508 11.3564 9.22 11.6444L9.076 11.8364C9.028 11.8364 8.98 11.8364 8.98 11.8844C8.884 11.9804 8.788 12.0764 8.74 12.1724C8.548 12.2204 8.5 12.4124 8.356 12.4604C8.356 12.5084 8.356 12.5564 8.308 12.6044L8.212 12.7964C8.212 12.8444 8.212 12.8444 8.164 12.8444C8.164 12.9404 8.116 13.0364 8.068 13.0844V13.1804C8.068 13.2284 8.02 13.2284 8.02 13.2284C7.972 13.4684 8.02 13.6604 8.164 13.8044C8.26 13.7564 8.26 13.8524 8.356 13.8524C8.404 13.8044 8.548 13.8524 8.548 13.8044C8.788 13.8044 8.884 13.7564 8.98 13.7084C9.076 13.6124 9.076 13.3724 9.22 13.3244C9.172 13.1324 9.22 13.0364 9.22 12.8924C9.316 12.8444 9.316 12.7484 9.364 12.7004C9.46 12.6524 9.556 12.6044 9.556 12.5084C9.652 12.5084 9.652 12.3164 9.748 12.3164L9.988 12.1724L10.228 11.8364C10.516 11.7404 10.612 11.4524 10.948 11.3564C10.948 11.2604 11.092 11.3084 11.092 11.1644L11.332 11.0204C11.428 10.8764 11.62 10.7804 11.812 10.7324C11.86 10.6364 11.908 10.4924 12.052 10.4444C12.148 10.4444 12.148 10.3484 12.196 10.3004C12.292 10.2524 12.436 10.3004 12.532 10.2524C12.58 10.1564 12.724 10.0124 12.82 10.0124C12.916 10.0124 12.964 9.82042 13.06 9.82042C13.252 9.77242 13.348 9.62842 13.492 9.62842C13.588 9.53242 13.636 9.38842 13.732 9.34042C13.876 9.24442 14.116 9.24442 14.164 9.10042C14.404 9.05242 14.452 8.86042 14.644 8.76442C14.74 8.71642 14.932 8.66842 14.98 8.57242C15.172 8.52442 15.268 8.42842 15.364 8.33242C15.46 8.28442 15.508 8.23642 15.556 8.23642C15.604 8.14042 15.748 8.18842 15.748 8.09242C15.844 7.99642 15.988 7.94842 16.18 7.90042C16.276 7.75642 16.372 7.66042 16.564 7.56442C16.612 7.51642 16.708 7.51642 16.804 7.51642L17.38 7.13242C17.62 7.03642 17.764 6.84442 18.052 6.79642C18.196 6.55642 18.628 6.50842 18.772 6.31642H18.868V6.26842C18.868 6.26842 18.916 6.31642 18.916 6.26842C18.916 6.22042 18.964 6.26842 19.012 6.26842V6.22042H19.06C19.156 6.17242 19.3 6.12442 19.3 6.12442C19.348 6.07642 19.396 6.07642 19.396 6.02842C19.444 6.02842 19.492 6.02842 19.492 5.98042C19.54 5.93242 19.588 5.83642 19.732 5.78842C19.78 5.74042 19.924 5.74042 20.02 5.74042C20.212 5.54842 20.452 5.40442 20.692 5.26042C21.028 5.16442 21.364 5.02042 21.556 4.78042C21.652 4.78042 21.7 4.73242 21.7 4.68442C21.748 4.68442 21.796 4.73242 21.796 4.68442C21.796 4.68442 21.796 4.63642 21.844 4.63642C21.94 4.58842 22.036 4.58842 22.132 4.49242C22.42 4.44442 22.564 4.30042 22.804 4.30042C22.948 4.15642 23.14 4.06042 23.284 4.01242C23.476 3.91642 23.668 3.82042 23.908 3.82042C23.908 3.72442 24.052 3.72442 24.052 3.62842C24.1 3.62842 24.244 3.62842 24.292 3.58042C24.484 3.58042 24.532 3.43642 24.676 3.38842C25.012 3.38842 25.156 3.19642 25.444 3.19642C25.588 3.10042 25.732 3.00442 25.876 2.95642C26.164 2.95642 26.26 2.81242 26.5 2.81242C26.5 2.76442 26.596 2.81242 26.596 2.76442C26.644 2.76442 26.644 2.66842 26.692 2.66842L26.932 2.57242H27.364C27.412 2.47642 27.556 2.47642 27.604 2.42842C27.7 2.38042 27.796 2.38042 27.844 2.28442C27.988 2.28442 28.036 2.23642 28.18 2.23642L28.468 2.09242H28.9C29.044 2.09242 29.14 1.94842 29.284 1.90042H29.572C29.668 1.85242 29.812 1.85242 29.86 1.80442C30.34 1.75642 30.58 1.46842 31.156 1.51642C31.444 1.46842 31.684 1.37242 32.068 1.37242C32.116 1.37242 32.26 1.32442 32.356 1.32442C32.5 1.27642 32.596 1.32442 32.692 1.22842C32.884 1.32442 33.268 1.27642 33.46 1.18042C33.7 1.32442 34.036 1.18042 34.42 1.22842L34.708 1.32442C34.9 1.32442 34.9 1.27642 35.044 1.32442C35.188 1.42042 35.428 1.42042 35.62 1.51642H35.668C35.764 1.56442 35.812 1.61242 35.908 1.61242L36.052 1.70842C36.052 1.70842 36.1 1.66042 36.1 1.70842C36.148 1.75642 36.196 1.70842 36.196 1.70842V1.75642H36.292C36.292 1.80442 36.34 1.85242 36.388 1.90042L36.82 2.33242C36.868 2.42842 36.964 2.62042 36.964 2.71642C36.964 2.76442 37.012 2.71642 37.012 2.76442C37.108 3.00442 37.156 3.19642 37.204 3.48442C37.204 3.58042 37.108 3.67642 37.108 3.82042C37.156 3.96442 37.108 4.15642 37.108 4.25242C37.06 4.39642 37.06 4.49242 37.06 4.54042C37.012 4.63642 37.012 4.73242 36.964 4.78042V4.92442C36.964 4.97242 36.916 4.97242 36.916 4.97242C36.868 5.11642 36.916 5.21242 36.916 5.35642C36.82 5.40442 36.868 5.54842 36.772 5.59642C36.772 5.64442 36.724 5.64442 36.724 5.74042C36.676 5.74042 36.724 5.88442 36.628 5.88442C36.628 6.12442 36.532 6.26842 36.484 6.50842L36.34 6.74842C36.244 6.74842 36.292 6.94042 36.196 6.98842C36.196 7.08442 36.148 7.13242 36.052 7.18042C36.052 7.32442 36.004 7.42042 35.956 7.51642C35.86 7.66042 35.716 7.85242 35.668 8.09242C35.476 8.28442 35.38 8.57242 35.188 8.76442C35.14 8.90842 35.092 9.00442 34.948 9.10042C34.804 9.38842 34.66 9.67642 34.42 9.82042C34.42 9.96442 34.324 10.0124 34.324 10.1564C34.132 10.3004 33.988 10.4444 33.94 10.6364C33.892 10.7324 33.748 10.6844 33.748 10.8284C33.652 10.9244 33.652 11.0204 33.604 11.1164C33.412 11.2604 33.22 11.4044 33.124 11.5484C33.076 11.6444 33.028 11.6444 33.028 11.7404H32.932C32.932 11.7884 32.884 11.7884 32.884 11.8364C32.836 11.8844 32.884 11.9324 32.836 11.9324L32.644 12.0764C32.548 12.2204 32.452 12.3644 32.404 12.5084C32.212 12.6524 32.116 12.7964 31.924 12.8924C31.924 13.0364 31.732 13.0844 31.684 13.1804V13.2284C31.636 13.2764 31.636 13.3244 31.636 13.3244C31.588 13.4204 31.54 13.3724 31.492 13.4684C31.396 13.4684 31.396 13.5644 31.3 13.6124C31.252 13.7564 31.108 13.8524 31.012 13.9964C30.868 14.0924 30.772 14.1884 30.676 14.3804C30.58 14.3804 30.484 14.4284 30.388 14.4764C30.34 14.5724 30.292 14.6684 30.196 14.7164L30.052 14.9564C29.956 15.0524 29.812 15.1004 29.764 15.1964C29.668 15.2924 29.572 15.3884 29.524 15.4844C29.38 15.4844 29.332 15.5804 29.236 15.5804C29.236 15.7244 29.092 15.7244 29.044 15.8684L28.228 16.6364C28.132 16.6844 27.988 16.6844 27.94 16.7804C27.844 16.8764 27.844 17.0204 27.7 17.1164C27.604 17.2124 27.46 17.2604 27.316 17.3564C27.268 17.3564 27.268 17.5004 27.172 17.5484C27.172 17.5964 27.076 17.6444 27.028 17.6924C26.884 17.7404 26.836 17.8364 26.692 17.8844C26.596 17.9804 26.548 18.1244 26.404 18.1724L26.212 18.3164C26.116 18.3644 26.068 18.4604 25.972 18.4604C25.78 18.7484 25.54 18.9404 25.3 19.1324C25.156 19.1804 25.06 19.3244 24.916 19.4204C24.82 19.5164 24.676 19.6124 24.484 19.6604C24.436 19.8044 24.244 19.8524 24.148 19.9964L23.476 20.5724H23.428C23.38 20.5724 23.38 20.6204 23.332 20.6684L23.044 20.8604L22.66 21.0524C22.564 21.1004 22.564 21.2924 22.42 21.3404C22.132 21.4364 21.94 21.6764 21.7 21.8204C21.7 21.8684 21.604 21.9164 21.508 21.9164C21.364 22.0604 21.172 22.2044 20.98 22.2524C20.932 22.3484 20.788 22.3484 20.788 22.4444C20.74 22.4924 20.74 22.5884 20.596 22.5884L20.404 22.7324C20.356 22.8284 20.308 22.8764 20.212 22.9244C20.02 22.9244 19.972 23.0204 19.876 23.1164C19.732 23.0684 19.78 23.2124 19.684 23.1644C19.684 23.2604 19.54 23.2124 19.54 23.3084C19.204 23.5004 18.916 23.7404 18.532 23.8844C18.484 24.0284 18.34 24.0764 18.244 24.1244C18.148 24.1724 18.052 24.3164 17.908 24.3164L17.62 24.5564C17.524 24.6044 17.428 24.6524 17.284 24.6524C17.188 24.7964 17.092 24.8444 16.948 24.8924C16.948 24.9404 16.9 24.9404 16.852 24.9404C16.756 25.0364 16.708 25.0844 16.564 25.1324C16.516 25.1804 16.42 25.2284 16.324 25.2284L16.084 25.4204C16.084 25.4684 16.036 25.4204 16.036 25.4204L15.796 25.6124C15.796 25.6124 15.748 25.5644 15.7 25.6124C15.7 25.6604 15.652 25.6124 15.652 25.6124C15.652 25.6604 15.604 25.7084 15.604 25.7084L15.508 25.7564C15.364 25.7564 15.316 25.8524 15.22 25.9004L15.028 25.9964C15.028 26.0924 14.98 26.1404 14.884 26.1404H14.644C14.596 26.2844 14.452 26.2844 14.308 26.3324C14.308 26.3804 14.212 26.3324 14.212 26.4284C14.116 26.4284 14.164 26.5244 14.068 26.4764C13.876 26.5244 13.78 26.6684 13.588 26.6684C13.492 26.7164 13.492 26.8604 13.348 26.8604C12.916 26.9564 12.628 27.2444 12.196 27.3884C12.052 27.4844 11.86 27.5804 11.668 27.6284C11.428 27.7244 11.236 27.7724 10.996 27.8204C10.9 27.8684 10.852 27.9644 10.804 27.9644C10.804 28.0124 10.708 27.9644 10.708 28.0124C10.516 27.9644 10.468 28.1084 10.324 28.1564C10.036 28.1564 9.94 28.3004 9.748 28.3484C9.46 28.3484 9.22 28.3964 9.028 28.4444C8.836 28.5404 8.644 28.6364 8.356 28.5884C8.212 28.6844 8.02 28.7324 7.78 28.7804C7.684 28.6844 7.588 28.5404 7.588 28.3484C7.588 28.2044 7.732 28.2044 7.732 28.0604C7.78 28.0604 7.732 27.9164 7.828 27.9164L7.972 27.8204C8.116 27.4844 8.308 27.3404 8.5 27.0524C8.596 27.0044 8.692 26.8604 8.788 26.7644C8.788 26.6684 8.884 26.6684 8.884 26.5724C8.884 26.4764 8.98 26.4284 8.98 26.3324C9.268 26.2364 9.316 25.9004 9.556 25.7564C9.604 25.6124 9.652 25.5164 9.748 25.4204C9.796 25.3724 9.892 25.3244 9.892 25.2764C9.892 25.1324 9.988 25.1324 9.988 25.0364C10.036 24.9884 10.132 24.9404 10.132 24.8924C10.132 24.8924 10.18 24.9404 10.18 24.8924V24.8444L10.372 24.6044C10.516 24.4604 10.612 24.3164 10.804 24.2204C10.804 24.0764 10.9 23.9804 10.948 23.8364C11.092 23.7404 11.188 23.5964 11.284 23.4524C11.38 23.4524 11.332 23.2604 11.476 23.3084C11.476 23.2124 11.572 23.1644 11.572 23.0204L11.86 22.8284L12.004 22.4444C12.148 22.3004 12.292 22.2044 12.436 22.1084C12.436 22.0124 12.532 21.9164 12.532 21.8684C12.628 21.7244 12.676 21.6764 12.82 21.5804C12.82 21.4364 12.964 21.4364 12.964 21.2444C13.108 21.1484 13.252 21.0044 13.3 20.9084C13.348 20.9084 13.348 20.8604 13.396 20.8604L13.492 20.6684C13.492 20.6204 13.54 20.6204 13.588 20.6204V20.5244C13.636 20.4764 13.732 20.4284 13.78 20.3324V20.2844C13.876 20.1884 13.924 20.0924 14.02 20.0444C14.02 19.9484 14.068 19.8524 14.116 19.7564L14.356 19.6124C14.404 19.4204 14.5 19.3244 14.548 19.1804C14.692 19.1804 14.692 18.9884 14.836 18.9404C14.884 18.8444 14.98 18.7964 15.076 18.7484C15.124 18.5564 15.268 18.4124 15.364 18.2204C15.508 18.1724 15.556 17.9804 15.652 17.7884C15.748 17.7404 15.796 17.5964 15.892 17.5484C15.94 17.4524 16.084 17.4044 16.132 17.3084C16.228 17.0684 16.372 16.9244 16.468 16.6844C16.708 16.5404 16.852 16.3004 17.044 16.1564C17.092 15.9644 17.188 15.9164 17.236 15.7244L17.476 15.5324C17.524 15.4844 17.476 15.3884 17.524 15.3884L17.668 15.2924C17.716 15.1004 17.86 15.1004 17.908 14.9084C17.908 14.8604 18.004 14.8124 18.052 14.7644L18.196 14.5724C18.244 14.4284 18.436 14.3804 18.484 14.1884C18.58 14.0924 18.676 13.9484 18.676 13.8044C18.964 13.6124 19.108 13.2764 19.3 13.0844C19.396 13.0364 19.396 12.8924 19.54 12.8444C19.684 12.4124 20.02 12.0764 20.308 11.7884C20.356 11.5964 20.5 11.5004 20.5 11.3084C20.596 11.2604 20.692 11.2124 20.692 11.0684C20.788 10.9724 20.884 10.9724 20.932 10.8284C20.98 10.8284 20.98 10.7804 20.98 10.7324C21.076 10.5884 21.22 10.4924 21.22 10.3004C21.46 10.1564 21.508 9.91642 21.7 9.72442C21.7 9.58042 21.748 9.43642 21.796 9.29242C21.844 9.19642 21.988 9.19642 21.988 9.05242C21.988 9.00442 21.988 9.00442 22.036 9.00442C21.988 8.76442 22.084 8.66842 22.036 8.42842L21.844 8.23642L21.556 8.09242C21.46 8.09242 21.364 8.09242 21.268 8.04442C21.268 8.14042 21.124 8.09242 21.124 8.14042C20.98 8.28442 20.884 8.42842 20.788 8.57242C20.74 8.81242 20.596 8.95642 20.548 9.24442C20.452 9.29242 20.404 9.43642 20.356 9.48442L20.116 9.72442C20.068 9.82042 20.068 9.86842 20.068 9.91642C20.02 9.96442 20.068 10.0604 20.02 10.1084C19.876 10.1564 19.828 10.3004 19.684 10.3964C19.588 10.7324 19.3 10.8764 19.204 11.2124L18.964 11.3564C18.964 11.5484 18.82 11.5964 18.82 11.7404C18.58 11.9324 18.436 12.2204 18.244 12.4124C18.196 12.5564 18.1 12.5564 18.004 12.6524C17.956 12.8924 17.812 12.9884 17.764 13.1804C17.668 13.2284 17.62 13.3244 17.572 13.3244L17.476 13.4204C17.428 13.5644 17.38 13.7084 17.236 13.8044C17.092 14.1404 16.804 14.3804 16.564 14.6204C16.516 14.7164 16.468 14.8124 16.372 14.9084C16.372 15.0044 16.228 15.1484 16.18 15.1964V15.2444H16.132V15.3404C16.132 15.3404 16.084 15.3404 16.036 15.3884V15.4844C15.988 15.5324 15.94 15.5804 15.892 15.5804V15.6764L15.604 16.0604C15.46 16.1564 15.412 16.3004 15.364 16.4924L15.076 16.6364L14.98 17.0204C14.788 17.1644 14.692 17.3564 14.452 17.4524L14.308 17.7884L14.068 17.9804C14.068 18.2684 13.78 18.3644 13.78 18.6044C13.684 18.7004 13.54 18.7484 13.444 18.7964C13.444 18.9404 13.3 19.0364 13.252 19.1324C13.252 19.1324 13.252 19.1804 13.204 19.2284C13.156 19.3244 13.06 19.3244 13.06 19.4204C12.964 19.4684 12.964 19.5644 12.916 19.6604L12.244 20.3804C12.196 20.4764 12.148 20.6204 12.148 20.7164C12.004 20.8124 11.956 20.9564 11.86 21.0524C11.716 21.0524 11.764 21.1964 11.716 21.2444C11.716 21.3404 11.572 21.3404 11.524 21.3884C11.476 21.5804 11.332 21.6284 11.332 21.8204C11.188 21.9164 11.044 22.0124 11.044 22.2524C10.852 22.3964 10.612 22.5884 10.564 22.8764C10.42 22.8764 10.42 23.0204 10.276 23.0204C10.276 23.1644 10.18 23.2124 10.228 23.3564C9.94 23.5484 9.748 23.7884 9.556 24.1244L9.364 24.2684C9.316 24.3644 9.268 24.4124 9.268 24.5564C9.076 24.6044 8.98 24.7964 8.836 24.8924C8.788 25.0364 8.692 25.1324 8.692 25.2764C8.644 25.3724 8.5 25.4204 8.5 25.5644C8.404 25.5644 8.452 25.6604 8.308 25.6124C8.356 25.7084 8.26 25.7564 8.212 25.8044C8.212 25.9484 8.068 25.9964 8.02 26.1404C7.828 26.1884 7.828 26.4284 7.732 26.5244C7.684 26.5724 7.588 26.6204 7.636 26.6684C7.396 26.8124 7.348 27.1004 7.108 27.1964C7.108 27.3884 7.012 27.4844 6.964 27.6284C6.772 27.6764 6.724 27.8684 6.676 27.9644L6.58 28.0604C6.436 28.2524 6.292 28.3964 6.052 28.4444C6.004 28.3964 6.004 28.3484 5.956 28.3484C5.86 28.3004 5.908 28.2524 5.86 28.2044C5.812 28.1564 5.764 28.0604 5.764 28.0124C5.716 27.8204 5.812 27.6764 5.764 27.4844C5.86 27.4364 5.812 27.2444 5.908 27.1964C5.956 27.1004 6.052 27.0524 6.052 26.9084C6.196 26.9084 6.34 26.7644 6.34 26.5724C6.34 26.4284 6.292 26.3804 6.196 26.3324C6.148 26.2364 6.196 26.0924 6.052 26.0924C5.908 26.0924 5.812 26.1404 5.668 26.1404L5.524 26.3804C5.428 26.3804 5.428 26.5244 5.332 26.5244C5.332 26.6204 5.236 26.6684 5.236 26.7164L5.14 26.9084C5.14 27.1004 5.044 27.1964 4.948 27.3404C4.948 27.5324 4.9 27.6284 4.852 27.7724C4.9 28.0604 4.852 28.2044 4.804 28.4444C4.852 28.5884 4.9 28.7804 4.852 28.9724L5.092 29.3084C5.188 29.4524 5.284 29.5004 5.236 29.7404C5.188 29.9804 4.996 30.1244 4.852 30.2684C4.852 30.3644 4.804 30.4124 4.804 30.4604C4.804 30.5084 4.708 30.5564 4.708 30.6044C4.708 30.7004 4.564 30.7964 4.516 30.8444C4.468 30.8924 4.468 30.9404 4.468 30.9884L4.324 31.0844C4.276 31.1804 4.18 31.2764 4.084 31.3244C4.132 31.3724 4.084 31.3724 4.084 31.4204C4.036 31.4204 4.036 31.4684 4.036 31.5164L3.94 31.6124V31.7084C3.892 31.7084 3.844 31.7564 3.844 31.7564C3.748 31.8524 3.652 31.9484 3.652 32.0444C3.556 32.1404 3.556 32.3804 3.412 32.4284L3.22 32.8124L3.076 33.0044C2.98 33.0044 2.98 33.1004 2.932 33.1484C2.932 33.3884 2.692 33.3884 2.692 33.6284L2.548 33.8204L2.5 33.9164C2.5 33.9644 2.452 33.9644 2.452 33.9644C2.404 34.0604 2.404 34.1564 2.308 34.2044C2.308 34.3484 2.212 34.3484 2.212 34.4924C2.116 34.5404 2.164 34.6364 2.068 34.6364C1.972 34.6364 2.02 34.7804 1.972 34.7324C1.972 34.9724 1.828 35.0204 1.828 35.2604C1.684 35.3084 1.684 35.5004 1.54 35.5484C1.444 35.8364 1.348 36.1244 1.156 36.3164C1.108 36.5084 1.06 36.7484 0.916 36.8444C0.916 37.2764 0.676 37.4204 0.676 37.8524L0.532 38.0924L0.436 38.3804C0.436 38.6684 0.388 38.8124 0.34 39.0524L0.484 39.3884L0.628 39.7244C0.868 39.8684 1.252 40.0124 1.588 39.8684C1.636 39.7244 1.78 39.6284 1.78 39.4844C1.78 39.2444 1.636 39.1004 1.492 39.0044C1.348 38.9084 1.108 38.8604 1.06 38.6684ZM36.0561 19.6124C35.9601 19.5164 35.7681 19.5644 35.7201 19.4204H35.6241L35.4321 19.5644C35.3361 19.5644 35.1921 19.5164 35.0481 19.5644L34.7121 19.8044C34.6161 19.9004 34.4721 19.9484 34.4721 20.1404C34.3281 20.3804 34.5201 20.6684 34.5681 20.8604C34.7601 21.0524 35.1921 21.1484 35.2401 21.4844C35.2401 21.5804 35.1441 21.6764 35.1441 21.8204C35.0961 21.8204 35.1441 21.8684 35.0961 21.9164H35.0001C34.9521 21.9644 34.9041 22.0124 34.9041 22.0604C34.7601 22.1564 34.7601 22.3004 34.6161 22.3484L34.2801 22.4924L33.9441 22.9244C33.6561 23.0204 33.5121 23.2604 33.3201 23.5004C33.1761 23.5484 33.0801 23.6444 32.9361 23.6444C32.7441 23.8844 32.5041 24.0764 32.2641 24.2204C32.2161 24.3164 32.1681 24.4604 32.0721 24.5564C31.9761 24.5564 31.9281 24.6044 31.8801 24.7004C31.7841 24.7484 31.6881 24.7964 31.6401 24.8924C31.4961 24.9884 31.4001 25.1324 31.2081 25.2284C31.1121 25.5164 30.8241 25.6604 30.7761 25.9964C30.6801 25.9964 30.6801 26.0924 30.6321 26.1404C30.5841 26.2364 30.4881 26.1884 30.4881 26.2364V26.2844L30.2481 26.5724C30.2481 26.9084 30.1041 27.0524 30.0081 27.2924C30.1041 27.4844 30.1041 27.7724 30.1521 27.9644C30.2481 28.0604 30.3441 28.2044 30.5361 28.2044C30.5361 28.3484 30.7281 28.3004 30.7281 28.3964C30.8721 28.3964 30.8721 28.4924 31.0161 28.4924C31.2561 28.4924 31.4961 28.4924 31.6881 28.5404C31.9281 28.4444 32.1681 28.3964 32.4561 28.3964C32.5521 28.2524 32.7441 28.3004 32.8881 28.2044C33.0801 28.2044 33.1281 28.0604 33.3681 28.1084C33.4641 28.0124 33.6081 27.9644 33.7521 27.8684H33.9921C34.0881 27.8204 34.1841 27.7244 34.3281 27.7244L34.5681 27.5324H34.8081C34.8561 27.4364 35.0001 27.4364 35.0961 27.3884L35.4321 27.2444C35.5281 27.1964 35.6241 27.1484 35.7681 27.1964C35.8641 27.0524 35.9601 27.0044 36.1521 27.0044C36.3921 26.6684 36.8721 26.6204 37.1601 26.3804C37.4961 26.3324 37.6881 26.1884 37.8801 26.0444C38.1681 25.9964 38.3601 25.8044 38.6001 25.6604C38.6481 25.6124 38.7441 25.5644 38.8881 25.6124C38.9841 25.4684 39.0801 25.3724 39.2241 25.2764C39.3201 25.2764 39.4161 25.2284 39.5121 25.2284L39.8961 24.8924C39.9921 24.8924 40.0401 24.8444 40.1841 24.8444C40.4241 24.6044 40.7601 24.5084 41.0001 24.2684C41.1441 24.2684 41.2401 24.2204 41.2881 24.1244C41.4321 24.0764 41.4801 24.0284 41.6241 24.0284C41.8161 23.7404 42.2001 23.6444 42.4401 23.4524C42.6801 23.4524 42.7281 23.2124 42.9681 23.2124C43.0641 23.0684 43.2081 22.9724 43.4001 22.9724L43.5441 22.7804C43.5921 22.7324 43.6401 22.7324 43.6881 22.7324L43.7841 22.6364C43.9281 22.5404 44.0721 22.4924 44.2161 22.3484C44.2641 22.3004 44.3601 22.3004 44.4561 22.2524C44.6001 22.1084 44.7441 22.0124 44.9841 21.9644C45.1281 21.9164 45.1761 21.7724 45.3201 21.7244L45.7041 21.5324C45.8001 21.4844 45.8481 21.3884 45.9921 21.3404C46.0401 21.1964 46.1841 21.1484 46.3281 21.1004C46.4241 21.0524 46.5201 20.8604 46.6641 20.8604C46.7601 20.8604 46.8561 20.6684 46.8561 20.5724C46.8081 20.4284 46.6161 20.2844 46.4721 20.3324C46.2321 20.3324 46.1841 20.5724 45.9921 20.6684C45.8481 20.6684 45.8001 20.7644 45.7041 20.8604C45.2721 21.0044 44.8401 21.2444 44.5521 21.5324C44.4081 21.5804 44.2641 21.6284 44.1681 21.7244C44.1201 21.7244 44.1201 21.7724 44.1201 21.7724C44.0721 21.8204 44.0241 21.8204 44.0241 21.8204C43.9761 21.8204 43.9761 21.8684 43.9281 21.9164H43.8321C43.5921 22.0604 43.3041 22.2044 43.1121 22.3484C43.0641 22.3964 42.9681 22.3484 42.9681 22.4444C42.8241 22.3964 42.8241 22.5884 42.6801 22.5884C42.6321 22.6844 42.4881 22.6364 42.3921 22.7324C42.2481 22.7804 42.2481 22.9724 42.0561 22.9724H42.0081C41.8641 23.0684 41.8161 23.1644 41.7201 23.2124C41.5761 23.2124 41.3841 23.3084 41.3361 23.3084C41.2881 23.3564 41.2881 23.3564 41.2401 23.3564L41.1441 23.5004L40.8561 23.6444C40.8081 23.6924 40.7601 23.6444 40.7601 23.6444V23.6924H40.6641C40.6641 23.6924 40.7121 23.7404 40.6641 23.7404H40.6161V23.7884H40.5201V23.8364C40.5201 23.8364 40.4721 23.7884 40.4721 23.8364C40.4721 23.8844 40.3761 23.8364 40.3761 23.8364V23.8844H40.3281C40.2801 23.8844 40.2801 23.9324 40.2321 23.9324C40.1841 23.9324 40.0881 24.0284 40.0881 24.0764C40.0881 24.1724 39.9921 24.1244 39.9921 24.1724C39.8481 24.1724 39.7521 24.2204 39.6561 24.2204L39.5601 24.3644C39.5121 24.3644 39.4641 24.4604 39.4161 24.4604L39.0801 24.5564C39.0321 24.6524 38.8401 24.6044 38.7921 24.7004C38.6961 24.7484 38.6481 24.8924 38.5041 24.8924C38.4081 24.9404 38.3601 24.9884 38.2641 24.9884L37.8801 25.2764C37.7361 25.3244 37.6401 25.3724 37.5441 25.3724C37.4961 25.4204 37.4961 25.4204 37.4481 25.4204C37.4001 25.4684 37.4001 25.5164 37.3521 25.5164C37.3521 25.5164 37.3041 25.5164 37.2561 25.5644C37.2561 25.5644 37.2081 25.6124 37.1601 25.6124L36.9681 25.7084C36.8241 25.7564 36.7761 25.8044 36.6321 25.8044V25.8524C36.3441 25.9484 36.1521 26.1404 35.8641 26.1884C35.8641 26.2844 35.7201 26.2364 35.7681 26.2844C35.6721 26.3324 35.7201 26.4284 35.6241 26.4284H35.4321C35.2401 26.5724 35.0001 26.6684 34.7601 26.7164C34.7121 26.7644 34.6641 26.8124 34.6161 26.8124C34.5681 26.8604 34.5681 26.9564 34.4721 26.9564C34.3281 26.9564 34.2321 26.9564 34.1361 27.0044C34.0401 27.0044 33.9441 27.1004 33.8481 27.1484C33.7521 27.1484 33.6561 27.1964 33.5601 27.2444C33.3201 27.2924 33.1761 27.3884 32.9361 27.4844C32.6001 27.4364 32.4081 27.6284 32.1681 27.6764C31.8321 27.6764 31.4001 27.7244 31.2081 27.6284L31.0641 27.1964C31.1601 27.2444 31.0641 27.0044 31.1601 27.0044C31.1601 26.9084 31.1601 26.8604 31.2081 26.8124C31.2561 26.6684 31.4481 26.6684 31.4961 26.5244C31.5921 26.4284 31.6881 26.3324 31.8321 26.2844L32.0721 25.9004C32.3121 25.8044 32.4081 25.6124 32.6961 25.5644C32.9841 25.2284 33.3681 24.9884 33.7041 24.7004C33.9441 24.6044 34.1361 24.4604 34.2801 24.3164C34.4721 24.2684 34.5681 24.1244 34.6641 24.0284L34.9041 23.8364C35.0001 23.7884 35.0961 23.6444 35.1441 23.5964C35.1921 23.5484 35.2401 23.5964 35.2401 23.5484C35.2881 23.5484 35.2881 23.5004 35.2881 23.5004C35.3361 23.4524 35.3841 23.4524 35.4321 23.4524C35.4321 23.4044 35.4801 23.3084 35.5281 23.3084L35.8641 23.0684C36.0081 22.7804 36.2481 22.5404 36.4881 22.3004C36.4881 22.1084 36.5361 21.9644 36.6321 21.7724C36.5841 21.7244 36.5841 21.6284 36.5361 21.6284V21.5324C36.5361 21.4844 36.4881 21.4844 36.4881 21.4844C36.4881 21.3404 36.4881 21.2444 36.4401 21.1484H36.3921V21.0524C36.3441 20.9564 36.2001 20.9564 36.1521 20.8604L36.0561 20.6684C36.0081 20.6204 35.9121 20.6204 35.9601 20.4764C35.9121 20.1404 36.1521 19.9004 36.0561 19.6124ZM58.1519 20.4764C58.1039 20.4764 58.0079 20.3324 57.9119 20.4284C57.8159 20.4284 57.7679 20.3324 57.6239 20.3324C57.5759 20.3804 57.4799 20.4764 57.4319 20.4764H57.3839C57.3359 20.5244 57.2879 20.5244 57.2399 20.5244C57.2399 20.5724 57.2399 20.6204 57.1439 20.6204C57.0959 20.6684 56.9519 20.6204 56.8559 20.6684C56.7599 20.7164 56.6639 20.7164 56.6159 20.8124C56.5199 20.8604 56.3759 20.8124 56.3279 20.8604C56.2319 20.9084 56.1839 21.0524 56.0399 21.0524C55.7999 21.1004 55.6079 21.1484 55.4159 21.2444C55.1759 21.1964 55.0799 21.2924 54.9359 21.3404C54.7439 21.3884 54.6959 21.5324 54.5519 21.5324C54.0719 21.5804 53.7839 21.7724 53.4479 21.8684C53.3039 21.9164 53.1119 21.9644 53.0639 21.9644H53.0159C52.9679 21.9644 53.0159 22.0124 53.0159 22.0124C52.9199 22.0124 52.9199 22.0124 52.8239 22.0604C52.6319 22.1084 52.4879 22.2044 52.2479 22.1564L52.0559 22.2524H52.0079C51.9599 22.3004 51.9119 22.3004 51.8159 22.3004C51.8159 22.3004 51.8159 22.3484 51.7679 22.3484C51.7199 22.3484 51.7199 22.3964 51.6719 22.3964H51.5759C51.5279 22.3964 51.4319 22.4444 51.3839 22.4444C51.3359 22.4924 51.2399 22.5404 51.1919 22.5404C51.0959 22.5404 50.9999 22.5404 50.9039 22.5884L50.4719 22.7324H50.1839C50.0879 22.7324 50.0399 22.8284 49.9919 22.8284H49.9439L49.4639 22.9724C49.2239 22.9724 48.9839 23.1164 48.7439 23.1164C48.5999 23.1644 48.4559 23.1164 48.3599 23.1164C48.2159 23.1644 48.0719 23.2604 47.9279 23.2604C47.8319 23.3084 47.7359 23.2604 47.6399 23.2604C47.5439 23.2604 47.3999 23.3084 47.2559 23.3084L46.6799 23.4044C46.6319 23.3564 46.4879 23.3564 46.3919 23.3084C46.2479 23.3084 46.1519 23.2604 46.0559 23.1644C45.9119 22.8284 46.0079 22.4444 46.2479 22.2524C46.3439 22.2044 46.3919 22.0604 46.4879 21.9164L46.8239 21.6284C46.9199 21.4364 47.0639 21.3404 47.1119 21.1484C47.2559 21.0044 47.3519 20.9084 47.3999 20.6684C47.3519 20.6204 47.3519 20.4284 47.2079 20.4284C47.1119 20.1884 46.8719 20.2364 46.5359 20.2844C46.4879 20.3804 46.3439 20.4284 46.2959 20.5244L46.0079 20.8124C45.9599 21.0044 45.8159 21.1004 45.7199 21.2924C45.6719 21.3404 45.5759 21.3404 45.5759 21.4364L45.4319 21.6764C45.3839 21.6764 45.3359 21.8204 45.2879 21.8684C45.2399 22.0124 45.1919 22.2044 45.0479 22.3004C45.0479 22.4924 44.9519 22.6364 44.9519 22.8284C44.9519 23.0684 45.0479 23.2604 45.0479 23.5004C45.1439 23.5964 45.2399 23.7404 45.2879 23.8844L45.6239 24.0284C45.7199 24.0764 45.9599 24.0764 46.0079 24.1724H46.1519C46.1999 24.2204 46.2959 24.2684 46.3919 24.2684C46.9199 24.3644 47.5439 24.1244 48.0719 24.1724L48.3599 24.0284C48.5039 23.9804 48.5999 24.0284 48.6479 23.9804C48.7439 23.9324 48.8399 23.9324 48.8879 23.8844C49.2239 23.9324 49.3199 23.7404 49.6559 23.7884C49.8959 23.6444 50.2799 23.6444 50.5199 23.5484L50.9039 23.3564H51.2399C51.3839 23.2604 51.4799 23.1644 51.6239 23.1164H51.9599C51.9599 23.0684 52.0559 23.0684 52.1039 23.0684L52.2959 22.9244C52.2959 22.9244 52.3439 22.9724 52.3439 22.9244C52.4879 22.9244 52.5839 22.8764 52.6319 22.8284C52.8239 22.8764 52.8239 22.7804 53.0159 22.7804C52.9679 22.7324 53.0639 22.7804 53.1119 22.7804C53.1119 22.7324 53.1599 22.6844 53.1599 22.6844C53.2559 22.6364 53.3039 22.5884 53.3999 22.5884C53.5439 22.5884 53.5919 22.4924 53.7359 22.5404C53.7359 22.4444 53.9279 22.5404 53.8799 22.3964C53.9759 22.3964 54.0719 22.3964 54.0719 22.3484C54.3119 22.3484 54.4559 22.2044 54.6479 22.1084L55.2719 21.9164C55.3679 21.8684 55.5599 21.8204 55.6559 21.7244H55.7519L55.9919 21.6284C56.2319 21.4844 56.5679 21.4364 56.8559 21.3404C56.9999 21.2924 57.0479 21.1964 57.1919 21.1484C57.3359 21.1484 57.4319 21.1484 57.4799 21.1004L57.9119 20.8604C58.0079 20.7644 58.1999 20.7644 58.1519 20.4764ZM48.4079 19.2284L48.9359 18.7484C48.9839 18.6524 49.0799 18.5564 49.1279 18.4124C49.3199 18.4124 49.3679 18.2684 49.5119 18.1724C49.8479 18.0284 49.9439 17.6924 50.3279 17.5964C50.4239 17.4524 50.5679 17.3564 50.7119 17.2604C50.7599 17.1644 50.9039 17.2124 50.9519 17.1164C51.0479 17.0684 51.0959 16.9724 51.2399 16.9724C51.4319 16.8764 51.5759 16.7324 51.5759 16.4444C51.6239 16.2044 51.4799 16.1564 51.4319 16.0124H51.1439L51.0959 16.0604C51.0479 16.0604 51.0479 16.0124 50.9999 16.0124C50.9519 16.0124 50.9039 16.0604 50.8559 16.0604C50.8559 16.1084 50.8079 16.0604 50.8079 16.1084C50.6639 16.1564 50.6159 16.3004 50.5199 16.3484C50.4719 16.4444 50.3279 16.3964 50.3279 16.4924C50.2319 16.4924 50.1839 16.6364 50.0879 16.6364C49.9439 16.8764 49.6559 16.9724 49.4639 17.1644C49.3679 17.2604 49.3199 17.4044 49.2719 17.5004C48.9359 17.7884 48.6959 18.0764 48.4559 18.3644C48.3599 18.5564 48.1679 18.6524 48.0719 18.8444C47.9759 19.0364 47.8319 19.1324 47.8799 19.4684C48.1199 19.5644 48.3119 19.3724 48.4079 19.2284ZM58.6476 20.0924C58.5036 19.9484 58.2156 19.9964 58.0716 19.8524C57.9756 19.9484 57.7836 19.9964 57.5436 19.9964C57.4476 20.0924 57.2076 20.1404 57.1116 20.2844C56.9196 20.2844 56.8716 20.3804 56.7276 20.3804C56.6316 20.5724 56.4876 20.7164 56.2476 20.7644C56.1036 20.9564 56.0076 21.1484 55.7676 21.2444C55.7196 21.3884 55.6716 21.4844 55.5756 21.5804C55.5276 21.6764 55.3836 21.7244 55.3356 21.8684C55.2876 21.9164 55.2876 22.1084 55.2396 22.1564C55.1916 22.2524 55.0476 22.3964 55.0476 22.4444C55.0476 22.4924 55.0476 22.4924 54.9996 22.4924C54.9996 22.5404 54.9996 22.6364 54.9516 22.6364C54.9516 22.9244 54.9036 23.0684 54.8556 23.3084C54.9516 23.4524 54.9036 23.6924 54.9036 23.8844L54.9996 24.0764C55.0476 24.1244 54.9996 24.2684 55.0476 24.3164C55.2876 24.3644 55.3836 24.5564 55.5276 24.7004C55.7676 24.7004 55.9116 24.8444 56.1036 24.8444C56.3436 24.8444 56.5836 24.7484 56.8716 24.7484C56.9676 24.6524 57.2076 24.6524 57.3516 24.5564C57.5436 24.5564 57.6876 24.4604 57.8316 24.4604C57.9756 24.3644 58.0716 24.2684 58.2156 24.2204C58.4556 24.2684 58.5996 24.1244 58.7916 24.0764C58.8396 24.0284 58.9356 24.0284 59.0316 23.9804C59.0796 23.9324 59.1276 23.8364 59.2236 23.8364C59.4156 23.7884 59.5596 23.7404 59.6556 23.6444C60.0396 23.5964 60.3276 23.3564 60.6156 23.2604C60.6636 23.2604 60.6636 23.2124 60.6636 23.2124L60.9516 23.0204C61.1916 23.0204 61.3356 22.9244 61.4316 22.8284C61.5276 22.8284 61.6236 22.7804 61.6716 22.6844L61.8636 22.5404C62.0556 22.5404 62.1996 22.4444 62.2956 22.3004C62.4876 22.3004 62.5836 22.1564 62.7276 22.1084C63.0636 21.9644 63.3516 21.8204 63.6876 21.7244C63.6876 21.6764 63.6876 21.6764 63.7356 21.6764C63.7836 21.6284 63.7836 21.5804 63.8316 21.5804C63.9276 21.4844 64.0716 21.4844 64.1196 21.3884C64.2156 21.3404 64.2636 21.1964 64.4076 21.1964C64.5996 21.1484 64.6956 21.0524 64.8396 21.0524C64.9836 20.8604 65.1756 20.9084 65.1756 20.6684C65.2236 20.6204 65.1756 20.5724 65.1756 20.5244C65.1276 20.3804 65.0796 20.3804 64.9836 20.3324C64.5996 20.3804 64.3596 20.6204 64.0716 20.7644C63.9276 20.7644 63.8796 20.8124 63.7836 20.8124C63.6876 20.9084 63.5436 20.9084 63.4956 20.9564C63.4476 21.0044 63.3516 21.0524 63.2556 21.0524L62.8716 21.3404C62.6316 21.3884 62.4396 21.4844 62.1996 21.5804C62.1996 21.6764 62.1036 21.7244 62.0076 21.7724C61.8636 21.7724 61.6716 21.8684 61.6236 21.9164C61.4316 22.0124 61.3356 22.1084 61.1436 22.1564C60.9996 22.2524 60.6636 22.3004 60.4716 22.3964C60.4716 22.4444 60.3276 22.4444 60.3276 22.5404C60.2796 22.5884 60.2316 22.6844 60.1356 22.6844C59.8956 22.7324 59.5596 22.8764 59.3676 22.9724H59.2716L59.0316 23.1644C58.7916 23.2124 58.6476 23.3084 58.3596 23.3564C58.3596 23.4044 58.2156 23.4044 58.1676 23.5004H58.0716C58.0236 23.5484 57.9276 23.5004 57.9276 23.5484C57.3996 23.7404 56.9196 23.9324 56.1996 23.8844C56.1516 23.8364 56.0076 23.7884 56.0076 23.6924C56.0076 23.6444 55.9116 23.5964 55.9116 23.5484C55.9116 23.5004 55.8156 23.4524 55.8636 23.3564C55.9596 22.9244 56.1996 22.6364 56.3436 22.2524C56.4876 22.1084 56.6316 21.9644 56.7276 21.7724C56.9676 21.6764 57.0636 21.4844 57.2556 21.3884L57.5436 21.2444C57.5916 21.1484 57.7356 21.1484 57.7836 21.0524C58.0716 21.0524 58.1676 20.8604 58.4556 20.8604C58.5516 20.6684 58.6956 20.5724 58.6956 20.3324V20.2364C58.6476 20.1884 58.6476 20.1404 58.6476 20.0924ZM71.9669 20.3324C71.6789 20.3324 71.6309 20.5244 71.4389 20.6204C71.2469 20.6684 71.0069 20.8604 70.9109 20.9564C70.9109 21.0044 70.8629 20.9564 70.8629 20.9564C70.8149 21.0044 70.8149 21.0524 70.8149 21.0524H70.7189V21.1484C70.6709 21.1484 70.6229 21.1004 70.6229 21.1484C70.5749 21.1484 70.5749 21.2444 70.5269 21.2444C70.3829 21.1964 70.3829 21.3404 70.2389 21.2924C70.1429 21.4364 69.9989 21.5324 69.8549 21.6284C69.6149 21.6764 69.4709 21.8204 69.3269 21.9644C69.1349 22.0124 68.9429 22.0604 68.8469 22.2044C68.6549 22.2524 68.5589 22.3964 68.3189 22.3964C68.2709 22.4924 68.1749 22.5404 68.0789 22.5884C67.8389 22.7324 67.5989 22.8284 67.3109 22.8764C67.1669 22.9724 67.0709 23.0684 66.8789 23.0684C66.7829 23.0684 66.7829 23.1644 66.6869 23.1644C66.6389 23.2604 66.4469 23.1644 66.3989 23.2124C66.0629 23.3564 65.6789 23.4044 65.3909 23.5484C65.2469 23.5484 65.1509 23.5004 65.0549 23.5484C65.0069 23.5484 64.9109 23.5964 64.9109 23.5964C64.6229 23.6924 64.3829 23.5484 64.1429 23.5484C64.0469 23.5004 63.9989 23.4044 63.9509 23.3564C63.9029 23.2604 63.7589 23.3084 63.7589 23.1644V22.7324C63.8069 22.5404 64.0469 22.5404 63.9989 22.3004C64.0469 22.2524 64.0469 22.1084 64.1429 22.1084C64.1429 22.0124 64.2389 21.9644 64.2389 21.8684L64.5749 21.4844C64.6709 21.5324 64.6709 21.3884 64.7189 21.3404C64.8149 21.2924 64.8629 21.1964 64.9589 21.1964C65.1029 21.1004 65.2949 21.1964 65.4389 21.1484C65.5349 21.1484 65.6789 21.1004 65.7749 21.1004C65.9189 21.0524 66.0149 21.1004 66.1589 21.1004C66.3509 21.0044 66.5909 21.0044 66.8789 21.0044C66.9749 20.9084 67.1669 20.9084 67.2629 20.8604C67.3109 20.8124 67.3589 20.7644 67.4069 20.7644C67.5029 20.6204 67.6949 20.6684 67.7909 20.6204C67.8389 20.4764 67.9829 20.4764 67.9349 20.3324C68.0309 20.2844 68.1269 20.2364 68.1269 20.0924C68.1269 19.9004 68.1749 19.7084 68.2229 19.5644V19.3724C68.0789 19.0844 67.8869 18.8924 67.6469 18.7484C67.6469 18.7004 67.5509 18.7484 67.5509 18.6524C67.3109 18.6524 67.2149 18.7004 67.0709 18.7004C67.0229 18.7484 66.9269 18.7484 66.8789 18.7484V18.7964H66.8309V18.8444C66.7829 18.8444 66.7349 18.7964 66.7349 18.8444C66.6389 18.8924 66.4949 18.9404 66.3029 18.8924C66.1109 19.0844 65.8709 19.1804 65.5829 19.2764L65.3429 19.5644C65.2469 19.6124 65.1029 19.6124 65.0549 19.7564C65.0069 19.8524 64.8629 19.8524 64.8629 19.9484C64.7189 20.0444 64.6709 20.1404 64.5749 20.2364C64.5749 20.2364 64.5269 20.2844 64.4789 20.2844L64.0469 20.7164C63.9989 20.7164 64.0469 20.7644 64.0469 20.7644L63.9029 20.9084C63.9029 20.9564 63.8549 21.0044 63.8549 21.0524C63.7589 21.1484 63.6629 21.1964 63.6149 21.2924C63.5189 21.4364 63.4709 21.5804 63.3269 21.6764C63.2789 21.8204 63.1349 21.9164 63.0869 22.0604C62.9909 22.1084 63.0389 22.3004 62.9909 22.3484C62.8469 22.5404 62.7509 22.6844 62.7029 22.8764C62.6549 23.1164 62.7029 23.4524 62.6549 23.7404C62.7029 23.7404 62.7029 23.7884 62.7029 23.7884C62.7509 23.8844 62.8949 23.8844 62.8469 23.9804C62.9909 24.0284 63.0389 24.2204 63.1349 24.2204C63.1829 24.2204 63.1829 24.2684 63.1829 24.2684C63.2789 24.2684 63.5189 24.3164 63.5669 24.3164H63.6629C63.7589 24.3644 63.7589 24.3644 63.8549 24.3644C64.0949 24.3644 64.3829 24.3644 64.6229 24.4124C64.9109 24.3164 65.1509 24.2204 65.5349 24.2684C65.6309 24.2204 65.7269 24.1244 65.8709 24.1244C65.9669 24.0284 66.1589 24.0284 66.2069 23.9324C66.5429 23.9804 66.6389 23.7404 67.0229 23.7404L67.5509 23.4044C67.6469 23.4044 67.7429 23.3564 67.8389 23.3564C67.9829 23.2604 68.0789 23.1164 68.2709 23.0684C68.4149 23.0684 68.4629 22.9724 68.6069 22.9724C68.6069 22.9244 68.7509 22.9244 68.7509 22.8764C68.7989 22.8284 68.7989 22.7804 68.8949 22.7324C69.0389 22.6844 69.0869 22.5884 69.2309 22.5404C69.2789 22.4444 69.4709 22.4444 69.5189 22.3484L69.9029 22.2044C70.2389 21.9164 70.7189 21.7724 71.0549 21.4844C71.1509 21.4844 71.2469 21.3884 71.2469 21.3884H71.3429V21.3404H71.4389L71.4869 21.2924C71.5829 21.1964 71.7269 21.1484 71.7269 21.0524C71.7749 21.0044 71.8229 20.9564 71.9669 20.9564C71.9669 20.9084 72.0149 20.9564 72.0149 20.9084C72.0629 20.9084 72.0629 20.8124 72.1109 20.8124C72.1589 20.6204 72.1109 20.4284 71.9669 20.3324ZM66.4469 20.0924C66.5429 19.9964 66.6389 20.0924 66.6869 20.0924C66.7349 20.3324 66.3989 20.2844 66.4469 20.0924ZM66.8309 20.0924C66.7349 19.9964 66.8309 20.0444 66.8309 19.9004H66.9269C66.9269 19.9964 66.9269 20.0924 66.8309 20.0924Z" fill="#333333"/>
</svg>
