<svg width="122" height="85" viewBox="0 0 122 85" fill="none" xmlns="http://www.w3.org/2000/svg">
<path d="M86.64 0.892763C86.256 0.412764 85.584 0.316765 84.816 0.412764C84.816 0.604767 84.528 0.412764 84.528 0.604767C84.432 0.604767 84.336 0.700766 84.336 0.700766C84.144 0.700766 84.144 0.892763 83.952 0.892763C83.76 0.892763 83.664 1.37276 83.376 1.27676C83.28 1.46877 83.184 1.46877 83.088 1.56477C82.8 1.85276 82.512 2.23676 82.128 2.33276C82.032 2.62076 81.84 2.81277 81.552 3.00476C81.552 3.10076 81.456 3.19676 81.36 3.29277C81.264 3.38877 81.264 3.58076 81.072 3.58076C80.688 3.96476 80.4 4.44476 79.92 4.82876C79.824 5.02077 79.632 5.21276 79.536 5.50077L79.056 5.88476C78.96 5.98077 79.056 6.07677 79.056 6.07677L78.768 6.26876C78.768 6.46077 78.672 6.65276 78.672 6.94077C78.384 7.03676 78.096 7.22877 77.904 7.42076C77.808 7.70877 77.616 7.90076 77.616 8.18877C77.232 8.57277 76.752 8.86076 76.56 9.43677C76.464 9.43677 76.272 9.53277 76.176 9.62877C76.08 9.91677 75.888 10.1088 75.888 10.4928C75.408 10.7808 75.216 11.2608 74.832 11.5488C74.736 11.7408 74.64 11.8368 74.64 12.0288L74.16 12.3168L73.872 12.9888C73.392 13.3728 73.104 14.0448 72.528 14.3328C72.24 15.1008 71.76 15.5808 71.376 16.1568C71.184 16.2528 71.088 16.5408 70.896 16.6368C70.8 16.9248 70.512 17.0208 70.608 17.5008C70.32 17.5968 70.224 17.7888 70.032 17.9808C69.936 18.2688 69.744 18.3648 69.552 18.5568C69.36 19.0368 68.88 19.3248 68.784 19.9008C68.4 20.2848 68.112 20.7648 67.728 21.0528C67.728 21.3408 67.536 21.3408 67.44 21.5328V21.6288L67.248 21.9168L67.056 22.1088C66.96 22.2048 67.056 22.2048 67.056 22.3008C67.056 22.3008 66.864 22.3008 66.864 22.3968C66.672 22.5888 66.48 22.8768 66.192 23.0688C66 23.5488 65.808 23.9328 65.424 24.1248C65.424 24.4128 65.232 24.6048 65.04 24.7008C65.04 24.9888 64.848 25.0848 64.752 25.3728C64.56 25.4688 64.464 25.7568 64.272 25.8528C64.08 26.2368 63.792 26.5248 63.6 27.0048L63.216 27.2928C63.216 27.4848 63.12 27.5808 63.12 27.7728C62.832 27.9648 62.64 28.2528 62.544 28.6368C62.064 28.8288 61.872 29.4048 61.488 29.6928C61.392 29.9808 61.2 30.0768 61.2 30.3648C60.816 30.6528 60.624 31.1328 60.336 31.5168C60.24 31.7088 60.048 31.8048 59.952 31.9008L59.76 32.0928C59.664 32.2848 59.568 32.5728 59.376 32.7648C58.992 33.1488 58.896 33.7248 58.512 34.0128C58.224 34.4928 57.84 34.8768 57.648 35.3568C57.36 35.5488 57.168 35.8368 56.976 36.0288C56.976 36.2208 56.784 36.3168 56.688 36.4128C56.688 36.6048 56.592 36.7008 56.592 36.8928C56.112 37.2768 55.728 37.6608 55.536 38.2368L55.056 38.6208C54.864 39.1968 54.48 39.4848 54.288 39.9648C53.808 40.2528 53.616 40.7328 53.424 41.1168L53.136 41.4048C53.136 41.4048 53.136 41.5008 53.04 41.5008C52.944 41.7888 52.656 42.0768 52.464 42.2688C52.176 42.3648 52.08 42.5568 51.792 42.6528C51.12 42.5568 50.544 42.8448 49.872 42.8448C49.68 42.8448 49.488 42.8448 49.296 42.7488C49.104 42.7488 48.816 42.8448 48.624 42.7488C48.528 42.8448 48.432 42.8448 48.336 42.8448V42.9408C48.24 43.0368 48.048 42.9408 47.952 43.0368H47.376V42.9408C47.28 42.9408 47.28 43.0368 47.088 43.0368H46.032C45.744 43.0368 45.456 42.9408 45.168 42.9408C44.88 42.9408 44.688 43.0368 44.496 43.1328C44.016 43.0368 43.632 43.1328 43.248 43.2288C43.056 43.2288 42.864 43.1328 42.672 43.1328C42.672 43.2288 42.48 43.1328 42.384 43.1328C41.616 43.2288 41.04 43.2288 40.464 43.1328C40.176 43.2288 39.792 43.4208 39.408 43.4208C39.216 43.4208 39.12 43.3248 39.024 43.3248C38.832 43.3248 38.544 43.4208 38.448 43.2288C37.776 43.4208 36.912 43.3248 36.336 43.5168C36.144 43.4208 36.048 43.3248 35.76 43.3248C35.088 43.4208 34.32 43.5168 33.648 43.4208C33.264 43.5168 32.976 43.6128 32.592 43.6128C32.304 43.5168 32.112 43.5168 31.92 43.5168C31.536 43.4208 31.056 43.6128 30.672 43.5168C30.576 43.6128 30.384 43.6128 30.192 43.7088C30.096 43.6128 29.904 43.5168 29.712 43.5168C29.424 43.5168 29.328 43.8048 29.04 43.8048C28.752 43.8048 28.752 43.5168 28.368 43.5168C28.08 43.6128 27.984 43.7088 27.6 43.7088C27.312 43.7088 27.216 43.5168 26.928 43.5168H25.872L25.296 43.7088C24.816 43.5168 23.952 43.9008 23.856 43.2288C23.856 42.8448 24.048 42.6528 24.24 42.4608C24.336 42.2688 24.528 42.1728 24.528 42.0768C24.528 41.8848 24.624 41.8848 24.72 41.7888L24.816 41.5968C24.912 41.4048 25.008 41.3088 25.008 41.1168C25.2 41.0208 25.392 40.8288 25.584 40.6368C25.68 40.4448 25.872 40.3488 25.968 39.9648L26.736 39.2928C26.928 38.8128 27.216 38.6208 27.408 38.3328L27.696 37.8528C27.792 37.6608 27.888 37.5648 28.08 37.4688L28.752 36.4128L29.328 36.0288C29.52 35.5488 29.808 35.1648 30.096 34.8768C30.288 34.4928 30.672 34.2048 30.864 33.8208C31.152 33.7248 31.248 33.5328 31.344 33.3408C31.44 33.0528 31.728 33.0528 31.824 32.8608C32.016 32.3808 32.4 32.1888 32.688 31.9008C32.784 31.4208 33.072 31.1328 33.264 30.7488C33.36 30.6528 33.456 30.6528 33.456 30.4608C33.648 30.3648 33.744 30.1728 33.84 29.9808C34.032 29.8848 34.224 29.6928 34.32 29.5008C34.512 29.4048 34.512 29.1168 34.704 29.0208L35.088 28.5408C35.184 28.4448 35.28 28.1568 35.472 28.0608C35.568 27.7728 35.856 27.7728 35.856 27.5808C35.952 27.2928 36.144 27.1968 36.336 27.1008C36.528 27.0048 36.528 26.7168 36.72 26.6208C37.392 25.8528 37.872 24.7968 38.64 24.1248C38.736 23.9328 38.832 23.7408 39.024 23.5488L39.312 22.9728C39.792 22.6848 39.984 22.0128 40.464 21.7248C40.464 21.3408 40.752 21.2448 40.752 20.9568C41.232 20.6688 41.616 20.1888 42 19.8048C42.192 19.2288 42.48 18.7488 42.96 18.4608C43.152 17.7888 43.728 17.5008 43.92 16.8288L44.592 16.0608V15.9648L44.784 15.6768L44.976 15.3888L45.264 14.9088C45.456 14.8128 45.456 14.5248 45.552 14.3328C45.936 13.9488 46.032 13.4688 46.416 13.0848C46.32 12.4128 46.8 12.3168 46.992 11.8368C46.992 11.1648 47.088 10.5888 47.088 10.0128C47.088 9.72476 46.8 9.72476 46.896 9.43677C46.8 9.34076 46.896 9.14877 46.704 9.14877C46.8 8.95676 46.608 9.05277 46.608 8.86076C46.128 8.76476 45.936 8.95676 45.552 9.05277C45.264 9.34076 45.072 9.72476 44.88 10.1088C44.688 10.2048 44.688 10.4928 44.496 10.5888C44.496 10.8768 44.208 10.9728 44.208 11.2608L43.344 12.5088C43.152 12.6048 43.152 12.9888 42.96 13.1808C42.864 13.2768 42.864 13.3728 42.864 13.4688C42.768 13.4688 42.672 13.4688 42.672 13.5648L42.48 13.9488L42.192 14.3328V14.4288C42.192 14.5248 42.096 14.5248 42.096 14.6208C42 14.7168 41.808 14.9088 41.808 15.0048C41.712 15.0048 41.712 15.1008 41.616 15.1968C41.52 15.2928 41.424 15.3888 41.424 15.4848C41.424 15.5808 41.328 15.4848 41.328 15.5808C41.136 15.8688 40.944 16.1568 40.848 16.4448L40.464 16.7328C40.464 16.8288 40.464 16.9248 40.368 17.0208C40.368 17.0208 40.272 17.0208 40.272 17.1168V17.2128C40.272 17.3088 40.176 17.3088 40.08 17.4048V17.5008C39.984 17.6928 39.696 17.7888 39.696 18.0768L39.312 18.4608H39.216V18.5568C39.12 18.6528 39.024 18.6528 39.024 18.7488C39.024 19.0368 38.736 19.2288 38.736 19.5168C38.352 19.7088 38.256 20.0928 37.968 20.2848C37.872 20.5728 37.776 20.6688 37.776 20.9568C37.2 21.1488 37.2 21.9168 36.624 22.1088C36.528 22.3008 36.528 22.4928 36.528 22.6848C36.144 22.8768 35.952 23.2608 35.664 23.4528C35.568 23.7408 35.376 23.8368 35.472 24.1248C35.28 24.3168 35.088 24.3168 34.992 24.5088C34.8 24.6048 34.8 24.8928 34.512 24.9888C34.416 25.1808 34.32 25.3728 34.416 25.5648C34.224 25.6608 34.224 25.7568 34.032 25.7568C33.84 26.0448 33.648 26.4288 33.36 26.6208L32.784 27.8688C32.496 27.8688 32.4 28.0608 32.208 28.1568C32.208 28.3488 32.016 28.4448 31.92 28.5408C31.92 28.6368 31.824 28.6368 31.824 28.7328C31.824 28.9248 31.632 28.9248 31.632 29.1168L30.864 30.0768C30.768 30.3648 30.672 30.5568 30.384 30.6528C30.384 30.9408 30.192 31.0368 30.192 31.3248C29.808 31.4208 29.712 31.7088 29.52 31.9008C29.424 32.2848 29.136 32.3808 28.944 32.5728C28.944 32.6688 28.848 32.7648 28.752 32.9568C28.752 32.9568 28.656 32.9568 28.656 33.0528C28.56 33.1488 28.656 33.2448 28.56 33.3408L27.984 33.9168C27.984 34.1088 27.888 34.2048 27.792 34.2048V34.3968C27.696 34.4928 27.6 34.4928 27.6 34.6848C27.6 34.7808 27.408 34.8768 27.312 34.9728C27.12 35.4528 26.736 35.6448 26.544 35.9328C26.256 36.2208 26.16 36.7008 25.872 36.9888C25.68 37.2768 25.392 37.4688 25.296 37.6608C25.2 37.7568 25.2 37.8528 25.008 37.8528C25.008 38.1408 24.912 38.3328 24.816 38.5248C24.24 39.0048 23.952 39.7728 23.28 40.2528C23.184 40.7328 22.704 40.9248 22.608 41.5008L21.84 42.0768C21.648 42.7488 21.264 43.2288 20.688 43.5168C20.496 43.5168 20.4 43.6128 20.304 43.6128C20.112 43.6128 19.92 43.5168 19.632 43.5168L19.536 43.6128H19.248C18.192 43.7088 17.232 43.5168 16.464 43.6128C16.464 43.4208 16.176 43.6128 16.176 43.5168C15.504 43.5168 15.024 43.3248 14.352 43.4208C14.352 43.3248 14.352 43.3248 14.256 43.3248C13.872 43.2288 13.776 42.7488 13.296 42.6528C13.296 42.4608 12.912 42.6528 12.912 42.4608C12.816 42.3648 12.624 42.2688 12.624 42.1728C12.432 42.0768 12.144 42.1728 12.048 42.0768C11.76 42.0768 11.76 41.7888 11.568 41.7888C11.472 41.6928 11.184 41.6928 10.992 41.5968C10.8 41.5008 10.704 41.4048 10.512 41.4048C10.128 41.3088 10.032 41.5008 9.744 41.4048C9.648 41.3088 9.36 41.4048 9.36 41.3088C9.168 41.2128 9.168 41.1168 8.88 41.1168C8.688 41.1168 8.592 41.3088 8.304 41.3088C8.016 41.3088 8.016 41.1168 7.728 41.2128C7.344 41.1168 7.344 41.4048 7.056 41.4048C6.864 41.4048 6.768 41.2128 6.48 41.3088C6.288 41.4048 6 41.4048 5.904 41.5968L5.136 41.7888C4.848 41.8848 4.848 42.1728 4.56 42.3648C4.368 42.4608 4.272 42.6528 4.176 43.0368C4.368 43.3248 4.464 43.6128 4.848 43.6128C4.944 43.7088 5.04 43.7088 5.136 43.7088C5.136 43.8048 5.232 43.9008 5.328 43.8048C5.328 44.0928 5.616 43.9968 5.712 44.1888C6.096 44.2848 6.096 44.0928 6.384 44.1888C6.576 44.2848 6.576 44.4768 6.672 44.4768C6.864 44.5728 6.864 44.5728 6.96 44.5728C7.152 44.6688 7.248 44.6688 7.344 44.6688C7.44 44.6688 7.44 44.7648 7.44 44.7648C7.824 44.8608 8.304 44.8608 8.784 44.8608C9.456 45.1488 10.224 44.9568 10.992 45.0528C11.376 45.0528 11.664 45.1488 12.048 45.2448C12.432 45.2448 12.816 45.1488 13.2 45.2448C13.296 45.2448 13.488 45.3408 13.584 45.4368L13.968 45.6288C14.16 45.8208 14.256 46.2048 14.736 46.2048C14.832 46.6848 15.216 46.8768 15.504 47.1648C15.6 47.4528 15.792 47.5488 15.888 47.7408C15.984 47.9328 16.272 47.9328 16.368 48.1248C16.368 48.5088 16.752 48.6048 16.752 49.0848C16.56 49.4688 16.176 49.6608 16.176 50.1408L15.504 50.7168C15.504 51.0048 15.312 51.1968 15.216 51.4848L14.736 51.7728V51.9648C14.64 52.0608 14.544 52.0608 14.544 52.0608C14.448 52.1568 14.544 52.2528 14.448 52.2528L14.16 52.5408C14.16 52.7328 14.064 52.8288 14.064 53.1168C13.776 53.2128 13.68 53.4048 13.488 53.5008C13.296 54.0768 12.72 54.4608 12.528 54.8448L12.336 55.1328C12.336 55.4208 12.048 55.4208 11.952 55.5168C11.856 55.7088 11.76 55.8048 11.76 56.0928L10.896 56.8608C10.8 57.3408 10.416 57.5328 10.224 57.9168C10.128 58.1088 9.936 58.3008 9.936 58.3968C9.936 58.4928 9.936 58.3968 9.84 58.4928L9.552 59.0688C8.976 59.5488 8.4 60.0288 8.208 60.8928C7.92 61.0848 7.824 61.3728 7.44 61.4688C7.344 61.9488 7.056 62.2368 6.96 62.6208C6.672 62.8128 6.48 63.1008 6.288 63.2928C6.192 63.4848 6.096 63.5808 6.096 63.8688C5.808 63.9648 5.616 64.2528 5.52 64.4448L5.232 64.7328C5.232 64.8288 5.136 64.9248 5.136 64.9248C5.136 65.0208 5.04 65.0208 5.04 65.0208C5.04 65.1168 5.04 65.2128 4.944 65.3088H4.848C4.752 65.4048 4.752 65.5968 4.752 65.5968C4.752 65.6928 4.656 65.6928 4.656 65.6928L4.368 66.2688C4.368 66.2688 4.272 66.2688 4.176 66.3648C4.176 66.3648 4.272 66.4608 4.176 66.4608C4.176 66.5568 4.08 66.5568 3.984 66.6528L3.504 67.0368C3.312 67.7088 2.736 68.0928 2.448 68.8608C2.256 69.0528 2.16 69.3408 1.872 69.5328C1.872 69.8208 1.68 69.9168 1.68 70.2048C1.488 70.3008 1.392 70.3968 1.392 70.5888C1.008 70.7808 0.912 71.3568 0.816 71.8368C0.624001 72.0288 0.528 72.2208 0.432 72.6048C0.336 73.0848 0.528 73.6608 0.72 73.9488C1.104 74.0448 1.392 74.2368 1.776 74.2368C2.064 74.2368 2.064 73.9488 2.256 73.9488L2.544 73.4688C2.64 73.3728 2.64 73.1808 2.736 73.1808C2.736 73.0848 2.832 72.8928 2.832 72.7008C2.928 72.6048 2.832 72.4128 3.024 72.3168C3.024 71.9328 3.024 71.6448 3.12 71.3568C3.312 71.1648 3.696 71.1648 3.792 70.9728L4.176 70.6848L4.464 70.3008C4.464 69.8208 4.56 69.3408 4.656 68.8608C4.944 68.4768 5.328 68.1888 5.616 67.7088C5.904 67.4208 6 66.7488 6.48 66.5568C6.48 66.0768 6.96 65.8848 6.96 65.4048C7.44 65.0208 7.728 64.5408 8.016 63.9648C8.4 63.7728 8.496 63.2928 8.784 63.1008C8.784 62.8128 9.072 62.7168 9.072 62.4288C9.456 62.4288 9.456 61.9488 9.84 61.8528C9.84 61.5648 10.032 61.3728 10.128 61.0848C10.32 60.8928 10.416 60.7008 10.512 60.5088C10.8 60.4128 10.8 60.1248 10.896 59.9328C11.088 59.7408 11.28 59.6448 11.376 59.3568C11.472 59.1648 11.76 59.0688 11.952 58.9728C11.952 58.6848 12.048 58.3968 12.144 58.2048C12.528 58.1088 12.624 57.6288 12.912 57.3408C13.008 57.2448 13.104 57.1488 13.104 56.9568C13.104 56.7648 13.488 56.5728 13.68 56.4768C13.68 56.2848 13.776 56.0928 13.968 55.8048C14.064 55.6128 14.352 55.4208 14.352 55.2288C14.448 55.1328 14.544 55.0368 14.64 55.0368V54.8448L14.736 54.7488C14.928 54.4608 15.12 54.2688 15.312 54.1728C15.408 53.8848 15.6 53.5968 15.888 53.4048C15.888 53.2128 16.08 53.3088 16.08 53.0208C16.176 52.6368 16.56 52.4448 16.656 52.0608C16.848 52.0608 16.848 51.8688 16.944 51.8688C16.848 51.5808 17.232 51.7728 17.232 51.5808C17.424 51.3888 17.424 51.0048 17.712 50.9088C18.384 51.0048 18.768 51.3888 19.056 51.8688C19.056 52.0608 19.152 52.0608 19.152 52.2528C19.44 52.5408 19.728 52.9248 19.824 53.5008C20.112 53.6928 20.304 54.0768 20.496 54.3648L20.688 54.7488C20.688 54.8448 20.784 54.8448 20.784 54.9408C20.88 55.0368 20.784 55.1328 20.88 55.2288C20.88 55.3248 20.976 55.3248 21.072 55.4208V55.7088C21.168 55.7088 21.264 55.8048 21.264 55.8048C21.36 55.9008 21.264 56.0928 21.36 56.0928C21.552 56.3808 21.552 56.8608 21.84 56.9568L22.032 57.5328C22.224 57.5328 22.224 57.7248 22.32 57.9168V58.3968C22.512 58.6848 22.704 58.9728 22.8 59.2608C22.8 59.6448 22.992 59.7408 23.088 60.0288C23.28 60.1248 23.088 60.7008 23.376 60.7008C23.568 61.2768 23.664 61.7568 23.856 62.1408V62.8128C24.048 62.9088 24.048 63.1008 24.144 63.1968C24.24 63.2928 24.144 63.5808 24.336 63.5808L24.624 64.6368V65.2128C24.816 65.3088 24.72 65.4048 24.816 65.5968C24.912 65.9808 25.104 66.3648 25.296 66.6528C25.2 67.3248 25.488 67.5168 25.584 67.9968C25.488 68.2848 25.488 68.2848 25.584 68.6688C25.776 68.9568 25.776 69.5328 25.872 69.9168C25.872 70.1088 26.064 70.2048 25.968 70.3008C26.064 70.5888 25.872 70.5888 25.968 70.8768L26.16 71.6448V72.9888C26.16 73.2768 26.256 73.2768 26.256 73.5648C26.352 73.5648 26.256 73.6608 26.256 73.7568V74.0448C26.352 74.2368 26.256 74.4288 26.352 74.7168C26.352 74.9088 26.448 75.1008 26.352 75.2928C26.448 75.5808 26.256 75.6768 26.256 75.9648V76.8288C26.064 77.2128 26.16 77.4048 26.16 77.8848C26.064 77.8848 25.968 78.1728 25.968 78.2688C25.968 78.2688 26.064 78.3648 25.968 78.4608C25.776 78.7488 25.584 79.0368 25.488 79.4208C25.296 79.5168 25.104 79.8048 25.008 79.9968L24.528 80.9568V81.0528L24.24 81.4368C24.24 81.4368 24.336 81.5328 24.24 81.5328C24.24 81.6288 24.144 81.6288 24.144 81.7248L23.856 82.0128C23.856 82.2048 23.76 82.4928 23.664 82.6848C23.568 82.6848 23.664 82.9728 23.472 82.8768C23.376 83.0688 23.376 83.2608 23.28 83.2608C23.28 83.7408 23.28 84.1248 23.376 84.4128C23.472 84.5088 23.76 84.5088 23.856 84.6048C24.144 84.6048 24.048 84.8928 24.336 84.7968C24.624 84.7968 24.624 84.5088 24.912 84.4128C25.2 84.4128 25.296 84.0288 25.584 84.0288C25.68 83.8368 25.68 83.6448 25.872 83.5488C25.872 83.2608 26.256 83.3568 26.256 83.0688L26.448 82.4928L26.928 81.9168C26.928 81.5328 27.024 81.2448 27.312 81.0528C27.312 80.6688 27.6 80.5728 27.504 80.0928C27.696 79.9008 27.888 79.7088 27.984 79.3248C28.272 79.2288 28.368 78.9408 28.56 78.8448C28.656 78.3648 28.944 78.1728 29.136 77.8848C29.424 77.5968 29.52 77.0208 29.808 76.9248C30 76.5408 30.384 76.3488 30.48 75.8688C30.768 75.6768 30.96 75.2928 31.056 74.8128C31.344 74.6208 31.632 74.3328 31.728 73.9488C32.112 73.7568 32.208 73.2768 32.592 73.0848L32.976 72.3168C33.36 72.0288 33.552 71.5488 33.936 71.2608C33.936 71.0688 34.128 70.7808 34.224 70.6848L34.416 70.4928C34.416 70.3968 34.608 70.3008 34.704 70.2048C34.704 70.1088 34.704 70.0128 34.8 69.9168C34.8 69.8208 34.896 69.8208 34.896 69.7248C35.28 69.2448 35.568 68.6688 36.144 68.2848C36.144 67.9968 36.336 67.9008 36.336 67.5168C36.528 67.4208 36.72 67.2288 36.816 66.9408C36.912 66.7488 37.104 66.5568 37.2 66.2688C37.68 66.0768 37.872 65.6928 38.16 65.4048C38.256 65.2128 38.352 65.1168 38.256 64.9248C38.64 64.7328 38.736 64.2528 39.024 64.0608C39.12 63.9648 39.12 63.8688 39.216 63.8688C39.216 63.7728 39.408 63.6768 39.408 63.5808L39.696 63.1008C39.984 62.8128 40.272 62.5248 40.464 62.1408C40.752 61.8528 40.848 61.4688 41.232 61.2768C41.136 60.9888 41.328 60.9888 41.328 60.7008C41.52 60.6048 41.712 60.4128 41.808 60.2208C41.904 60.1248 41.904 60.1248 41.904 60.0288C42 60.0288 42 59.9328 42.096 59.9328C42.096 59.8368 42.096 59.8368 42.192 59.7408C42.192 59.6448 42.288 59.6448 42.288 59.6448C42.576 59.2608 42.96 58.8768 43.152 58.3008C43.44 58.2048 43.536 57.7248 43.92 57.5328C44.016 56.9568 44.496 56.7648 44.592 56.1888C45.072 55.8048 45.456 55.3248 45.648 54.7488C45.936 54.5568 46.32 54.2688 46.416 54.0768C46.512 54.0768 46.512 53.9808 46.512 53.8848C46.608 53.7888 46.8 53.6928 46.8 53.5968C46.896 53.5008 46.896 53.4048 46.896 53.3088C46.896 53.3088 46.992 53.2128 47.088 53.2128C47.28 52.8288 47.472 52.4448 47.76 52.1568C47.856 51.6768 48.336 51.4848 48.432 51.1008C48.624 50.9088 48.816 50.6208 49.2 50.5248C49.392 49.6608 50.064 49.2768 50.352 48.5088C50.544 48.5088 50.544 48.3168 50.64 48.1248L51.312 47.4528C51.408 47.1648 51.696 46.8768 51.792 46.5888C52.08 46.4928 52.08 46.3008 52.368 46.2048C52.464 45.8208 52.56 45.5328 52.848 45.4368C53.136 44.9568 53.52 44.6688 54.096 44.4768C55.056 44.5728 55.632 44.1888 56.496 44.3808L57.168 44.1888C57.36 44.2848 57.456 44.3808 57.744 44.2848L59.088 44.0928C59.376 43.9968 59.472 44.1888 59.76 44.1888C59.76 43.9968 59.952 44.0928 60.048 44.0928C60.144 44.0928 60.048 43.9968 60.048 43.9968H60.24C60.336 43.9968 60.432 43.9968 60.432 43.9008C60.432 44.0928 60.816 43.9968 60.912 43.9968C61.104 43.9968 61.296 43.8048 61.488 43.8048C61.872 43.9008 62.256 43.8048 62.544 43.7088C62.736 43.8048 63.024 43.9008 63.216 43.8048C63.504 43.8048 63.792 43.7088 63.984 43.6128C64.752 43.6128 65.424 43.5168 66.096 43.3248C66.192 43.3248 66.384 43.4208 66.672 43.4208C66.864 43.2288 67.056 43.3248 67.344 43.2288C67.536 43.2288 67.728 43.1328 68.016 43.1328C68.304 43.0368 68.688 43.1328 69.072 43.1328L69.84 42.8448C70.512 42.8448 71.088 42.8448 71.664 42.6528C72.144 42.6528 72.432 42.5568 72.816 42.4608H73.584C73.776 42.4608 73.968 42.3648 74.16 42.2688C74.256 42.2688 74.352 42.3648 74.544 42.3648C74.736 42.2688 74.928 42.1728 75.216 42.1728C75.504 42.1728 75.6 41.9808 75.888 41.9808C76.08 41.9808 76.176 42.0768 76.464 42.0768C76.656 41.9808 76.944 41.8848 76.944 41.8848H77.136C77.424 41.8848 77.424 41.8848 77.616 41.6928C77.808 41.5968 78 41.5008 78 41.2128C77.808 41.1168 77.808 40.9248 77.616 40.8288C77.52 40.7328 77.328 40.8288 77.232 40.6368C76.56 40.6368 75.984 40.7328 75.216 40.6368C75.024 40.6368 75.024 40.9248 74.736 40.8288C73.968 40.8288 73.392 40.9248 72.816 41.0208C72.336 40.9248 71.664 41.1168 70.992 41.0208C70.704 41.2128 70.416 41.2128 70.128 41.4048C69.84 41.3088 69.744 41.2128 69.552 41.2128C69.168 41.3088 68.496 41.2128 68.016 41.3088C67.632 41.4048 67.056 41.5008 66.48 41.4048C66.192 41.5008 65.904 41.5968 65.52 41.5968C65.328 41.6928 65.232 41.7888 65.04 41.7888C64.272 41.6928 63.408 41.8848 62.544 41.7888L61.68 41.9808C61.392 41.9808 61.2 41.9808 61.008 41.8848C61.008 41.9808 60.912 41.9808 60.816 41.9808C60.624 41.9808 60.432 42.0768 60.24 42.0768C59.952 42.0768 59.472 42.1728 59.376 42.1728C59.088 42.1728 58.704 42.0768 58.608 42.2688C58.32 42.3648 58.128 42.0768 58.032 42.2688C57.264 42.2688 56.4 42.4608 55.728 42.2688C55.728 41.8848 55.632 41.5968 55.728 41.3088L55.824 41.2128L56.016 40.8288C56.304 40.8288 56.4 40.6368 56.592 40.5408C56.592 40.3488 56.688 40.1568 56.88 39.9648C56.88 39.8688 56.976 39.7728 57.072 39.6768C57.168 39.6768 57.168 39.5808 57.264 39.5808C57.264 39.4848 57.168 39.3888 57.264 39.3888C57.264 39.2928 57.36 39.2928 57.456 39.1968L57.648 38.9088C57.744 38.8128 57.648 38.7168 57.648 38.7168H57.744V38.5248C57.744 38.5248 57.84 38.6208 57.84 38.5248C57.936 38.5248 57.84 38.3328 57.936 38.2368C58.32 38.2368 58.32 37.6608 58.608 37.4688L59.376 36.7968C59.28 36.4128 59.664 36.3168 59.664 36.0288C60.048 35.7408 60.24 35.2608 60.72 34.9728C60.72 34.5888 61.008 34.3968 61.104 34.0128C61.392 33.8208 61.584 33.4368 61.968 33.2448C61.968 32.9568 62.256 32.9568 62.256 32.6688L63.408 31.2288C63.504 31.0368 63.696 31.0368 63.696 30.7488C63.888 30.5568 63.984 30.3648 64.08 30.1728H64.272C64.272 30.0768 64.176 29.9808 64.272 29.9808C64.272 29.8848 64.464 29.7888 64.56 29.7888V29.5968C64.56 29.5968 64.656 29.5008 64.656 29.4048C64.752 29.3088 64.752 29.2128 64.752 29.1168L65.808 28.1568C65.808 27.7728 66 27.5808 66.288 27.3888C66.384 27.1008 66.576 26.9088 66.768 26.6208C67.344 26.2368 67.728 25.6608 68.016 24.9888C68.112 24.8928 68.208 24.7008 68.4 24.6048L68.688 24.1248C68.976 23.9328 69.168 23.5488 69.456 23.2608C69.744 22.9728 69.84 22.6848 70.224 22.3968C70.224 21.8208 70.704 21.6288 70.8 21.1488C70.992 21.0528 71.184 20.8608 71.376 20.6688C71.472 20.3808 71.664 20.1888 71.952 20.0928C71.952 19.9008 72.048 19.8048 72.048 19.6128L72.72 19.0368C72.816 18.8448 72.912 18.5568 73.2 18.4608C73.296 17.7888 73.776 17.5968 73.968 17.0208C74.256 16.8288 74.544 16.5408 74.736 16.2528C74.736 16.0608 74.928 15.9648 75.024 15.7728C75.216 15.7728 75.216 15.4848 75.408 15.3888C75.6 15.0048 75.984 14.9088 76.08 14.5248C76.176 14.3328 76.368 14.2368 76.368 14.0448C76.464 13.8528 76.656 13.8528 76.848 13.6608C76.944 13.5648 76.944 13.2768 77.04 13.1808C77.136 12.9888 77.424 12.9888 77.424 12.7008C77.616 12.6048 77.616 12.3168 77.808 12.2208C77.904 12.0288 78.096 12.0288 78.288 11.8368C78.48 11.3568 78.864 11.0688 79.056 10.4928C79.344 10.3968 79.536 10.1088 79.728 10.0128C79.824 9.72476 80.016 9.62877 80.112 9.34076C80.304 9.14877 80.496 9.05277 80.496 8.66877C80.88 8.38076 81.264 8.09276 81.456 7.61276C81.648 7.42076 81.744 7.22877 82.032 7.13276C82.032 7.03676 82.032 6.94077 82.128 6.94077C82.224 6.94077 82.128 6.65276 82.224 6.65276C82.224 6.36477 82.512 6.46077 82.608 6.26876C82.704 6.17276 82.704 5.88476 82.896 5.88476C82.992 5.69276 83.184 5.69276 83.28 5.50077C83.568 4.82876 84.24 4.54076 84.432 3.77277C84.72 3.67676 84.912 3.48476 85.104 3.29277C85.296 2.81277 85.68 2.52477 85.872 2.23676H86.064C86.16 2.14076 86.448 1.94877 86.448 1.75676C86.64 1.85276 86.352 1.37276 86.544 1.37276C86.544 1.18077 86.736 1.08477 86.64 0.892763ZM45.072 44.8608C46.704 45.0528 48.336 44.5728 49.968 44.8608C50.16 45.2448 50.256 45.8208 49.872 45.9168C49.68 46.3008 49.392 46.4928 49.104 46.6848C49.008 47.1648 48.72 47.2608 48.72 47.7408C48.528 47.9328 48.24 47.9328 48.144 48.1248C48.048 48.6048 47.664 48.7968 47.472 49.0848C47.376 49.4688 46.992 49.6608 46.8 50.0448C46.8 50.2368 46.608 50.3328 46.416 50.5248L46.128 50.9088V51.1008L45.36 51.7728C45.264 52.0608 45.072 52.2528 44.976 52.6368C44.784 52.7328 44.592 53.0208 44.304 53.2128L43.92 54.2688C43.536 54.5568 43.344 55.0368 42.96 55.3248C42.96 55.4208 42.768 55.4208 42.768 55.6128C42.576 55.6128 42.576 55.9008 42.48 55.9968C42.48 56.0928 42.288 56.1888 42.192 56.2848V56.4768L42 56.6688L41.808 56.9568C41.808 57.2448 41.52 57.2448 41.424 57.5328C41.04 57.8208 40.944 58.3008 40.464 58.4928C40.272 59.1648 39.696 59.5488 39.504 60.3168C39.216 60.4128 39.12 60.7008 39.024 60.8928C38.64 61.2768 38.448 61.7568 38.064 62.1408C37.872 62.2368 37.872 62.5248 37.68 62.8128H37.584L37.392 63.1968L37.008 63.3888C36.912 63.5808 36.912 63.7728 36.912 63.8688L36.624 64.0608C36.624 64.1568 36.624 64.2528 36.528 64.2528V64.3488C36.528 64.4448 36.336 64.5408 36.144 64.5408C35.952 64.9248 35.664 65.2128 35.568 65.6928C35.088 65.8848 35.088 66.4608 34.704 66.6528L34.416 67.4208C34.128 67.5168 34.032 67.7088 34.032 67.9968C33.648 68.1888 33.456 68.5728 33.168 68.7648C33.168 69.0528 32.976 69.0528 32.976 69.2448C32.688 69.3408 32.784 69.6288 32.592 69.6288C32.4 70.0128 32.208 70.2048 31.92 70.5888L31.632 70.9728L31.344 71.4528L30.96 71.9328C30.96 72.1248 30.672 72.1248 30.672 72.3168C30.48 72.4128 30.48 72.7008 30.384 72.7968C30.192 72.8928 30.096 73.0848 30 73.1808L29.712 73.6608C29.712 73.6608 29.52 73.6608 29.52 73.7568C29.52 73.7568 29.616 73.8528 29.52 73.8528L29.424 73.9488V74.0448C29.136 74.3328 28.848 74.6208 28.464 74.6208C28.368 74.5248 28.176 74.5248 28.08 74.3328C28.08 74.1408 27.984 74.0448 28.08 73.8528V72.7968C28.08 72.5088 27.888 72.5088 27.888 72.2208C27.792 72.2208 27.792 72.0288 27.792 71.9328C27.792 71.6448 27.6 70.9728 27.696 70.6848C27.6 70.1088 27.504 69.5328 27.504 68.7648C27.504 68.6688 27.408 68.5728 27.408 68.3808C27.312 68.2848 27.408 68.2848 27.312 68.2848C27.312 68.1888 27.216 68.0928 27.216 67.9968C27.12 67.9968 27.216 67.7088 27.024 67.7088C27.024 67.4208 27.216 67.3248 27.12 67.0368C27.024 66.5568 26.928 66.1728 26.64 65.8848C26.736 65.3088 26.352 65.1168 26.448 64.5408C26.352 64.3488 26.256 64.1568 26.256 63.8688C26.256 63.6768 26.064 63.4848 26.16 63.1968L25.968 62.8128C25.968 62.7168 25.872 62.6208 25.872 62.6208C25.776 62.5248 25.872 62.4288 25.776 62.4288C25.68 61.6608 25.296 61.2768 25.296 60.5088C25.104 60.2208 24.912 60.1248 24.912 59.6448C24.912 59.4528 24.72 59.2608 24.624 59.0688C24.528 58.9728 24.528 58.6848 24.336 58.5888C24.432 58.3008 24.24 58.1088 24.24 57.9168L23.952 57.2448C23.856 57.1488 23.76 56.9568 23.76 56.6688C23.568 56.5728 23.568 56.2848 23.376 56.1888V55.8048C23.28 55.5168 23.088 55.3248 22.896 55.1328C22.896 54.9408 22.8 54.8448 22.8 54.7488V54.6528H22.704V54.4608H22.608L22.416 53.8848C22.416 53.8848 22.32 53.8848 22.32 53.7888L22.224 53.5968C22.224 53.5008 22.224 53.3088 22.128 53.3088C22.128 53.2128 21.84 53.0208 21.744 52.8288C21.552 52.2528 21.264 51.7728 20.976 51.3888C20.784 51.1968 20.784 50.8128 20.496 50.7168C20.496 50.5248 20.496 50.5248 20.4 50.3328V50.2368C20.304 50.1408 20.208 50.0448 20.208 49.9488C20.208 49.7568 20.016 49.4688 19.728 49.3728L19.44 48.7008C19.44 48.4128 19.536 48.3168 19.728 48.2208L20.016 48.0288C20.016 48.0288 19.92 47.9328 20.016 47.9328L20.112 47.8368C20.208 47.7408 20.112 47.6448 20.208 47.5488C20.208 47.4528 20.4 47.4528 20.4 47.3568C20.4 47.1648 20.592 47.1648 20.592 46.9728C21.168 46.4928 21.456 45.8208 22.128 45.5328C22.896 45.4368 23.856 45.2448 24.624 45.5328C25.2 45.4368 26.16 45.3408 26.64 45.5328C27.12 45.2448 27.6 45.4368 28.176 45.4368C28.368 45.4368 28.56 45.3408 28.752 45.3408C29.136 45.3408 29.616 45.4368 30.096 45.3408C30.672 45.3408 31.44 45.2448 32.112 45.4368C32.4 45.4368 32.496 45.2448 32.784 45.2448C33.168 45.2448 33.552 45.2448 33.744 45.3408C34.128 45.2448 34.512 45.1488 34.992 45.2448C34.896 45.4368 35.376 45.1488 35.28 45.3408C35.376 45.2448 35.568 45.3408 35.664 45.2448C35.76 45.1488 35.76 45.3408 36.048 45.2448C36.336 45.2448 36.624 45.1488 36.912 45.2448C37.104 45.2448 37.296 45.1488 37.584 45.1488C37.872 45.0528 37.968 45.3408 38.256 45.2448C39.12 45.1488 39.792 45.1488 40.752 45.1488C41.04 45.1488 41.232 44.9568 41.424 44.8608C42 45.0528 42.96 45.1488 43.44 44.8608L44.496 45.0528C44.784 45.1488 44.784 44.8608 45.072 44.8608ZM18.576 45.3408C18.672 45.5328 18.96 45.7248 18.96 45.9168C19.056 46.2048 18.864 46.3008 18.768 46.4928C18.576 46.4928 18.576 46.7808 18.288 46.7808C17.808 46.6848 17.424 46.3008 17.52 45.6288C17.712 45.3408 18.096 45.3408 18.576 45.3408ZM92.6213 40.6368C92.0453 40.6368 91.9493 41.0208 91.5653 41.2128C91.1813 41.3088 90.7013 41.6928 90.5093 41.8848C90.5093 41.9808 90.4133 41.8848 90.4133 41.8848C90.3173 41.9808 90.3173 42.0768 90.3173 42.0768H90.1252V42.2688C90.0293 42.2688 89.9333 42.1728 89.9333 42.2688C89.8373 42.2688 89.8373 42.4608 89.7413 42.4608C89.4532 42.3648 89.4532 42.6528 89.1653 42.5568C88.9733 42.8448 88.6853 43.0368 88.3973 43.2288C87.9173 43.3248 87.6293 43.6128 87.3413 43.9008C86.9573 43.9968 86.5733 44.0928 86.3813 44.3808C85.9973 44.4768 85.8053 44.7648 85.3253 44.7648C85.2293 44.9568 85.0373 45.0528 84.8453 45.1488C84.3653 45.4368 83.8853 45.6288 83.3093 45.7248C83.0213 45.9168 82.8293 46.1088 82.4453 46.1088C82.2533 46.1088 82.2533 46.3008 82.0613 46.3008C81.9653 46.4928 81.5813 46.3008 81.4853 46.3968C80.8133 46.6848 80.0453 46.7808 79.4693 47.0688C79.1813 47.0688 78.9893 46.9728 78.7973 47.0688C78.7013 47.0688 78.5093 47.1648 78.5093 47.1648C77.9333 47.3568 77.4532 47.0688 76.9733 47.0688C76.7812 46.9728 76.6853 46.7808 76.5893 46.6848C76.4933 46.4928 76.2053 46.5888 76.2053 46.3008V45.4368C76.3013 45.0528 76.7812 45.0528 76.6853 44.5728C76.7812 44.4768 76.7812 44.1888 76.9733 44.1888C76.9733 43.9968 77.1653 43.9008 77.1653 43.7088L77.8373 42.9408C78.0293 43.0368 78.0293 42.7488 78.1253 42.6528C78.3173 42.5568 78.4133 42.3648 78.6053 42.3648C78.8932 42.1728 79.2773 42.3648 79.5653 42.2688C79.7573 42.2688 80.0453 42.1728 80.2373 42.1728C80.5253 42.0768 80.7173 42.1728 81.0053 42.1728C81.3893 41.9808 81.8693 41.9808 82.4453 41.9808C82.6373 41.7888 83.0213 41.7888 83.2133 41.6928C83.3093 41.5968 83.4053 41.5008 83.5013 41.5008C83.6933 41.2128 84.0773 41.3088 84.2693 41.2128C84.3653 40.9248 84.6533 40.9248 84.5573 40.6368C84.7493 40.5408 84.9413 40.4448 84.9413 40.1568C84.9413 39.7728 85.0373 39.3888 85.1333 39.1008V38.7168C84.8453 38.1408 84.4613 37.7568 83.9813 37.4688C83.9813 37.3728 83.7893 37.4688 83.7893 37.2768C83.3093 37.2768 83.1173 37.3728 82.8293 37.3728C82.7333 37.4688 82.5413 37.4688 82.4453 37.4688V37.5648H82.3493V37.6608C82.2533 37.6608 82.1573 37.5648 82.1573 37.6608C81.9653 37.7568 81.6773 37.8528 81.2933 37.7568C80.9093 38.1408 80.4293 38.3328 79.8533 38.5248L79.3733 39.1008C79.1813 39.1968 78.8932 39.1968 78.7973 39.4848C78.7013 39.6768 78.4133 39.6768 78.4133 39.8688C78.1253 40.0608 78.0293 40.2528 77.8373 40.4448C77.8373 40.4448 77.7413 40.5408 77.6453 40.5408L76.7812 41.4048C76.6853 41.4048 76.7812 41.5008 76.7812 41.5008L76.4933 41.7888C76.4933 41.8848 76.3973 41.9808 76.3973 42.0768C76.2053 42.2688 76.0133 42.3648 75.9173 42.5568C75.7253 42.8448 75.6293 43.1328 75.3413 43.3248C75.2453 43.6128 74.9573 43.8048 74.8613 44.0928C74.6693 44.1888 74.7653 44.5728 74.6693 44.6688C74.3813 45.0528 74.1893 45.3408 74.0933 45.7248C73.9973 46.2048 74.0933 46.8768 73.9973 47.4528C74.0933 47.4528 74.0933 47.5488 74.0933 47.5488C74.1893 47.7408 74.4773 47.7408 74.3813 47.9328C74.6693 48.0288 74.7653 48.4128 74.9573 48.4128C75.0533 48.4128 75.0533 48.5088 75.0533 48.5088C75.2453 48.5088 75.7253 48.6048 75.8213 48.6048H76.0133C76.2053 48.7008 76.2053 48.7008 76.3973 48.7008C76.8773 48.7008 77.4532 48.7008 77.9333 48.7968C78.5093 48.6048 78.9893 48.4128 79.7573 48.5088C79.9493 48.4128 80.1413 48.2208 80.4293 48.2208C80.6213 48.0288 81.0053 48.0288 81.1013 47.8368C81.7733 47.9328 81.9653 47.4528 82.7333 47.4528L83.7893 46.7808C83.9813 46.7808 84.1733 46.6848 84.3653 46.6848C84.6533 46.4928 84.8453 46.2048 85.2293 46.1088C85.5173 46.1088 85.6133 45.9168 85.9013 45.9168C85.9013 45.8208 86.1893 45.8208 86.1893 45.7248C86.2853 45.6288 86.2853 45.5328 86.4773 45.4368C86.7653 45.3408 86.8613 45.1488 87.1493 45.0528C87.2453 44.8608 87.6293 44.8608 87.7253 44.6688L88.4933 44.3808C89.1653 43.8048 90.1252 43.5168 90.7973 42.9408C90.9893 42.9408 91.1813 42.7488 91.1813 42.7488H91.3733V42.6528H91.5653L91.6613 42.5568C91.8533 42.3648 92.1413 42.2688 92.1413 42.0768C92.2373 41.9808 92.3333 41.8848 92.6213 41.8848C92.6213 41.7888 92.7173 41.8848 92.7173 41.7888C92.8133 41.7888 92.8133 41.5968 92.9093 41.5968C93.0052 41.2128 92.9093 40.8288 92.6213 40.6368ZM81.5813 40.1568C81.7733 39.9648 81.9653 40.1568 82.0613 40.1568C82.1573 40.6368 81.4853 40.5408 81.5813 40.1568ZM82.3493 40.1568C82.1573 39.9648 82.3493 40.0608 82.3493 39.7728H82.5413C82.5413 39.9648 82.5413 40.1568 82.3493 40.1568ZM106.979 35.2608C106.691 34.9728 106.211 34.9728 105.731 34.8768C105.539 35.0688 105.155 35.0688 104.867 35.1648C104.579 35.3568 104.291 35.5488 103.906 35.5488C103.619 35.8368 103.331 36.0288 102.947 36.1248C102.755 36.3168 102.659 36.6048 102.467 36.7008C102.275 36.7968 102.083 36.8928 101.891 36.8928C101.795 37.0848 101.699 37.2768 101.603 37.2768C101.507 37.4688 101.219 37.4688 101.219 37.5648C101.027 37.6608 101.027 37.8528 100.835 37.9488C100.643 37.9488 100.547 38.1408 100.451 38.2368L99.5865 39.1968C99.2025 39.2928 99.0105 39.6768 98.6265 39.7728C98.3385 40.2528 97.7625 40.5408 97.4745 41.0208C97.2825 41.0208 97.1865 41.2128 96.9945 41.2128C96.7065 41.5968 96.3225 41.8848 95.9385 42.1728C95.6505 42.3648 95.3625 42.7488 94.8825 42.8448C94.6905 43.0368 94.5945 43.3248 94.4025 43.4208C93.7305 43.3248 93.7305 43.9008 93.0585 43.8048C92.9625 43.6128 92.7705 43.6128 92.7705 43.3248C92.7705 43.1328 92.9625 43.0368 93.0585 42.9408C93.1545 42.8448 93.3465 42.8448 93.3465 42.5568C93.5385 42.4608 93.5385 42.1728 93.6345 41.8848C93.9225 41.8848 94.1145 41.5968 94.2105 41.5008C94.2105 41.2128 94.3065 41.0208 94.3065 40.8288L94.1145 40.4448H93.8265C93.7305 40.2528 93.7305 40.1568 93.5385 40.0608C93.1545 39.8688 92.6745 39.9648 92.3865 40.0608C92.0985 40.3488 92.0025 40.6368 91.8105 41.0208C91.4265 41.1168 91.2345 41.5008 91.0425 41.7888H90.8505V41.9808C90.8505 41.9808 90.7545 42.0768 90.6585 42.0768C90.6585 42.0768 90.7545 42.1728 90.6585 42.1728C90.6585 42.2688 90.5625 42.2688 90.5625 42.2688V42.4608C90.4665 42.5568 90.3705 42.6528 90.2745 42.6528C90.2745 43.2288 90.1785 43.6128 90.0825 44.0928C90.1785 44.2848 90.2745 44.5728 90.2745 44.8608L90.6585 45.0528C90.8505 45.0528 90.7545 45.3408 90.9465 45.3408C91.0425 45.5328 91.3305 45.5328 91.5225 45.7248C92.1945 45.8208 92.6745 45.7248 93.2505 45.6288C93.4425 45.4368 93.9225 45.4368 94.1145 45.2448L94.9785 44.8608C94.9785 44.6688 95.2665 44.6688 95.2665 44.5728C95.4585 44.5728 95.3625 44.2848 95.5545 44.2848C95.7465 44.1888 95.8425 44.0928 96.0345 44.0928C96.2265 43.9008 96.3225 43.6128 96.6105 43.5168L97.0905 43.2288C97.2825 42.9408 97.7625 42.7488 97.9545 42.5568L98.1465 42.1728C98.3385 42.1728 98.3385 42.0768 98.5305 42.0768C98.5305 41.8848 98.6265 41.7888 98.7225 41.7888L99.0105 41.5968C99.2025 41.5008 99.2985 41.4048 99.5865 41.5008C99.7785 41.5968 99.8745 42.1728 99.5865 42.2688C99.4905 42.4608 99.3945 42.5568 99.2985 42.5568C99.2025 42.6528 99.2025 42.8448 99.0105 42.8448C98.8185 43.5168 98.4345 43.9008 98.1465 44.2848C97.9545 44.5728 97.6665 44.7648 97.5705 44.9568L97.3785 45.1488C97.3785 45.1488 97.4745 45.2448 97.3785 45.3408L96.8025 46.0128C96.7065 46.0128 96.7065 46.1088 96.6105 46.1088C96.6105 46.1088 96.7065 46.3008 96.6105 46.3008C96.6105 46.3008 96.5145 46.3008 96.5145 46.3968V46.4928H96.4185V46.6848C96.4185 46.6848 96.3225 46.6848 96.3225 46.7808C96.1305 46.8768 95.9385 46.9728 95.8425 47.1648V47.3568C95.8425 47.3568 95.6505 47.3568 95.6505 47.4528C95.4585 47.6448 95.2665 47.9328 94.9785 48.1248H94.7865C94.7865 48.2208 94.6905 48.2208 94.6905 48.2208C94.5945 48.3168 94.5945 48.3168 94.4985 48.3168C94.4025 48.4128 94.1145 48.3168 94.0185 48.5088C93.8265 48.7008 93.4425 48.7968 93.0585 48.8928C92.8665 48.9888 92.7705 49.1808 92.4825 49.1808C92.0025 49.2768 91.8105 49.5648 91.4265 49.6608C91.2345 49.6608 91.1385 49.6608 91.0425 49.7568C90.9465 49.7568 90.8505 49.8528 90.8505 49.9488C90.6585 50.0448 90.4665 49.9488 90.3705 50.0448C90.3705 50.0448 90.3705 50.1408 90.2745 50.1408C90.1785 50.2368 89.8905 50.2368 89.6025 50.2368C89.5065 50.4288 89.3145 50.6208 89.1225 50.6208C88.8345 50.7168 88.7385 50.8128 88.4505 50.8128C88.3545 51.0048 88.0665 51.1008 87.8745 51.1968C87.7785 51.1968 87.5865 51.2928 87.5865 51.2928C87.4905 51.2928 87.2985 51.3888 87.1065 51.4848C86.7225 51.6768 86.2425 52.0608 85.7625 52.0608C85.5705 52.3488 85.2825 52.4448 84.9945 52.6368C84.5145 52.7328 84.1305 53.0208 83.6505 53.1168C83.5545 53.3088 83.2665 53.3088 83.2665 53.4048C83.0745 53.5008 83.0745 53.6928 82.8825 53.7888C82.4025 53.7888 82.1145 54.0768 81.8265 54.2688C81.7305 54.2688 81.5385 54.2688 81.4425 54.3648C81.2505 54.4608 81.2505 54.6528 80.9625 54.7488C80.5785 54.8448 80.2905 55.0368 79.8105 55.2288C79.4265 55.5168 79.1385 55.8048 78.5625 55.9008C78.4665 56.0928 78.3705 56.2848 78.1785 56.3808C77.9865 56.3808 77.9865 56.4768 77.6985 56.4768L77.3145 56.9568C77.2185 57.0528 76.9305 57.0528 76.8345 57.2448C76.3545 57.3408 76.2585 57.8208 75.6825 57.8208C75.5865 58.0128 75.3945 58.1088 75.2025 58.2048L74.8185 58.6848C74.4345 58.8768 74.0505 59.0688 73.7625 59.4528C73.3785 59.5488 73.1865 59.9328 73.0905 60.1248C72.9945 60.2208 72.8025 60.1248 72.8025 60.3168C72.5145 60.6048 72.1305 60.7968 71.9385 61.1808C71.3625 61.1808 71.3625 61.7568 70.9785 61.8528C70.8825 62.0448 70.6905 62.1408 70.5945 62.4288C70.4025 62.4288 70.3065 62.5248 70.1145 62.5248C69.9225 62.9088 69.6345 63.1008 69.5385 63.4848C68.9625 63.4848 69.0585 64.1568 68.5785 64.2528C68.3865 64.6368 68.0985 64.9248 67.8105 65.1168C67.7145 65.4048 67.5225 65.5008 67.4265 65.7888C67.0425 65.8848 67.0425 66.4608 66.5625 66.5568C66.4665 67.0368 66.0825 67.3248 65.7945 67.7088L65.0265 68.8608C64.8345 69.2448 64.6425 69.7248 64.3545 70.1088C64.3545 70.2048 64.1625 70.3008 64.1625 70.3008V70.3968C64.1625 70.5888 63.9705 70.5888 63.9705 70.6848V70.7808C63.7785 70.9728 63.7785 71.1648 63.5865 71.2608C63.4905 71.5488 63.4905 71.9328 63.2025 72.1248C63.2985 72.7008 63.1065 72.8928 63.1065 73.3728C62.9145 73.3728 63.0105 73.6608 62.9145 73.6608C62.9145 74.0448 62.8185 74.2368 62.7225 74.5248C62.7225 75.0048 62.7225 75.3888 62.6265 75.7728C62.7225 75.9648 62.8185 76.2528 62.8185 76.6368C63.0105 76.7328 63.1065 77.0208 63.1065 77.3088C63.3945 77.5968 63.4905 77.9808 63.7785 78.3648C64.0665 78.3648 64.2585 78.4608 64.4505 78.6528C65.4105 78.6528 65.9865 78.6528 66.8505 78.5568C66.9465 78.3648 67.2345 78.3648 67.4265 78.2688C67.7145 78.1728 67.9065 77.9808 68.0985 77.8848C68.3865 77.8848 68.5785 77.8848 68.7705 77.7888C69.2505 77.5008 69.6345 77.1168 70.3065 77.0208C70.4985 76.7328 70.8825 76.4448 71.1705 76.2528C71.4585 76.0608 71.7465 75.9648 72.0345 75.8688C72.0345 75.7728 72.1305 75.6768 72.1305 75.6768C72.2265 75.6768 72.3225 75.6768 72.4185 75.5808L72.5145 75.4848C72.6105 75.3888 72.6105 75.3888 72.7065 75.3888C72.8985 75.1968 72.9945 75.0048 73.1865 74.9088C73.4745 74.7168 73.6665 74.5248 73.9545 74.5248L74.4345 73.8528C74.6265 73.8528 74.7225 73.7568 74.8185 73.6608H75.0105C75.0105 73.6608 75.1065 73.5648 75.1065 73.4688H75.2985L75.5865 73.0848C75.6825 72.9888 75.8745 72.8928 75.8745 72.7968C76.0665 72.7008 76.0665 72.6048 76.1625 72.4128C76.2585 72.3168 76.4505 72.3168 76.4505 72.1248C77.1225 72.0288 77.2185 71.2608 77.8905 70.9728C77.9865 70.3968 78.4665 70.2048 78.9465 69.9168C79.2345 69.3408 79.8105 69.0528 80.0985 68.4768C80.5785 67.9008 81.2505 67.4208 81.7305 66.7488C81.9225 66.7488 81.9225 66.4608 82.1145 66.3648C82.1145 66.2688 82.2105 66.1728 82.2105 66.0768C82.4025 66.1728 82.3065 65.8848 82.4985 65.8848C82.7865 65.5968 83.0745 65.3088 83.2665 64.9248L84.3225 63.9648L84.7065 63.3888L85.4745 62.7168C85.6665 62.2368 86.0505 61.9488 86.4345 61.6608C86.7225 61.2768 87.0105 60.8928 87.3945 60.6048C87.3945 60.4128 87.4905 60.3168 87.4905 60.1248C88.1625 59.7408 88.4505 59.1648 89.0265 58.7808C89.0265 58.4928 89.2185 58.4928 89.2185 58.2048C89.5065 58.0128 89.6985 57.8208 89.8905 57.5328C90.1785 57.4368 90.3705 57.1488 90.6585 56.9568C90.7545 56.7648 90.7545 56.4768 90.9465 56.2848C91.0425 56.1888 91.4265 56.0928 91.4265 55.9008C91.7145 55.8048 91.6185 55.2288 92.0025 55.2288C92.0985 54.9408 92.2905 54.7488 92.4825 54.5568C93.0585 54.2688 93.1545 53.6928 93.7305 53.4048L93.9225 52.8288C94.2105 52.7328 94.3065 52.4448 94.4985 52.2528C94.6905 52.0608 94.9785 51.8688 95.0745 51.5808C95.2665 51.4848 95.3625 51.1968 95.5545 51.0048C95.6505 50.8128 95.8425 50.7168 96.0345 50.5248C96.3225 50.1408 96.6105 49.6608 96.9945 49.3728L98.9145 48.5088C99.7785 48.3168 100.355 47.9328 101.219 47.8368C101.507 47.7408 101.699 47.5488 101.891 47.4528H102.371C102.755 47.0688 103.234 46.8768 104.003 46.8768C104.003 46.7808 104.099 46.8768 104.195 46.7808C104.195 46.7808 104.291 46.6848 104.387 46.6848C104.483 46.5888 104.579 46.3968 104.771 46.3968C104.963 46.3008 105.347 46.3968 105.635 46.3968C105.635 46.2048 105.827 46.3008 105.827 46.2048C106.019 46.2048 106.019 46.1088 106.115 46.1088C106.307 46.0128 106.595 46.0128 106.786 46.0128C106.883 45.8208 107.075 45.7248 107.171 45.7248C107.843 45.6288 108.227 45.4368 108.707 45.2448H109.283C109.475 45.1488 109.571 44.9568 109.859 44.8608H110.339C110.723 44.5728 111.299 44.5728 111.779 44.4768C111.875 44.3808 112.067 44.3808 112.067 44.2848C112.259 44.2848 112.355 44.1888 112.451 44.1888H113.027C113.219 43.9968 113.507 43.9008 113.891 43.9008C114.083 43.7088 114.275 43.7088 114.371 43.6128C114.563 43.5168 114.947 43.5168 114.947 43.4208C115.427 43.3248 115.811 43.2288 116.099 43.0368H116.675C116.675 42.9408 116.867 42.9408 116.963 42.8448C117.155 42.7488 117.347 42.7488 117.539 42.5568H118.115C118.307 42.3648 118.499 42.4608 118.787 42.4608V42.3648C118.979 42.3648 119.075 42.2688 119.171 42.2688H119.363C119.651 42.0768 120.227 42.0768 120.515 41.8848C120.899 41.8848 121.187 41.8848 121.379 41.7888C121.571 41.6928 121.763 41.2128 121.571 41.0208C121.571 40.8288 121.283 40.8288 121.091 40.7328C120.899 40.7328 120.803 40.5408 120.515 40.6368C120.131 40.6368 120.131 40.9248 119.747 40.8288C119.747 41.0208 119.363 40.9248 119.267 40.9248L118.883 41.1168C118.595 41.0208 118.403 41.1168 118.115 41.1168C117.923 41.2128 117.731 41.4048 117.443 41.5008C117.251 41.5008 117.155 41.3088 116.867 41.4048C116.771 41.5968 116.483 41.5008 116.291 41.5008V41.5968C116.099 41.6928 115.907 41.6928 115.811 41.7888C114.851 41.6928 114.275 42.1728 113.315 42.1728L112.643 42.3648V42.4608H112.451C112.355 42.4608 112.163 42.5568 111.971 42.5568C111.779 42.6528 111.587 42.6528 111.395 42.6528C111.203 42.8448 111.011 42.8448 110.819 42.9408H110.339C110.147 43.1328 110.051 43.2288 109.763 43.2288C109.283 43.2288 108.995 43.4208 108.611 43.4208C108.419 43.5168 108.323 43.7088 108.035 43.7088C107.843 43.8048 107.747 43.6128 107.555 43.6128C107.363 43.9008 107.075 43.9968 106.595 43.9008C106.499 44.0928 106.211 44.1888 106.115 44.1888C106.019 44.1888 106.019 44.1888 106.019 44.2848L105.347 44.4768C104.867 44.6688 104.483 44.8608 104.003 44.9568C103.811 45.0528 103.811 44.8608 103.523 44.9568C103.523 45.0528 103.331 44.9568 103.331 45.0528C102.851 45.1488 102.659 45.4368 102.275 45.3408C102.179 45.5328 102.083 45.5328 101.891 45.6288C101.795 45.7248 101.795 45.8208 101.603 45.8208H101.219C101.027 45.8208 101.027 45.7248 100.931 45.8208C100.739 45.8208 100.451 46.0128 100.355 45.7248C100.163 45.2448 100.643 44.9568 100.835 44.6688C100.931 44.1888 101.411 44.0928 101.507 43.6128C101.603 43.5168 101.603 43.4208 101.603 43.3248C101.699 43.2288 101.891 43.2288 101.891 43.1328C101.987 42.9408 101.987 42.6528 102.275 42.5568C102.275 42.2688 102.562 42.2688 102.659 42.0768L102.947 41.5008C103.234 41.4048 103.331 41.2128 103.523 41.1168C103.811 40.5408 104.195 40.0608 104.675 39.6768C104.867 39.2928 105.251 39.1008 105.443 38.6208C105.635 38.6208 105.731 38.4288 105.827 38.3328C105.923 38.3328 105.827 38.2368 105.827 38.2368L106.115 37.9488C106.115 37.8528 106.211 37.7568 106.211 37.6608C106.499 37.2768 107.075 37.0848 107.171 36.5088C107.075 36.1248 107.171 35.5488 106.979 35.2608ZM90.8505 51.8688C91.1385 51.9648 91.3305 52.0608 91.4265 52.2528C91.4265 52.8288 90.9465 53.0208 90.7545 53.5008C90.3705 53.7888 90.1785 54.1728 89.7945 54.4608C89.6025 54.8448 89.2185 55.0368 89.1225 55.5168C88.9305 55.7088 88.7385 55.8048 88.5465 55.9008C88.3545 56.3808 87.9705 56.6688 87.5865 56.9568C87.4905 57.3408 87.2985 57.5328 87.2025 57.9168C86.9145 57.9168 86.9145 58.1088 86.6265 58.1088L86.0505 58.9728C85.5705 59.3568 85.1865 59.7408 84.8025 60.2208C84.5145 60.4128 84.5145 60.7968 84.2265 60.8928C84.0345 61.1808 83.8425 61.2768 83.7465 61.6608C83.6505 61.7568 83.4585 61.7568 83.3625 61.9488C83.2665 61.9488 83.3625 62.1408 83.2665 62.1408C82.8825 62.2368 82.7865 62.7168 82.4985 62.9088C82.1145 63.3888 81.6345 63.6768 81.4425 64.3488C81.1545 64.4448 81.0585 64.6368 80.7705 64.8288C80.7705 64.9248 80.8665 64.9248 80.7705 64.9248C80.6745 64.9248 80.5785 65.0208 80.4825 65.0208L80.0985 65.5008V65.5968C80.0985 65.6928 79.7145 65.9808 79.7145 66.1728L78.9465 66.7488C78.7545 67.1328 78.4665 67.3248 78.3705 67.7088L77.6985 68.1888C77.6985 68.3808 77.5065 68.4768 77.5065 68.5728L77.2185 68.8608C76.7385 69.1488 76.4505 69.5328 76.1625 70.0128C75.8745 70.0128 75.8745 70.3008 75.5865 70.3008L75.2025 70.7808C74.8185 70.8768 74.7225 71.3568 74.2425 71.4528C74.1465 71.7408 73.8585 71.9328 73.7625 72.2208C73.5705 72.1248 73.5705 72.4128 73.4745 72.4128H73.3785C73.2825 72.4128 73.1865 72.5088 73.0905 72.6048C73.0905 72.6048 72.9945 72.6048 72.8985 72.7008L72.8025 72.7968C72.7065 72.7968 72.6105 72.8928 72.5145 72.9888C72.1305 73.2768 71.7465 73.4688 71.3625 73.8528C71.3625 73.8528 71.3625 74.0448 71.1705 74.0448C71.0745 74.0448 70.9785 74.1408 70.8825 74.2368C70.7865 74.3328 70.6905 74.3328 70.5945 74.3328C70.5945 74.4288 70.4985 74.6208 70.3065 74.6208C70.1145 74.8128 69.9225 75.0048 69.6345 75.0048C69.6345 75.1968 69.3465 75.1008 69.3465 75.1968C69.3465 75.3888 69.2505 75.3888 69.1545 75.4848C68.6745 75.6768 68.1945 75.7728 67.9065 76.1568C67.7145 76.1568 67.5225 76.1568 67.4265 76.2528C67.3305 76.4448 67.1385 76.4448 66.9465 76.4448C66.7545 76.4448 66.5625 76.4448 66.4665 76.6368C66.3705 76.6368 66.2745 76.8288 66.0825 76.7328C65.6985 76.7328 65.4105 76.6368 65.2185 76.5408L64.6425 75.9648C64.5465 75.1968 64.8345 74.8128 64.7385 73.9488C64.8345 73.9488 64.8345 73.8528 64.8345 73.8528C64.9305 73.3728 65.3145 73.2768 65.2185 72.7008C65.5065 72.4128 65.6025 72.0288 65.6985 71.5488C65.8905 71.3568 66.1785 71.1648 66.1785 70.7808C66.7545 70.2048 66.9465 69.2448 67.6185 68.7648C67.6185 68.5728 67.6185 68.3808 67.8105 68.1888C67.7145 68.0928 67.9065 68.0928 67.9065 68.0928C68.0025 67.9968 68.0025 67.9968 68.0025 67.9008C68.0985 67.9008 68.1945 67.9008 68.1945 67.8048C68.2905 67.8048 68.1945 67.7088 68.2905 67.7088C68.3865 67.4208 68.5785 67.2288 68.7705 67.1328C68.9625 66.6528 69.3465 66.2688 69.7305 65.9808C69.7305 65.6928 70.1145 65.5968 70.2105 65.4048C70.5945 64.7328 71.2665 64.3488 71.6505 63.6768C72.0345 63.5808 72.3225 63.2928 72.5145 63.0048C72.8025 63.0048 72.8025 62.8128 72.9945 62.7168L73.2825 62.2368C73.7625 62.1408 74.1465 61.7568 74.5305 61.4688C74.5305 61.3728 74.5305 61.3728 74.6265 61.2768C74.7225 61.2768 74.9145 60.9888 75.0105 60.9888C75.1065 60.9888 75.2025 60.8928 75.2025 60.7968C75.2985 60.7968 75.3945 60.7008 75.4905 60.7008C75.4905 60.7008 75.5865 60.6048 75.5865 60.5088C76.0665 60.0288 76.7385 59.8368 77.1225 59.3568L77.6985 59.0688L78.3705 58.5888C78.8505 58.3008 79.2345 58.0128 79.5225 57.6288C80.0025 57.5328 80.3865 57.2448 80.7705 57.0528C80.9625 56.7648 81.2505 56.7648 81.5385 56.5728C81.7305 56.4768 82.0185 56.2848 82.2105 56.2848L82.8825 55.7088C83.5545 55.7088 83.7465 55.3248 84.3225 55.2288C84.5145 54.7488 85.0905 54.6528 85.4745 54.4608C85.8585 54.3648 86.0505 53.9808 86.4345 53.7888C86.6265 53.7888 86.7225 53.6928 87.0105 53.7888C87.0105 53.5968 87.2985 53.6928 87.2985 53.5008C87.4905 53.5008 87.4905 53.3088 87.5865 53.3088C87.9705 53.1168 88.2585 52.9248 88.7385 52.8288L89.0265 52.6368L89.8905 52.3488L90.8505 51.8688ZM99.7785 41.2128C99.7785 41.1168 99.8745 41.0208 100.067 41.1168C100.067 41.3088 99.8745 41.3088 99.7785 41.2128Z" fill="#333333"/>
</svg>
