<svg width="64" height="41" viewBox="0 0 64 41" fill="none" xmlns="http://www.w3.org/2000/svg">
<path d="M20.056 21.704C20.104 21.56 20.2 21.464 20.296 21.416C20.296 21.368 20.344 21.368 20.392 21.368L20.44 21.272C20.488 21.272 20.536 21.272 20.584 21.224L20.632 21.176C20.776 21.08 20.92 21.032 21.064 20.984C21.112 20.84 21.304 20.84 21.496 20.792C21.496 20.744 21.544 20.744 21.544 20.696C21.592 20.696 21.592 20.648 21.64 20.648C21.688 20.6 21.784 20.6 21.784 20.552C21.832 20.552 21.832 20.504 21.88 20.504C21.928 20.456 21.976 20.456 22.024 20.456C22.072 20.456 22.072 20.408 22.072 20.408C22.168 20.36 22.264 20.36 22.312 20.312C22.408 20.312 22.36 20.216 22.456 20.216C22.408 20.12 22.648 20.264 22.6 20.168C22.696 20.168 22.744 20.12 22.744 20.072C22.936 20.024 23.08 19.928 23.224 19.832C23.272 19.736 23.416 19.784 23.512 19.688C23.56 19.592 23.656 19.544 23.752 19.448C23.992 19.496 23.992 19.304 24.184 19.304C24.232 19.208 24.328 19.208 24.376 19.16C24.424 19.064 24.472 19.064 24.568 19.016L25.24 18.68C25.288 18.584 25.48 18.584 25.528 18.44C25.72 18.44 25.72 18.296 25.864 18.248C25.96 18.248 25.96 18.152 26.056 18.2L26.248 17.96C26.392 17.912 26.44 17.816 26.584 17.816L26.68 17.672H26.776C26.776 17.624 26.824 17.624 26.824 17.576H26.92V17.528C26.968 17.48 27.016 17.48 27.064 17.48C27.064 17.48 27.064 17.432 27.112 17.432L27.352 17.24C27.4 17.144 27.592 17.192 27.64 17.048L28.168 16.712C28.216 16.664 28.264 16.616 28.36 16.616C28.456 16.52 28.456 16.328 28.6 16.28C28.744 16.28 28.792 16.184 28.888 16.184C28.936 16.088 29.128 16.04 29.176 15.944C29.32 15.896 29.368 15.752 29.512 15.752C29.56 15.608 29.608 15.512 29.752 15.416L30.088 15.224C30.088 15.176 30.136 15.224 30.136 15.224C30.184 15.176 30.232 15.08 30.28 15.08C30.472 14.888 30.616 14.744 30.808 14.648C30.904 14.6 30.904 14.504 31 14.456L31.864 13.688C31.96 13.64 31.96 13.496 32.056 13.496C32.104 13.4 32.152 13.352 32.248 13.304C32.392 13.16 32.488 12.92 32.68 12.872C32.776 12.776 32.872 12.68 32.92 12.584L33.064 12.44V12.392L33.112 12.344L33.448 12.056C33.544 11.816 33.736 11.72 33.784 11.528L34.168 11.24L34.264 10.952C34.408 10.856 34.552 10.712 34.6 10.52L34.84 10.376C34.984 9.896 35.416 9.608 35.512 9.08C35.56 9.032 35.512 8.936 35.656 8.936L35.752 8.792C35.848 8.456 36.04 8.264 36.088 7.88C36.232 7.736 36.28 7.448 36.424 7.304C36.424 7.16 36.472 7.064 36.472 6.92C36.568 6.824 36.52 6.632 36.616 6.584V6.2C36.664 6.104 36.76 6.056 36.76 5.912C36.664 5.672 36.856 5.48 36.904 5.24C36.856 4.808 36.808 4.376 36.856 3.944L36.76 3.752C36.76 3.752 36.808 3.704 36.76 3.704V3.656C36.712 3.608 36.76 3.56 36.76 3.464C36.76 3.416 36.712 3.416 36.712 3.368C36.712 3.32 36.664 3.368 36.664 3.32C36.616 3.224 36.616 3.176 36.616 3.08C36.616 3.032 36.568 3.032 36.568 3.032L36.424 2.792C36.376 2.6 36.232 2.552 36.232 2.408L35.416 1.544C35.224 1.496 34.984 1.4 34.84 1.256C34.648 1.304 34.6 1.208 34.504 1.112C33.976 1.016 33.592 0.871999 33.112 0.775997C32.728 0.775997 32.392 0.727998 32.104 0.679998C31.912 0.775997 31.768 0.679998 31.576 0.679998C31.48 0.679998 31.384 0.679998 31.336 0.727998C31.288 0.679998 31.144 0.679998 31.048 0.679998L30.616 0.775997L30.28 0.679998C30.28 0.727998 30.232 0.727998 30.232 0.727998C30.136 0.775997 30.088 0.823999 29.944 0.823999H29.416C29.176 0.919998 28.936 0.919998 28.696 0.967998C28.696 0.967998 28.648 0.967998 28.648 1.016C28.552 1.016 28.504 0.967998 28.408 1.016C28.312 1.016 28.216 1.064 28.12 1.112H27.832C27.688 1.256 27.4 1.208 27.208 1.256C27.064 1.352 26.968 1.448 26.824 1.496C26.488 1.448 26.392 1.592 26.056 1.544C26.008 1.64 25.864 1.688 25.768 1.736C25.72 1.784 25.528 1.688 25.528 1.784C25.24 1.784 25.048 1.976 24.856 2.072H24.664L24.616 2.12C24.52 2.168 24.424 2.12 24.328 2.168C24.328 2.168 24.28 2.216 24.28 2.264H24.136C24.088 2.312 23.992 2.312 23.896 2.312C23.848 2.408 23.704 2.408 23.608 2.456C23.464 2.456 23.416 2.504 23.272 2.504C23.176 2.6 22.984 2.648 22.888 2.744L22.504 2.936L22.024 3.08C21.928 3.176 21.784 3.224 21.64 3.272C21.496 3.32 21.448 3.464 21.304 3.464C20.968 3.56 20.776 3.752 20.44 3.848C20.392 3.896 20.296 3.848 20.248 3.944C20.2 3.992 20.152 4.04 20.104 4.04C19.864 4.088 19.72 4.232 19.528 4.28C19.336 4.376 19.192 4.472 18.952 4.52C18.856 4.664 18.712 4.76 18.568 4.808C18.52 4.856 18.376 4.856 18.28 4.904C18.232 5 18.088 5 17.992 5.048C17.992 5.048 17.992 5.096 17.944 5.096C17.848 5.096 17.8 5.192 17.704 5.192L17.368 5.48C17.128 5.48 16.936 5.672 16.792 5.768L16.456 6.008C16.36 6.008 16.264 6.104 16.216 6.104C16.168 6.152 16.168 6.2 16.12 6.2L15.928 6.296C15.88 6.296 15.832 6.344 15.784 6.392C15.64 6.536 15.4 6.632 15.16 6.68C14.968 6.92 14.728 7.016 14.488 7.208C14.248 7.256 14.2 7.448 13.96 7.496C13.96 7.592 13.816 7.592 13.768 7.688C13.624 7.736 13.624 7.88 13.528 7.928C13.384 7.976 13.288 8.024 13.144 8.024C13.144 8.072 13.144 8.072 13.096 8.072L13 8.216C12.952 8.264 12.904 8.264 12.856 8.264L12.808 8.36C12.76 8.36 12.712 8.36 12.712 8.408C12.664 8.408 12.712 8.456 12.712 8.456C12.664 8.456 12.616 8.504 12.616 8.504L12.472 8.696C12.328 8.696 12.28 8.792 12.184 8.792C12.184 8.888 12.04 8.888 12.04 9.032C11.896 9.032 11.944 9.176 11.848 9.176C11.704 9.32 11.56 9.416 11.368 9.464C11.224 9.656 11.032 9.848 10.936 10.04C10.84 10.04 10.744 10.136 10.696 10.184L10.408 10.328C10.312 10.424 10.264 10.616 10.168 10.664C10.072 10.808 9.928 10.856 9.88 11.048C9.592 11.192 9.448 11.48 9.208 11.624C9.112 11.816 9.016 11.96 8.872 12.104L8.488 12.488C8.488 12.632 8.44 12.68 8.44 12.776C8.344 12.824 8.296 12.92 8.296 13.016C8.2 13.064 8.2 13.208 8.152 13.304C8.104 13.304 8.152 13.4 8.104 13.448C8.056 13.496 8.152 13.64 8.152 13.688V13.832C8.344 13.976 8.536 14.024 8.824 14.024H8.92C8.968 14.024 9.016 13.928 9.064 13.928C9.16 13.928 9.208 13.832 9.208 13.784C9.256 13.736 9.304 13.688 9.352 13.688C9.304 13.448 9.304 13.16 9.304 12.92L9.4 12.728C9.448 12.632 9.496 12.584 9.544 12.584L9.976 12.056L10.312 11.672C10.36 11.624 10.36 11.528 10.408 11.528C10.552 11.48 10.648 11.384 10.792 11.384C10.84 11.24 10.888 11.144 10.984 11.048C11.128 11 11.272 10.808 11.368 10.76C11.416 10.76 11.416 10.712 11.464 10.664L11.656 10.568L11.752 10.424C11.8 10.376 11.848 10.424 11.848 10.376C11.896 10.376 11.896 10.328 11.944 10.328C12.04 10.232 12.184 10.184 12.232 10.04C12.424 9.992 12.52 9.8 12.664 9.704C12.808 9.656 12.904 9.512 13.048 9.464L13.576 8.984C13.672 8.936 13.768 8.888 13.864 8.888C13.864 8.792 13.96 8.84 13.96 8.792C14.008 8.792 13.96 8.744 13.96 8.744L14.104 8.6C14.2 8.6 14.248 8.552 14.392 8.552C14.488 8.456 14.488 8.312 14.632 8.264C14.68 8.216 14.824 8.216 14.872 8.168C14.872 8.072 15.016 8.12 14.968 8.024C15.064 8.024 15.016 7.928 15.112 7.928C15.256 7.88 15.4 7.784 15.544 7.688C15.592 7.592 15.688 7.592 15.784 7.544C15.832 7.448 15.928 7.448 15.976 7.352C16.072 7.352 16.168 7.304 16.264 7.304C16.408 7.112 16.6 6.92 16.888 6.824C16.936 6.632 17.224 6.632 17.368 6.536V6.488C17.368 6.44 17.464 6.392 17.464 6.392C17.56 6.392 17.608 6.344 17.704 6.344C17.8 6.248 17.896 6.104 18.04 6.056C18.184 6.056 18.232 5.96 18.376 5.96L18.52 5.864C18.52 5.72 18.616 5.768 18.664 5.72C18.856 5.72 18.952 5.624 19.048 5.528C19.24 5.48 19.288 5.336 19.432 5.24C19.624 5.288 19.624 5.144 19.768 5.096C19.912 5.144 19.912 5.048 20.056 5.048C20.152 4.952 20.344 4.904 20.488 4.856L20.968 4.568C21.016 4.52 21.112 4.52 21.208 4.52C21.496 4.328 21.928 4.28 22.216 4.04C22.312 4.04 22.36 3.992 22.504 3.992C22.744 3.8 23.176 3.752 23.464 3.56C23.656 3.608 23.704 3.512 23.8 3.464C23.848 3.464 23.944 3.416 23.944 3.416L24.136 3.32H24.232C24.28 3.272 24.232 3.272 24.28 3.272C24.376 3.224 24.424 3.272 24.472 3.224C24.568 3.176 24.712 3.128 24.856 3.128C24.952 3.032 25.096 2.936 25.24 2.888C25.528 2.936 25.624 2.744 25.816 2.696C25.96 2.696 26.104 2.696 26.248 2.648C26.44 2.552 26.728 2.504 26.92 2.408H27.256C27.256 2.312 27.304 2.36 27.352 2.36C27.4 2.36 27.4 2.312 27.448 2.264C27.496 2.264 27.592 2.264 27.64 2.216C27.928 2.216 28.072 2.072 28.36 2.072C28.408 2.024 28.552 1.976 28.696 1.928C28.936 1.928 29.176 1.976 29.416 1.88C29.512 1.88 29.608 1.784 29.752 1.736C29.992 1.88 30.232 1.688 30.472 1.688H31.24C31.384 1.64 31.48 1.544 31.624 1.544C31.672 1.592 31.72 1.592 31.768 1.592C31.96 1.688 32.152 1.592 32.344 1.544C32.488 1.64 32.728 1.64 32.872 1.736C33.112 1.688 33.256 1.784 33.448 1.832H33.736C33.88 1.928 34.072 1.976 34.312 2.024L34.504 2.168L34.696 2.312C34.792 2.408 34.984 2.456 35.08 2.6C35.176 2.648 35.224 2.792 35.272 2.888C35.272 2.888 35.32 2.888 35.368 2.936C35.368 2.936 35.32 2.984 35.368 2.984C35.368 3.032 35.416 3.032 35.416 3.08L35.56 3.224C35.608 3.272 35.656 3.32 35.656 3.416L35.896 4.184C35.848 4.424 35.896 4.568 35.944 4.76C35.896 4.952 35.944 5.144 35.992 5.336L35.896 5.624C35.944 5.72 35.896 5.912 35.896 6.056C35.848 6.056 35.896 6.104 35.896 6.152C35.848 6.2 35.8 6.2 35.8 6.248C35.752 6.296 35.752 6.344 35.752 6.392C35.704 6.44 35.752 6.44 35.704 6.44V6.632C35.656 6.68 35.704 6.776 35.608 6.824C35.608 6.968 35.608 7.112 35.512 7.16C35.464 7.4 35.32 7.544 35.224 7.736C35.176 7.736 35.224 7.832 35.224 7.88C35.176 7.976 35.176 8.024 35.176 8.072C35.08 8.216 34.936 8.312 34.84 8.408C34.84 8.552 34.792 8.6 34.792 8.744C34.648 8.888 34.504 9.032 34.456 9.272C34.312 9.464 34.168 9.608 34.072 9.8C33.928 9.944 33.784 10.04 33.64 10.136C33.64 10.232 33.592 10.28 33.592 10.328C33.544 10.328 33.544 10.376 33.496 10.424C33.448 10.52 33.4 10.52 33.352 10.568C33.256 10.712 33.112 10.856 33.064 11.048C32.92 11 32.92 11.144 32.776 11.144C32.728 11.384 32.488 11.48 32.392 11.672C32.248 11.672 32.248 11.768 32.104 11.816C32.008 12.008 31.816 12.152 31.672 12.296L31.24 12.776C31.048 12.872 30.904 12.968 30.808 13.112C30.664 13.16 30.568 13.304 30.424 13.4C30.376 13.448 30.28 13.496 30.28 13.496C30.232 13.544 30.28 13.592 30.28 13.592C30.232 13.592 30.184 13.592 30.184 13.64V13.688C30.136 13.736 30.088 13.736 30.04 13.736C29.944 13.88 29.8 14.024 29.656 14.12C29.56 14.168 29.464 14.216 29.368 14.216C29.272 14.408 29.08 14.408 28.984 14.552C28.888 14.6 28.84 14.696 28.84 14.744C28.84 14.744 28.744 14.696 28.744 14.744L28.696 14.792C28.648 14.84 28.552 14.888 28.504 14.888C28.408 14.984 28.312 15.08 28.216 15.128C28.168 15.176 28.12 15.272 28.072 15.272C28.072 15.32 28.024 15.272 27.976 15.272C27.976 15.32 27.928 15.368 27.928 15.368C27.88 15.416 27.784 15.416 27.688 15.416C27.64 15.512 27.592 15.56 27.496 15.608C27.448 15.704 27.304 15.704 27.304 15.8C27.16 15.896 27.016 15.992 26.872 16.136C26.728 16.136 26.68 16.232 26.536 16.232C26.488 16.28 26.44 16.328 26.392 16.328C26.344 16.424 26.296 16.424 26.248 16.472C26.152 16.472 26.104 16.52 26.056 16.52L25.768 16.76C25.72 16.856 25.624 16.856 25.528 16.904L25.336 17.048C25.192 17.144 25.048 17.336 24.808 17.336C24.712 17.384 24.664 17.528 24.568 17.528C24.328 17.624 24.136 17.72 23.944 17.864C23.896 17.96 23.8 18.008 23.704 18.056C23.608 18.104 23.512 18.152 23.416 18.152L23.272 18.248C23.32 18.344 23.224 18.296 23.224 18.392C23.08 18.392 23.032 18.488 22.888 18.536H22.648C22.552 18.632 22.408 18.68 22.36 18.728C22.312 18.728 22.312 18.824 22.216 18.776C22.216 18.872 22.072 18.872 22.024 18.92C21.976 18.968 21.928 19.064 21.832 19.112C21.592 19.16 21.304 19.304 21.112 19.448L20.776 19.544C20.776 19.544 20.728 19.592 20.728 19.64C20.68 19.64 20.632 19.592 20.632 19.64C20.584 19.64 20.536 19.688 20.536 19.688L20.296 19.784C20.296 19.832 20.296 19.784 20.248 19.832C20.152 19.88 20.104 20.024 19.96 20.072C19.816 20.12 19.816 20.024 19.72 20.024L19.336 20.312C19.144 20.312 19.096 20.408 18.952 20.408C18.904 20.504 18.76 20.456 18.664 20.504C18.568 20.6 18.424 20.6 18.376 20.648C18.328 20.696 18.28 20.696 18.232 20.696L17.944 20.888C17.704 20.888 17.56 20.984 17.368 21.08C17.224 21.08 17.176 21.128 17.08 21.128C16.984 21.176 16.888 21.272 16.744 21.32C16.456 21.368 16.312 21.464 16.024 21.512C15.88 21.608 15.736 21.704 15.592 21.752C15.448 21.8 15.448 21.752 15.256 21.752C15.064 21.992 14.776 22.04 14.488 22.136C14.488 22.232 14.392 22.184 14.392 22.28C14.296 22.28 14.344 22.376 14.296 22.376L14.008 22.568C14.008 22.712 13.864 22.904 13.816 23.144C13.816 23.384 13.864 23.624 13.96 23.768C14.44 23.912 14.68 23.624 15.064 23.672C15.16 23.576 15.304 23.48 15.496 23.48C15.592 23.432 15.688 23.384 15.784 23.384C15.832 23.288 15.976 23.384 16.072 23.336C16.12 23.288 16.216 23.288 16.216 23.288C16.456 23.144 16.648 23.192 16.936 23.144H17.032C17.08 23.096 17.128 23.144 17.176 23.144C17.224 23.144 17.224 23.096 17.224 23.096C17.32 23.048 17.512 23.096 17.56 23H17.608C17.752 22.952 17.896 23 18.04 23C18.136 22.952 18.232 22.904 18.376 22.904H18.904C19 22.904 19.096 22.856 19.192 22.808C19.336 22.808 19.432 22.856 19.528 22.808C19.528 22.856 19.576 22.808 19.624 22.808L20.104 22.904C20.2 22.904 20.248 22.856 20.392 22.856C20.488 22.856 20.488 22.952 20.632 22.952C20.68 22.904 20.728 22.904 20.872 22.904C20.824 23 21.064 22.856 21.016 23C21.112 22.952 21.16 23 21.208 23.048C21.64 23.144 21.928 23.384 22.312 23.48C22.408 23.72 22.648 23.816 22.792 24.008C22.888 24.248 23.08 24.344 23.128 24.584C23.224 24.68 23.176 24.872 23.176 24.968C23.176 24.968 23.224 24.968 23.224 25.016C23.272 25.304 23.272 25.592 23.272 25.928L23.032 27.032C22.936 27.08 22.936 27.224 22.888 27.368C22.888 27.368 22.84 27.368 22.84 27.416C22.84 27.512 22.744 27.608 22.744 27.704C22.648 27.752 22.6 27.848 22.6 27.992C22.6 27.992 22.552 28.04 22.552 28.088C22.552 28.136 22.456 28.136 22.408 28.184V28.232C22.408 28.28 22.36 28.28 22.36 28.328C22.36 28.424 22.264 28.472 22.264 28.616C22.168 28.712 22.024 28.76 21.976 28.952C21.832 29.048 21.736 29.192 21.688 29.336C21.592 29.384 21.544 29.48 21.496 29.528C21.4 29.576 21.352 29.72 21.304 29.816C21.256 29.864 21.16 29.912 21.16 29.96L21.064 30.152C20.92 30.152 20.872 30.344 20.776 30.392L20.632 30.536L20.488 30.728C20.344 30.776 20.248 30.968 20.152 31.064H20.056C20.008 31.112 20.008 31.16 19.96 31.16C19.96 31.16 19.912 31.208 19.912 31.256C19.864 31.256 19.816 31.352 19.768 31.4C19.72 31.4 19.672 31.448 19.624 31.544C19.384 31.64 19.24 31.88 19 32.024C18.904 32.12 18.856 32.264 18.712 32.312C18.328 32.552 18.04 32.936 17.608 33.08L17.176 33.56C16.888 33.704 16.6 33.8 16.408 34.04C16.12 34.136 15.928 34.376 15.688 34.568C15.496 34.568 15.4 34.76 15.208 34.856C15.112 34.856 15.016 34.904 14.92 34.952C14.872 35.048 14.824 35 14.776 35.048L14.728 35.096C14.728 35.144 14.68 35.096 14.632 35.096V35.192C14.584 35.192 14.488 35.24 14.488 35.24C14.44 35.24 14.488 35.24 14.488 35.288H14.296V35.336H14.248V35.384H14.152L14.104 35.48L13.96 35.576C13.816 35.624 13.768 35.672 13.624 35.672C13.528 35.816 13.336 35.912 13.24 36.008C12.952 36.104 12.808 36.296 12.472 36.344C12.232 36.488 11.944 36.584 11.752 36.776C11.32 36.872 11.032 37.16 10.6 37.256C10.312 37.544 9.784 37.592 9.448 37.784C9.4 37.88 9.352 37.928 9.256 37.928L8.728 38.072C8.536 38.216 8.296 38.264 8.056 38.36C7.912 38.36 7.816 38.408 7.624 38.408C7.624 38.456 7.528 38.456 7.432 38.456C7.432 38.504 7.384 38.552 7.384 38.552C7.336 38.552 7.288 38.552 7.24 38.6C7.096 38.6 6.952 38.648 6.76 38.696L6.328 38.84C5.992 38.84 5.848 38.936 5.656 38.984C5.176 38.984 4.936 39.176 4.456 39.08C4.312 39.08 4.264 39.128 4.072 39.176C3.832 39.128 3.688 39.128 3.4 39.176C3.304 39.08 3.16 39.08 3.064 38.984L2.728 38.888C2.584 38.744 2.392 38.696 2.2 38.6C2.056 38.312 1.912 38.072 1.816 37.784C1.816 37.592 1.816 37.496 1.768 37.256C1.816 37.064 1.816 37.016 1.816 36.776C1.864 36.68 1.96 36.584 1.912 36.344C2.008 36.248 2.056 36.104 2.104 35.96C2.152 35.912 2.2 35.864 2.2 35.768C2.296 35.72 2.2 35.528 2.296 35.528C2.344 35.192 2.584 35 2.584 34.616C2.728 34.52 2.824 34.376 2.872 34.136L3.208 33.752C3.208 33.608 3.256 33.512 3.304 33.416C3.352 33.224 3.544 33.224 3.544 32.984C3.688 32.84 3.784 32.696 3.928 32.6C3.928 32.504 3.976 32.456 3.976 32.312C4.12 32.216 4.216 32.072 4.312 31.928C4.408 31.64 4.648 31.4 4.792 31.256C4.84 31.208 4.792 31.16 4.792 31.16C4.84 31.16 4.888 31.112 4.888 31.064C4.888 31.064 4.936 31.016 4.936 30.968C4.936 30.872 5.08 30.872 5.08 30.776C5.224 30.68 5.272 30.536 5.368 30.44V30.344H5.464C5.464 30.296 5.464 30.248 5.512 30.2L5.608 30.104V30.056C5.608 30.008 5.608 30.056 5.656 30.008V29.912C5.704 29.864 5.752 29.912 5.752 29.816C5.752 29.768 5.896 29.72 5.848 29.624L6.184 29.336C6.328 29.048 6.568 28.904 6.712 28.616C6.856 28.568 6.856 28.376 6.952 28.28C7.048 28.184 7.144 28.088 7.192 27.896C7.384 27.8 7.48 27.512 7.72 27.416C7.768 27.272 7.912 27.128 7.96 26.984C8.104 26.936 8.152 26.744 8.296 26.696C8.344 26.552 8.44 26.456 8.44 26.312C8.584 26.216 8.68 26.024 8.872 25.976C8.92 25.832 8.968 25.736 9.064 25.688L9.256 25.448C9.256 25.352 9.4 25.4 9.352 25.304C9.4 25.256 9.448 25.208 9.448 25.16C9.496 25.064 9.688 25.064 9.688 24.92C9.784 24.872 9.832 24.728 9.88 24.584C9.976 24.536 10.072 24.392 10.168 24.248C10.264 24.104 10.408 24.056 10.504 23.96C10.552 23.768 10.696 23.672 10.744 23.48C11.032 23.384 11.128 23.096 11.32 23C11.464 22.76 11.656 22.616 11.8 22.424C11.848 22.376 11.896 22.328 11.896 22.28C11.896 22.184 12.04 22.088 12.04 22.088C12.136 21.944 12.184 21.944 12.28 21.896C12.28 21.752 12.376 21.656 12.424 21.56L12.616 21.416C12.856 21.272 12.904 20.984 13.096 20.84C13.24 20.696 13.288 20.504 13.432 20.36L13.768 20.12C13.912 19.784 14.248 19.64 14.344 19.304L14.824 18.872L15.112 18.488C15.208 18.392 15.4 18.296 15.4 18.104C15.544 18.008 15.64 17.912 15.688 17.72L16.072 17.432C16.072 17.336 16.12 17.24 16.168 17.144L16.408 17C16.504 16.712 16.744 16.568 16.936 16.376C17.032 16.136 17.224 16.088 17.272 15.848C17.416 15.752 17.512 15.608 17.608 15.464C17.704 15.416 17.704 15.32 17.8 15.272C17.992 15.08 18.088 14.792 18.28 14.6C18.424 14.504 18.472 14.312 18.664 14.216C18.664 14.12 18.76 14.072 18.76 13.928C19 13.784 19.096 13.496 19.336 13.352C19.336 13.256 19.384 13.208 19.384 13.112C19.576 13.016 19.624 12.776 19.816 12.728C19.816 12.536 19.912 12.44 20.008 12.344C20.104 12.248 20.152 12.104 20.248 12.056C20.248 11.864 20.344 11.816 20.392 11.672C20.584 11.528 20.68 11.336 20.824 11.192C20.92 11 21.016 10.712 21.208 10.568C21.208 10.424 21.208 10.376 21.256 10.28C21.4 10.184 21.448 10.04 21.544 9.944V9.56C21.64 9.464 21.736 9.272 21.688 9.08C21.688 8.984 21.64 8.888 21.544 8.84C21.544 8.696 21.448 8.648 21.352 8.552C21.256 8.552 21.112 8.504 21.016 8.552C20.872 8.552 20.776 8.696 20.728 8.744V8.84H20.68V8.936C20.632 9.032 20.584 9.08 20.536 9.08V9.176H20.488V9.272H20.44C20.44 9.272 20.488 9.32 20.44 9.32C20.392 9.32 20.44 9.368 20.44 9.416H20.392C20.344 9.416 20.392 9.512 20.344 9.56C20.248 9.608 20.248 9.704 20.2 9.752L19.864 10.136C19.864 10.28 19.768 10.328 19.768 10.472C19.672 10.472 19.72 10.616 19.576 10.664C19.576 10.76 19.384 10.712 19.384 10.856C19.336 10.856 19.384 10.952 19.336 11L19.24 11.144C19.048 11.24 19.048 11.528 18.856 11.672C18.76 11.72 18.76 11.864 18.712 11.96C18.52 12.104 18.376 12.344 18.136 12.44C18.136 12.68 17.944 12.728 17.944 12.968C17.8 13.016 17.752 13.16 17.608 13.256C17.56 13.304 17.56 13.448 17.512 13.496L17.272 13.64C17.224 13.784 17.128 13.832 17.08 14.024C16.984 14.12 16.84 14.216 16.744 14.36C16.648 14.408 16.696 14.552 16.6 14.552C16.456 14.744 16.264 14.888 16.216 15.176C16.024 15.176 16.024 15.368 15.928 15.464C15.832 15.464 15.88 15.56 15.784 15.56L15.592 15.944C15.496 16.088 15.304 16.136 15.256 16.328L14.872 16.664C14.872 16.712 14.824 16.76 14.824 16.808C14.776 16.808 14.728 16.856 14.68 16.904V16.952C14.68 17 14.632 17.048 14.632 17.048L14.488 17.192L14.296 17.432C14.248 17.48 14.2 17.528 14.2 17.576C14.2 17.672 14.104 17.624 14.104 17.72C13.96 17.768 13.864 17.96 13.72 18.056C13.672 18.2 13.576 18.296 13.528 18.392C13.528 18.44 13.48 18.488 13.432 18.488V18.584C13.384 18.632 13.336 18.632 13.336 18.68C13.288 18.728 13.288 18.728 13.288 18.776L13.048 18.92C12.904 19.208 12.712 19.448 12.472 19.64C12.472 19.832 12.328 19.928 12.28 20.12C12.184 20.12 12.088 20.216 11.992 20.216L11.896 20.504C11.752 20.552 11.656 20.648 11.56 20.696L11.416 20.984C11.368 21.032 11.368 21.032 11.32 21.032V21.224C11.272 21.224 11.224 21.176 11.224 21.224L11.08 21.368L10.936 21.656C10.84 21.752 10.744 21.8 10.6 21.848C10.6 21.944 10.552 22.088 10.504 22.184L10.072 22.472C10.072 22.664 9.976 22.76 9.88 22.952C9.784 22.952 9.736 23.048 9.592 23.096C9.592 23.192 9.544 23.288 9.544 23.384L9.256 23.528C9.208 23.768 9.064 23.864 8.968 23.96C8.872 24.056 8.872 24.152 8.824 24.248C8.776 24.296 8.68 24.296 8.68 24.392C8.632 24.44 8.536 24.44 8.488 24.44C8.488 24.44 8.536 24.488 8.488 24.536L8.44 24.584L8.296 24.776V24.92C8.2 24.968 8.104 25.016 8.104 25.112C7.96 25.208 7.816 25.304 7.816 25.448C7.816 25.496 7.72 25.544 7.672 25.592C7.624 25.688 7.576 25.784 7.48 25.832C7.24 26.168 6.952 26.504 6.664 26.792C6.616 27.08 6.376 27.128 6.328 27.416C6.184 27.416 6.136 27.56 6.04 27.56C5.944 27.8 5.848 27.944 5.656 28.088C5.608 28.136 5.56 28.232 5.56 28.376C5.416 28.376 5.416 28.52 5.32 28.568C5.272 28.664 5.224 28.76 5.224 28.856C5.128 28.856 5.176 28.952 5.08 28.952C5.08 29.048 4.936 28.952 4.984 29.096C4.936 29.096 4.888 29.144 4.888 29.192L4.792 29.288C4.696 29.384 4.696 29.528 4.6 29.576C4.6 29.72 4.456 29.72 4.408 29.816C4.36 29.96 4.264 30.008 4.264 30.152L3.928 30.392C3.928 30.44 3.976 30.44 3.928 30.488C3.928 30.488 3.88 30.488 3.88 30.536C3.832 30.584 3.88 30.632 3.784 30.632C3.736 30.776 3.688 30.872 3.688 31.016C3.496 31.112 3.448 31.304 3.304 31.4C3.256 31.64 3.16 31.736 3.064 31.88C3.016 32.12 2.824 32.12 2.776 32.312C2.728 32.36 2.728 32.456 2.68 32.456L2.536 32.792C2.488 32.84 2.488 32.936 2.392 32.984C2.344 33.032 2.344 33.176 2.344 33.272C2.248 33.32 2.248 33.416 2.152 33.464C2.152 33.56 2.056 33.56 2.056 33.704L1.912 33.944C1.864 34.04 1.816 34.088 1.816 34.232C1.768 34.328 1.72 34.424 1.624 34.472C1.624 34.616 1.576 34.76 1.528 34.808C1.528 34.808 1.528 34.856 1.48 34.856V34.952L1.432 35C1.384 35.144 1.384 35.24 1.288 35.336C1.288 35.48 1.24 35.576 1.24 35.624C1.192 35.72 1.096 35.768 1.096 35.864C1.144 36.248 0.952 36.536 0.904 36.872C0.856 37.016 0.904 37.208 0.856 37.4C0.856 37.496 0.952 37.544 0.952 37.736C0.952 37.928 0.856 37.976 0.904 38.168C0.952 38.312 1 38.504 1.096 38.648C1.144 38.744 1.24 38.888 1.288 39.08L1.672 39.416L2.152 39.704C2.392 39.752 2.536 39.896 2.776 39.944C2.872 40.04 3.112 39.944 3.256 39.992C3.352 40.04 3.496 40.088 3.592 40.088C4.024 40.088 4.456 40.04 4.696 40.04C4.792 39.992 4.84 39.992 4.888 39.992C4.936 39.992 4.984 39.944 4.984 39.944C5.224 39.896 5.464 39.992 5.704 39.944C5.992 39.848 6.232 39.704 6.664 39.752C6.856 39.608 7.096 39.608 7.24 39.56C7.288 39.56 7.288 39.512 7.288 39.512C7.672 39.368 8.056 39.32 8.488 39.224C8.536 39.128 8.68 39.128 8.776 39.032C8.92 39.032 9.064 38.984 9.208 38.984C9.352 38.84 9.592 38.792 9.784 38.744C10.072 38.6 10.36 38.552 10.648 38.408C10.696 38.36 10.744 38.36 10.792 38.36C10.792 38.36 10.84 38.312 10.84 38.264H10.936L11.032 38.168L11.416 37.928C11.512 37.88 11.656 37.928 11.752 37.832C11.848 37.784 11.944 37.688 12.136 37.736C12.184 37.64 12.376 37.64 12.376 37.544L12.76 37.4L12.952 37.256C13 37.16 13.144 37.208 13.192 37.112C13.384 37.064 13.48 36.92 13.72 36.92C13.816 36.776 14.008 36.776 14.104 36.632C14.344 36.584 14.44 36.44 14.632 36.392C14.776 36.2 15.016 36.104 15.208 36.008L15.832 35.576C15.928 35.528 16.024 35.48 16.12 35.48C16.264 35.288 16.456 35.192 16.6 35.048C16.744 35.048 16.84 34.952 16.888 34.856C17.032 34.808 17.08 34.712 17.176 34.664C17.272 34.616 17.368 34.52 17.464 34.52L17.752 34.28C17.896 34.136 18.088 33.992 18.328 33.896C18.376 33.848 18.424 33.704 18.568 33.704C18.616 33.608 18.712 33.56 18.76 33.512C18.856 33.416 18.952 33.32 19.048 33.272H19.096C19.144 33.224 19.144 33.176 19.192 33.176C19.24 33.128 19.288 33.128 19.336 33.128C19.336 33.08 19.384 33.032 19.432 33.032L19.768 32.6L20.248 32.168L20.728 31.736C20.92 31.688 20.92 31.496 21.016 31.4L21.352 31.208C21.448 31.112 21.496 30.968 21.544 30.872C21.688 30.824 21.736 30.728 21.832 30.68C21.88 30.536 21.976 30.536 22.024 30.392L22.168 30.152C22.456 30.008 22.552 29.72 22.696 29.432C22.792 29.288 22.936 29.192 22.984 29C23.08 28.952 23.176 28.808 23.224 28.712C23.224 28.664 23.224 28.616 23.272 28.616C23.32 28.52 23.368 28.472 23.368 28.328C23.464 28.28 23.512 28.232 23.56 28.136L23.8 27.656C23.8 27.512 23.896 27.464 23.848 27.272L23.944 27.08C23.992 27.08 23.944 27.032 23.944 27.032C23.992 26.984 24.04 26.984 23.992 26.888C24.04 26.888 24.04 26.84 23.992 26.792V26.6C24.088 26.456 24.184 26.408 24.232 26.216C24.232 26.072 24.088 26.024 24.136 25.832C24.136 25.736 24.232 25.64 24.232 25.496C24.232 25.352 24.184 25.208 24.184 24.968C24.136 24.824 24.088 24.632 24.088 24.392C23.992 24.392 24.04 24.296 24.04 24.248C24.04 24.248 23.992 24.2 23.944 24.2C23.944 24.104 23.896 24.056 23.848 24.008C23.896 23.864 23.8 23.816 23.8 23.672C23.704 23.672 23.704 23.528 23.608 23.528C23.512 23.432 23.512 23.288 23.416 23.24C23.368 23.144 23.272 23.096 23.176 23.048L22.984 22.808C22.792 22.712 22.648 22.616 22.552 22.472C22.36 22.424 22.168 22.424 22.024 22.28C21.928 22.28 21.88 22.232 21.784 22.232C21.736 22.184 21.592 22.184 21.544 22.088C21.064 22.184 20.92 21.896 20.44 21.944C20.344 21.944 20.296 21.848 20.248 21.848C20.2 21.8 20.008 21.848 20.056 21.704ZM46.7339 20.648C46.2539 20.504 46.1099 20.984 45.7259 21.032C45.6299 21.176 45.5339 21.272 45.4379 21.32L45.0059 21.656C44.8619 21.752 44.7179 21.8 44.5739 21.848C44.4779 21.896 44.4779 21.992 44.3819 22.088L44.1899 22.232L43.9499 22.376C43.9019 22.376 43.8539 22.376 43.8059 22.424H43.7579C43.7099 22.472 43.7099 22.52 43.6139 22.52L43.5179 22.712L43.3259 22.856C43.2299 22.856 43.0859 22.856 42.9899 22.904C42.9419 22.952 42.8939 23.048 42.7979 23.096C42.7499 23.144 42.6539 23.192 42.6059 23.288C42.5099 23.336 42.3659 23.336 42.3179 23.48C42.2219 23.528 42.1739 23.624 41.9819 23.624C41.8859 23.768 41.7419 23.864 41.5499 24.008C41.1179 24.104 40.9259 24.392 40.5419 24.536L40.1099 24.92C40.0619 24.968 39.9179 24.968 39.8699 25.064C39.7739 25.064 39.7259 25.208 39.6299 25.256C39.5819 25.256 39.4859 25.304 39.3899 25.256C39.3419 25.352 39.2939 25.4 39.1979 25.448C39.1979 25.592 39.0059 25.544 38.9099 25.592C38.7659 25.736 38.6219 25.88 38.3819 25.928C38.3339 26.024 38.2379 26.12 38.1419 26.216C37.9979 26.168 37.9499 26.264 37.8539 26.264C37.7579 26.36 37.6619 26.36 37.5659 26.456C37.4699 26.504 37.4219 26.648 37.2779 26.648C37.0859 26.744 36.8939 26.936 36.6539 26.984C36.4619 27.176 36.1739 27.272 35.9819 27.368C35.9819 27.368 35.9819 27.416 35.9339 27.416H35.8859L35.8379 27.512C35.7899 27.512 35.7419 27.56 35.6939 27.56C35.5499 27.56 35.5019 27.656 35.4059 27.656C35.3579 27.704 35.2619 27.752 35.2619 27.752L35.1659 27.848C35.1179 27.848 35.0699 27.848 35.0699 27.896C35.0219 27.896 35.0219 27.944 35.0219 27.944C34.9739 27.992 34.9259 27.992 34.8779 27.992L34.7339 28.088C34.3979 28.136 34.2539 28.376 33.9179 28.424C33.9179 28.472 33.9179 28.472 33.8699 28.472C33.7739 28.568 33.7259 28.664 33.5819 28.712C33.1019 28.856 32.8139 29.192 32.2379 29.24L31.8059 29.48C31.6619 29.528 31.5659 29.624 31.3259 29.624C31.1339 29.768 30.8459 29.816 30.6539 29.912C30.2699 29.864 30.0299 30.056 29.7899 30.056C29.6939 30.056 29.6939 30.056 29.6459 30.008C29.5979 30.008 29.5019 30.056 29.5019 30.008C29.3579 30.008 29.2139 29.912 29.0699 29.864C28.9739 29.816 28.8299 29.768 28.7339 29.624C28.4939 29.288 28.6859 28.808 28.7819 28.424C28.7819 28.28 28.8299 28.088 28.7339 28.04C28.8299 28.04 28.7819 27.896 28.8299 27.896C28.8779 27.848 28.8779 27.752 28.8779 27.656L29.0699 27.416V27.128C29.1179 27.032 29.2139 26.984 29.2139 26.84C29.2139 26.696 29.3099 26.648 29.3099 26.504C29.4059 26.456 29.2619 26.36 29.3099 26.216C29.3579 26.12 29.4539 26.072 29.4539 26.024C29.5019 25.976 29.5499 25.976 29.5499 25.928C29.5979 25.88 29.6459 25.784 29.6459 25.784L29.6939 25.64C29.6939 25.592 29.6939 25.592 29.7419 25.592V25.496C29.7419 25.448 29.7899 25.4 29.7899 25.352C29.8379 25.304 29.8859 25.304 29.8859 25.256V25.16L29.9819 25.064C29.9819 25.016 29.9819 24.968 30.0779 24.92C30.1259 24.728 30.1739 24.584 30.3179 24.488V24.2C30.3179 24.152 30.3659 24.152 30.4139 24.104C30.4619 24.056 30.5099 24.056 30.5099 24.008C30.5579 23.816 30.6539 23.72 30.6539 23.576C30.7979 23.48 30.8939 23.336 30.9899 23.24C30.9899 23.048 31.0859 22.952 31.1339 22.808C31.2779 22.616 31.4699 22.424 31.5659 22.184C31.6139 22.136 31.6619 22.088 31.7099 22.088C31.7099 22.04 31.7579 22.04 31.7579 22.04C31.8539 21.992 31.8539 21.944 31.9019 21.896C31.9499 21.896 31.9979 21.848 32.0459 21.848C32.0939 21.848 32.1899 21.752 32.1899 21.752C32.1899 21.704 32.2379 21.752 32.2379 21.752L32.3339 21.656L32.5259 21.56C32.6219 21.512 32.7659 21.464 32.8619 21.368C32.9099 21.272 33.1019 21.32 33.1499 21.224C33.3899 21.128 33.5819 20.936 33.8699 20.84C34.0139 20.696 34.2059 20.648 34.3499 20.504C34.5419 20.456 34.6859 20.36 34.8299 20.216C34.9259 20.216 35.0219 20.216 35.0699 20.168C35.1179 20.168 35.1659 20.12 35.1659 20.072C35.1659 19.976 35.2619 20.024 35.2619 19.976C35.4059 19.976 35.4539 19.928 35.5499 19.928C35.6459 19.784 35.7899 19.736 35.9819 19.64C36.1259 19.448 36.3659 19.352 36.6059 19.256C36.7019 19.208 36.7979 19.112 36.8939 19.112C36.9419 19.016 37.0379 19.016 37.0379 18.92C37.1339 18.92 37.1339 18.824 37.2299 18.824C37.3259 18.776 37.4699 18.776 37.5179 18.728C37.5659 18.68 37.6619 18.632 37.7099 18.632C37.7579 18.632 37.8059 18.584 37.8539 18.584C37.9019 18.536 37.8539 18.536 37.8539 18.536L38.0939 18.392C38.1899 18.296 38.3339 18.296 38.3819 18.2C38.5259 18.152 38.5739 18.008 38.6699 17.96C38.7179 17.912 38.8619 17.912 38.9099 17.864C39.0059 17.816 39.0059 17.72 39.1019 17.72C39.1499 17.672 39.2939 17.672 39.3419 17.624C39.3899 17.576 39.4859 17.528 39.4859 17.528C39.4859 17.48 39.5819 17.528 39.5819 17.528C39.5819 17.48 39.6299 17.432 39.6299 17.432C39.7739 17.384 39.8699 17.288 39.9659 17.192C40.1579 17.192 40.2059 17 40.3499 16.904C40.5419 16.856 40.6379 16.76 40.8299 16.712C40.9259 16.616 41.0699 16.52 41.2619 16.472C41.3579 16.28 41.5499 16.184 41.7419 16.088L42.0299 15.944C42.1739 15.848 42.3179 15.656 42.6059 15.608C42.6539 15.512 42.7019 15.416 42.7979 15.368L42.9899 15.224L43.1819 15.08C43.2299 15.08 43.2299 15.032 43.2779 15.032C43.3259 14.984 43.3259 14.984 43.3739 14.984C43.4219 14.984 43.4219 14.936 43.4699 14.888C43.5659 14.84 43.6619 14.744 43.8059 14.744C43.8539 14.648 43.9499 14.552 44.0459 14.504L44.3339 14.408L44.9099 13.832C45.0059 13.784 45.1019 13.784 45.1979 13.784L45.3419 13.544C45.4379 13.496 45.5819 13.448 45.6779 13.448C45.8219 13.208 46.0619 13.064 46.2539 12.92C46.3499 12.872 46.4939 12.824 46.5419 12.728C46.6379 12.632 46.7819 12.632 46.8299 12.488C46.9739 12.488 47.0219 12.344 47.1179 12.248L47.4059 12.056L47.6939 11.912C47.7419 11.816 47.8379 11.672 47.9819 11.624C48.1259 11.576 48.1739 11.384 48.2699 11.336C48.4619 11.192 48.6539 11.144 48.7499 10.952C48.9899 10.904 49.0379 10.664 49.2779 10.616C49.4219 10.424 49.6139 10.28 49.7099 10.088C49.9499 10.04 49.9979 9.8 50.2379 9.752C50.3819 9.512 50.5739 9.32 50.7659 9.128L51.3899 8.552C51.4379 8.504 51.4379 8.408 51.4859 8.312C51.7739 8.168 51.9659 7.928 52.1099 7.736C52.1579 7.688 52.2059 7.688 52.2539 7.688L52.3499 7.352C52.4939 7.304 52.5899 7.208 52.7339 7.112C52.7819 6.824 53.0219 6.728 53.0699 6.44C53.1659 6.44 53.2139 6.344 53.3099 6.296C53.4059 5.96 53.6939 5.768 53.6939 5.384C53.7899 5.288 53.8379 5.192 53.9339 5.144C53.9339 5 53.9819 4.952 53.9819 4.856C54.0779 4.808 54.0299 4.664 54.1259 4.616C54.0779 4.28 54.2699 4.088 54.1739 3.8C54.2219 3.8 54.1739 3.752 54.2219 3.704C54.2219 3.608 54.2699 3.512 54.2699 3.464C54.2219 3.272 54.1739 3.08 54.2219 2.84C54.1739 2.792 54.1259 2.744 54.1259 2.696H54.0779V2.6C54.0779 2.6 54.0779 2.552 54.0299 2.552C54.0779 2.36 53.9819 2.312 53.9819 2.168C53.8859 2.072 53.7899 2.024 53.6939 1.976C53.6939 1.88 53.6459 1.784 53.5979 1.688C53.4059 1.688 53.3099 1.544 53.1659 1.448C53.0219 1.448 52.8779 1.352 52.7339 1.304L52.2059 1.16C52.0619 1.256 51.9179 1.256 51.7739 1.304C51.6779 1.256 51.5819 1.208 51.4379 1.208L51.2459 1.304C51.0059 1.352 50.8619 1.448 50.6219 1.448C50.6219 1.544 50.4779 1.496 50.4779 1.544C50.3819 1.592 50.2859 1.592 50.2379 1.64C50.0459 1.64 49.9979 1.784 49.8059 1.832C49.6139 1.832 49.5179 1.976 49.3259 2.024C49.1339 2.072 49.0379 2.216 48.8939 2.264C48.7019 2.312 48.5579 2.456 48.4139 2.552C48.2699 2.6 48.1259 2.696 47.9339 2.744C47.9339 2.84 47.8379 2.792 47.8859 2.888C47.8379 2.888 47.7899 2.936 47.7419 2.936C47.6459 2.936 47.5979 3.032 47.5019 3.032C47.4539 3.128 47.3099 3.128 47.3099 3.224C47.2139 3.224 47.1659 3.272 47.1179 3.32L47.0219 3.416L46.8299 3.512C46.7339 3.608 46.6859 3.656 46.5419 3.656C46.3499 3.992 45.9659 4.04 45.7739 4.328C45.6299 4.328 45.6299 4.376 45.5819 4.472C45.4859 4.472 45.3899 4.52 45.3419 4.616C45.1979 4.712 45.1019 4.856 44.9099 4.856C44.7659 5.096 44.4779 5.192 44.3819 5.432C44.0459 5.528 43.9499 5.768 43.6619 5.864L43.5179 6.104C43.4699 6.104 43.4219 6.152 43.4219 6.152C43.3739 6.296 43.1819 6.344 43.1339 6.44C42.8939 6.68 42.7499 6.872 42.4619 7.016C42.3659 7.208 42.1739 7.256 42.0779 7.496C41.9819 7.544 41.8859 7.688 41.7419 7.784L41.5499 8.024L41.2619 8.216C41.2619 8.264 41.2619 8.312 41.2139 8.36C41.2139 8.36 41.1659 8.408 41.1179 8.408L40.7819 8.744C40.7339 8.84 40.6379 8.936 40.5899 9.08C40.1099 9.416 39.8219 9.896 39.3899 10.28C39.3419 10.424 39.2459 10.52 39.1019 10.616C39.1019 10.712 39.0059 10.808 38.9099 10.856C38.9099 10.904 38.9099 10.952 38.8619 10.952C38.6699 11.192 38.3819 11.336 38.2859 11.624C38.1419 11.624 37.9979 11.816 37.9499 11.912C37.9499 11.912 37.9019 11.96 37.8539 11.96V12.056C37.8059 12.056 37.7579 12.104 37.7579 12.152C37.7579 12.2 37.7579 12.152 37.7099 12.2L37.5179 12.44C37.4219 12.488 37.3739 12.632 37.2779 12.728C37.1819 12.824 37.0859 12.92 36.9899 12.968C36.9419 13.16 36.8459 13.256 36.7499 13.352C36.6059 13.448 36.5579 13.592 36.5099 13.736C36.4139 13.736 36.3659 13.832 36.3179 13.832C36.2219 14.12 35.9819 14.216 35.9339 14.504C35.7899 14.6 35.6459 14.696 35.5499 14.84C35.4059 14.936 35.3579 15.128 35.1659 15.224C35.1179 15.512 34.8299 15.56 34.7819 15.848C34.7339 15.848 34.6379 15.896 34.5899 15.944C34.4939 16.04 34.4459 16.136 34.3979 16.232C34.3979 16.232 34.3499 16.232 34.3499 16.28C34.3019 16.28 34.3499 16.328 34.3499 16.328C34.3019 16.328 34.2539 16.376 34.2539 16.376V16.472C34.2539 16.472 34.1579 16.472 34.2059 16.568C34.0619 16.568 34.1099 16.712 34.0139 16.76C34.0139 16.904 33.8699 16.904 33.8699 17C33.7259 17.048 33.6299 17.192 33.5819 17.336C33.4379 17.48 33.2939 17.528 33.2939 17.72C33.2459 17.72 33.2459 17.768 33.1979 17.816L33.1499 17.864C33.1019 17.96 33.0539 17.96 33.0539 18.056H32.9579C32.9579 18.104 32.9099 18.2 32.9099 18.2C32.8139 18.296 32.8619 18.44 32.7659 18.536L32.5259 18.68C32.4779 18.872 32.2859 18.92 32.2379 19.112C32.1419 19.208 32.0459 19.4 31.9019 19.496C31.9019 19.592 31.8539 19.64 31.8059 19.736L31.6619 19.976C31.6139 20.168 31.4219 20.216 31.3739 20.408L31.1819 20.552C31.0859 20.6 31.1339 20.744 31.0379 20.744C30.9419 20.888 30.9419 21.08 30.8459 21.128C30.7499 21.416 30.5099 21.56 30.3659 21.8C30.3179 21.944 30.2219 22.088 30.1259 22.136C30.0779 22.232 30.0299 22.28 30.0779 22.424L29.8859 22.568L29.8379 22.664C29.8379 22.712 29.8379 22.712 29.7899 22.76C29.7899 22.808 29.7419 22.808 29.6939 22.856L29.5499 23.144C29.5499 23.144 29.5019 23.096 29.5019 23.144V23.192H29.4539V23.288C29.4059 23.288 29.4059 23.384 29.4059 23.432C29.3099 23.48 29.2619 23.528 29.2619 23.672C29.1659 23.816 29.1179 23.96 29.0219 24.008V24.104L28.9259 24.2C28.9259 24.2 28.8779 24.248 28.8779 24.296C28.8299 24.296 28.8299 24.344 28.7819 24.392C28.7339 24.44 28.7339 24.488 28.7339 24.536C28.6859 24.68 28.5419 24.824 28.5899 25.016C28.5419 25.112 28.4939 25.208 28.3979 25.304C28.3979 25.544 28.3019 25.736 28.1579 25.784V26.072L28.0139 26.264C27.9179 26.264 27.9179 26.408 27.8699 26.456V26.744C27.7739 26.792 27.7739 26.936 27.6779 26.984C27.7259 27.128 27.6299 27.128 27.6299 27.272C27.5819 27.32 27.5819 27.512 27.5819 27.608L27.4859 27.8C27.4859 27.896 27.4379 27.944 27.4379 28.04C27.4859 28.52 27.2939 28.856 27.3419 29.336C27.4379 29.576 27.5819 29.816 27.5339 30.152L27.9659 30.68C28.2059 30.776 28.3979 30.92 28.6859 30.968C28.8299 31.016 28.9739 30.968 29.1659 31.016C29.3099 31.016 29.3099 30.92 29.4539 30.92C29.5499 30.968 29.6459 30.968 29.7899 30.968C29.9819 30.92 30.2219 30.872 30.5099 30.872C30.5099 30.824 30.5099 30.872 30.5579 30.872C30.6539 30.824 30.7499 30.776 30.8459 30.776C30.9899 30.728 31.1819 30.68 31.3739 30.584C31.4219 30.536 31.4699 30.536 31.5659 30.536C31.6139 30.488 31.7579 30.44 31.8539 30.344C32.0939 30.344 32.2379 30.2 32.5259 30.152C32.6699 30.008 32.9099 29.96 33.1499 29.864C33.3419 29.768 33.5339 29.672 33.7739 29.624C33.8219 29.576 33.8699 29.48 33.9659 29.48C33.9659 29.432 34.0619 29.384 34.1579 29.336H34.3499C34.5899 29.096 34.9259 29 35.2139 28.856C35.2139 28.856 35.2619 28.856 35.2619 28.808C35.3099 28.808 35.3579 28.76 35.4059 28.76C35.4539 28.76 35.5019 28.664 35.5499 28.616C35.5979 28.568 35.6939 28.616 35.7419 28.568C35.7899 28.472 35.8859 28.376 36.0299 28.328C36.1259 28.28 36.2699 28.232 36.4139 28.232L36.5579 28.088C36.6059 28.088 36.6059 28.04 36.6539 28.04C36.6539 27.992 36.7019 27.992 36.7499 27.992L36.8939 27.848L37.0859 27.704C37.1339 27.704 37.2779 27.656 37.3739 27.656C37.4219 27.512 37.5179 27.512 37.6619 27.416L38.0459 27.224L38.2379 26.984C38.2859 26.984 38.3819 26.936 38.4779 26.936C38.5739 26.792 38.7179 26.696 38.8619 26.648C39.1979 26.552 39.3419 26.312 39.6299 26.216C39.7259 26.072 39.8699 25.976 39.9659 25.88C40.0619 25.832 40.1579 25.784 40.2059 25.784C40.2059 25.736 40.3019 25.736 40.3499 25.688C40.3499 25.688 40.3499 25.592 40.4459 25.592C40.4939 25.544 40.6379 25.544 40.6859 25.448L40.8779 25.304L41.2139 25.208C41.2139 25.112 41.3579 25.112 41.3579 25.064C41.4539 25.064 41.4059 24.92 41.5019 24.92C41.6939 24.824 41.8859 24.68 42.0779 24.536C42.2219 24.44 42.4139 24.296 42.6539 24.2C42.7499 24.056 42.8939 24.008 43.0379 23.864H43.1339L43.2299 23.72C43.2779 23.672 43.3259 23.576 43.4219 23.528L43.8059 23.384C43.8539 23.288 43.9979 23.288 44.0459 23.144C44.1419 23.144 44.1899 23 44.3339 23C44.4779 22.856 44.6219 22.712 44.9099 22.616C45.0059 22.52 45.1019 22.328 45.2459 22.232C45.3419 22.184 45.4379 22.136 45.5339 22.136C45.6779 21.944 45.8219 21.8 46.0139 21.656C46.2539 21.56 46.4459 21.464 46.6379 21.32C46.6379 21.176 46.7339 21.176 46.7339 21.08C46.7339 21.032 46.7819 21.08 46.7819 21.032C46.8299 20.936 46.7819 20.744 46.7339 20.648ZM33.3899 20.168C33.1499 20.216 33.0059 20.12 32.9579 19.976C32.9579 19.88 32.9579 19.784 33.1019 19.784C33.1019 19.736 33.1499 19.688 33.1499 19.64C33.2459 19.592 33.2939 19.448 33.3899 19.304C33.4379 19.256 33.5339 19.16 33.5339 19.064C33.6779 19.016 33.7739 18.872 33.8699 18.776C33.9179 18.632 34.0139 18.584 34.0619 18.488C34.1099 18.344 34.2059 18.296 34.2059 18.152C34.3019 18.104 34.3499 18.008 34.4459 17.912H34.5419C34.5419 17.864 34.5899 17.768 34.6859 17.72C34.7339 17.624 34.7339 17.432 34.8299 17.336C34.7819 17.24 34.8779 17.288 34.9259 17.24C34.9259 17.24 35.0219 17.096 35.0699 17.144C35.1179 16.952 35.3099 16.856 35.3579 16.664C35.5499 16.568 35.6459 16.424 35.7899 16.28C35.8379 16.136 35.8859 15.992 35.9339 15.944C35.9339 15.8 36.0779 15.848 36.0779 15.752C36.1739 15.656 36.2699 15.512 36.4139 15.416C36.4139 15.368 36.4619 15.32 36.5099 15.272L36.6539 15.176C36.7019 15.08 36.7019 14.936 36.8459 14.888C37.0859 14.552 37.3259 14.168 37.7099 13.88C37.7099 13.784 37.8059 13.736 37.8059 13.64C38.0459 13.544 38.0939 13.304 38.3339 13.208C38.3339 13.112 38.3819 13.016 38.3819 12.968L38.6699 12.776V12.68C38.7179 12.632 38.7659 12.632 38.7659 12.584C38.7659 12.536 38.8139 12.488 38.8139 12.488L39.2459 12.056C39.2459 11.96 39.3419 11.912 39.3419 11.768C39.6779 11.624 39.8219 11.288 40.1099 11.096C40.1099 11 40.2059 10.952 40.1579 10.808C40.3019 10.712 40.4459 10.712 40.4939 10.568L40.8299 10.328C40.9259 10.088 41.0699 9.992 41.1659 9.8C41.2619 9.752 41.2619 9.608 41.4059 9.608C41.5019 9.464 41.5499 9.32 41.7419 9.272C41.7899 9.176 41.8859 9.08 42.0299 8.984C42.0299 8.888 42.0779 8.84 42.0779 8.744L42.4139 8.456C42.5099 8.36 42.5579 8.216 42.7019 8.216C42.7979 8.072 42.8939 7.88 43.0859 7.832C43.0859 7.736 43.1819 7.736 43.1819 7.688C43.2299 7.688 43.2299 7.592 43.2779 7.592L43.5179 7.448L43.9499 6.92C44.3819 6.728 44.6219 6.344 45.0539 6.104C45.1499 6.008 45.1979 5.864 45.2939 5.72C45.4859 5.72 45.5819 5.576 45.7739 5.528C45.8699 5.384 45.9659 5.288 46.1579 5.24C46.2059 5.096 46.3979 5.048 46.4939 4.904C46.5899 4.904 46.6379 4.808 46.6859 4.76C46.7339 4.76 46.8299 4.712 46.8779 4.664C46.9739 4.664 47.0219 4.568 47.0699 4.472C47.4059 4.424 47.4539 4.136 47.7899 4.088C47.9339 3.896 48.2219 3.8 48.3659 3.608C48.5579 3.56 48.7019 3.464 48.7979 3.368C48.8939 3.368 48.9899 3.368 49.0379 3.32C49.2299 3.224 49.3739 3.08 49.6619 3.032L50.0939 2.696C50.2859 2.648 50.4779 2.6 50.5739 2.456C51.0059 2.408 51.4379 2.312 51.7739 2.168C51.9659 2.168 52.1099 2.168 52.2539 2.12C52.3019 2.12 52.3499 2.12 52.4459 2.168C52.4459 2.168 52.4939 2.168 52.5419 2.216L52.5899 2.264C52.6379 2.312 52.6859 2.264 52.7339 2.36C52.8779 2.456 52.9739 2.6 53.1179 2.648C53.1179 2.792 53.1659 2.936 53.2139 3.032C53.2139 3.464 53.3099 3.752 53.2619 4.136C53.2619 4.28 53.1659 4.28 53.1659 4.328C53.0699 4.376 53.1179 4.472 53.0219 4.52C53.0699 4.712 52.9739 4.76 52.9739 4.904C52.8779 4.952 52.9259 5.096 52.8299 5.096C52.8299 5.192 52.7339 5.24 52.7339 5.336C52.5419 5.48 52.4939 5.72 52.3499 5.912C52.3019 5.96 52.2539 5.96 52.2539 6.008L52.1579 6.152C52.1579 6.2 52.1099 6.152 52.1099 6.2C52.1099 6.248 52.0619 6.296 52.0619 6.344C52.0619 6.392 52.0139 6.392 52.0139 6.44C51.8699 6.536 51.8219 6.728 51.6299 6.776C51.5819 6.968 51.4379 7.112 51.2939 7.16C51.2459 7.352 51.1499 7.4 51.0539 7.544C50.9579 7.64 50.8619 7.736 50.7179 7.784C50.6219 7.976 50.4299 8.168 50.2379 8.312C50.1899 8.408 50.1419 8.504 50.1419 8.6L49.8539 8.744C49.8539 8.744 49.8059 8.792 49.8059 8.84C49.7579 8.84 49.7099 8.84 49.6619 8.888C49.6139 8.936 49.5659 9.032 49.4699 9.08C49.4699 9.128 49.4699 9.176 49.4219 9.224C49.3739 9.224 49.3259 9.224 49.2779 9.272C49.1339 9.368 49.0379 9.56 48.8939 9.656C48.7979 9.704 48.7499 9.8 48.6059 9.8C48.6059 9.944 48.5579 9.992 48.4139 9.992C48.4139 10.088 48.3179 10.04 48.3179 10.136C48.2699 10.136 48.2699 10.184 48.2219 10.184C48.1739 10.28 48.0779 10.328 48.0779 10.424C47.8859 10.472 47.7419 10.616 47.5979 10.664L47.1659 11.144C47.0219 11.144 46.9259 11.24 46.8299 11.288L46.6859 11.528C46.5899 11.528 46.4939 11.576 46.3979 11.624C46.3019 11.72 46.2059 11.816 46.1579 11.912C46.0619 11.96 45.9659 11.96 45.9179 12.008C45.8219 12.056 45.7739 12.152 45.7259 12.248C45.5819 12.296 45.5339 12.392 45.3899 12.44C45.2939 12.44 45.2459 12.584 45.1979 12.632L44.9099 12.776C44.7179 12.824 44.6699 13.016 44.5739 13.112C44.1899 13.16 44.0939 13.448 43.8059 13.544C43.6619 13.64 43.5659 13.784 43.4699 13.88L43.3259 13.976C43.2779 14.024 43.1339 14.024 43.0859 14.072C42.9899 14.12 42.9419 14.216 42.8459 14.216C42.8459 14.312 42.7979 14.264 42.7499 14.312C42.7019 14.312 42.7019 14.36 42.6539 14.36L42.4619 14.504C42.3659 14.552 42.3659 14.648 42.2699 14.696C42.0299 14.744 41.8859 14.888 41.6939 15.032C41.5979 15.032 41.5499 15.128 41.5019 15.224C41.4539 15.272 41.3579 15.32 41.3099 15.416C41.0219 15.416 40.9259 15.608 40.7339 15.752C40.3019 15.8 40.1099 16.136 39.7739 16.28C39.6299 16.328 39.5339 16.424 39.4379 16.568C39.3419 16.568 39.2939 16.616 39.1979 16.664C39.1979 16.664 39.1979 16.712 39.1499 16.712L39.1019 16.76C39.0539 16.76 39.0059 16.808 38.9099 16.808L38.8619 16.856C38.8139 16.904 38.7179 17.048 38.5739 17.048C38.5259 17.144 38.4299 17.144 38.3819 17.192C38.2859 17.24 38.2379 17.336 38.1419 17.336C38.0459 17.48 37.9019 17.528 37.7099 17.576L37.4219 17.864C37.3259 17.864 37.1819 17.912 37.0859 17.96C36.9899 17.96 36.9419 18.056 36.8459 18.104V18.152C36.7979 18.152 36.7499 18.2 36.7019 18.2L36.4619 18.344L36.4139 18.392L36.2699 18.488C36.2219 18.488 36.2699 18.536 36.2219 18.536C36.1259 18.536 35.9819 18.68 35.9339 18.728C35.7419 18.776 35.6939 18.824 35.5979 18.872C35.5499 18.872 35.5499 18.968 35.4539 18.968C35.4059 19.016 35.3579 18.968 35.2619 19.016C35.3099 19.064 35.2139 19.016 35.2139 19.064C35.1659 19.064 35.1659 19.208 35.0699 19.208C34.9739 19.256 34.8779 19.352 34.7339 19.352C34.5899 19.544 34.2539 19.496 34.1579 19.736C34.0139 19.736 33.9179 19.832 33.8219 19.88C33.6299 19.976 33.5339 20.12 33.3899 20.168ZM49.0788 20.168C49.1748 20.024 49.1748 19.832 49.2708 19.64C49.1748 19.592 49.2228 19.448 49.1268 19.352C49.1268 19.256 49.0788 19.208 48.9828 19.112C48.8388 19.064 48.7428 19.016 48.5988 19.016C48.5028 19.016 48.4548 19.112 48.4068 19.112C48.3108 19.16 48.2628 19.16 48.1668 19.16C48.0708 19.256 47.9268 19.256 47.7348 19.304C47.6868 19.4 47.5908 19.448 47.4468 19.496L47.1588 19.88C47.0148 19.88 46.9668 20.024 46.8228 20.072C46.6788 20.216 46.5828 20.408 46.3428 20.456C46.2468 20.648 46.1028 20.792 45.9108 20.936C45.8628 21.128 45.6708 21.176 45.6228 21.368C45.5268 21.512 45.4308 21.656 45.2868 21.8C45.2868 22.04 45.1428 22.184 44.9988 22.328C44.9988 22.424 44.9508 22.472 44.9028 22.52C44.9028 22.616 44.9028 22.712 44.8068 22.712C44.8068 22.856 44.7588 23 44.7588 23.144C44.7588 23.192 44.7108 23.192 44.7108 23.192C44.6148 23.432 44.7108 23.72 44.6148 24.008C44.7108 24.104 44.8548 24.104 44.9028 24.2C45.0468 24.248 45.0468 24.344 45.0948 24.392C45.0948 24.44 45.1428 24.44 45.1428 24.488C45.4308 24.488 45.5748 24.488 45.7668 24.392C45.9108 24.392 45.9108 24.44 46.0068 24.392L46.4388 24.104C46.5348 23.96 46.6788 23.912 46.8228 23.816L47.2548 23.24C47.3508 23.192 47.3988 23.144 47.4468 23.048C47.4468 23.048 47.5428 23 47.5428 22.952V22.904L47.7348 22.712C47.7828 22.424 47.9748 22.376 47.9748 22.136C48.1668 21.944 48.3108 21.752 48.5508 21.656C49.2228 21.656 49.8468 21.56 50.3748 21.464C50.5668 21.512 50.8068 21.464 50.9028 21.416C50.9988 21.464 51.1428 21.464 51.2388 21.464C51.5268 21.32 52.0547 21.368 52.4388 21.32C52.4868 21.272 52.5828 21.272 52.6788 21.272C52.6788 21.272 52.6308 21.224 52.6788 21.224H52.8228V21.176C53.0628 21.128 53.3028 21.128 53.5428 21.128C53.6388 21.032 53.8788 20.984 53.8788 20.744C53.8307 20.6 53.6388 20.648 53.5428 20.6C53.1588 20.552 52.7748 20.6 52.4388 20.696C52.1028 20.696 51.8628 20.744 51.5748 20.792C51.3348 20.792 51.2868 20.792 51.0948 20.84C50.9508 20.888 50.9508 20.792 50.8068 20.792C50.6628 20.888 50.4708 20.888 50.3268 20.936C50.0868 20.84 49.9428 20.888 49.7028 20.936L49.3668 20.84C49.2708 20.936 48.9828 20.936 48.8388 20.936L48.7908 20.888H48.5988V20.84C48.5508 20.84 48.4548 20.84 48.4068 20.792L48.3108 20.6C48.3108 20.408 48.5028 20.408 48.5988 20.312C48.6948 20.216 48.9348 20.216 49.0788 20.168ZM46.4388 22.52C46.5348 22.568 46.5828 22.616 46.5828 22.712C46.5828 22.856 46.3428 22.952 46.1988 22.904C46.1988 22.664 46.3908 22.664 46.4388 22.52ZM57.2643 22.424C57.1683 22.376 57.0723 22.328 57.0723 22.232C57.0723 22.088 57.1203 21.992 57.0723 21.848C57.1203 21.848 57.1203 21.752 57.1683 21.752C57.2163 21.656 57.3603 21.656 57.4083 21.512C57.5043 21.464 57.5043 21.32 57.6003 21.224C57.6003 21.176 57.6963 21.128 57.6963 21.128V21.08C57.6963 20.984 57.7923 21.032 57.7923 20.936L58.6562 20.072C58.7523 19.976 58.8483 19.928 58.8963 19.736C59.0883 19.688 59.1363 19.592 59.2803 19.496C59.3282 19.4 59.3763 19.256 59.4723 19.208C59.4723 19.112 59.6163 19.16 59.5683 19.016C59.6643 19.016 59.6163 18.92 59.7123 18.872C59.6643 18.776 59.7603 18.824 59.7603 18.728C59.8563 18.728 59.8083 18.584 59.9043 18.584C59.9043 18.44 60.0483 18.392 60.0483 18.2C60.0963 17.864 59.8563 17.768 59.7123 17.624C59.5203 17.624 59.4243 17.528 59.2323 17.576C59.0883 17.672 58.8483 17.72 58.6083 17.768C58.5123 17.816 58.5123 17.912 58.4163 18.008C58.2723 18.056 58.1763 18.152 58.0323 18.248L57.4563 18.872C57.1683 18.968 57.0243 19.304 56.8323 19.4C56.7843 19.448 56.7363 19.448 56.7363 19.496C56.5923 19.544 56.5923 19.688 56.4483 19.736C56.3043 19.736 56.1603 19.784 56.0163 19.832C55.7763 19.736 55.3923 19.832 55.1523 19.736C55.1523 19.832 55.0083 19.784 54.9603 19.832C54.9123 19.928 54.7683 19.832 54.7203 19.928C54.6243 19.88 54.5763 19.832 54.4323 19.88L53.9043 20.024C53.8563 20.12 53.6643 20.072 53.6643 20.168C53.5683 20.168 53.4723 20.216 53.3763 20.264C53.1843 20.504 52.9443 20.696 52.7043 20.84C52.6083 21.224 52.3203 21.32 52.1763 21.656C52.0803 22.04 52.0323 22.568 52.1763 22.952C52.4163 23.048 52.5603 23.24 52.8003 23.24C52.9443 23.288 53.1363 23.192 53.2803 23.144C53.4723 23.096 53.6163 23 53.7603 23C53.8083 22.904 54.0003 22.904 54.0003 22.808C54.1443 22.808 54.0963 22.664 54.2403 22.616C54.2883 22.568 54.4323 22.616 54.4803 22.568C54.6243 22.472 54.6243 22.328 54.8163 22.376L54.9603 22.28C55.0563 22.232 55.1043 22.184 55.1523 22.28C55.1523 22.472 55.0083 22.568 54.9603 22.616C54.9123 22.664 54.9123 22.712 54.8643 22.712C54.8643 22.856 54.7683 23 54.7683 23.096C54.6243 23.144 54.6243 23.288 54.4323 23.288C54.3843 23.432 54.2883 23.48 54.1923 23.576C54.0483 23.576 54.0003 23.672 53.8563 23.672L53.4723 23.96C53.1363 24.008 52.8003 24.152 52.5603 24.296C52.5123 24.344 52.5123 24.344 52.4163 24.344L52.2723 24.44C52.2243 24.44 52.2243 24.488 52.1763 24.488L51.9843 24.584V24.632C51.8883 24.632 51.8883 24.68 51.7923 24.68C51.6963 24.776 51.5523 24.824 51.4563 24.872L51.2643 24.968C51.2163 24.968 51.2163 25.016 51.1683 25.016C51.1203 25.064 51.1203 25.064 51.0723 25.064C51.0243 25.112 50.8803 25.112 50.7363 25.112C50.5923 25.304 50.3523 25.448 50.0643 25.544C49.9683 25.544 49.9203 25.592 49.8723 25.688C49.6803 25.736 49.5363 25.88 49.3443 26.024C49.1523 26.072 49.0563 26.168 48.8643 26.168C48.7203 26.312 48.5763 26.408 48.3843 26.504C48.1923 26.6 48.0963 26.792 47.8083 26.792C47.7603 26.888 47.6163 26.936 47.5683 26.984C47.5203 27.032 47.5203 27.08 47.4243 27.08C47.3763 27.176 47.2803 27.128 47.2323 27.176C47.1843 27.176 47.1843 27.224 47.1363 27.272C47.0883 27.272 47.0403 27.272 46.9923 27.32C46.8003 27.512 46.4642 27.608 46.2722 27.848C46.1762 27.848 46.1282 27.944 46.0322 27.944C45.8402 28.184 45.6002 28.28 45.3602 28.424C45.2642 28.568 45.0242 28.712 44.9282 28.808C44.8802 28.856 44.8322 28.952 44.7842 28.952C44.4482 28.952 44.3522 29.24 44.0642 29.288C44.0162 29.432 43.9202 29.48 43.8242 29.576C43.7282 29.624 43.6802 29.768 43.5362 29.816C43.2962 29.96 43.0562 30.104 42.9122 30.296C42.6722 30.44 42.5282 30.68 42.3362 30.872C42.0962 31.016 41.9042 31.256 41.7122 31.448C41.5682 31.592 41.3762 31.736 41.2802 31.88L41.0402 32.12C40.9442 32.216 40.8482 32.264 40.7522 32.312C40.6562 32.504 40.5602 32.648 40.3682 32.744C40.3203 32.936 40.1282 33.08 40.0322 33.176C39.9842 33.176 40.0322 33.224 40.0322 33.272H39.9362V33.368H39.8882V33.464C39.8882 33.464 39.8882 33.416 39.8402 33.464C39.8402 33.464 39.8882 33.512 39.8402 33.512C39.8402 33.56 39.7922 33.608 39.7442 33.608C39.6962 33.656 39.6962 33.752 39.6962 33.8C39.6003 33.848 39.5522 33.944 39.5042 33.992C39.4082 34.088 39.3122 34.136 39.2642 34.232C39.2162 34.376 39.1682 34.424 39.1682 34.568C38.9762 34.712 38.8802 34.952 38.7362 35.096C38.7842 35.336 38.5922 35.336 38.6402 35.576L38.3522 35.912C38.4002 36.056 38.2562 36.104 38.2562 36.248C38.2082 36.344 38.1122 36.488 38.1122 36.536C38.0642 36.584 38.0162 36.584 38.0162 36.632C38.0162 36.68 38.0162 36.728 37.9682 36.728C38.0162 37.112 37.8242 37.304 37.7282 37.592C37.7282 37.736 37.8242 37.736 37.7762 37.88C37.6802 38.12 37.7762 38.408 37.7282 38.792C37.8722 38.936 37.9682 39.128 38.0642 39.368C38.1602 39.32 38.1122 39.416 38.2082 39.416C38.2082 39.512 38.3522 39.464 38.3522 39.56C38.4962 39.56 38.5442 39.656 38.6882 39.704L39.2162 39.8C39.3602 39.704 39.5522 39.704 39.7442 39.704C39.7442 39.608 39.8882 39.656 39.8882 39.608C39.9842 39.56 39.9842 39.512 40.0802 39.512C40.1762 39.416 40.2242 39.56 40.3682 39.512C40.5602 39.368 40.7522 39.32 40.9922 39.272L41.1362 39.08C41.2802 39.08 41.3282 38.936 41.3762 38.888H41.4722V38.84H41.5682C41.5682 38.84 41.6162 38.792 41.6162 38.744C41.7122 38.744 41.7602 38.696 41.8082 38.696L41.9042 38.6C41.9522 38.6 41.9522 38.552 42.0002 38.552C42.0482 38.456 42.0962 38.36 42.1442 38.36C42.2402 38.312 42.3362 38.264 42.4802 38.264C42.5762 38.072 42.7202 37.928 42.9122 37.784L43.1042 37.688L43.1522 37.64H43.2002C43.2482 37.64 43.2482 37.544 43.2482 37.544H43.3442C43.3442 37.544 43.3442 37.496 43.3922 37.496C43.3922 37.448 43.4402 37.448 43.4402 37.448C43.4883 37.448 43.6322 37.304 43.6322 37.304L43.7282 37.208C43.7762 37.208 43.8242 37.208 43.8242 37.16C43.8722 37.016 44.0642 36.92 44.1122 36.776L44.3522 36.632L44.4962 36.44C44.5922 36.344 44.6882 36.296 44.7842 36.248C44.8322 36.152 44.9282 36.056 44.9762 35.912C45.1682 35.864 45.2642 35.72 45.4562 35.672C45.5522 35.48 45.7442 35.384 45.8402 35.192L46.2722 34.76L46.5602 34.424L46.7043 34.328C46.7043 34.232 46.7523 34.232 46.8003 34.184L47.1843 33.896C47.3283 33.608 47.5203 33.416 47.7603 33.272C47.9523 33.032 48.0483 32.792 48.2883 32.744L48.4323 32.408C48.5283 32.264 48.6723 32.216 48.8163 32.12C48.8643 31.88 49.1043 31.784 49.1523 31.544C49.2963 31.544 49.3443 31.496 49.3923 31.448C49.4883 31.256 49.6323 31.16 49.6803 30.968C49.8242 30.968 49.8242 30.872 49.9203 30.824C50.0643 30.536 50.3043 30.44 50.4003 30.104C50.5443 30.008 50.7363 29.96 50.7363 29.768C50.8803 29.72 50.9763 29.576 51.0723 29.432C51.1683 29.336 51.2643 29.24 51.3603 29.192C51.4083 29.048 51.4563 28.904 51.6003 28.856C51.6483 28.76 51.6963 28.664 51.7923 28.568C51.8403 28.52 51.9843 28.376 51.9843 28.328C51.9843 28.232 52.1763 28.088 52.1763 28.088C52.2723 27.992 52.3203 27.896 52.4163 27.848C52.4643 27.752 52.5123 27.656 52.5123 27.56C52.7523 27.416 52.8963 27.224 53.0883 27.08L53.1843 26.792C53.4243 26.696 53.4723 26.456 53.6163 26.312C53.7122 26.264 53.7603 26.168 53.8083 26.072C53.8563 25.976 53.9523 25.88 54.0003 25.736L54.3363 25.544C54.3843 25.4 54.4323 25.352 54.4323 25.208C54.7203 25.112 54.7683 24.824 54.9603 24.68C55.0563 24.584 55.0563 24.44 55.1523 24.344C55.2483 24.2 55.3923 24.104 55.5363 24.008C55.8723 23.864 56.2083 23.72 56.5923 23.624C56.6403 23.528 56.8323 23.528 56.9283 23.432C57.0243 23.432 57.0723 23.336 57.2643 23.384C57.2163 23.336 57.2643 23.336 57.2643 23.336C57.4083 23.24 57.4563 23.144 57.6003 23.096C57.8403 23.048 58.0323 22.904 58.3683 22.904L58.5123 22.808C58.5603 22.76 58.7043 22.808 58.7043 22.712C58.8963 22.712 58.9443 22.568 59.0883 22.568C59.1843 22.52 59.2323 22.472 59.3763 22.472C59.4723 22.472 59.4723 22.376 59.5683 22.376C59.6163 22.28 59.7603 22.328 59.8083 22.232C59.9043 22.232 60.0003 22.184 60.0483 22.136H60.3363C60.4323 22.04 60.5763 22.04 60.6723 21.992L61.1043 21.848C61.2483 21.8 61.3443 21.656 61.5363 21.608C61.9683 21.608 62.2083 21.464 62.4963 21.32C62.5923 21.32 62.7843 21.368 62.9283 21.32V21.272H63.0243C63.1203 21.224 63.2163 21.176 63.2643 21.08C63.4083 21.032 63.5523 21.032 63.5523 20.84C63.5523 20.696 63.4083 20.696 63.3603 20.6C63.2163 20.648 63.0243 20.6 62.9283 20.648C62.7843 20.648 62.7363 20.792 62.5923 20.792C62.4483 20.792 62.4003 20.888 62.2563 20.888C62.1123 20.936 62.1123 20.888 61.9683 20.888C61.9203 20.936 61.8243 20.936 61.8243 20.984C61.7763 21.032 61.7283 20.984 61.7283 20.984C61.6803 21.032 61.6803 21.032 61.6323 21.032H61.3923C61.3443 21.128 61.2003 21.08 61.2003 21.128C61.1043 21.128 61.0563 21.272 60.9603 21.272H60.6723C60.6243 21.368 60.4803 21.368 60.3843 21.416C59.9523 21.416 59.8083 21.656 59.3763 21.656C59.3763 21.704 59.2803 21.704 59.1843 21.704L59.1363 21.8C59.0883 21.8 59.0403 21.8 59.0403 21.848H58.7043L58.5123 21.944C58.4643 21.944 58.4163 21.992 58.4163 22.04H58.2723C58.0803 22.088 57.8403 22.232 57.6963 22.232H57.6003C57.6003 22.28 57.6003 22.328 57.5523 22.376H57.4083C57.4083 22.376 57.4083 22.424 57.3603 22.424H57.2643ZM52.5603 25.4H52.7043C52.8003 25.544 52.7043 25.736 52.7043 25.88C52.6562 25.928 52.6083 26.024 52.5123 26.072C52.4643 26.168 52.3683 26.216 52.3203 26.36C52.1763 26.456 52.0323 26.6 51.9843 26.84C51.8403 26.888 51.7923 27.032 51.6483 27.032C51.6003 27.224 51.5043 27.368 51.4563 27.512L51.0243 27.896L50.8323 28.136C50.8323 28.136 50.7843 28.136 50.7843 28.184C50.7843 28.232 50.6883 28.232 50.6403 28.328C50.6403 28.328 50.6403 28.376 50.5923 28.424C50.5923 28.472 50.4963 28.52 50.4483 28.616C50.2563 28.76 50.1123 28.952 49.9683 29.144C49.8723 29.144 49.8242 29.24 49.7763 29.24C49.7763 29.336 49.7283 29.336 49.6803 29.384C49.6803 29.384 49.6803 29.48 49.6323 29.48C49.5843 29.528 49.5843 29.624 49.4883 29.672L49.1523 30.056L49.0083 30.296C48.9603 30.248 48.9123 30.344 48.8643 30.392C48.7683 30.488 48.6723 30.632 48.4803 30.776C48.3843 30.968 48.2883 31.208 48.0483 31.304C48.0483 31.4 48.0003 31.496 47.9523 31.592L47.8083 31.688H47.7123L47.5683 31.88C47.4243 31.976 47.3283 32.12 47.2323 32.216L47.0883 32.504C46.9923 32.6 46.8483 32.648 46.7523 32.792C46.6562 32.888 46.6082 33.032 46.4642 33.08C46.3682 33.224 46.3202 33.416 46.1762 33.464C46.0802 33.56 45.9842 33.656 45.9362 33.8C45.7922 33.848 45.7442 33.944 45.6482 33.992L45.3122 34.424C45.2162 34.472 45.1202 34.52 45.0723 34.616V34.664C45.0723 34.712 45.0242 34.664 45.0242 34.664V34.76C45.0242 34.76 44.9282 34.808 44.9282 34.856C44.8322 34.952 44.7362 35.048 44.5922 35.048C44.4962 35.288 44.2562 35.432 44.1122 35.672C43.9682 35.816 43.7282 35.912 43.6322 36.104C43.5362 36.104 43.5362 36.2 43.3922 36.2C43.2482 36.44 43.0082 36.632 42.7682 36.776C42.7202 36.872 42.6242 36.872 42.5762 36.968C42.4802 36.968 42.4802 37.064 42.4322 37.112C42.3362 37.208 42.1442 37.208 42.0962 37.352L41.7122 37.64L41.4722 37.784C41.4722 37.784 41.4722 37.832 41.4242 37.832C41.3762 37.832 41.2802 37.976 41.1362 38.024L40.9442 38.12C40.8962 38.264 40.7042 38.264 40.6562 38.408C40.4642 38.456 40.2722 38.552 40.1762 38.696C40.0322 38.648 40.0322 38.744 39.9362 38.744L39.6482 38.888C39.4082 38.888 39.3122 38.984 39.1202 39.032C38.9282 39.032 38.8802 38.888 38.7842 38.888C38.7362 38.84 38.6882 38.792 38.6402 38.792C38.5442 38.792 38.5922 38.696 38.4962 38.696C38.4962 38.552 38.5922 38.552 38.5922 38.36C38.4962 38.216 38.5922 38.072 38.5922 37.88C38.6402 37.832 38.6402 37.736 38.6402 37.688C38.6882 37.688 38.7362 37.688 38.7362 37.64C38.7362 37.592 38.7362 37.544 38.7842 37.544C38.7842 37.448 38.7842 37.352 38.8322 37.304V36.968C38.9282 36.92 38.9762 36.824 39.0722 36.728C39.0242 36.536 39.2162 36.488 39.1682 36.296C39.2642 36.296 39.2642 36.2 39.3122 36.152C39.3122 36.104 39.4082 36.104 39.4082 36.056L39.5522 35.72C39.6482 35.624 39.6962 35.48 39.8402 35.432C39.8402 35.192 39.9842 35.144 40.0322 34.904C40.1762 34.808 40.2242 34.664 40.3682 34.52C40.4162 34.376 40.6082 34.28 40.6082 34.088C40.8482 33.944 40.9922 33.752 41.1842 33.608C41.3282 33.272 41.6642 33.08 41.8082 32.744C41.9042 32.648 42.0002 32.6 42.0482 32.504C42.1442 32.408 42.2882 32.408 42.3362 32.312L42.5282 32.072L42.8162 31.928C42.9122 31.832 42.9122 31.64 43.1042 31.592L43.3922 31.256C43.4402 31.256 43.5362 31.208 43.5842 31.16C43.7282 31.064 43.8722 30.968 43.9682 30.776C44.1122 30.776 44.1602 30.68 44.2562 30.632C44.3522 30.632 44.3522 30.488 44.4482 30.488L44.6882 30.296C44.7362 30.152 44.8802 30.152 44.9282 30.104C45.0242 29.96 45.2642 29.912 45.3122 29.72C45.4562 29.672 45.5042 29.624 45.5522 29.576C45.6962 29.432 45.8402 29.336 46.0322 29.24C46.1282 29.192 46.2242 29.144 46.2722 29.048L46.5602 28.904C46.6562 28.856 46.7523 28.76 46.8483 28.664C46.9443 28.664 46.9923 28.568 47.0883 28.568C47.1843 28.52 47.2803 28.424 47.3283 28.328C47.5683 28.328 47.6163 28.04 47.8563 28.04C48.0003 27.944 48.1923 27.848 48.2883 27.704C48.3363 27.704 48.4803 27.656 48.5283 27.656C48.6243 27.608 48.6723 27.56 48.6723 27.464C48.7203 27.464 48.8163 27.416 48.8163 27.368C48.9603 27.368 49.0563 27.32 49.1523 27.32C49.2483 27.272 49.2963 27.176 49.3443 27.08C49.4403 27.032 49.5363 27.032 49.6323 26.936C49.6803 26.936 49.6803 26.888 49.6803 26.84C49.7283 26.792 49.8242 26.84 49.8242 26.792C49.9203 26.792 50.0163 26.792 50.0643 26.744C50.2563 26.648 50.4483 26.552 50.5923 26.408C51.0723 26.312 51.3123 25.928 51.7923 25.832L52.0803 25.592C52.1763 25.544 52.3683 25.544 52.4643 25.544C52.4643 25.448 52.5123 25.448 52.5603 25.4ZM54.3363 20.936H54.8163C54.8163 21.128 54.7203 21.224 54.6723 21.368C54.5763 21.464 54.4323 21.56 54.3843 21.704C54.1923 21.752 54.0483 21.896 53.9523 22.04C53.7603 22.04 53.6643 22.232 53.4243 22.232C53.4243 22.184 53.2323 22.184 53.2323 22.04C53.1843 21.848 53.3763 21.8 53.3763 21.656L53.6163 21.32C53.8083 21.272 53.9043 21.176 54.0003 21.128C54.0963 21.032 54.2403 21.032 54.3363 20.936Z" fill="#333333"/>
</svg>
