<svg width="109" height="41" viewBox="0 0 109 41" fill="none" xmlns="http://www.w3.org/2000/svg">
<path d="M20.9383 25.5644C20.9863 25.5644 20.9863 25.6124 21.0343 25.6124H21.0823V25.6604H21.1783C21.1783 25.6604 21.1783 25.7084 21.2263 25.7564C21.3703 25.8044 21.5623 25.7084 21.8023 25.7084C21.8023 25.6604 21.8983 25.6604 21.8983 25.6124C21.8983 25.5644 21.9463 25.5164 21.9943 25.5164C22.0903 25.4684 22.1863 25.4204 22.2343 25.3244C22.3303 25.3244 22.3783 25.2764 22.4743 25.2764C22.5223 25.0844 22.7623 25.0844 22.8583 24.8924C23.0023 24.7964 23.1463 24.7004 23.2903 24.5564L23.5303 24.2204C23.6263 24.1724 23.7223 24.0764 23.8663 24.0284C23.9623 23.8844 24.1063 23.7884 24.1543 23.6444L24.4423 23.4524C24.4423 23.3564 24.5863 23.3084 24.5863 23.2124C24.6343 23.1164 24.7303 23.0684 24.7303 22.9244C24.8743 22.8764 24.9703 22.7804 25.0663 22.7324C25.1623 22.4924 25.3543 22.3484 25.4983 22.2524C25.5943 22.1564 25.6423 22.1084 25.6903 21.9644C25.7863 21.9164 25.8823 21.8204 25.9783 21.7244C26.0743 21.5324 26.1703 21.3884 26.3623 21.2444C26.5063 21.0524 26.6023 20.8604 26.7943 20.7164L26.9863 20.4764C26.9863 20.3804 27.0823 20.4284 27.0823 20.3324L27.3703 19.9484C27.3703 19.9004 27.4663 19.9004 27.5143 19.8524L27.6103 19.7084C27.6583 19.5164 27.8023 19.4684 27.8983 19.3244C28.0423 19.1804 28.0903 19.0364 28.2343 18.8924C28.2823 18.8444 28.3303 18.7004 28.4743 18.7004C28.4743 18.6524 28.5223 18.6044 28.5223 18.5564L28.5703 18.5084C28.6183 18.4604 28.6183 18.4124 28.6183 18.3644L28.7623 18.1724C28.8103 18.1724 28.8103 18.1244 28.8583 18.0764C28.8583 18.0764 28.9063 18.0284 28.9543 18.0284C28.9543 17.9804 28.9543 17.9324 29.0023 17.8844L29.2903 17.5004C29.3863 17.4044 29.4823 17.2604 29.6263 17.1644C29.6263 17.1164 29.6743 17.0684 29.6743 16.9724C29.7223 16.9724 29.7223 16.9244 29.7703 16.9244C29.7703 16.8764 29.7703 16.8284 29.8183 16.7804H29.8663C29.9143 16.7324 29.9143 16.6844 29.9143 16.6364L30.0583 16.4924C30.2023 16.3004 30.3463 16.0124 30.5863 15.8684C30.6343 15.7244 30.7303 15.6284 30.7303 15.4844C30.8263 15.4364 30.8743 15.3404 31.0183 15.3404C31.0663 15.1004 31.1623 14.9564 31.3543 14.8604C31.4023 14.6204 31.5463 14.4764 31.7383 14.3324C31.8343 13.9484 32.1703 13.8044 32.2663 13.4204C32.4583 13.2284 32.6023 12.9404 32.7943 12.7964C32.8423 12.6044 32.9863 12.5564 32.9863 12.3644C33.2263 12.1724 33.3703 11.9324 33.5143 11.6444C33.5623 11.5484 33.6103 11.5004 33.6103 11.3564L33.7063 11.2124C33.7543 11.2124 33.7543 11.1644 33.8023 11.1164C33.8983 11.0684 33.8503 10.8764 33.8983 10.8284L34.0903 10.5884L34.1863 10.4924L34.2823 10.1084C34.3303 9.96442 34.5223 9.96442 34.5703 9.77242C34.6183 9.77242 34.5703 9.72442 34.5703 9.67642C34.5703 9.58042 34.6183 9.58042 34.6183 9.53242C34.7143 9.48442 34.7143 9.38842 34.7623 9.29242C34.8583 9.24442 34.8103 9.10042 34.9063 9.05242C34.8583 9.00442 34.9543 9.00442 34.9543 8.95642C35.0023 8.90842 35.0023 8.86042 35.0503 8.86042C35.0503 8.76442 35.0983 8.66842 35.0983 8.52442L35.3383 8.18842L35.5783 7.70842C35.5303 7.56442 35.6263 7.51642 35.6263 7.37242C35.7223 7.27642 35.7223 7.08442 35.8183 6.98842C35.8183 6.89242 35.8663 6.89242 35.8663 6.79642C35.8663 6.79642 35.9143 6.79642 35.9143 6.74842C35.9143 6.70042 35.9143 6.60442 35.9623 6.55642C35.9623 6.36442 36.0583 6.31642 36.0103 6.12442L36.1543 5.88442C36.2023 5.83642 36.1543 5.74042 36.1543 5.69242C36.1543 5.64442 36.2023 5.64442 36.2023 5.64442C36.2503 5.50042 36.2503 5.40442 36.2983 5.35642C36.3463 5.11642 36.2983 5.02042 36.3463 4.82842L36.4903 4.30042C36.4903 4.25242 36.4423 4.20442 36.4423 4.15642C36.4423 3.96442 36.4903 3.86842 36.4903 3.77242H36.4423C36.3943 3.72442 36.4903 3.53242 36.3943 3.48442C36.4903 3.38842 36.4423 3.14842 36.4423 3.00442C36.3463 2.86042 36.2983 2.71642 36.2503 2.57242C36.2023 2.33242 36.0583 2.14042 36.0583 1.85242C36.0103 1.85242 36.0103 1.85242 36.0103 1.80442C35.9143 1.75642 35.9143 1.66042 35.8663 1.61242C35.8183 1.61242 35.8183 1.51642 35.8183 1.51642C35.5783 1.42042 35.4343 1.22842 35.3383 1.03642C35.0983 1.03642 35.0023 0.84442 34.8103 0.796421C34.7623 0.748422 34.5703 0.796421 34.5703 0.700419C34.4743 0.700419 34.4743 0.65242 34.4263 0.604421C34.3783 0.604421 34.3303 0.604421 34.3303 0.556421C34.0423 0.604421 33.9943 0.41242 33.8023 0.41242C33.4183 0.316422 32.9383 0.364421 32.6023 0.268419C32.3143 0.316422 31.9303 0.22042 31.5943 0.22042L31.3063 0.316422C31.0663 0.268419 30.8263 0.316422 30.6823 0.316422C30.6343 0.316422 30.6343 0.364421 30.6343 0.364421C30.4903 0.41242 30.2503 0.41242 30.2023 0.46042C30.2023 0.46042 30.1543 0.41242 30.1063 0.46042H29.8183C29.7223 0.508419 29.5783 0.46042 29.4823 0.46042C29.2903 0.556421 29.0023 0.604421 28.7623 0.65242C28.6183 0.700419 28.4743 0.700419 28.4263 0.796421C28.3783 0.796421 28.3303 0.748422 28.3303 0.796421C28.3303 0.84442 28.2823 0.796421 28.2343 0.796421L28.0423 0.89242C27.8983 0.84442 27.8503 0.940419 27.7063 0.940419C27.6103 1.03642 27.4183 1.03642 27.3703 1.08442C27.2743 1.13242 27.0823 1.18042 27.0343 1.18042C26.9383 1.27642 26.7463 1.27642 26.6503 1.37242C26.6503 1.42042 26.5063 1.32442 26.5063 1.42042C26.3623 1.42042 26.2663 1.51642 26.1223 1.56442H25.8343C25.5943 1.75642 25.3063 1.90042 25.0183 2.04442C24.7303 2.04442 24.5863 2.18842 24.3943 2.23642C24.3943 2.33242 24.2983 2.33242 24.2023 2.38042C24.1063 2.38042 24.0103 2.38042 23.9623 2.42842C23.8183 2.52442 23.7223 2.62042 23.5303 2.66842C23.3863 2.71642 23.2903 2.86042 23.0983 2.86042C22.9543 3.05242 22.7143 3.14842 22.5703 3.29242C22.4263 3.29242 22.3303 3.34042 22.2823 3.34042C22.1383 3.38842 22.0903 3.53242 21.9463 3.62842C21.6583 3.62842 21.5623 3.82042 21.3703 3.91642C21.2743 3.91642 21.1783 4.01242 21.0343 4.01242C20.9383 4.15642 20.7943 4.20442 20.6503 4.30042C20.5063 4.44442 20.3623 4.54042 20.1703 4.58842C20.0743 4.68442 20.0263 4.78042 19.9303 4.82842C19.7383 4.87642 19.5943 4.97242 19.4503 5.02042C19.4503 5.11642 19.3063 5.11642 19.2583 5.16442C19.2103 5.21242 19.2103 5.26042 19.2103 5.30842C19.1623 5.30842 19.1143 5.35642 19.1143 5.35642C19.0183 5.40442 18.9223 5.40442 18.8743 5.45242C18.8263 5.45242 18.8263 5.50042 18.7783 5.54842H18.6343C18.5863 5.59642 18.5383 5.64442 18.5383 5.69242C18.4423 5.74042 18.3943 5.78842 18.3463 5.88442C18.3463 5.88442 18.2983 5.83642 18.2503 5.88442C18.2023 5.88442 18.2023 6.02842 18.1063 5.98042C18.0103 6.02842 17.9623 6.17242 17.8663 6.22042C17.7703 6.31642 17.7223 6.26842 17.6263 6.31642C17.5783 6.31642 17.5783 6.41242 17.5303 6.41242C17.5303 6.46042 17.4823 6.41242 17.4823 6.41242C17.4823 6.46042 17.4343 6.50842 17.4343 6.50842L17.0023 6.79642C16.9063 6.89242 16.7623 6.94042 16.7143 7.03642C16.6183 7.08442 16.5703 7.22842 16.4743 7.27642C16.3783 7.27642 16.3303 7.32442 16.2343 7.32442C16.1383 7.42042 16.0903 7.56442 15.9463 7.66042C15.9463 7.61242 15.8983 7.66042 15.8983 7.66042C15.8023 7.66042 15.8023 7.75642 15.7543 7.75642C15.7063 7.75642 15.7063 7.75642 15.7063 7.80442C15.5143 7.90042 15.3703 8.04442 15.2263 8.18842L14.6983 8.66842L14.6023 8.76442L14.1223 9.14842L13.7863 9.38842C13.6423 9.53242 13.5943 9.67642 13.4983 9.77242C13.4503 9.77242 13.3543 9.77242 13.3063 9.82042C13.2583 9.86842 13.2583 9.91642 13.2103 9.91642L12.8263 10.3004C12.8263 10.3484 12.7783 10.3004 12.7783 10.3004C12.6343 10.4444 12.5383 10.6844 12.2983 10.7324L12.1543 11.0204L11.8663 11.1644C11.8183 11.3084 11.7223 11.3564 11.6263 11.4524C11.5783 11.5004 11.4823 11.5484 11.4823 11.5484V11.6444C11.4343 11.6444 11.3863 11.6444 11.3863 11.6924L11.0983 11.8844L10.9543 12.2204L10.3783 12.7484C10.3303 12.8924 10.1863 12.9884 10.1383 13.1324C10.0423 13.2284 9.94631 13.2764 9.85031 13.3244C9.75431 13.5644 9.61031 13.6604 9.46631 13.8524C9.46631 13.9004 9.41831 13.9484 9.37031 13.9964C9.27431 13.9964 9.32231 14.0924 9.27431 14.0924C9.17831 14.3324 8.98631 14.4284 8.89031 14.6684C8.69831 14.7644 8.65031 14.9564 8.45831 15.0524C8.45831 15.1484 8.41031 15.2444 8.41031 15.3884C8.36231 15.3884 8.36231 15.4364 8.36231 15.4364C8.31431 15.4844 8.26631 15.4364 8.21831 15.4844C8.17031 15.5324 8.17031 15.5804 8.17031 15.6284L8.07431 15.6764V15.7244C8.07431 15.7724 8.02631 15.7724 8.02631 15.7724C7.97831 15.8204 7.97831 15.8684 7.97831 15.9164C7.97831 15.9644 7.93031 15.9644 7.93031 15.9644L7.83431 16.0604V16.2044C7.69031 16.2044 7.73831 16.3964 7.59431 16.3964C7.54631 16.4924 7.49831 16.5884 7.49831 16.7324C7.35431 16.7324 7.30631 16.8764 7.16231 16.9244C7.16231 17.0204 7.16231 17.0684 7.11431 17.1644C7.11431 17.2124 7.01831 17.2124 7.01831 17.2604V17.3084C7.01831 17.3564 6.97031 17.3564 6.97031 17.3564C6.92231 17.4044 6.92231 17.4524 6.92231 17.5004H6.87431C6.87431 17.5484 6.87431 17.5484 6.82631 17.5964L6.77831 17.6444C6.73031 17.6924 6.77831 17.7884 6.68231 17.7884C6.63431 18.0764 6.44231 18.2204 6.39431 18.4604C6.29831 18.5084 6.25031 18.6524 6.10631 18.7004C6.05831 18.9884 5.86631 19.1804 5.72231 19.4204C5.67431 19.7084 5.43431 19.8524 5.38631 20.1884C5.24231 20.2844 5.19431 20.5724 5.05031 20.6684C5.05031 20.9564 4.85831 21.0044 4.85831 21.2444C4.76231 21.2924 4.71431 21.3884 4.66631 21.4364C4.66631 21.4844 4.61831 21.4844 4.61831 21.5324V21.6284L4.52231 21.7244C4.52231 21.7724 4.47431 21.8204 4.42631 21.8684C4.37831 22.0124 4.37831 22.2524 4.23431 22.3004C4.28231 22.5404 4.09031 22.6364 4.09031 22.8284L3.94631 22.9724L3.70631 23.3084C3.65831 23.4044 3.65831 23.5484 3.65831 23.6924C3.41831 23.8844 3.41831 24.3644 3.17831 24.5564C3.22631 24.8444 3.08231 24.9884 3.03431 25.1804C3.03431 25.3244 2.89031 25.2764 2.93831 25.4204C2.79431 25.5164 2.79431 25.7084 2.65031 25.8524C2.60231 26.2364 2.45831 26.4764 2.41031 26.8124C2.31431 26.9084 2.26631 27.1004 2.17031 27.1484C2.21831 27.4844 2.02631 27.5324 2.07431 27.8684C1.93031 27.9164 1.93031 28.1084 1.88231 28.2044L1.69031 29.0684C1.64231 29.1644 1.64231 29.2604 1.59431 29.2604V29.3564C1.59431 29.5004 1.54631 29.5964 1.54631 29.6924C1.49831 29.7404 1.49831 29.7884 1.49831 29.8364C1.49831 29.8844 1.45031 29.8844 1.45031 29.8844L1.35431 30.3164C1.35431 30.4124 1.30631 30.4604 1.30631 30.5084C1.25831 30.6044 1.25831 30.7004 1.25831 30.7484C1.25831 30.8444 1.25831 30.8924 1.21031 30.9884C1.16231 31.2284 1.16231 31.4204 1.06631 31.6124C1.06631 32.1884 0.970313 32.7164 0.970313 33.2924C0.970313 33.3884 1.06631 33.4364 1.01831 33.5804C1.01831 33.7244 0.922313 33.7724 0.922313 33.9644C0.922313 34.5884 1.01831 35.1644 1.01831 35.7884C1.11431 35.8844 1.11431 36.0284 1.16231 36.1244C1.16231 36.2684 1.21031 36.4124 1.21031 36.5084C1.25831 36.7484 1.35431 36.9884 1.35431 37.2764C1.45031 37.3244 1.45031 37.4204 1.49831 37.5164C1.49831 37.5644 1.54631 37.6604 1.54631 37.7084C1.54631 37.7564 1.59431 37.8044 1.64231 37.8524L1.69031 37.9004V37.9484L1.83431 38.1884L1.88231 38.2364C1.93031 38.2844 1.93031 38.3324 1.93031 38.4284C1.93031 38.4284 1.97831 38.4764 2.02631 38.4764L2.17031 38.6684C2.26631 38.7644 2.31431 38.9084 2.36231 39.0524C2.55431 39.1964 2.69831 39.3884 2.79431 39.6284L2.98631 39.7244C3.13031 39.6764 3.08231 39.8684 3.17831 39.8684C3.22631 40.0124 3.46631 40.0124 3.51431 40.1564C3.61031 40.2044 3.75431 40.2524 3.80231 40.2524H3.85031C3.89831 40.2524 3.89831 40.3004 3.94631 40.3484C4.04231 40.3484 4.13831 40.4444 4.13831 40.4444H4.23431C4.23431 40.4444 4.28231 40.4924 4.33031 40.4924C4.33031 40.5404 4.37831 40.4924 4.42631 40.4924C4.42631 40.5404 4.47431 40.5884 4.52231 40.5884L4.85831 40.6844L4.90631 40.7324C5.00231 40.7804 5.09831 40.7324 5.14631 40.8284C5.53031 40.7804 5.86631 40.9724 6.25031 40.8764C6.39431 40.8764 6.49031 40.9244 6.63431 40.9724C6.77831 40.8764 6.92231 40.9244 7.11431 40.9244C7.16231 40.9244 7.16231 40.8764 7.16231 40.8764C7.35431 40.8764 7.45031 40.9244 7.59431 40.8764C7.78631 40.8284 7.97831 40.7804 8.21831 40.8284C8.36231 40.7804 8.55431 40.7324 8.74631 40.7324C8.84231 40.6364 9.03431 40.6844 9.08231 40.6364L9.41831 40.4924H9.80231C9.89831 40.4444 9.99431 40.3484 10.1383 40.3004C10.6663 40.2524 11.1463 40.1564 11.4823 39.9164C11.6743 39.8684 11.9623 39.8204 12.0583 39.7244C12.1063 39.7244 12.1063 39.6764 12.1543 39.6284H12.2503C12.2983 39.6284 12.2983 39.5804 12.2983 39.5804L12.3943 39.5324C12.5383 39.5804 12.5383 39.4844 12.6823 39.4844C12.7303 39.4364 12.8263 39.3884 12.8743 39.3884C12.9223 39.3884 12.8743 39.3404 12.9223 39.3404C13.0183 39.2924 13.1143 39.2924 13.2583 39.2924C13.3063 39.1964 13.4023 39.1484 13.4983 39.1004C13.5463 39.0044 13.6903 39.0524 13.7383 39.0524L13.8343 38.9564C13.8823 38.9564 13.9303 38.9564 13.9783 38.9084L14.0263 38.8604H14.1223C14.1223 38.8604 14.1223 38.8124 14.1703 38.7644H14.2663L14.3623 38.6684L14.7463 38.5724L15.2743 38.2364C15.3703 38.1884 15.4663 38.1404 15.5623 38.1404C15.7543 37.9964 15.9463 37.8524 16.2343 37.8524C16.3303 37.7084 16.4743 37.6124 16.6183 37.5644C16.7623 37.4684 16.9063 37.4204 17.0983 37.3724C17.0983 37.3244 17.0983 37.3244 17.1463 37.3244C17.2423 37.2284 17.2903 37.1324 17.4343 37.0844C17.5783 37.0364 17.7703 36.9884 17.8663 36.8444C18.0103 36.8444 18.0103 36.7964 18.0583 36.7004C18.2023 36.7004 18.2503 36.6524 18.3943 36.6524C18.4903 36.4604 18.7303 36.3644 18.8743 36.2684C19.2583 36.1724 19.4503 35.8844 19.7863 35.7884C19.8823 35.6924 19.8823 35.5964 19.9783 35.5484L20.2663 35.4044C20.2663 35.3564 20.3623 35.3564 20.3623 35.3564C20.4103 35.3084 20.4103 35.2604 20.5063 35.2604C20.7463 35.1164 20.9863 34.8764 21.3223 34.8284C21.4183 34.6844 21.5623 34.6364 21.6583 34.5404C21.7063 34.5404 21.7543 34.4444 21.8023 34.3964L21.9943 34.2524L22.2823 34.0604C22.4263 34.0124 22.5223 33.9644 22.6183 33.8204C22.7143 33.7724 22.9063 33.7724 22.9543 33.6764C23.0503 33.5804 23.0983 33.4844 23.2903 33.4844C23.3383 33.3404 23.4823 33.2924 23.5783 33.2444C23.6263 33.1004 23.8183 33.1004 23.8663 33.0044C24.0583 33.0044 24.0583 32.8124 24.2023 32.8124C24.2983 32.7164 24.3943 32.6204 24.4903 32.5724C24.5863 32.5244 24.7303 32.4284 24.8743 32.4284C24.9703 32.2844 25.0183 32.1404 25.1623 32.0924C25.3063 31.9964 25.4503 31.8524 25.6423 31.8524C25.7863 31.6604 25.9783 31.5644 26.1703 31.4204C26.2663 31.3724 26.3623 31.3244 26.4583 31.2284C26.5063 31.1324 26.6503 31.1324 26.7943 31.0844C26.9383 30.9404 26.9863 30.7964 27.1783 30.6524C27.2263 30.6044 27.3703 30.6044 27.4663 30.5564C27.4663 30.5084 27.5623 30.5084 27.5623 30.5084L27.6583 30.3644C27.7063 30.3644 27.7543 30.3644 27.8023 30.3164C27.8503 30.3164 27.8503 30.2684 27.8983 30.2684V30.2204C27.9943 30.1724 28.0423 30.1244 28.0903 30.1244C28.1383 30.1244 28.1383 30.0764 28.1383 30.0764C28.2343 30.0284 28.2823 29.9324 28.4263 29.9324C28.4743 29.7884 28.5703 29.7404 28.7143 29.6444C28.8103 29.5964 28.9063 29.5484 29.0023 29.5484C29.0983 29.3564 29.2903 29.3084 29.4343 29.1644C29.5783 29.0684 29.6743 28.9244 29.9143 28.8764C30.0103 28.7804 30.0103 28.6364 30.1063 28.5884C30.2023 28.5884 30.2503 28.5404 30.3943 28.5404C30.5383 28.3964 30.6823 28.2524 30.8743 28.1564C31.0183 27.9644 31.2103 27.8684 31.4023 27.7244C31.5943 27.6284 31.7863 27.5324 31.9303 27.3884C32.0263 27.2924 32.1223 27.2444 32.2183 27.1964C32.2183 27.1964 32.2183 27.1484 32.2663 27.1484C32.3623 27.1484 32.4583 27.0524 32.5063 27.0524C32.6023 26.9564 32.6983 26.8124 32.8423 26.8124C32.8423 26.7164 32.9863 26.7164 32.9863 26.6204L33.1783 26.4764C33.2743 26.4764 33.3223 26.3804 33.4183 26.3804C33.4663 26.2844 33.5143 26.1884 33.6583 26.0924C33.7543 26.0924 33.8023 25.9964 33.8983 25.9484L34.3303 25.7084C34.3783 25.6604 34.3783 25.6604 34.3783 25.6124C34.4263 25.6124 34.5223 25.6124 34.5703 25.5644C34.6183 25.5164 34.6183 25.4204 34.7623 25.4204L34.8583 25.3244C35.0023 25.1804 35.0983 25.1324 35.2423 25.0364C35.4823 24.9884 35.5783 24.7484 35.7703 24.6524C35.8663 24.6524 35.9143 24.6044 35.9623 24.6044C36.0103 24.5084 36.0583 24.5084 36.1543 24.4604L36.2983 24.3164C36.2983 24.2684 36.3463 24.2684 36.3943 24.2684C36.4423 24.2684 36.4423 24.2204 36.4903 24.1724L36.5383 24.1244C36.5863 24.0764 36.6343 24.0764 36.6823 24.0764C36.7783 23.9324 36.9703 23.8844 37.0183 23.7884C37.1623 23.6924 37.3063 23.5964 37.4503 23.5484C37.4503 23.4524 37.5463 23.4524 37.5943 23.4044V23.3084C37.5943 23.3084 37.6903 23.3564 37.6903 23.3084L37.7383 23.2604L37.9303 23.1644C37.9303 23.1644 37.9783 23.0684 38.0263 23.0684C38.0263 23.0204 38.1223 23.0684 38.1223 23.0684L38.1703 22.9724C38.2183 22.9724 38.2663 22.9724 38.3143 22.9244C38.4103 22.8284 38.5063 22.7804 38.6023 22.7324C38.6503 22.5884 38.7463 22.5404 38.8423 22.4924C38.9863 22.4444 39.0343 22.3484 39.1783 22.3484C39.3223 22.1564 39.5143 22.0604 39.6583 21.8684C39.8023 21.8684 39.8983 21.7244 40.0423 21.7244C40.1383 21.5324 40.3303 21.3884 40.5223 21.3404C40.5703 21.1484 40.8583 21.1484 41.0023 21.0044C41.0023 20.8124 41.1463 20.6684 41.0503 20.4764C40.9063 20.4284 40.7623 20.3804 40.6183 20.4764C40.5223 20.4764 40.5223 20.5724 40.4743 20.6204C40.3783 20.6204 40.3303 20.6684 40.2823 20.7164L39.9463 20.9564C39.8023 21.0044 39.7543 21.1484 39.6583 21.1964L39.3703 21.2924C39.3703 21.3884 39.2743 21.3884 39.2263 21.3884L39.1783 21.4844H39.1303C39.0343 21.4844 39.0823 21.6764 38.9383 21.6284L38.7463 21.7724C38.6983 21.9164 38.5063 21.9164 38.4103 22.0124C38.3623 22.0124 38.3143 22.0604 38.2663 22.1084L38.1703 22.2044C38.1223 22.2044 38.0743 22.2044 38.0743 22.2524C38.0263 22.2524 38.0263 22.3004 38.0263 22.3004C37.9783 22.3484 37.9303 22.3004 37.9303 22.3484L37.7383 22.4924C37.7383 22.4924 37.6903 22.4924 37.6903 22.5404C37.5943 22.5884 37.5463 22.7324 37.4023 22.7324C37.4023 22.7804 37.3543 22.7804 37.3063 22.7804C37.3063 22.8284 37.2583 22.8764 37.2103 22.9244C37.1143 22.8764 37.0663 23.0204 37.0183 23.0684C36.9223 23.1164 36.8743 23.1164 36.8263 23.1164C36.7783 23.1164 36.7783 23.2124 36.7783 23.2124H36.6823V23.3084C36.5863 23.3564 36.5383 23.3084 36.4903 23.3564C36.4423 23.3564 36.4423 23.4044 36.4423 23.4524C36.3943 23.4524 36.3463 23.5004 36.3463 23.5004C36.1543 23.5964 36.0583 23.7404 35.8183 23.7884C35.7223 23.9804 35.4343 24.0764 35.2903 24.2204V24.3644C35.2423 24.3644 35.1463 24.3644 35.1463 24.4124C34.8103 24.4604 34.6183 24.6044 34.4263 24.8444L34.2343 24.9404C34.1863 24.9404 34.1383 25.0364 34.0903 25.0364C33.9943 25.0364 33.9463 25.1324 33.9463 25.1804C33.8983 25.1804 33.8503 25.1804 33.8503 25.2284C33.8023 25.2284 33.8023 25.2764 33.7543 25.2764C33.7063 25.2764 33.5623 25.3724 33.5143 25.4204C33.4183 25.4684 33.3703 25.6124 33.2743 25.6604C33.1783 25.7564 32.9863 25.7564 32.9383 25.9004C32.8423 25.9964 32.6983 26.0444 32.5063 26.0924C32.4103 26.2844 32.2663 26.4284 32.0263 26.4764C31.9783 26.5244 31.9303 26.6684 31.8343 26.7164C31.5463 26.7644 31.4983 27.0044 31.2103 27.0524C31.0663 27.1964 30.8743 27.3404 30.6823 27.4364C30.5383 27.6284 30.2983 27.6764 30.1543 27.8684L29.8663 28.0124L29.7223 28.1564H29.6263C29.5783 28.2044 29.5783 28.2524 29.4823 28.2524C29.3863 28.2524 29.3863 28.3964 29.2903 28.3964C29.2423 28.4924 29.0983 28.5404 29.0023 28.5884C28.8103 28.6844 28.6663 28.8764 28.4263 28.9724C28.3303 29.0204 28.2343 29.0684 28.1863 29.1644C28.1383 29.1644 28.0903 29.2124 28.0423 29.2604C28.0423 29.3564 27.8983 29.2604 27.8983 29.3564C27.8023 29.3564 27.7543 29.4524 27.7063 29.4524V29.5004C27.6583 29.5004 27.6103 29.5004 27.5623 29.5484L27.4183 29.7404C27.4183 29.7404 27.3223 29.7404 27.3223 29.7884L26.8423 29.9804C26.6023 30.1724 26.4583 30.4124 26.1223 30.5084L25.7863 30.8444C25.2583 31.0844 24.8743 31.4684 24.2983 31.6604L23.8663 32.0924C23.7703 32.0924 23.7223 32.1404 23.5783 32.1404C23.4823 32.2844 23.3383 32.3324 23.1943 32.4284C23.0503 32.5244 22.9543 32.6684 22.7623 32.7164L22.2823 32.9564C22.1863 33.0524 22.0423 33.1484 21.8503 33.1964L21.3703 33.6284C21.1783 33.6284 21.1303 33.7724 20.9863 33.8684L20.6983 33.9644C20.6023 34.1084 20.4103 34.1564 20.3143 34.2524C20.1223 34.3004 19.9783 34.3964 19.8343 34.5404C19.6903 34.5884 19.5463 34.6844 19.4023 34.7804C19.3543 34.8764 19.2583 34.8764 19.2103 34.9244C19.1623 34.9724 19.1143 34.9724 19.1143 35.0684C19.0663 35.0684 19.0663 35.0684 19.0183 35.1164C18.8743 35.1164 18.7783 35.1644 18.6343 35.2124L18.3943 35.3564C18.3463 35.4044 18.2983 35.4524 18.2503 35.4524L18.0103 35.6444L17.6263 35.8364C17.4823 35.8844 17.3863 35.9804 17.2423 36.0764C17.0503 36.0284 17.0503 36.2204 16.8583 36.2684C16.7143 36.2684 16.6663 36.4604 16.5223 36.5084C16.4263 36.5084 16.3783 36.6044 16.2343 36.6044L16.0903 36.7004C16.0423 36.7964 15.8983 36.7484 15.8983 36.8444C15.8023 36.8444 15.7063 36.8444 15.7063 36.9404C15.5623 36.8924 15.5143 36.9404 15.4183 36.9884L15.3703 37.0364C15.3223 37.0364 15.2743 37.0844 15.2263 37.1324L15.1783 37.1804L15.0343 37.2764C14.9863 37.3244 14.9383 37.3724 14.8903 37.3724C14.6023 37.4204 14.4583 37.5644 14.2663 37.7084H14.0263C13.9303 37.9004 13.6903 37.9484 13.4983 38.0444C13.4023 38.0444 13.3543 38.1404 13.2583 38.0924C13.1143 38.2364 12.8743 38.2844 12.7303 38.4284C12.5863 38.3804 12.4903 38.4284 12.4423 38.4284C12.2983 38.5244 12.2023 38.6204 12.0583 38.6684L11.5303 38.8124C11.4823 38.8604 11.3863 38.9084 11.3863 38.9084H11.3383L11.0503 39.0044C11.0023 39.0524 10.9543 39.1004 10.9063 39.1004H10.7623C10.7143 39.1484 10.6663 39.1484 10.6663 39.1484C10.6183 39.1484 10.5703 39.1964 10.5703 39.1964C10.3783 39.2444 10.1863 39.3404 9.94631 39.2924C9.89831 39.3884 9.75431 39.4364 9.61031 39.4844C9.51431 39.4844 9.37031 39.4844 9.27431 39.5324C9.22631 39.6284 9.08231 39.6284 8.98631 39.6284C8.89031 39.6764 8.74631 39.6764 8.60231 39.6764C8.55431 39.7244 8.41031 39.7244 8.36231 39.7724L8.21831 39.7244C8.17031 39.7244 8.17031 39.7724 8.17031 39.7724H8.02631C7.97831 39.7724 7.97831 39.8204 7.97831 39.8204C7.93031 39.8204 7.83431 39.7724 7.78631 39.8204C7.54631 39.8204 7.45031 39.9164 7.21031 39.8684C7.06631 39.8684 7.06631 39.9644 6.87431 39.9644C6.53831 39.9164 6.20231 39.8684 5.91431 39.9164C5.72231 39.9164 5.72231 39.7724 5.57831 39.7724C5.48231 39.8204 5.38631 39.7724 5.24231 39.8204C5.19431 39.7244 5.09831 39.7244 5.00231 39.6764L4.71431 39.5804L4.42631 39.4844C4.33031 39.4844 4.28231 39.3884 4.13831 39.4364L3.99431 39.3404C3.99431 39.3404 3.94631 39.2444 3.89831 39.2444C3.85031 39.1964 3.80231 39.2444 3.75431 39.1964C3.70631 39.1964 3.70631 39.1004 3.65831 39.1004C3.61031 39.1004 3.61031 39.0524 3.56231 39.0524C3.46631 39.0524 3.46631 38.9084 3.41831 38.9084C3.37031 38.8604 3.37031 38.9084 3.32231 38.9084C3.32231 38.8604 3.32231 38.8124 3.27431 38.8124C3.22631 38.8124 3.22631 38.7164 3.17831 38.7164C3.08231 38.5724 2.89031 38.6204 2.84231 38.4764C2.79431 38.2844 2.65031 38.2364 2.65031 38.0444L2.55431 37.9004C2.45831 37.9004 2.41031 37.8044 2.41031 37.7564C2.41031 37.3724 2.12231 37.2764 2.07431 36.9884C2.07431 36.8924 1.97831 36.8444 2.02631 36.7484C2.02631 36.6524 1.97831 36.5564 1.93031 36.5084C1.97831 36.3164 1.88231 36.1724 1.88231 35.9804C1.83431 35.8844 1.88231 35.8364 1.88231 35.7884C1.83431 35.7404 1.88231 35.7404 1.88231 35.6924C1.83431 35.5964 1.78631 35.5004 1.78631 35.4044C1.73831 35.2124 1.83431 35.2124 1.83431 35.0684C1.64231 34.4924 1.88231 33.8684 1.83431 33.2444L1.93031 32.8604V32.4764C2.02631 32.2844 2.07431 32.0444 2.07431 31.7564C2.12231 31.6124 2.17031 31.5164 2.17031 31.2764C2.17031 31.0844 2.31431 30.9884 2.26631 30.7484C2.36231 30.6044 2.36231 30.4604 2.41031 30.3164C2.41031 30.1724 2.50631 29.9324 2.50631 29.7404L2.69831 29.3564V28.9244C2.74631 28.8764 2.74631 28.8284 2.74631 28.7324C2.84231 28.6844 2.84231 28.5884 2.89031 28.4924C2.98631 28.3964 2.98631 28.1564 3.13031 28.0604C3.13031 27.6284 3.27431 27.3884 3.37031 27.0044C3.46631 26.9084 3.51431 26.7164 3.56231 26.5724L3.80231 26.0924C3.75431 25.9004 3.89831 25.8044 3.94631 25.6124C3.99431 25.6124 3.94631 25.4204 4.04231 25.4204C4.04231 25.2764 4.13831 25.2764 4.13831 25.1804C4.28231 25.0364 4.23431 24.7964 4.37831 24.7004C4.42631 24.5564 4.52231 24.4124 4.61831 24.2684C4.66631 24.0764 4.71431 23.9324 4.81031 23.7404C4.85831 23.5484 4.90631 23.3564 5.05031 23.2604C5.09831 23.1164 5.05031 23.1164 5.09831 23.0684L5.19431 23.0204V22.9244H5.24231C5.29031 22.8764 5.24231 22.7804 5.33831 22.7804L5.53031 22.2524C5.62631 22.1564 5.67431 22.0604 5.72231 21.8684C5.77031 21.8204 5.86631 21.7724 5.86631 21.7244C5.86631 21.6764 5.86631 21.6764 5.91431 21.6764V21.5324H5.96231V21.4364H6.01031L6.05831 21.3404C6.15431 21.1484 6.20231 20.9564 6.25031 20.8124C6.39431 20.6204 6.58631 20.5244 6.63431 20.2364C6.77831 20.1404 6.77831 19.9484 6.97031 19.9004C6.92231 19.7564 6.97031 19.6604 7.01831 19.6124C7.21031 19.4204 7.35431 19.2284 7.40231 18.9404C7.49831 18.8444 7.64231 18.8444 7.69031 18.7004C7.73831 18.7004 7.69031 18.6044 7.69031 18.5564C7.78631 18.5564 7.73831 18.4604 7.73831 18.4124C7.73831 18.4124 7.83431 18.4124 7.83431 18.3644V18.3164C7.83431 18.2684 7.88231 18.2684 7.88231 18.2204C7.93031 18.1724 7.93031 18.1724 7.93031 18.0764L8.31431 17.7884C8.31431 17.6924 8.36231 17.6444 8.36231 17.5964C8.41031 17.5484 8.45831 17.5484 8.45831 17.5004C8.45831 17.4044 8.55431 17.4044 8.55431 17.3564V17.3084C8.65031 17.2604 8.69831 17.1164 8.74631 17.0684C8.79431 16.9724 8.79431 16.9244 8.79431 16.8284C9.08231 16.7324 9.08231 16.3964 9.32231 16.2524L9.56231 15.9164C9.56231 15.7724 9.70631 15.6764 9.75431 15.5804C9.89831 15.3404 10.1383 15.1484 10.3303 14.9564C10.3783 14.8604 10.3783 14.7644 10.4743 14.7164C10.6663 14.3804 11.0503 14.1884 11.1943 13.8044L11.4823 13.6124C11.5303 13.4204 11.6263 13.3724 11.7223 13.2284C11.9623 13.0364 12.1543 12.7964 12.3463 12.5564C12.3943 12.3644 12.5863 12.3164 12.6823 12.2204C12.7303 12.1724 12.6823 12.1244 12.7303 12.0764L12.8263 12.0284C12.8743 11.9804 12.8743 11.9324 12.8743 11.8844H12.9223C12.9223 11.8364 12.9223 11.7884 12.9703 11.7884L13.3063 11.5484C13.3543 11.5004 13.4983 11.3564 13.4983 11.3084C13.4983 11.2604 13.5463 11.2604 13.5463 11.2604C13.6903 11.0684 13.8823 10.9244 14.0263 10.6844C14.1703 10.6364 14.2663 10.5884 14.3623 10.4924C14.5063 10.3964 14.5543 10.2524 14.6983 10.1084C14.7943 10.0124 14.9383 9.91642 15.0343 9.77242L15.3223 9.58042C15.3703 9.58042 15.3703 9.43642 15.4183 9.43642L15.5623 9.34042L15.7543 9.14842C15.7543 9.10042 15.8023 9.10042 15.8023 9.05242C15.9463 9.00442 15.9463 8.86042 16.0903 8.81242L16.3303 8.62042H16.4263C16.4263 8.62042 16.4263 8.57242 16.4743 8.52442C16.4743 8.52442 16.5223 8.57242 16.5223 8.52442C16.5703 8.52442 16.5703 8.47642 16.6183 8.42842C16.6183 8.38042 16.6663 8.38042 16.7143 8.33242L16.8583 8.14042C16.9063 8.09242 16.9543 8.09242 17.0023 8.09242L17.0503 8.04442C17.0983 8.04442 17.0983 8.04442 17.1463 7.99642C17.2423 7.90042 17.3383 7.70842 17.5303 7.61242C17.7223 7.51642 17.8663 7.27642 18.1543 7.27642C18.2983 7.03642 18.5383 6.94042 18.7303 6.74842C18.8263 6.70042 18.8263 6.60442 18.8263 6.60442C18.8263 6.55642 18.9223 6.60442 18.9223 6.55642C19.0663 6.50842 19.1623 6.41242 19.3543 6.36442L19.8823 5.93242C20.0743 5.88442 20.1223 5.74042 20.3143 5.69242L20.6983 5.40442C20.8903 5.35642 20.9383 5.21242 21.0823 5.11642C21.2743 5.16442 21.3223 5.06842 21.4183 5.02042C21.6583 4.82842 21.9463 4.68442 22.2823 4.54042C22.3783 4.44442 22.4743 4.30042 22.6183 4.25242C22.8103 4.20442 22.9063 4.10842 23.0983 4.10842C23.1463 4.06042 23.1943 3.96442 23.2423 3.96442H23.2903L23.4823 3.82042C23.6743 3.77242 23.8183 3.67642 23.9623 3.58042C24.1543 3.58042 24.2503 3.48442 24.3943 3.43642C24.5383 3.43642 24.5383 3.29242 24.7303 3.24442C25.0663 3.14842 25.3063 2.95642 25.5943 2.81242C25.9303 2.76442 26.2183 2.66842 26.4103 2.52442C26.5063 2.47642 26.5543 2.38042 26.6983 2.38042L27.3223 2.23642C27.4183 2.14042 27.5623 2.09242 27.7063 2.04442C28.0903 1.99642 28.2343 1.75642 28.6663 1.80442C28.7623 1.70842 28.8583 1.66042 29.0023 1.66042C29.0983 1.56442 29.2423 1.51642 29.3383 1.51642C29.5783 1.51642 29.7223 1.42042 29.9623 1.46842C29.9623 1.42042 30.1063 1.37242 30.1063 1.37242H30.1543V1.32442H30.3943C30.4423 1.32442 30.4423 1.27642 30.4423 1.27642C30.5383 1.22842 30.6343 1.22842 30.7303 1.22842C31.0183 1.18042 31.3543 1.08442 31.6903 1.13242C31.7863 1.08442 31.8823 0.988421 32.0263 0.988421C32.4583 0.988421 32.8423 1.03642 33.2743 0.988421C33.3223 1.08442 33.4183 1.03642 33.5143 1.08442L33.5623 1.13242C33.6103 1.18042 33.6583 1.18042 33.7063 1.18042C33.8503 1.22842 33.9943 1.22842 34.1383 1.22842C34.2343 1.37242 34.4263 1.37242 34.5223 1.46842C34.6663 1.51642 34.7623 1.66042 34.9063 1.66042C35.0503 1.85242 35.2423 1.94842 35.3383 2.14042C35.4823 2.38042 35.5783 2.66842 35.6743 2.95642C35.6263 3.19642 35.7223 3.29242 35.7703 3.43642C35.7703 3.77242 35.7223 3.96442 35.7703 4.25242C35.7223 4.39642 35.6743 4.54042 35.6743 4.73242C35.6263 4.78042 35.6263 4.97242 35.5303 5.02042C35.5303 5.16442 35.4823 5.21242 35.4823 5.40442L35.3863 5.59642C35.3383 5.69242 35.3383 5.78842 35.3383 5.88442C35.2423 5.98042 35.2423 6.12442 35.1463 6.17242C35.1943 6.36442 35.0983 6.46042 35.0503 6.60442L34.9063 6.98842C34.7623 7.22842 34.6663 7.46842 34.5703 7.80442C34.4743 7.90042 34.4263 8.04442 34.3303 8.18842L34.2343 8.47642C34.1863 8.52442 34.1383 8.62042 34.0423 8.66842C33.9943 8.81242 33.8503 8.95642 33.8023 9.14842L33.6103 9.38842L33.5143 9.77242L33.3703 9.91642C33.2743 9.96442 33.2743 10.0604 33.2263 10.1084C33.1783 10.2044 33.1303 10.2524 33.1303 10.3484C32.9863 10.3484 32.9863 10.4924 32.8903 10.4924C32.8903 10.6364 32.8423 10.6844 32.7943 10.8284C32.6983 10.8764 32.6503 11.0684 32.5063 11.1644C32.4583 11.4044 32.2663 11.5484 32.1703 11.7884C32.0743 11.8844 32.0743 11.9804 31.9783 12.0764H31.9303C31.9303 12.0764 31.9783 12.1724 31.9303 12.1724C31.8823 12.2684 31.7863 12.2684 31.7383 12.3644C31.7383 12.5084 31.6423 12.6044 31.5943 12.7484C31.4023 12.8444 31.3543 13.0844 31.1623 13.1804C31.1623 13.3244 31.0663 13.3244 31.0663 13.4684C31.0183 13.5644 30.8743 13.6604 30.8263 13.7084C30.7783 13.7564 30.8263 13.8044 30.7783 13.8524C30.7783 13.9004 30.7303 13.9004 30.6823 13.9484C30.6823 13.9964 30.6823 13.9964 30.6343 14.0444L30.3463 14.4284C30.2983 14.4284 30.2503 14.4764 30.2503 14.5244V14.5724C30.2503 14.5724 30.2023 14.6204 30.1543 14.6204V14.7164L30.0103 14.8124V14.9084L29.8663 15.0044C29.8663 15.1484 29.7223 15.1964 29.7223 15.3884L29.4343 15.5804C29.3863 15.6764 29.3863 15.7244 29.2903 15.7724C29.2903 15.8684 29.1463 15.8684 29.1463 15.9644C29.0983 15.9644 29.1463 16.1084 29.0983 16.2044C28.9543 16.3484 28.8583 16.5404 28.7623 16.7804C28.5703 16.8284 28.4743 17.0684 28.3303 17.2604C28.1863 17.4044 28.0423 17.5964 27.8503 17.7404L27.7063 18.0764C27.6103 18.1244 27.5623 18.2204 27.5143 18.3644C27.3703 18.5084 27.2743 18.7004 27.0823 18.7964C27.0343 19.0364 26.8423 19.0844 26.8423 19.2764C26.6503 19.3724 26.6023 19.5164 26.4583 19.6124C26.4103 19.8044 26.2663 19.8524 26.2183 20.0924C26.0743 20.0924 26.0263 20.1884 25.9303 20.2364C25.8343 20.4764 25.6423 20.6684 25.4503 20.8124C25.4023 20.9564 25.3063 21.1004 25.1623 21.1964L24.9223 21.5324C24.8743 21.5324 24.9223 21.5804 24.9223 21.5804L24.7303 21.7244L24.5383 21.9644C24.4423 22.0604 24.2503 22.1564 24.2503 22.2524C24.2503 22.3004 24.1543 22.3004 24.1543 22.3484V22.3964L24.0583 22.4924C24.0583 22.5404 24.0103 22.5404 24.0103 22.5884C23.9623 22.5884 24.0103 22.6364 24.0103 22.6364C23.9623 22.6844 23.9143 22.6844 23.9143 22.6844C23.9143 22.7324 23.9143 22.7804 23.8663 22.7804L23.7223 22.9244C23.7223 22.9244 23.7223 22.9724 23.6743 22.9724C23.6743 23.0204 23.6263 22.9724 23.5783 23.0204L23.0503 23.5964C23.0503 23.5964 23.0503 23.6444 23.0023 23.6444C23.0023 23.6924 22.9543 23.6924 22.9063 23.6924L22.8103 23.7884C22.8103 23.7884 22.7623 23.7884 22.7623 23.8364C22.7143 23.8844 22.6663 23.9804 22.5223 23.9804C22.3783 23.9324 22.3783 23.5004 22.5223 23.4524C22.5223 23.3564 22.6183 23.1644 22.6183 23.1164C22.6183 23.0684 22.6663 23.0684 22.6663 23.0684C22.7143 23.0204 22.6663 22.9724 22.7143 22.9244C22.7143 22.8764 22.7623 22.8764 22.8103 22.8284C22.8103 22.7804 22.7623 22.7324 22.8583 22.7804L23.0023 22.5884C23.0023 22.4444 23.0503 22.4444 23.0503 22.3004C23.1943 22.2524 23.2423 22.1084 23.3383 21.9644C23.3863 21.8204 23.4343 21.6764 23.5783 21.5804C23.7223 21.2924 23.8663 21.0524 24.1063 20.8604C24.1063 20.7644 24.2023 20.7164 24.2023 20.5724C24.2503 20.5724 24.2503 20.4764 24.2983 20.4764L24.4423 20.3324C24.4903 20.2364 24.5383 20.1404 24.6343 20.0444C24.7303 19.9964 24.8263 19.9004 24.8743 19.7564C24.8743 19.6604 25.0183 19.6124 25.0663 19.5164C25.1623 19.4204 25.2103 19.3244 25.2583 19.2284C25.3063 19.1324 25.4023 19.0844 25.4023 19.0844C25.4023 19.0364 25.4023 19.0364 25.4503 19.0364C25.5943 18.7964 25.8343 18.6524 25.9303 18.3644C26.0263 18.3164 26.1703 18.1244 26.2663 18.0764C26.3143 18.0284 26.3623 18.0284 26.3623 17.9804C26.3623 17.9324 26.4103 17.9324 26.4103 17.9324L26.5543 17.6924C26.6023 17.6924 26.6503 17.6924 26.6503 17.6444C26.7943 17.5964 26.7943 17.4044 26.8903 17.3084C26.9863 17.3084 27.0343 17.2604 27.0343 17.2124H27.1303C27.1303 17.1644 27.1303 17.1164 27.1783 17.1164C27.2743 17.0204 27.3223 16.9724 27.4663 16.9244L27.8023 16.4924C27.9943 16.4444 28.0423 16.2044 28.2343 16.1084L28.6183 15.9164C28.7143 15.8204 28.9063 15.8684 29.0023 15.7724C29.0503 15.5324 29.1463 15.1484 29.0503 14.8604C29.0023 14.7644 28.8583 14.7644 28.8103 14.6684C28.4263 14.6684 28.2343 14.8124 27.9463 14.9564C27.8503 15.1004 27.7543 15.1964 27.6103 15.2924C27.5623 15.3884 27.4663 15.4364 27.3703 15.4844V15.5804C27.3223 15.6284 27.2743 15.5804 27.2743 15.5804C27.2263 15.6284 27.2263 15.6764 27.1303 15.6764C27.0343 15.8684 26.9383 16.0604 26.6983 16.1084C26.6503 16.3484 26.4583 16.4444 26.3623 16.6364C26.2663 16.6364 26.2663 16.7324 26.1223 16.7324C26.0743 16.9244 25.9303 17.0684 25.7383 17.1644C25.6903 17.4044 25.4503 17.5004 25.4023 17.7404C25.3063 17.8364 25.1143 17.8844 25.1143 17.9804C25.1143 18.0284 25.1143 17.9804 25.0663 18.0284C25.0663 18.0764 24.9223 18.2204 24.9223 18.2204V18.2684C24.7783 18.4604 24.6343 18.5564 24.4903 18.7004C24.4423 18.7964 24.3463 18.8924 24.2983 19.0364C24.2503 19.0364 24.2023 19.1324 24.1543 19.1804C24.1063 19.2284 23.9623 19.2284 24.0103 19.3244C23.8663 19.3724 23.8663 19.5164 23.8663 19.6124H23.7703V19.7084C23.7703 19.7084 23.7223 19.7084 23.6743 19.7564C23.5783 19.9004 23.5303 20.0444 23.3383 20.1404C23.2903 20.2364 23.2423 20.3804 23.1463 20.4284L23.0023 20.7164C22.9063 20.7644 22.9063 20.8604 22.8103 20.9564L22.6663 21.1964C22.6183 21.2924 22.5223 21.2924 22.4743 21.4364C22.3783 21.5324 22.3303 21.7244 22.2823 21.8684C22.1863 21.9164 22.0903 21.9644 21.9943 22.0604C21.9463 22.3004 21.8503 22.4444 21.7543 22.5884L21.6583 22.7804C21.6103 22.8764 21.5623 22.9244 21.5623 22.9724C21.4663 23.1164 21.4183 23.2604 21.3223 23.3564C21.2743 23.5964 21.1303 23.7404 21.1303 23.9804C21.0823 24.0764 20.9863 24.1724 20.9863 24.2684C20.9863 24.4604 20.8903 24.7004 20.8423 24.8924C20.8423 25.1324 20.8903 25.3244 20.9383 25.5644ZM43.2741 19.9004C43.3701 19.7564 43.3701 19.5644 43.4661 19.3724C43.3701 19.3244 43.4181 19.1804 43.3221 19.0844C43.3221 18.9884 43.2741 18.9404 43.1781 18.8444C43.0341 18.7964 42.9381 18.7484 42.7941 18.7484C42.6981 18.7484 42.6501 18.8444 42.6021 18.8444C42.5061 18.8924 42.4581 18.8924 42.3621 18.8924C42.2661 18.9884 42.1221 18.9884 41.9301 19.0364C41.8821 19.1324 41.7861 19.1804 41.6421 19.2284L41.3541 19.6124C41.2101 19.6124 41.1621 19.7564 41.0181 19.8044C40.8741 19.9484 40.7781 20.1404 40.5381 20.1884C40.4421 20.3804 40.2981 20.5244 40.1061 20.6684C40.0581 20.8604 39.8661 20.9084 39.8181 21.1004C39.7221 21.2444 39.6261 21.3884 39.4821 21.5324C39.4821 21.7724 39.3381 21.9164 39.1941 22.0604C39.1941 22.1564 39.1461 22.2044 39.0981 22.2524C39.0981 22.3484 39.0981 22.4444 39.0021 22.4444C39.0021 22.5884 38.9541 22.7324 38.9541 22.8764C38.9541 22.9244 38.9061 22.9244 38.9061 22.9244C38.8101 23.1644 38.9061 23.4524 38.8101 23.7404C38.9061 23.8364 39.0501 23.8364 39.0981 23.9324C39.2421 23.9804 39.2421 24.0764 39.2901 24.1244C39.2901 24.1724 39.3381 24.1724 39.3381 24.2204C39.6261 24.2204 39.7701 24.2204 39.9621 24.1244C40.1061 24.1244 40.1061 24.1724 40.2021 24.1244L40.6341 23.8364C40.7301 23.6924 40.8741 23.6444 41.0181 23.5484L41.4501 22.9724C41.5461 22.9244 41.5941 22.8764 41.6421 22.7804C41.6421 22.7804 41.7381 22.7324 41.7381 22.6844V22.6364L41.9301 22.4444C41.9781 22.1564 42.1701 22.1084 42.1701 21.8684C42.3621 21.6764 42.5061 21.4844 42.7461 21.3884C43.4181 21.3884 44.0421 21.2924 44.5701 21.1964C44.7621 21.2444 45.0021 21.1964 45.0981 21.1484C45.1941 21.1964 45.3381 21.1964 45.4341 21.1964C45.7221 21.0524 46.2501 21.1004 46.6341 21.0524C46.6821 21.0044 46.7781 21.0044 46.8741 21.0044C46.8741 21.0044 46.8261 20.9564 46.8741 20.9564H47.0181V20.9084C47.2581 20.8604 47.4981 20.8604 47.7381 20.8604C47.8341 20.7644 48.0741 20.7164 48.0741 20.4764C48.0261 20.3324 47.8341 20.3804 47.7381 20.3324C47.3541 20.2844 46.9701 20.3324 46.6341 20.4284C46.2981 20.4284 46.0581 20.4764 45.7701 20.5244C45.5301 20.5244 45.4821 20.5244 45.2901 20.5724C45.1461 20.6204 45.1461 20.5244 45.0021 20.5244C44.8581 20.6204 44.6661 20.6204 44.5221 20.6684C44.2821 20.5724 44.1381 20.6204 43.8981 20.6684L43.5621 20.5724C43.4661 20.6684 43.1781 20.6684 43.0341 20.6684L42.9861 20.6204H42.7941V20.5724C42.7461 20.5724 42.6501 20.5724 42.6021 20.5244L42.5061 20.3324C42.5061 20.1404 42.6981 20.1404 42.7941 20.0444C42.8901 19.9484 43.1301 19.9484 43.2741 19.9004ZM40.6341 22.2524C40.7301 22.3004 40.7781 22.3484 40.7781 22.4444C40.7781 22.5884 40.5381 22.6844 40.3941 22.6364C40.3941 22.3964 40.5861 22.3964 40.6341 22.2524ZM81.0756 5.59642C80.9796 5.54842 80.9796 5.45242 80.9316 5.35642L80.6436 5.21242C80.6436 5.16442 80.5956 5.21242 80.5476 5.21242C80.3076 5.21242 79.8756 5.21242 79.6356 5.26042C79.4916 5.35642 79.3476 5.40442 79.1556 5.45242C79.1556 5.54842 78.9636 5.50042 78.9636 5.64442C78.8676 5.64442 78.8676 5.74042 78.8196 5.74042C78.7236 5.88442 78.5796 5.88442 78.4836 5.98042C78.4356 5.98042 78.4356 6.07642 78.3396 6.07642C78.3396 6.17242 78.1956 6.12442 78.1956 6.22042C78.0516 6.22042 78.0036 6.36442 77.8596 6.36442C77.7156 6.55642 77.5236 6.70042 77.4276 6.84442C77.3796 6.89242 77.3316 6.98842 77.2356 6.98842C77.1396 7.03642 77.0436 7.13242 76.8996 7.18042C76.7556 7.42042 76.4676 7.56442 76.3716 7.80442C76.0356 7.90042 75.9396 8.23642 75.6516 8.33242L75.5076 8.66842C75.2196 8.81242 75.0276 9.19642 74.7396 9.38842C74.6916 9.48442 74.5956 9.58042 74.5476 9.72442C74.3076 9.82042 74.1636 9.96442 74.0196 10.1564C73.9236 10.2044 73.8756 10.3484 73.7796 10.4444L73.4916 10.6364C72.9636 10.6844 72.3396 10.6364 71.9556 10.7804C71.6676 10.6844 71.4276 10.8284 71.1396 10.8284C70.8996 10.8284 70.6596 10.7804 70.4196 10.7804C70.2756 10.8284 70.1316 10.8764 69.9876 10.8764C69.6516 10.9244 69.3156 10.8284 69.1236 10.9724C68.9796 10.9724 68.9796 10.8764 68.8356 10.9244C68.6916 10.9724 68.4996 11.0204 68.3076 10.9724C68.2596 11.0204 68.0676 11.0204 67.9716 11.0684C67.8276 10.9724 67.6836 11.0684 67.4916 11.1164C67.3476 11.1164 67.2996 11.0684 67.2036 11.0684C67.1556 11.1164 67.0116 11.1164 66.9156 11.1164C66.4836 11.1164 66.2436 11.2604 65.8116 11.2604C65.7636 11.3084 65.6196 11.3084 65.5236 11.3564C65.4276 11.3564 65.3796 11.3084 65.2356 11.3084C64.9956 11.5004 64.5156 11.4524 64.4196 11.8364V12.0284C64.5156 12.1244 64.5636 12.2204 64.6596 12.2204C64.7076 12.2684 64.7556 12.2684 64.7556 12.2684C64.8036 12.2684 64.8516 12.2684 64.8516 12.3164C65.0436 12.3164 65.1876 12.3164 65.3316 12.2684C65.4756 12.3164 65.6196 12.3644 65.8116 12.3644C65.9556 12.3164 66.0036 12.1724 66.1476 12.1724C66.2916 12.2684 66.3876 12.2204 66.4836 12.2684C66.6756 12.3644 66.7236 12.5564 66.9636 12.5564C67.2036 12.6044 67.3476 12.5084 67.4436 12.4124C67.5396 12.3644 67.5396 12.2204 67.6356 12.1724C67.7796 12.0764 67.9236 11.9804 68.1156 11.9324C68.3076 11.9804 68.4996 11.9804 68.7396 11.9804C68.9316 11.9324 69.0756 11.8364 69.3156 11.9324C69.4116 11.8844 69.5076 11.7884 69.6996 11.8364C69.8916 11.7884 69.9396 11.8844 70.1316 11.8844C70.2756 11.8844 70.3716 11.8364 70.4676 11.7884C70.5636 11.8364 70.6596 11.8364 70.7556 11.8364C71.0436 11.7404 71.5236 11.7404 71.8596 11.6924C71.9556 11.7884 72.2436 11.7404 72.2436 11.9804C72.2436 12.0764 72.1956 12.1724 72.1476 12.2684C72.1476 12.4124 72.0036 12.4124 71.9556 12.5084L71.8116 12.7004L71.6196 12.9404L71.3316 13.2284C71.3316 13.2764 71.3316 13.3244 71.2836 13.3724L71.1396 13.5164C71.1396 13.5644 71.1396 13.6124 71.0916 13.6124C71.0916 13.7084 70.9956 13.7564 70.9476 13.9004C70.8036 13.9964 70.7076 14.1884 70.5636 14.2844C70.5156 14.4284 70.4196 14.5244 70.3236 14.6204C70.2756 14.7644 70.1316 14.8124 70.0356 14.9084L69.8436 15.2924C69.7956 15.2924 69.7476 15.3884 69.6516 15.3404C69.6516 15.4844 69.4596 15.3884 69.5076 15.5324L69.1236 15.8204C68.9796 15.8684 68.8356 15.9644 68.7876 16.1084C68.6436 16.1084 68.6436 16.2044 68.5476 16.2044L68.4036 16.3964C68.2116 16.3964 68.1636 16.4924 68.0196 16.4924C67.9716 16.5884 67.8756 16.5884 67.8276 16.6364L67.6356 16.7804C67.5876 16.8284 67.5876 16.8284 67.5396 16.8284C67.3956 16.9244 67.3956 17.0684 67.2516 17.1164C67.1076 17.1164 67.0116 17.2124 66.9636 17.2604C66.8676 17.3084 66.7716 17.3564 66.6756 17.4524C66.6276 17.4524 66.6276 17.5004 66.5796 17.5004C66.5316 17.5484 66.4836 17.5004 66.4836 17.5964C66.3876 17.6444 66.3396 17.7404 66.1956 17.7884C66.0996 17.7884 66.0036 17.8364 65.9076 17.8364C65.8596 17.9804 65.7156 17.9804 65.6676 18.1244C65.4276 18.1724 65.2836 18.3644 65.0916 18.5084C65.0436 18.5084 64.9956 18.5564 64.9476 18.6044L64.8036 18.7004C64.7076 18.7004 64.6596 18.7964 64.5636 18.7484C64.4196 18.8444 64.3716 18.9884 64.2276 19.0364L63.8916 19.1804C63.7956 19.2764 63.6996 19.4204 63.5556 19.4684C63.4116 19.5164 63.3156 19.5644 63.1716 19.5644C62.9796 19.7564 62.7396 19.8524 62.5476 20.0444C62.4036 20.0444 62.3556 20.0924 62.2116 20.0924C62.1156 20.2364 61.9716 20.2844 61.8276 20.3804C61.7316 20.4764 61.5876 20.5724 61.4436 20.6204C61.1556 20.7644 60.9156 20.9564 60.6276 21.1484C60.4356 21.1484 60.2916 21.2924 60.0996 21.3404C59.8116 21.5324 59.4756 21.6764 59.1396 21.8684C59.0916 21.9164 58.9956 21.9164 58.8996 21.9644C58.8996 22.0124 58.8036 22.0124 58.8036 22.0124L58.6596 22.1564L58.4196 22.3004C58.2756 22.3964 58.0356 22.3484 57.9876 22.5404C57.8916 22.5404 57.7956 22.5404 57.7476 22.5884C57.3636 22.7804 56.9316 22.9244 56.6436 23.2124C56.4996 23.1644 56.4036 23.2604 56.3076 23.2604V23.3084C56.2116 23.3564 56.1636 23.3084 56.1156 23.3564C56.0676 23.3564 56.0196 23.4044 55.9716 23.4524C55.8276 23.4524 55.7316 23.5004 55.6356 23.5484L55.2996 23.6924C55.0116 23.6444 54.8676 23.8364 54.6276 23.8844C54.3396 23.8364 54.1476 23.8844 53.9556 23.9804C53.8596 23.8844 53.7156 23.8844 53.6676 23.7884C53.5716 23.7404 53.4276 23.6924 53.3796 23.5964C53.4276 23.2604 53.3316 23.0204 53.2836 22.7324C53.3316 22.3484 53.3316 21.9644 53.2356 21.5804C53.1396 21.5804 53.1876 21.4844 53.1396 21.4844C53.0436 21.4364 53.0436 21.3884 52.9956 21.3404C52.8996 21.3404 52.8996 21.2444 52.8036 21.2444C52.8516 21.1484 52.6596 21.1964 52.6596 21.1484C52.4196 21.1964 52.2276 21.1484 51.9396 21.1484C51.8436 21.1964 51.6996 21.1964 51.6036 21.1964L51.5556 21.2924H51.4596C51.3156 21.2924 51.2196 21.4364 51.0276 21.3884C51.0276 21.4844 50.8836 21.3884 50.8836 21.4844C50.8356 21.5324 50.8356 21.6284 50.7396 21.6284H50.5476C50.4996 21.6764 50.4036 21.7244 50.3556 21.7244C50.2596 21.8204 50.1156 21.7724 50.0196 21.8684C49.9236 22.0124 49.7796 22.0124 49.6836 22.0124C49.6836 22.0604 49.6836 22.1084 49.6356 22.1084C49.6356 22.1564 49.5396 22.1564 49.4916 22.2044L49.1076 22.3484L48.9636 22.4924C48.8676 22.5404 48.8676 22.6364 48.7716 22.6364C48.4356 22.7324 48.0996 22.8764 47.9076 23.0684C47.8596 23.1644 47.8116 23.2604 47.7156 23.2604C47.6196 23.1644 47.5236 23.1164 47.4756 23.0204C47.5716 22.6364 47.7156 22.3484 48.0036 22.1564C47.9556 22.0124 48.0516 22.0124 48.0516 21.8684C48.1476 21.8684 48.0996 21.7724 48.2436 21.7724C48.1956 21.7244 48.2436 21.6764 48.2436 21.6764C48.2436 21.6284 48.2916 21.6284 48.2916 21.6284C48.3396 21.5324 48.3876 21.4364 48.4356 21.4364C48.4356 21.4364 48.3876 21.3884 48.4356 21.3404C48.4836 21.3404 48.4356 21.2924 48.4356 21.2924H48.4836C48.5316 21.2444 48.4836 21.1004 48.5796 21.1484C48.5316 20.8604 48.5796 20.6684 48.5796 20.4764C48.5316 20.4764 48.4836 20.4284 48.4356 20.3804C48.3876 20.3324 48.2916 20.3804 48.2436 20.2844C48.0996 20.2364 48.0516 20.1884 47.9076 20.1884C47.6676 20.1884 47.4756 20.3324 47.3316 20.3324C47.2356 20.4764 47.1876 20.6204 47.0436 20.6684C47.0436 20.8604 46.8996 20.9564 46.8516 21.1484C46.8036 21.1484 46.8516 21.2444 46.7556 21.2444C46.7076 21.2924 46.6116 21.2924 46.6596 21.3884C46.5636 21.4364 46.6116 21.5804 46.5636 21.6764L46.2756 22.0124C46.2276 22.1564 46.1796 22.3004 46.0836 22.3964C46.0356 22.5884 45.8916 22.6844 45.7956 22.7804C45.7956 22.9244 45.7476 23.0204 45.7476 23.1644C45.6516 23.2604 45.6036 23.3564 45.5556 23.4524C45.5076 23.5484 45.5076 23.6924 45.4116 23.7404C45.3636 23.8844 45.3636 23.9804 45.2676 24.0764C45.2676 24.1724 45.2196 24.3164 45.1236 24.3644V24.6524C45.0756 24.7964 44.9796 24.8444 44.9796 25.0364V25.3724C45.1236 25.4684 45.1236 25.6604 45.3156 25.7084C45.5076 25.7084 45.6036 25.6124 45.7956 25.6604L45.9396 25.5644L46.2276 25.4204C46.3236 25.3724 46.3236 25.2284 46.4676 25.1804C46.7076 25.0844 46.8036 24.8444 47.1396 24.8444C47.2836 24.7004 47.3316 24.5084 47.4756 24.4124C47.5716 24.3644 47.6676 24.3164 47.7156 24.3164C47.7636 24.2684 47.8116 24.2204 47.8596 24.2204C47.9076 24.2204 47.9556 24.1244 48.0036 24.1244C48.0996 24.1244 48.0516 23.9804 48.1476 24.0284C48.2436 23.9324 48.2916 23.7884 48.4356 23.7404L48.7236 23.5964C48.7716 23.5484 48.8196 23.5004 48.8196 23.4524C48.8196 23.4044 48.9636 23.4524 48.9636 23.3564C49.0596 23.3564 49.1076 23.3084 49.2516 23.2604C49.2996 23.1644 49.3476 23.0684 49.4436 22.9724H49.7316L50.1636 22.5404C50.3556 22.4924 50.4516 22.3964 50.6436 22.3964C50.6436 22.3484 50.6436 22.3484 50.6916 22.3484C50.7876 22.2524 50.8356 22.1564 50.9796 22.1084C51.3156 22.1084 51.4596 21.9164 51.7476 21.8684C51.8916 21.9164 51.8916 22.0124 51.9876 22.0124C52.0356 22.1564 52.1316 22.1084 52.1316 22.2524C52.2276 22.5404 52.2756 22.9244 52.2276 23.2604C52.2756 23.3084 52.2756 23.3564 52.2756 23.4524C52.3716 23.5484 52.3716 23.7884 52.4676 23.8844C52.4676 24.0284 52.5636 24.0284 52.5636 24.1244L53.1396 24.7004C53.2836 24.7004 53.3316 24.7484 53.3316 24.7484C53.4276 24.7964 53.6196 24.7964 53.7156 24.7964C53.7636 24.7964 53.7636 24.8444 53.7636 24.8444C54.1956 24.8444 54.4836 24.7964 54.7236 24.6524H55.1076C55.2996 24.6524 55.3956 24.5564 55.6356 24.5564C55.7796 24.3644 56.0196 24.3164 56.2596 24.2204C56.3076 24.1724 56.4996 24.1724 56.5956 24.1724C56.6916 24.0284 56.9796 23.9804 57.1236 23.8844L57.6996 23.5964C57.8436 23.6444 57.8916 23.5484 58.0356 23.5484C58.0836 23.5004 58.1316 23.4524 58.2276 23.4524C58.2756 23.4044 58.2276 23.4044 58.2756 23.4044C58.3236 23.3564 58.3716 23.4044 58.4196 23.3564V23.3084H58.4676C58.5156 23.3084 58.5156 23.2604 58.5156 23.2604C58.5156 23.2124 58.5636 23.2604 58.6116 23.2604V23.1644C58.6596 23.1644 58.7076 23.1164 58.7076 23.1164C58.7556 23.1164 58.7076 23.1164 58.7556 23.0684C58.8036 23.0204 58.9476 23.0204 58.9956 22.9244C59.3796 22.8284 59.6676 22.6364 59.9556 22.3964C60.0996 22.4444 60.1476 22.3484 60.2916 22.3484C60.4836 22.1564 60.7236 22.0604 60.9156 21.8684C61.0116 21.8684 61.0596 21.8204 61.2036 21.8204C61.2996 21.5804 61.5876 21.5804 61.7796 21.4364C62.0196 21.3404 62.1156 21.1484 62.4036 21.1484C62.6436 20.9084 62.8836 20.7164 63.2676 20.6204C63.3636 20.4764 63.5556 20.3804 63.6996 20.2844C63.7956 20.2364 63.8436 20.1884 63.9876 20.1884L64.2276 19.9004C64.3716 19.9004 64.4676 19.8524 64.5636 19.8044C64.6596 19.7084 64.7556 19.6124 64.8516 19.5644C64.9956 19.5164 65.0916 19.4204 65.2836 19.3724C65.3796 19.2284 65.5236 19.1324 65.6676 19.0364L66.0036 18.8924C66.0516 18.8444 66.1476 18.8444 66.1476 18.7964C66.1956 18.7964 66.1476 18.7484 66.1476 18.7004L66.3396 18.5564C66.5316 18.5564 66.5796 18.4604 66.6756 18.4124C66.7716 18.3164 66.9636 18.3644 67.0116 18.2204C67.1556 18.1244 67.4916 17.8364 67.6836 18.1244C67.6836 18.2684 67.5876 18.4124 67.5396 18.5084C67.4436 18.6044 67.3476 18.6524 67.2516 18.7964L67.1076 19.0364L67.0596 19.0844C66.9636 19.2284 66.8676 19.3244 66.8676 19.4684C66.6756 19.5644 66.5796 19.8044 66.3876 19.9004C66.3396 20.1404 66.1476 20.2364 66.0996 20.4284C65.9556 20.5244 65.9076 20.6684 65.8116 20.7164C65.7636 20.9084 65.5716 20.9564 65.5716 21.1484C65.3796 21.2924 65.2836 21.4844 65.0916 21.5804C65.0916 21.7244 64.9956 21.8204 64.9476 21.9644C64.8036 22.0604 64.7076 22.2044 64.6116 22.3964C64.5636 22.4444 64.5156 22.4924 64.5156 22.5404L64.4196 22.7324C64.3716 22.7804 64.2276 22.8764 64.2276 22.9244C64.1316 23.0684 64.0836 23.2124 63.9876 23.3084C63.8916 23.5004 63.7476 23.6444 63.6036 23.7404L63.4596 24.0284C63.3636 24.1244 63.3636 24.2684 63.2676 24.3164C63.1716 24.5564 62.9796 24.6524 62.9316 24.9404C62.7876 24.9404 62.7876 25.0844 62.6916 25.1324C62.6916 25.2764 62.5956 25.3244 62.6436 25.4684C62.4996 25.5644 62.4516 25.7084 62.3076 25.7564C62.2596 25.9004 62.2116 26.0444 62.0676 26.1404C62.0196 26.2844 61.9716 26.3804 61.9716 26.4764C61.9236 26.5724 61.8276 26.6204 61.7796 26.6684V26.8124L61.6356 26.9084C61.5396 27.0524 61.4916 27.1964 61.3476 27.2924C61.2516 27.6284 61.1076 27.9164 60.9156 28.1084C60.8676 28.2524 60.8196 28.3004 60.8196 28.4444C60.6756 28.5404 60.6756 28.7804 60.5316 28.8764C60.4356 29.1164 60.4356 29.4044 60.3876 29.6924C60.5316 29.8364 60.5796 29.9804 60.7716 30.0284C61.0116 29.9324 61.1556 29.8364 61.2036 29.5964C61.2516 29.5004 61.2996 29.4044 61.2996 29.2124C61.3956 29.2124 61.3476 29.1164 61.3956 29.0684C61.3956 29.0204 61.4436 28.9724 61.4436 28.8764C61.4916 28.7804 61.5876 28.7324 61.6356 28.5884C61.6836 28.4444 61.7796 28.3484 61.8756 28.2524C61.8756 28.1084 61.9716 28.0124 61.9716 27.8204C62.0676 27.7244 62.2596 27.7724 62.2596 27.6284C62.3556 27.5324 62.4036 27.2924 62.4516 27.2444C62.4996 27.2444 62.4516 27.1964 62.4516 27.1484L62.5956 26.9564C62.5956 26.9564 62.5956 26.8604 62.6436 26.8604C62.6916 26.7644 62.7876 26.6684 62.8836 26.6204C62.9316 26.4764 62.9796 26.3804 62.9796 26.2364L63.3636 25.9004C63.4116 25.7564 63.4596 25.6124 63.5076 25.5644C63.6036 25.4684 63.7476 25.4204 63.7476 25.2284C63.9396 25.0364 64.0356 24.7964 64.2276 24.6524C64.2756 24.5564 64.3716 24.4604 64.4196 24.3164C64.5156 24.2204 64.6116 24.1244 64.7076 24.0764C64.7556 23.8364 64.8996 23.7404 64.9476 23.5484C65.1876 23.3084 65.3796 22.9724 65.6196 22.7324C65.6196 22.6364 65.7156 22.5404 65.7156 22.3964C65.9076 22.3004 66.0036 22.0604 66.1956 21.9164C66.2436 21.7724 66.3396 21.7244 66.3396 21.5804C66.5316 21.5324 66.5796 21.3404 66.6756 21.2924C66.7236 21.1484 66.8196 21.1004 66.8196 20.9564C67.0116 20.8124 67.1076 20.5724 67.2996 20.4284C67.2996 20.3804 67.2996 20.3324 67.3956 20.2844C67.3956 20.2364 67.4916 20.1884 67.4916 20.0924C67.4916 20.0444 67.5396 20.0444 67.5876 19.9964C67.5876 19.9004 67.7316 19.9004 67.6836 19.8044C67.9236 19.7084 68.0196 19.4684 68.2116 19.3244C68.1636 19.1804 68.2596 19.1324 68.2596 18.9884C68.4996 18.8924 68.5956 18.6524 68.7396 18.5084C68.7876 18.4124 68.9796 18.3164 68.9796 18.2204C68.9796 18.1244 69.1716 18.0764 69.1716 17.9804C69.1716 17.8844 69.2676 17.8364 69.2676 17.7404C69.4596 17.5964 69.6516 17.4044 69.6996 17.1164C69.8916 17.0684 69.9876 16.8764 70.0836 16.7324C70.2756 16.6364 70.2756 16.3964 70.4676 16.3004C70.5156 16.2044 70.6596 16.0604 70.6596 16.0124C70.6596 15.9644 70.6596 15.9644 70.7076 15.9644C70.8516 15.7724 71.0436 15.6284 71.1396 15.3884C71.4276 15.2924 71.5716 15.1004 71.8116 14.9564C71.8116 14.8124 72.0516 14.8604 72.0996 14.7164C72.1956 14.6684 72.2916 14.5244 72.3876 14.4764C72.4836 14.3804 72.6756 14.3324 72.7716 14.2364C72.8196 14.1884 72.8676 14.1404 72.9636 14.1404C73.0116 14.0444 73.0116 13.9484 73.1076 13.9484C73.2996 13.8044 73.4916 13.7084 73.6356 13.5644C73.8756 13.4684 73.9716 13.2764 74.1636 13.1324C74.3556 13.0844 74.4036 12.8924 74.5476 12.8444L74.7396 12.7484L74.9316 12.5564L75.3156 12.3644C75.3636 12.2684 75.4116 12.1244 75.5076 12.0284C75.8436 11.9804 75.9396 11.6924 76.2276 11.5964C76.5156 11.6924 76.8516 11.5964 77.0916 11.5484C77.2356 11.5964 77.3796 11.5964 77.4756 11.5964C77.6196 11.5964 77.7636 11.6444 77.9076 11.6444C78.0516 11.6444 78.1956 11.5964 78.2916 11.5964C78.4836 11.5964 78.6276 11.6444 78.7716 11.6444C78.9156 11.6444 79.1556 11.5964 79.2516 11.5964C79.3476 11.5964 79.3956 11.5004 79.5396 11.5004C79.6836 11.5004 79.6836 11.6444 79.8756 11.6444C80.3076 11.6444 80.7876 11.6924 81.2676 11.6924C81.3636 11.7404 81.4596 11.8364 81.6516 11.8364C81.7476 11.9804 81.8916 12.0764 82.1316 12.1244C82.1316 12.1724 82.2276 12.2204 82.3236 12.1724C82.3236 12.1244 82.4196 12.1724 82.4196 12.1244C82.5636 12.0284 82.6596 11.8364 82.6596 11.6444C82.6596 11.4044 82.4196 11.2604 82.3236 11.1164C81.9396 10.9724 81.6036 10.7804 81.0756 10.7804L80.7396 10.6844C80.5956 10.6844 80.5476 10.7804 80.4036 10.7804C80.3076 10.7324 80.2596 10.6844 80.1156 10.6844C79.7316 10.6844 79.2036 10.6364 78.7716 10.5884C78.4836 10.5884 78.1956 10.6364 78.0996 10.5404C78.0996 10.4924 77.9076 10.4924 77.9076 10.4924L77.8596 10.4444C77.8116 10.3964 77.7636 10.3484 77.7636 10.2524C77.7636 10.0604 77.9556 10.0604 77.9556 9.91642C78.0516 9.91642 78.0516 9.82042 78.0996 9.77242C78.1956 9.72442 78.2436 9.72442 78.2916 9.72442C78.3396 9.72442 78.2916 9.67642 78.2916 9.67642H78.3876C78.3876 9.62842 78.4356 9.62842 78.4836 9.58042C78.4836 9.58042 78.5796 9.48442 78.6276 9.48442C78.7236 9.38842 78.7716 9.19642 78.8676 9.05242C78.9636 9.00442 79.1076 8.95642 79.2036 8.86042C79.3956 8.62042 79.6836 8.47642 79.7796 8.14042C79.9236 8.04442 79.9716 7.90042 80.1156 7.85242C80.1636 7.70842 80.2596 7.61242 80.3556 7.46842C80.4036 7.32442 80.5956 7.32442 80.5956 7.08442C80.8356 6.89242 80.9796 6.60442 81.0756 6.26842V5.59642ZM75.8916 10.4924C75.8436 10.5404 75.7956 10.5404 75.7956 10.4924C75.6036 10.5404 75.6996 10.3004 75.6516 10.2044C75.6996 10.0124 75.8436 9.96442 75.9876 9.86842C75.9396 9.72442 76.0356 9.72442 76.0356 9.62842C76.2276 9.53242 76.3236 9.38842 76.4196 9.19642L76.7076 9.00442C76.7556 8.86042 76.8516 8.81242 76.9956 8.76442C76.9956 8.62042 77.1396 8.57242 77.1876 8.42842C77.4756 8.18842 77.7156 7.85242 77.9556 7.56442C78.0996 7.46842 78.2436 7.42042 78.3396 7.32442C78.5796 7.13242 78.8196 6.94042 79.0116 6.70042C79.1076 6.65242 79.1556 6.65242 79.2036 6.55642H79.3476L79.4436 6.46042C79.4916 6.46042 79.5396 6.50842 79.5396 6.41242C79.5876 6.46042 79.6356 6.46042 79.6356 6.50842C79.6356 6.70042 79.5876 6.79642 79.5396 6.98842C79.4916 7.03642 79.4916 7.13242 79.3956 7.13242C79.4436 7.27642 79.2996 7.22842 79.3476 7.32442C79.1076 7.42042 79.0116 7.61242 78.8676 7.75642C78.7716 7.90042 78.5796 8.04442 78.4836 8.23642C78.3396 8.23642 78.3396 8.42842 78.1476 8.42842C78.0996 8.52442 78.0516 8.62042 77.9556 8.71642C77.7156 8.86042 77.5716 9.10042 77.2836 9.19642C77.2356 9.29242 77.1396 9.38842 77.0916 9.53242C76.8996 9.58042 76.7556 9.67642 76.7076 9.91642C76.4676 9.91642 76.3716 10.1084 76.2276 10.2524C76.1316 10.2524 76.0356 10.3004 75.9876 10.3964C75.9876 10.4444 75.9396 10.4924 75.8916 10.4924ZM77.3548 18.7964C77.3068 18.7484 77.2588 18.7004 77.1628 18.7004C77.2108 18.6044 76.9708 18.7484 76.9708 18.6524C76.8268 18.6044 76.6828 18.5084 76.5388 18.5084C76.3468 18.5564 76.1548 18.6524 75.9148 18.6524C75.8668 18.7484 75.7228 18.7964 75.5788 18.8444C75.3868 18.7964 75.3388 18.8924 75.1468 18.8924C75.1468 18.9404 75.0988 18.9404 75.0508 18.9404C75.0028 18.9884 75.0028 19.0364 74.9068 19.0364C74.8588 19.0844 74.7628 19.1324 74.6668 19.1324C74.5708 19.2284 74.4268 19.3244 74.2828 19.3724C74.0908 19.4204 73.9948 19.5164 73.8028 19.5644L73.6108 19.6604C73.6108 19.7084 73.5628 19.8044 73.4668 19.7564L73.1788 19.9964L72.8908 20.2364L72.5068 20.4284L72.0268 20.8124C71.8828 21.0044 71.7868 21.1964 71.5468 21.2924C71.4988 21.4844 71.3548 21.5804 71.2588 21.6764C71.2588 21.8204 71.1628 21.8684 71.1148 21.9164L70.9708 22.1564C71.0188 22.4444 70.7788 22.7324 70.8268 22.9724L70.9708 23.2604L71.2588 23.4044L71.4508 23.5004L72.0268 23.3564C72.2668 23.1644 72.5068 22.9244 72.7468 22.7804C72.8908 22.5884 73.0348 22.4444 73.1308 22.2524C73.2748 22.2524 73.2748 22.2044 73.3228 22.2044L73.3708 22.1564L73.5148 22.0604L73.5628 22.0124C73.7068 21.8684 73.8508 21.7244 73.9948 21.7244C74.0908 21.7244 74.1388 21.7244 74.1868 21.7724C74.2348 21.7724 74.3308 21.7724 74.3788 21.8204C74.4748 21.8204 74.5228 21.9164 74.5708 21.9164C74.5708 22.0124 74.7148 21.9644 74.7148 22.0124H75.1468C75.2428 22.0124 75.2428 22.1564 75.3868 22.1084C75.6268 22.0124 75.7228 22.1084 75.9628 22.1564C76.1548 22.1084 76.2028 22.0124 76.3948 21.9644C76.5388 21.9164 76.5868 21.9644 76.6828 22.0124C76.7308 21.9164 76.8268 21.9164 76.8748 21.9164C76.9708 21.9164 76.9708 21.8684 77.1148 21.8684C77.1628 21.7724 77.3068 21.7724 77.4988 21.7724L77.7388 21.6284C78.2188 21.5324 78.5068 21.3404 78.9868 21.2924C79.1788 21.1004 79.4188 21.0524 79.7068 20.9564L79.8988 20.7644H79.9948C80.0908 20.6684 80.0908 20.7164 80.1388 20.6204C80.1868 20.5724 80.1868 20.5244 80.1868 20.3804C79.8028 20.1404 79.5148 20.5724 79.0828 20.5244C78.8908 20.6684 78.6508 20.7164 78.3628 20.7644L78.0268 20.8604C77.8348 20.8604 77.8348 21.0044 77.6908 21.0044H77.4028C77.4028 21.0524 77.3548 21.0524 77.3068 21.0524C77.2588 21.0524 77.2588 21.1004 77.2108 21.1484C77.1628 21.1484 77.0668 21.1964 76.9708 21.1964C76.7308 21.2444 76.4908 21.2924 76.2028 21.2924C76.0588 21.2924 75.9628 21.3884 75.7228 21.3404C75.5788 21.2924 75.3868 21.1964 75.3388 21.0044C75.2908 20.8604 75.2908 20.7164 75.3868 20.5244C75.3868 20.3804 75.2908 20.3324 75.3388 20.1884C75.5788 19.9964 75.7708 19.8524 76.1068 19.7084C76.2988 19.7564 76.3948 19.8044 76.6348 19.7564C76.7308 19.8044 76.8268 19.8524 77.0188 19.8524C77.1628 19.8044 77.3068 19.7084 77.4508 19.6124C77.5468 19.3244 77.4988 18.9884 77.3548 18.7964ZM102.864 10.5404C102.912 10.3964 103.056 10.3484 103.2 10.3004C103.344 10.0604 103.632 9.96442 103.776 9.72442C103.872 9.72442 103.92 9.62842 104.016 9.62842C104.112 9.53242 104.16 9.38842 104.208 9.29242C104.352 9.29242 104.4 9.19642 104.496 9.10042L104.736 8.90842C104.88 8.86042 104.88 8.66842 104.976 8.66842C105.072 8.62042 105.168 8.52442 105.216 8.38042L105.456 8.18842C105.504 8.04442 105.6 7.99642 105.696 7.94842C105.792 7.75642 105.984 7.61242 106.08 7.32442L106.32 7.13242C106.32 6.94042 106.416 6.84442 106.512 6.74842C106.512 6.50842 106.656 6.41242 106.656 6.26842C106.608 6.22042 106.608 6.12442 106.608 6.02842C106.56 5.98042 106.56 5.83642 106.512 5.74042C106.416 5.74042 106.416 5.59642 106.32 5.54842C106.272 5.50042 106.128 5.50042 106.128 5.40442C105.888 5.40442 105.696 5.40442 105.504 5.35642C105.312 5.50042 105.12 5.59642 104.832 5.59642C104.832 5.69242 104.688 5.64442 104.688 5.74042C104.352 5.88442 104.112 6.12442 103.824 6.31642C103.68 6.36442 103.632 6.50842 103.488 6.55642C103.44 6.65242 103.44 6.74842 103.344 6.84442L103.056 6.98842C103.056 7.13242 102.864 7.13242 102.768 7.18042L102.528 7.51642C102.336 7.56442 102.24 7.75642 102.096 7.85242C102.048 7.90042 101.952 7.90042 101.904 7.99642C101.808 8.04442 101.808 8.14042 101.664 8.14042C101.616 8.23642 101.568 8.33242 101.472 8.38042C101.472 8.47642 101.376 8.42842 101.376 8.52442C101.28 8.52442 101.28 8.57242 101.184 8.62042C101.088 8.86042 100.896 8.95642 100.704 9.10042C100.704 9.19642 100.608 9.24442 100.608 9.34042L100.416 9.48442L100.272 9.67642C100.224 9.72442 100.128 9.77242 100.128 9.86842C99.9358 9.91642 99.8878 10.0604 99.7438 10.1084C99.6958 10.3004 99.5038 10.3484 99.4558 10.4924C99.3118 10.5884 99.3118 10.7804 99.1678 10.8764C98.9278 10.8284 98.6398 10.8764 98.4478 10.9244H98.3998C98.3518 10.9244 98.3518 10.9724 98.3518 10.9724C98.1118 11.0204 97.9198 10.9724 97.6798 10.9724H97.2958C97.1518 10.9724 97.1038 11.0204 97.0078 11.0204C96.7198 11.0204 96.4318 11.0204 96.2398 10.9724C96.0478 11.0684 95.8558 11.1164 95.6158 11.1644C95.4238 11.1644 95.1838 11.0684 94.9918 11.1164C94.8958 11.1164 94.8478 11.1644 94.7038 11.1644C94.6078 11.1164 94.6558 11.2604 94.5118 11.2124C94.2238 11.1644 94.1278 11.2124 93.8878 11.2604C93.7438 11.3084 93.7438 11.2124 93.5998 11.2124C93.3598 11.3084 93.0238 11.2604 92.7838 11.3564C92.6878 11.3564 92.6398 11.3084 92.4958 11.3564C92.3038 11.4044 91.9678 11.4044 91.7278 11.5004C91.6318 11.5004 91.5838 11.4044 91.4398 11.4044C91.3438 11.5004 91.2478 11.5484 91.1518 11.5964C90.8638 11.6444 90.5758 11.6924 90.2878 11.6924C90.1438 11.8364 89.9518 11.9324 89.9518 12.2204C90.1438 12.6044 90.8158 12.6524 91.1998 12.4604C91.2958 12.4604 91.3438 12.5564 91.5358 12.5564C91.6318 12.5084 91.7758 12.5084 91.9198 12.5084C92.2078 12.6044 92.3998 12.7964 92.7838 12.7964C92.7838 12.7484 92.9278 12.7964 92.9278 12.7004C93.0238 12.7004 92.9758 12.6044 93.0238 12.5564C93.0238 12.4124 93.1198 12.3644 93.2158 12.2684C93.4078 12.2204 93.7438 12.2684 93.9838 12.2204C94.3678 12.1244 94.6558 12.0764 95.0878 12.1244C95.2318 12.1724 95.2318 12.0284 95.4238 12.0284C95.7598 12.1244 96.1438 11.9804 96.5758 12.0284C96.7198 12.0284 96.7678 11.9324 96.9118 11.9804C97.1038 11.9804 97.1518 12.0284 97.3438 12.0284C97.4398 12.0284 97.5358 11.9804 97.6798 12.0284C97.7758 12.0284 97.8238 12.0764 97.8718 12.2204L97.6798 12.6044C97.4878 12.6524 97.4398 12.7964 97.3438 12.8924C97.2958 13.0364 97.1998 13.0844 97.1518 13.2284C96.9118 13.4204 96.6718 13.6604 96.5758 13.9964C95.9518 14.2364 95.5198 14.6684 95.0398 15.0524C94.9438 15.0524 94.8478 15.1004 94.7038 15.1484C94.6558 15.2444 94.5118 15.2924 94.4158 15.3884C94.2718 15.5804 94.0318 15.7244 93.7438 15.7724L93.5518 16.0124V16.0604H93.4558C93.4558 16.0604 93.4558 16.1084 93.4078 16.1564C93.2638 16.1564 93.2158 16.2524 93.1198 16.2524C93.0238 16.3484 92.9758 16.4444 92.7838 16.4444C92.7358 16.5884 92.5918 16.6364 92.5438 16.7324C92.3998 16.6844 92.3518 16.7324 92.2558 16.7804C92.2558 16.8284 92.2078 16.7804 92.2078 16.8284C92.1598 16.8284 92.1598 16.9244 92.1118 16.9244C92.0158 17.0684 91.7758 17.1164 91.5358 17.2124C91.5358 17.3084 91.4398 17.3084 91.3438 17.3564C91.3438 17.4524 91.2478 17.5004 91.1998 17.5484C90.9598 17.6444 90.8158 17.8364 90.5758 17.8844L90.3838 18.1244C90.2878 18.1244 90.2398 18.1724 90.1438 18.1724C90.0478 18.2684 89.9518 18.3644 89.7598 18.3644C89.6638 18.4604 89.5678 18.5564 89.4238 18.6044C89.2318 18.7964 89.0398 18.9404 88.7998 19.0844C88.7038 19.1804 88.6078 19.1804 88.4638 19.2284C88.4638 19.2764 88.3678 19.2764 88.3198 19.3244C88.3198 19.4204 88.1278 19.3724 88.1278 19.4204L87.8398 19.7084C87.5998 19.7084 87.5518 19.8524 87.4078 19.9004C87.3118 19.9964 87.2158 20.0924 87.0718 20.1404C86.8798 20.1884 86.7838 20.3804 86.5438 20.3324C86.4478 20.4764 86.2558 20.5244 86.1118 20.6684C86.0158 20.7164 85.9198 20.7164 85.8718 20.8124C85.7758 20.8124 85.7758 20.9564 85.6318 20.9564C85.5358 21.0044 85.4398 21.0524 85.2958 21.0524L85.0558 21.2444C85.0078 21.2924 84.9598 21.3404 84.9118 21.3404L84.7678 21.4364C84.6718 21.4844 84.6238 21.5324 84.4798 21.5324L84.1438 21.7724C84.0478 21.7724 83.9518 21.8204 83.9518 21.8684C83.8078 21.8684 83.8078 21.9644 83.6638 21.9164C83.6158 22.0604 83.5198 22.0604 83.4238 22.1084C83.2798 22.1564 83.2318 22.2524 83.0878 22.3004C82.7038 22.3484 82.4158 22.6364 82.1278 22.7804C81.9838 22.7804 81.9358 22.8284 81.8878 22.8284C81.7438 22.9724 81.5038 23.0204 81.3598 23.1164C81.1678 23.1644 80.9758 23.2604 80.7358 23.3084C80.6878 23.3564 80.5918 23.4044 80.4958 23.4044C80.4958 23.5004 80.3518 23.5004 80.3038 23.5484C80.1118 23.5004 79.9678 23.6444 79.9198 23.6444C79.8718 23.6924 79.8718 23.6924 79.8238 23.6924H79.7758L79.3918 23.8364C79.3438 23.8364 79.2478 23.9324 79.1518 23.9324C78.8638 23.8364 78.6718 23.9804 78.4318 23.9804C78.3838 23.9804 78.2878 23.8844 78.1918 23.9324L77.9998 23.7884C77.9998 23.7404 77.9518 23.7404 77.9038 23.6924C77.9038 23.6924 77.8558 23.5964 77.8558 23.5484C77.8558 23.4044 77.9038 23.3084 77.9038 23.2604C77.9038 23.2124 77.9518 23.2124 77.9518 23.2124C77.9998 23.0684 78.0478 22.9724 78.0478 22.8764C78.1438 22.7804 78.1438 22.6844 78.1918 22.5884L78.3838 22.3004C78.5278 22.1564 78.7198 22.0124 78.8638 21.7724L79.3918 21.2924L80.0638 20.8604C80.0638 20.8124 80.1118 20.8604 80.1118 20.8124C80.1598 20.8124 80.1598 20.7644 80.2078 20.7644H80.2558C80.3038 20.7644 80.3038 20.6684 80.3518 20.6684C80.4958 20.5724 80.5918 20.5244 80.7838 20.5244C80.9278 20.5724 81.1678 20.8124 81.1678 20.9084C81.2158 21.0044 81.3118 20.9564 81.3118 21.0044C81.4558 21.0044 81.5518 21.1004 81.6958 21.1484C81.6958 21.1004 81.7438 21.0524 81.8398 21.0524C81.8398 21.0044 81.8878 20.9564 81.9358 20.9564L82.2238 20.7164C82.2238 20.5244 82.2718 20.3324 82.2238 20.1404C82.1758 20.0924 82.1278 20.0924 82.1278 19.9964C82.0318 20.0444 82.0318 19.9484 81.9838 19.9484C81.8398 19.9004 81.8398 19.8044 81.6958 19.8044C81.6958 19.7084 81.5038 19.8044 81.4558 19.7084C81.3598 19.6604 81.3118 19.5644 81.1678 19.6124C80.9758 19.5164 80.7838 19.6124 80.4958 19.6124C80.3518 19.6604 80.2078 19.7084 80.0158 19.6604C79.8718 19.8044 79.6798 19.9004 79.3918 19.9484C79.2958 20.0444 79.1038 20.1404 78.9598 20.2844C78.9118 20.3804 78.8158 20.3804 78.7198 20.4284C78.6718 20.4764 78.5758 20.5724 78.4798 20.5724C78.4798 20.7164 78.2878 20.6684 78.3358 20.8124C78.1438 21.0044 77.9518 21.1964 77.8558 21.3404C77.7598 21.3884 77.6638 21.3884 77.6638 21.5324C77.5198 21.6284 77.4238 21.8684 77.3278 22.0124L77.1358 22.2524C77.0878 22.2524 77.1358 22.3004 77.1358 22.3484C77.0878 22.3964 76.9438 22.4444 76.9438 22.5404C76.8958 22.5884 77.0398 22.6844 76.9438 22.7804C76.8958 22.8764 76.8958 22.9244 76.7998 22.9724C76.8478 23.1164 76.7998 23.2604 76.7998 23.3084L76.7518 23.3564C76.7038 23.5004 76.7038 23.5964 76.7038 23.7884C76.7518 23.9324 76.8478 24.1244 76.9918 24.2204C77.0398 24.4124 77.2318 24.4604 77.3758 24.6044C77.5198 24.6524 77.6158 24.5564 77.7598 24.5564C77.8558 24.6524 77.9038 24.7484 78.0478 24.7004C78.4318 24.7004 78.7678 24.6524 79.1038 24.6524C79.1038 24.6044 79.1998 24.6044 79.2478 24.6044C79.2478 24.6044 79.2958 24.5564 79.2958 24.5084C79.3438 24.5084 79.4878 24.5084 79.5358 24.4604C79.7278 24.4124 79.9198 24.3644 80.1118 24.3644C80.3038 24.2684 80.4478 24.1724 80.6878 24.1724L80.8318 24.0284C80.8798 24.0284 80.8798 24.0284 80.8798 23.9804C81.0718 23.8844 81.3118 23.8364 81.5518 23.7884C81.6958 23.6924 81.7438 23.5964 81.8878 23.5484C82.0798 23.5484 82.1758 23.4044 82.4158 23.4044C82.4158 23.3564 82.4638 23.3564 82.4638 23.3564C82.6078 23.2604 82.6558 23.1644 82.7518 23.1164H82.9438V23.0684C83.0878 22.9724 83.2318 22.9724 83.3278 22.9244C83.3758 22.8764 83.3758 22.8284 83.4238 22.8284C83.4718 22.8284 83.5198 22.8284 83.5198 22.7804C83.6638 22.8284 83.6638 22.7324 83.8078 22.7804C83.9998 22.5884 84.2398 22.4444 84.4798 22.2524C84.7198 22.2524 84.7678 22.1084 85.0078 22.0604C85.1038 22.0124 85.1998 21.8684 85.3438 21.8204C85.4398 21.8204 85.5358 21.7724 85.6318 21.7244C85.7758 21.6764 85.8238 21.5804 85.9678 21.5324C86.2078 21.4844 86.3038 21.3404 86.4958 21.2924C86.5438 21.1964 86.6878 21.1964 86.6878 21.1004L86.9758 20.9564C87.0718 20.9084 87.2158 20.8124 87.2638 20.8124C87.3118 20.7644 87.3118 20.7644 87.3118 20.7164H87.4078V20.6684H87.5038C87.5998 20.6204 87.5998 20.6204 87.6958 20.6204V20.5244L88.0318 20.4284C88.1278 20.3804 88.1278 20.2364 88.2238 20.2364C88.3678 20.1884 88.4638 20.0924 88.6558 20.0924C88.7518 19.9964 88.7998 19.8524 88.8958 19.8044L89.4238 19.6124C89.4718 19.5164 89.6158 19.5644 89.6158 19.4204L90.0958 19.1804L90.2878 19.0364C90.5278 18.9884 90.6238 18.8444 90.8158 18.7964L91.1998 18.5084C91.2478 18.5084 91.2478 18.4604 91.3438 18.4604V18.4124C91.4398 18.3644 91.5358 18.3644 91.5358 18.3164H91.6318C91.6798 18.2684 91.7758 18.1244 91.8238 18.1244C91.8718 18.1244 91.9198 18.0284 91.9678 18.0284C92.0638 18.0284 92.0158 17.9324 92.1118 17.9804C92.1598 17.8844 92.3038 17.8364 92.3998 17.7884V17.7404H92.4478V17.6924H92.5438C92.5918 17.6444 92.6878 17.6444 92.7358 17.6444C92.8318 17.5004 92.9758 17.3564 93.1198 17.2604C93.2158 17.2604 93.3118 17.2604 93.3598 17.2124C93.5038 17.1164 93.5998 16.9724 93.7918 16.8764C93.8398 16.8764 93.8878 16.8764 93.8878 16.8284C93.9358 16.8284 93.9358 16.7804 93.9838 16.7804C94.1278 16.7324 94.2238 16.7324 94.3198 16.7804C94.3198 17.0204 94.2718 17.1644 94.1758 17.2604C94.0318 17.3564 93.9838 17.5004 93.9358 17.6924C93.6478 17.8844 93.4558 18.1724 93.3118 18.5084C93.2158 18.5084 93.1678 18.6044 93.1198 18.6524L93.0238 18.7484C93.0238 18.7964 93.0238 18.7964 92.9758 18.8444L92.8318 18.9884L92.6878 19.1804C92.6398 19.2764 92.5918 19.3724 92.5918 19.5164C92.3038 19.6604 92.1598 19.9004 92.0158 20.1404L91.7278 20.4764C91.6318 20.5724 91.6318 20.7644 91.4878 20.8124C91.4878 21.0044 91.2958 20.9564 91.2478 21.1484C91.1518 21.1964 91.1518 21.3404 91.1038 21.4364C91.0078 21.5324 90.8638 21.5804 90.8158 21.7244C90.7198 21.7244 90.7678 21.8204 90.6718 21.8204C90.5758 22.1564 90.3838 22.3964 90.1438 22.6364C90.1438 22.8284 89.9518 22.8764 89.9038 23.0684C89.8078 23.0684 89.8558 23.2604 89.7598 23.2604L89.5678 23.4524C89.5678 23.5484 89.5198 23.5964 89.4718 23.5964V23.6444C89.4718 23.6924 89.4238 23.6924 89.4238 23.6924C89.3758 23.7404 89.4238 23.7404 89.4238 23.7884C89.4238 23.7884 89.3278 23.7884 89.3278 23.8364L89.2798 23.9324C89.2798 23.9804 89.2318 23.9804 89.2318 24.0284C89.2318 24.1244 89.1358 24.1244 89.0878 24.1724C89.0878 24.1724 89.1358 24.2204 89.0878 24.2204C89.0878 24.2684 89.0398 24.3164 88.9918 24.3644C88.9438 24.3644 88.9438 24.4604 88.8958 24.4604C88.8478 24.6044 88.7518 24.7004 88.7518 24.8924C88.6078 24.9884 88.5118 25.1324 88.3678 25.2764C88.2718 25.3244 88.3678 25.5164 88.2238 25.5164C88.2238 25.5644 88.1758 25.5644 88.1278 25.5644C88.1278 25.6124 88.0798 25.6604 88.0318 25.7084C87.9838 25.8044 87.9358 25.9004 87.9358 26.0924C87.8398 26.1404 87.6958 26.1404 87.6958 26.2844C87.6478 26.3804 87.5998 26.5244 87.5038 26.5724C87.5038 26.7164 87.4078 26.7644 87.4078 26.9084C87.2158 27.0524 87.1198 27.3404 86.9758 27.5324C86.9278 27.6284 86.8798 27.7244 86.8798 27.8204C86.7838 27.9644 86.6878 28.1084 86.5438 28.2044C86.5438 28.3964 86.4478 28.4924 86.3998 28.6364H86.3518V28.7324C86.3518 28.7324 86.3038 28.7804 86.2558 28.7804C86.2558 28.8764 86.2078 28.9724 86.2078 29.0204C86.1118 29.2604 85.9678 29.5484 85.9198 29.8844C86.0158 29.8844 85.9678 29.9324 85.9678 29.9804C85.9678 30.0284 86.0158 30.0764 86.0638 30.0764C86.1118 30.1244 86.1118 30.1724 86.1598 30.1724C86.2078 30.2204 86.2558 30.2204 86.2558 30.2204H86.3998C86.7358 30.1724 86.7838 29.8364 86.8318 29.5484C86.8798 29.4524 86.9278 29.3084 86.9278 29.2124L87.0718 29.0204C87.1678 28.9724 87.1678 28.9244 87.1678 28.7804C87.2638 28.6364 87.3598 28.4924 87.5038 28.3964C87.5038 28.2524 87.5518 28.2044 87.5518 28.0604C87.6958 28.0124 87.6958 27.8684 87.8398 27.8204C87.8398 27.6764 87.9358 27.5804 87.9838 27.4364C88.1278 27.3884 88.1278 27.1964 88.2238 27.1004L88.3678 26.9564C88.4158 26.8124 88.4638 26.7164 88.5598 26.6204C88.6558 26.5724 88.6558 26.3804 88.7038 26.2844L88.9438 26.0924C88.9918 25.9004 89.1358 25.8524 89.1838 25.6124C89.3278 25.5644 89.4238 25.3724 89.4718 25.2764L89.6158 25.1324C89.6158 25.1324 89.6638 25.0844 89.6638 25.0364L89.7598 24.8924C89.8078 24.7964 89.9038 24.7964 89.9038 24.7004C89.9038 24.6524 89.9998 24.6044 89.9998 24.5564C90.0478 24.5564 89.9998 24.4124 90.0478 24.3644C90.2398 24.3164 90.2878 24.1244 90.3358 23.9804L90.4798 23.8844C90.4798 23.8364 90.4798 23.7884 90.5278 23.7404L90.6718 23.5964V23.5484C90.7678 23.4524 90.7678 23.3564 90.8158 23.3084L91.1518 22.9244C91.1998 22.8764 91.2478 22.7804 91.2478 22.6844C91.3918 22.6844 91.3918 22.5404 91.4878 22.5404C91.5358 22.2044 91.7758 22.1084 91.8718 21.8204C92.0158 21.7244 92.1598 21.6284 92.2078 21.4844C92.2078 21.3884 92.3038 21.3404 92.3518 21.2924L92.5438 21.1484C92.5438 21.0044 92.6398 20.9564 92.6878 20.8604L92.8318 20.5724L93.0238 20.4284C93.2158 20.1884 93.3598 19.8524 93.5518 19.6124L93.8398 19.2764C93.8878 19.2764 93.8398 19.2284 93.8398 19.2284C93.8878 19.1804 93.9838 19.1324 93.9838 19.0844C94.0798 18.9884 94.1278 18.8924 94.2238 18.8444C94.2238 18.7484 94.3198 18.7484 94.3198 18.7004C94.3678 18.7004 94.3198 18.5564 94.4158 18.5564C94.5598 18.3164 94.7518 18.1724 94.8478 17.9324C94.9438 17.8364 95.0398 17.7884 95.0878 17.6924C95.1358 17.5964 95.2318 17.5004 95.3278 17.4044C95.4238 17.3564 95.4718 17.2124 95.5678 17.1164L95.8078 16.8284C95.8558 16.7324 95.8558 16.5884 95.9518 16.4924C96.0478 16.3964 96.2398 16.3484 96.2398 16.1564L96.6238 15.9164C96.6718 15.6764 96.8638 15.5804 96.9118 15.3404C97.1038 15.1964 97.1998 15.0524 97.3438 14.9084L97.4878 14.6204C97.6798 14.6204 97.6798 14.3804 97.8238 14.3324C97.9198 14.1884 98.0158 14.0924 98.1598 13.9964L98.4478 13.8524C98.6878 13.6124 99.0238 13.4684 99.2638 13.2764C99.3598 13.2284 99.3598 13.1804 99.4558 13.0844L99.6478 12.9404C99.7918 12.8444 99.9358 12.7484 100.128 12.7004C100.176 12.6044 100.272 12.5564 100.32 12.5084C100.368 12.4604 100.416 12.4124 100.464 12.4124L100.608 12.2204C100.656 12.2204 100.656 12.2204 100.704 12.1724C100.944 12.1244 101.088 11.8844 101.376 11.8364C101.616 11.8364 101.856 11.7884 102.096 11.8844C102.336 11.7884 102.576 11.8364 102.864 11.7884C103.008 11.7884 103.104 11.8364 103.248 11.8844C103.584 11.8844 104.016 11.7404 104.352 11.8364C104.448 11.7884 104.544 11.7404 104.64 11.7404C104.928 11.8364 105.216 11.8844 105.552 11.7884C105.84 11.8844 106.224 11.9324 106.656 11.8844C106.848 11.9804 106.992 12.0284 107.232 12.0284C107.232 12.1244 107.328 12.0764 107.376 12.1244C107.376 12.1724 107.376 12.2204 107.424 12.2204C107.52 12.4604 107.712 12.3164 107.952 12.3644C108.048 12.3164 108.048 12.2204 108.096 12.1244C108.144 12.0284 108.24 12.0284 108.24 11.8844C108.24 11.7404 108.144 11.7404 108.096 11.6444C108.096 11.5004 108.048 11.4524 108 11.3564C107.856 11.3084 107.712 11.1644 107.424 11.2124C107.424 11.1644 107.424 11.2124 107.376 11.1644C107.328 11.1644 107.232 11.1164 107.184 11.1164L106.848 11.0204H106.464C106.368 10.9724 106.224 10.9724 106.176 10.9244C105.984 10.9724 105.696 10.8764 105.408 10.8764H104.544C104.256 10.7804 104.016 10.8284 103.68 10.8284C103.536 10.7804 103.536 10.9244 103.344 10.8764C103.248 10.8764 103.2 10.7804 103.152 10.6844C103.008 10.6844 102.912 10.6364 102.864 10.5404ZM104.88 6.79642C104.928 6.70042 105.168 6.70042 105.264 6.89242C105.216 7.03642 105.072 7.08442 104.976 7.13242C104.976 7.27642 104.88 7.32442 104.88 7.42042L104.592 7.61242C104.592 7.70842 104.496 7.80442 104.448 7.90042C104.16 8.04442 103.968 8.28442 103.776 8.52442C103.728 8.57242 103.68 8.57242 103.632 8.57242C103.392 8.90842 103.056 9.10042 102.768 9.38842C102.72 9.43642 102.528 9.38842 102.432 9.43642C102.24 9.48442 102.336 9.82042 102.144 9.91642C101.952 9.96442 101.904 9.67642 102 9.58042C102 9.43642 102.144 9.43642 102.144 9.24442L102.432 9.10042C102.48 9.00442 102.576 8.90842 102.624 8.76442C102.624 8.76442 102.672 8.71642 102.72 8.71642C102.768 8.66842 102.768 8.62042 102.768 8.57242C102.816 8.57242 102.864 8.57242 102.864 8.52442C102.864 8.47642 102.864 8.42842 102.96 8.38042L103.2 8.23642C103.2 8.09242 103.296 8.09242 103.296 7.99642C103.44 7.94842 103.488 7.85242 103.584 7.85242C103.632 7.75642 103.68 7.66042 103.824 7.66042C103.968 7.51642 104.016 7.32442 104.256 7.27642C104.352 7.13242 104.496 7.03642 104.544 6.89242C104.592 6.84442 104.688 6.89242 104.736 6.84442C104.736 6.84442 104.688 6.79642 104.736 6.79642C104.736 6.79642 104.784 6.84442 104.784 6.79642C104.784 6.74842 104.88 6.79642 104.88 6.79642Z" fill="#333333"/>
</svg>
