<svg width="825" height="347" viewBox="0 0 825 347" fill="none" xmlns="http://www.w3.org/2000/svg">
<path d="M11.6553 308C11.6553 306.4 12.0553 306 12.4553 304.4C13.6553 304.4 13.6553 302.8 14.4553 302C16.0553 300.8 16.0553 298 18.0553 296.8C18.0553 295.6 18.8553 294.8 18.8553 294L20.0553 292.8C20.8553 293.2 20.0553 291.6 20.8553 291.6C21.2553 290.4 22.0553 290 22.4553 288.4L24.4553 285.6C24.4553 285.2 25.2553 285.2 25.6553 284.8C25.6553 284.4 25.6553 284 26.0553 284C26.0553 283.6 26.4553 283.2 26.4553 283.2L30.0553 277.6C30.8553 276.8 30.8553 275.2 32.0553 274.8C32.4553 274 32.8553 272.8 34.0553 272L34.8553 269.2L36.4553 268.4V267.6C36.8553 267.6 37.2553 267.2 37.2553 267.2C37.2553 266.8 37.2553 266.4 37.6553 266.4C37.6553 266 38.0553 266 38.0553 265.6L38.8553 263.2C40.0553 262 41.2553 260 42.8553 258.8L44.8553 254.8C45.2553 254 46.0553 253.6 46.8553 253.2C46.8553 251.6 48.0553 251.6 48.4553 250.4C49.2553 248.8 51.2553 247.6 51.6553 245.6C53.2553 244 54.0553 242.4 55.2553 240.8C56.4553 239.2 57.6553 238 58.4553 235.6C60.0553 234.8 60.4553 233.2 62.0553 232C62.4553 230.4 63.6553 229.6 64.0553 228C64.8553 227.2 65.6553 226.4 66.4553 226C66.8553 224.8 67.2553 223.6 68.4553 223.2C69.2553 222.8 69.6553 221.2 70.0553 220.4C70.8553 220 71.2553 219.2 71.6553 218.8C71.6553 218.4 72.4553 218 72.4553 217.6C72.4553 217.2 72.4553 217.2 72.8553 217.2L73.6553 216V215.2C73.6553 215.2 74.0553 215.2 74.4553 214.8C74.4553 214.8 74.0553 214.4 74.4553 214.4C74.4553 214 74.8553 214 75.2553 213.6C76.8553 211.6 78.0553 208.8 80.4553 207.2C81.2553 205.2 82.8553 203.6 83.2553 202C84.4553 201.6 84.8553 200.8 86.0553 200.4C86.4553 199.2 86.8553 197.6 87.6553 197.2C88.0553 195.6 89.2553 195.2 90.4553 194.4C90.0553 192.8 91.2553 192.8 91.2553 191.6C92.8553 190.4 93.6553 188.8 94.8553 188L96.4553 185.2C97.2553 184.4 98.8553 184 98.8553 182.8C99.2553 182.4 99.2553 182 99.2553 181.6C100.055 181.6 100.455 181.6 100.455 181.2L101.655 179.2C102.455 178.4 103.255 177.6 103.655 176.4C104.455 175.6 105.255 174.8 105.255 173.6L108.055 171.2C108.855 168.8 110.455 167.6 112.055 166.4C112.055 164.8 112.855 164 112.855 162.8C114.855 161.6 116.055 159.6 118.055 158.4L119.255 155.6C120.455 154.8 121.255 153.6 122.055 152.4C122.455 152 122.855 151.6 122.855 151.2C122.855 150.8 123.255 151.2 123.255 150.8L124.455 149.2L125.655 147.6C126.455 146.8 127.255 146.8 127.255 146C127.655 144 129.255 143.6 130.055 142.4C130.055 141.2 131.255 140.8 131.255 139.6L134.055 137.6C134.055 136.4 134.855 136 135.255 134.8C136.455 134.8 136.455 133.6 137.655 132.8C137.655 131.6 138.855 130.8 138.855 129.2C140.055 128.4 140.855 128 141.255 126.8L143.255 125.2C143.655 124.4 143.655 123.6 144.855 123.2L145.655 121.6C146.055 120.4 147.255 120 147.655 118.8C148.455 118.4 148.455 117.2 149.255 116.8C149.655 116 150.455 115.6 150.855 115.2C151.255 114.8 150.855 114.8 150.855 114.4C150.855 114.4 151.655 114.4 151.655 114C152.055 113.6 152.055 113.2 152.055 112.8C152.855 112 153.255 111.2 153.655 110.4C154.455 110 155.255 108.8 155.255 107.2C156.055 107.2 156.055 106 156.855 106.4C156.855 104.8 159.255 104.4 159.255 103.6C159.255 102.8 160.055 102.4 160.055 101.6C161.255 101.2 161.655 100.4 162.455 100C162.455 99.6 162.855 99.2 162.855 99.2C162.855 98.8 163.255 98.8 163.655 98.4C164.055 98 163.655 96.8 164.455 96.4L166.855 93.6L167.655 92C167.655 91.2 168.855 90.8 168.855 90.4C169.655 90 169.655 88.8 169.655 88.4C170.055 88.4 170.455 88 170.455 87.6C170.855 87.2 170.455 86.8 170.855 86.4C172.855 85.6 173.255 83.2 175.255 82C175.655 79.2 177.655 77.6 179.655 76C180.055 73.2 182.855 72.4 182.855 69.2C184.055 68.4 185.255 68 185.255 66.8C186.455 66 186.855 65.2 187.255 64C188.455 63.2 188.455 62 189.655 61.2L191.655 58.4L192.455 55.2C193.255 54.8 193.655 53.6 194.455 52.4C196.855 50.8 198.055 47.2 199.255 44L200.455 42.4C200.855 41.2 201.255 40 202.055 39.2C202.055 36 203.655 34.8 203.255 31.2C203.255 30 202.455 30 202.055 28.8C201.255 28.4 200.455 28 198.855 28H198.455C198.455 28.4 197.655 28.4 197.655 28.8C195.655 30 194.055 32 192.455 33.6C191.655 34.8 191.655 36.4 190.455 36.8C190.455 38 189.655 38.4 188.855 38.8C188.455 40.4 187.255 41.6 186.855 43.2C185.255 44 184.855 46 184.455 47.6C184.055 47.6 183.655 48 183.655 48.4C182.855 48.4 182.455 48.8 182.855 49.6C182.055 50 182.455 51.2 182.055 52C180.855 53.2 179.655 54.8 179.655 56.8C178.055 57.6 177.655 59.6 176.455 60.8L174.055 62C173.655 62.4 172.055 62.4 171.255 62.8C170.455 63.2 170.055 64 169.655 64.4C169.255 67.2 170.855 68.4 170.855 71.2C170.455 72.8 168.855 73.2 168.455 74.4L165.255 77.2C164.855 78.8 163.655 79.2 163.255 81.2C161.655 82.4 160.855 84.4 159.255 85.2C158.855 86.8 157.655 87.6 157.655 89.2C155.255 90.4 154.855 93.2 152.455 94.8C152.455 97.2 150.055 97.6 149.655 100C148.855 100.4 148.055 101.2 147.255 102C146.855 103.6 145.655 104.8 144.855 106C143.655 107.2 143.655 109.2 141.655 109.6L140.855 112.4C138.855 113.2 138.455 115.2 136.455 116.4C136.455 117.2 135.655 117.6 135.655 118.4C135.255 119.2 134.055 119.2 134.055 120C133.255 120.4 133.255 122 133.255 122.8C132.055 123.2 131.255 124.4 130.055 125.6V126.4C129.655 127.2 129.255 127.2 128.855 127.2C128.455 127.2 128.455 128 128.455 128C128.055 128.4 127.655 128.4 127.255 128.4C127.255 129.6 126.855 129.2 126.855 130V130.4C126.855 130.8 126.455 130.8 126.055 131.2C126.055 131.6 126.055 131.6 125.655 132C125.655 132.4 125.255 132.4 125.255 132.8C124.855 133.2 124.455 134 124.455 134.4C124.055 134.4 123.655 134.4 123.655 134.8C121.655 136 121.255 139.2 118.855 140.4C118.455 141.6 117.655 142.4 116.855 143.2C116.455 144.4 115.655 145.2 114.855 146L113.655 147.6L112.455 149.2C112.055 150 111.255 150.8 110.055 151.6C110.455 152 109.655 152.4 109.655 152.4C109.255 152.8 109.655 152.8 109.655 153.2C109.655 153.2 108.855 153.2 108.855 153.6V154C108.855 154 108.455 154.4 108.055 154.4C108.055 154.8 108.055 155.2 107.655 155.2C106.855 157.6 104.455 158.4 103.655 160.8L102.855 162.4L102.455 162.8C102.055 163.2 102.055 163.6 102.055 163.6C101.255 164.8 100.055 165.2 99.2553 166C98.8553 167.6 98.4553 168.8 97.2553 169.6C96.8553 170.8 95.6553 171.6 94.8553 172.4C93.2553 174.8 90.8553 176.4 90.4553 179.6C88.8553 180.4 88.0553 182.4 86.8553 183.6C85.6553 184.8 84.0553 186 83.2553 188C82.4553 188.4 82.0553 189.2 81.6553 190C81.2553 190 81.2553 190.4 80.8553 190.4V191.2C80.8553 191.6 80.0553 191.6 80.0553 192V192.4C80.0553 192.8 79.6553 192.4 79.6553 192.8L78.8553 194C78.4553 194 78.8553 194.4 78.8553 194.4L77.6553 195.6C77.2553 196 77.2553 196.4 77.2553 197.2L74.4553 199.2C74.0553 200.8 73.2553 202 72.0553 202.4C71.6553 204 71.2553 205.2 70.0553 205.6L68.8553 209.2C67.6553 209.2 67.2553 210 66.0553 210.8L64.4553 214C64.0553 214.4 64.0553 215.2 62.8553 215.2C62.0553 216.8 60.8553 218.4 60.0553 220.4C58.0553 222 56.4553 224.4 55.6553 227.2C53.6553 228.4 52.8553 230.4 51.2553 232L49.6553 234.4C48.8553 235.6 47.6553 236 47.6553 237.2C46.8553 238 46.8553 239.6 45.6553 240C45.2553 240.8 44.8553 242 43.6553 242.4C44.0553 242.8 43.6553 242.8 43.6553 242.8C43.2553 243.2 43.2553 243.6 43.2553 244C43.2553 244 42.8553 244 42.4553 244.4V245.2C41.6553 246 40.0553 246.8 40.0553 248C40.0553 248.4 39.6553 248 39.6553 248.4L38.8553 251.2C37.2553 251.6 36.8553 253.2 36.4553 254C35.6553 254.8 34.8553 254.8 34.4553 255.6L33.6553 258.8C33.2553 258.8 32.4553 259.2 32.0553 259.6L30.0553 262.4C29.6553 264.4 28.4553 265.6 28.0553 267.2C26.8553 268 26.0553 269.6 24.8553 270.4C24.4553 272 23.2553 272.8 22.4553 273.6C22.0553 275.2 21.6553 277.2 20.4553 278C20.0553 279.6 18.8553 280.8 17.2553 281.6C17.2553 282.8 16.4553 283.2 16.0553 284.4L14.0553 287.2C13.6553 288 12.4553 289.6 12.4553 290.4C12.4553 290.8 12.0553 290.4 12.0553 290.8L11.2553 292.4C10.8553 292.4 10.8553 292.8 10.4553 292.8C10.4553 293.2 10.0553 293.6 10.0553 293.6V294L9.25532 295.6C8.85532 296.4 8.05532 296.4 7.65532 297.2C8.05532 298 7.25532 297.6 7.25532 298.4C6.45532 298.4 6.85532 299.6 6.05532 299.6C6.05532 300.8 4.85532 301.2 4.45532 302.4C4.05532 302.8 4.05532 303.6 4.05532 304.4C3.25532 304.8 3.25532 305.2 2.85532 306C1.65532 306.8 1.65532 308.4 0.855322 309.2C0.855322 311.2 0.0553216 312.4 0.455322 314.4C0.855322 314.8 0.855322 315.2 0.855322 315.6C1.25532 315.6 1.25532 316 1.25532 316.4C2.05532 317.2 4.05532 317.2 4.45532 318C6.45532 318 8.05532 318.4 9.65532 318.8C10.4553 318 11.6553 318.4 12.8553 318C14.0553 318 14.8553 317.6 16.0553 317.6C17.2553 317.2 17.6553 317.6 18.0553 317.2H18.8553C20.4553 316.4 22.8553 316.4 24.4553 316H24.8553L29.6553 314.8C30.8553 314.8 32.8553 314.4 33.2553 314C33.6553 313.2 36.4553 314.4 36.4553 313.6C36.8553 312.8 37.6553 313.2 38.4553 312.8C38.8553 312.8 38.8553 312.4 39.2553 312C39.6553 312 40.0553 312 40.4553 311.6C41.6553 311.6 42.0553 312.4 43.2553 312C43.2553 311.6 44.0553 311.6 44.4553 311.6C44.8553 311.2 44.8553 311.2 45.2553 311.2C45.6553 311.2 45.6553 310.8 45.6553 310.8C46.0553 310.8 46.8553 310.8 47.2553 310.4V310C47.2553 310 47.6553 310.4 48.0553 310H48.4553C49.6553 309.6 49.6553 310.4 50.4553 310C51.6553 309.2 53.2553 308.8 54.8553 308H58.0553L60.8553 306.8C62.8553 306.8 63.6553 306 65.6553 305.6H67.2553C67.6553 305.6 67.6553 305.2 67.6553 305.2L72.0553 304L73.6553 303.2C74.0553 303.2 74.4553 303.2 74.4553 302.8C76.4553 303.2 77.2553 302 78.8553 301.6H80.8553C81.6553 300.8 83.2553 300.4 84.0553 300C86.0553 300 87.2553 298.8 89.2553 298.8C90.0553 298.4 90.8553 297.6 92.0553 297.2C96.8553 297.2 99.6553 294.4 104.455 294L106.055 293.2C108.055 292.4 110.055 291.2 112.455 291.2C113.255 290.4 114.055 290 115.255 289.6C115.255 289.2 116.055 289.6 116.455 289.2C116.855 288.8 116.855 288 117.655 288.4H120.055C120.855 287.6 121.655 286.8 122.855 286.8C123.655 286 125.255 286 126.455 285.2C128.055 284 129.655 282.8 131.655 282.4C132.855 281.2 133.655 280.8 134.455 279.6C136.455 279.6 136.855 278.4 138.055 278C138.855 276.4 139.655 274.8 140.055 272.8C139.655 272.8 139.655 272.4 139.655 272C139.655 271.6 139.255 271.6 138.855 271.2V270.4C138.455 270 138.055 270 138.055 269.6C137.655 269.2 137.655 268.4 136.855 268.4L135.255 267.6C133.655 267.2 132.055 267.6 130.855 267.6C130.455 268.4 129.655 268.4 129.255 269.2C129.255 269.2 129.255 270 128.855 270V270.4C128.055 271.2 128.055 272 127.255 272.8C127.255 273.2 126.855 273.2 126.455 273.6C126.055 273.6 126.455 274.4 125.655 274.4C124.855 275.2 124.055 275.2 122.855 275.6C121.655 276.4 121.255 277.2 120.055 277.6C118.855 278 118.055 278 116.855 278C116.455 278.4 115.255 279.2 115.255 279.2C114.855 279.2 113.255 280 113.255 280C113.255 280 112.855 280.4 112.455 280.4C111.255 281.2 109.655 281.6 108.055 282.4C107.655 282.8 106.455 282.4 105.255 282.4C104.855 283.2 104.055 283.2 103.255 284L100.855 285.2C97.6553 284.8 96.4553 286.8 94.0553 287.6C92.8553 287.2 92.0553 288 90.8553 288L89.2553 288.8C88.4553 289.2 87.6553 289.6 86.8553 289.6C86.4553 290 85.6553 290.4 85.2553 290.4C84.4553 290.4 83.2553 291.2 81.6553 291.2C81.6553 291.6 80.4553 291.2 80.4553 292C80.0553 292 80.0553 293.2 78.8553 292.8C78.0553 293.2 78.0553 292.4 77.2553 292.8C76.0553 293.6 73.2553 293.6 72.0553 294.8H70.0553C70.0553 295.2 70.0553 294.8 69.6553 295.2C68.8553 295.6 68.4553 296.4 67.2553 296.4C64.8553 297.2 62.0553 297.6 60.0553 298.4C59.6553 298.8 58.0553 298 58.0553 298.8C55.6553 299.2 54.0553 300.4 52.4553 301.2C48.0553 301.2 46.0553 303.6 41.6553 303.2C40.8553 304.4 38.4553 304.4 36.8553 304.4C36.8553 304.8 36.0553 305.2 35.6553 305.2C35.2553 305.2 34.8553 305.6 34.4553 305.6C31.6553 306 29.6553 306.8 27.6553 307.2C23.6553 307.2 21.2553 308.8 18.4553 309.6C17.2553 310 16.0553 309.2 14.4553 310C12.8553 310 12.0553 309.2 11.6553 308ZM217.815 188C215.415 188 215.015 189.6 213.415 190.4C211.815 190.8 209.815 192.4 209.015 193.2C209.015 193.6 208.615 193.2 208.615 193.2C208.215 193.6 208.215 194 208.215 194H207.415V194.8C207.015 194.8 206.615 194.4 206.615 194.8C206.215 194.8 206.215 195.6 205.815 195.6C204.615 195.2 204.615 196.4 203.415 196C202.615 197.2 201.415 198 200.215 198.8C198.215 199.2 197.015 200.4 195.815 201.6C194.215 202 192.615 202.4 191.815 203.6C190.215 204 189.415 205.2 187.415 205.2C187.015 206 186.215 206.4 185.415 206.8C183.415 208 181.415 208.8 179.015 209.2C177.815 210 177.015 210.8 175.415 210.8C174.615 210.8 174.615 211.6 173.815 211.6C173.415 212.4 171.815 211.6 171.415 212C168.615 213.2 165.415 213.6 163.015 214.8C161.815 214.8 161.015 214.4 160.215 214.8C159.815 214.8 159.015 215.2 159.015 215.2C156.615 216 154.615 214.8 152.615 214.8C151.815 214.4 151.415 213.6 151.015 213.2C150.615 212.4 149.415 212.8 149.415 211.6V208C149.815 206.4 151.815 206.4 151.415 204.4C151.815 204 151.815 202.8 152.615 202.8C152.615 202 153.415 201.6 153.415 200.8L156.215 197.6C157.015 198 157.015 196.8 157.415 196.4C158.215 196 158.615 195.2 159.415 195.2C160.615 194.4 162.215 195.2 163.415 194.8C164.215 194.8 165.415 194.4 166.215 194.4C167.415 194 168.215 194.4 169.415 194.4C171.015 193.6 173.015 193.6 175.415 193.6C176.215 192.8 177.815 192.8 178.615 192.4C179.015 192 179.415 191.6 179.815 191.6C180.615 190.4 182.215 190.8 183.015 190.4C183.415 189.2 184.615 189.2 184.215 188C185.015 187.6 185.815 187.2 185.815 186C185.815 184.4 186.215 182.8 186.615 181.6V180C185.415 177.6 183.815 176 181.815 174.8C181.815 174.4 181.015 174.8 181.015 174C179.015 174 178.215 174.4 177.015 174.4C176.615 174.8 175.815 174.8 175.415 174.8V175.2H175.015V175.6C174.615 175.6 174.215 175.2 174.215 175.6C173.415 176 172.215 176.4 170.615 176C169.015 177.6 167.015 178.4 164.615 179.2L162.615 181.6C161.815 182 160.615 182 160.215 183.2C159.815 184 158.615 184 158.615 184.8C157.415 185.6 157.015 186.4 156.215 187.2C156.215 187.2 155.815 187.6 155.415 187.6L151.815 191.2C151.415 191.2 151.815 191.6 151.815 191.6L150.615 192.8C150.615 193.2 150.215 193.6 150.215 194C149.415 194.8 148.615 195.2 148.215 196C147.415 197.2 147.015 198.4 145.815 199.2C145.415 200.4 144.215 201.2 143.815 202.4C143.015 202.8 143.415 204.4 143.015 204.8C141.815 206.4 141.015 207.6 140.615 209.2C140.215 211.2 140.615 214 140.215 216.4C140.615 216.4 140.615 216.8 140.615 216.8C141.015 217.6 142.215 217.6 141.815 218.4C143.015 218.8 143.415 220.4 144.215 220.4C144.615 220.4 144.615 220.8 144.615 220.8C145.415 220.8 147.415 221.2 147.815 221.2H148.615C149.415 221.6 149.415 221.6 150.215 221.6C152.215 221.6 154.615 221.6 156.615 222C159.015 221.2 161.015 220.4 164.215 220.8C165.015 220.4 165.815 219.6 167.015 219.6C167.815 218.8 169.415 218.8 169.815 218C172.615 218.4 173.415 216.4 176.615 216.4L181.015 213.6C181.815 213.6 182.615 213.2 183.415 213.2C184.615 212.4 185.415 211.2 187.015 210.8C188.215 210.8 188.615 210 189.815 210C189.815 209.6 191.015 209.6 191.015 209.2C191.415 208.8 191.415 208.4 192.215 208C193.415 207.6 193.815 206.8 195.015 206.4C195.415 205.6 197.015 205.6 197.415 204.8L200.615 203.6C203.415 201.2 207.415 200 210.215 197.6C211.015 197.6 211.815 196.8 211.815 196.8H212.615V196.4H213.415L213.815 196C214.615 195.2 215.815 194.8 215.815 194C216.215 193.6 216.615 193.2 217.815 193.2C217.815 192.8 218.215 193.2 218.215 192.8C218.615 192.8 218.615 192 219.015 192C219.415 190.4 219.015 188.8 217.815 188ZM171.815 186C172.615 185.2 173.415 186 173.815 186C174.215 188 171.415 187.6 171.815 186ZM175.015 186C174.215 185.2 175.015 185.6 175.015 184.4H175.815C175.815 185.2 175.815 186 175.015 186ZM259.237 207.2C259.637 206 261.237 206 261.637 204.8C262.037 204.4 261.637 203.2 262.437 202.8C262.837 202.4 263.237 201.6 264.037 201.2C264.437 199.2 266.037 198 266.037 195.6C266.437 194.8 265.637 193.6 266.037 192.4C265.237 192 265.237 191.6 264.837 191.2C264.437 190.8 263.637 190.4 264.037 189.6C263.237 189.2 262.437 188.8 262.037 188L261.637 187.6C261.237 187.6 260.437 187.6 260.437 187.2H255.637C254.837 188 253.637 188 252.037 188L250.037 189.2L246.037 191.2C245.237 191.6 244.837 192.4 243.637 192.4C243.637 193.2 242.437 192.4 242.437 193.6C242.037 193.6 241.637 194 240.837 194.4C240.437 194.8 239.637 194.8 238.437 194.8C237.637 195.6 236.837 196.8 236.037 197.2C232.437 198.8 230.037 201.6 226.437 202.8C226.037 204 225.237 205.2 223.637 204.4C222.437 202.8 223.237 201.2 223.637 199.6L224.837 197.2C225.637 196.4 226.037 195.6 226.037 194.4L224.837 191.2L222.037 188.8C220.437 188.4 218.437 188.4 216.437 188.8C216.037 189.6 215.237 189.6 215.637 191.2C215.237 191.6 214.437 192 214.437 193.2L212.437 196C212.437 197.6 211.237 198 211.237 200C210.437 200 210.837 200.8 210.037 201.2C209.637 201.6 209.637 202.4 208.837 202.8C208.837 204 208.437 204.4 208.437 205.6C207.637 206 207.637 206.8 207.237 207.2C206.437 207.6 206.437 209.2 206.037 210H205.637C204.837 210.8 204.837 212 204.437 212C203.237 216.8 200.037 219.6 198.437 224.4C197.637 224.8 197.637 226 196.837 226.4C196.437 227.6 195.237 228 195.237 229.2C194.037 229.6 193.637 230.8 192.837 231.6C190.037 232.8 188.837 235.6 186.037 236.4C185.637 238 184.837 238.4 184.037 239.6C183.237 239.6 182.837 240 182.037 240.4C180.837 242 179.237 242.8 178.437 244.8C176.437 244.8 176.037 246.8 174.437 247.2C173.637 248 173.237 248.8 172.837 249.6C171.637 250.4 170.437 250.8 170.037 252.4C168.437 252.8 168.037 254 166.437 254.4C166.037 255.6 165.237 256 164.837 257.2C164.037 257.2 164.037 258 163.237 258.4H162.437C162.437 258.8 162.037 259.2 162.037 259.2L160.037 262C158.037 263.2 156.837 264.8 155.637 266.4L154.037 267.2C153.237 267.6 153.237 268.4 152.837 268.8C152.837 269.2 152.037 269.2 151.637 269.6C149.237 271.6 147.637 274.4 144.437 276C144.037 277.6 142.437 278.8 141.237 279.6C140.837 279.6 141.237 280 141.237 280.4C140.837 280.8 140.037 280.8 140.037 281.6C139.637 282 136.437 284.8 136.437 284.8C135.637 285.2 134.037 287.2 134.037 287.6L132.837 289.2C132.837 289.2 132.837 289.6 132.437 290C131.637 290.4 130.437 290.8 130.037 292C129.237 292.8 128.037 293.2 127.637 294.8C125.637 296 124.437 298 122.437 299.2C121.637 300.8 120.437 302.4 118.837 303.2L117.637 305.6C116.437 306 115.637 306.8 114.837 307.2C114.037 308 114.037 309.2 113.637 309.6C112.437 310 111.637 310.8 110.837 311.2C110.437 312.4 109.637 313.2 109.237 314L107.637 314.8C107.237 315.2 107.637 316.4 106.837 316.4C106.437 316.8 106.437 317.2 105.637 317.2C105.637 318.4 104.437 318.8 104.037 319.2C103.637 319.6 103.637 320.4 103.237 320.4C102.837 320.4 102.437 321.2 102.037 321.2C101.637 323.2 99.6366 324.8 98.8366 326V326.8C98.0366 327.6 97.2366 328.4 96.8366 329.2C96.4366 329.6 96.0366 330.4 96.0366 330.4L95.2366 331.6C94.8366 331.6 94.8366 332 94.4366 332.4C94.0366 333.2 94.0366 334.4 93.6366 334.8C93.2366 335.2 93.2366 336 93.2366 336.4C92.4366 337.2 93.2366 338.8 92.4366 339.2C91.6366 341.2 92.0366 343.2 92.8366 344.8C94.0366 346.4 97.2366 346.8 100.037 346.4C100.037 345.6 100.837 346 100.837 345.6C101.237 345.6 101.237 345.2 102.037 344.8C102.837 344 104.837 343.6 106.037 342.8C106.037 342.4 106.037 342.4 106.437 342.4C106.837 342 107.637 342 108.037 342C108.437 341.2 108.837 340.4 109.637 340.4L112.037 337.6C112.837 337.6 113.237 337.2 114.037 336.8C114.437 336 115.237 335.6 115.237 334.8C116.437 334.8 117.237 334.4 117.637 333.6C118.037 333.2 118.437 332.4 119.237 332C120.037 331.6 120.037 330.4 120.837 330.4C121.637 329.6 122.437 329.2 122.437 328.4C123.237 328 123.637 327.2 124.837 327.2C125.637 325.6 126.837 324.4 128.037 323.6C128.837 322.4 129.637 321.6 130.037 320.4C132.037 319.2 133.237 317.6 135.237 316.8C134.837 315.6 136.037 316 135.637 314.8C137.237 313.6 138.437 312.4 139.637 310.8C142.037 308.8 144.037 306.4 145.637 304C146.437 303.6 146.437 302.8 147.237 302.4C146.837 301.6 148.037 301.6 148.037 300.8C149.237 301.2 148.837 299.6 149.637 299.6C150.837 297.6 152.837 296 154.837 294.4C154.837 293.2 156.037 292.8 156.037 292C157.637 291.2 158.437 289.2 159.637 288C161.237 286.8 161.237 284.4 163.237 284C163.637 282.8 164.437 282.4 164.437 281.2L167.237 279.2C167.637 278 168.437 277.6 169.237 276.8C169.637 275.6 170.437 275.2 170.437 274C171.637 273.6 172.437 272.4 173.237 271.6L174.037 270L175.637 268.8C176.437 266.8 177.637 266 178.037 264.4C179.237 264.4 178.837 263.2 179.637 263.6L180.837 260.8C181.237 260.4 182.037 260.4 182.437 259.6C183.237 259.6 182.837 258 183.637 258C184.437 256.8 185.237 256 185.637 254C186.837 253.2 188.037 252 189.637 251.2C189.637 250.4 190.037 250 190.037 249.6V249.2H190.437V248.4C190.437 248.4 191.237 248 191.237 247.6C191.637 247.2 192.037 246.8 192.437 246.8C193.237 245.2 194.037 243.6 195.237 242C195.637 241.2 196.037 240.4 197.237 240C197.637 239.6 197.637 238.4 198.437 238C199.237 237.2 199.637 236.4 200.037 235.6C200.437 234.4 201.637 234.4 201.637 233.2C203.237 232 204.437 230.4 205.637 228.8C206.437 228.4 207.237 227.2 207.637 226.8H208.437L209.237 226C210.437 224.8 211.637 223.6 213.237 223.2C214.037 221.6 215.637 221.2 216.437 219.6C218.437 219.2 219.237 217.6 220.437 216.8L224.437 213.2C226.037 212.4 227.237 211.2 228.437 210L232.837 207.2L233.637 206.4C234.037 206.4 234.037 206 234.037 206C234.437 206 234.837 206 235.237 205.6C235.637 205.6 235.637 205.2 236.037 205.2C236.437 205.2 236.037 204.8 236.437 204.8L238.037 204C238.037 203.6 238.437 203.2 238.837 202.8H239.637C240.437 202.8 240.837 201.6 240.837 201.2C242.037 201.2 242.437 200.4 242.437 200C242.837 200 243.237 200.4 243.237 200C243.637 200 244.037 199.6 244.037 199.2C244.437 198.8 244.837 198.4 245.237 198.4L247.637 197.2L249.637 195.6C251.637 195.6 252.837 194.4 255.237 194C255.237 195.2 256.437 195.2 256.037 196.8C256.437 198 255.637 198.4 255.637 200C254.037 201.6 252.437 203.2 251.237 205.6C250.037 206 249.637 206.8 248.437 207.2C248.837 208 248.037 208 247.637 208.8L246.837 210.4C246.437 210.4 246.837 211.2 246.837 211.2C246.437 211.6 246.037 212 246.037 212.4C246.037 213.2 245.637 213.2 245.637 214C246.037 214 246.037 214.4 246.037 214.8C247.237 218.4 252.037 218 256.437 217.6C257.237 217.2 258.837 217.2 260.437 217.2C261.637 216.4 263.237 216 264.837 216C266.037 216 265.637 214.4 266.837 214.4C270.437 214.8 271.637 212.4 275.637 212.8C275.637 212.4 276.037 212.4 276.037 212.4C276.837 212 276.837 210.8 277.637 211.2C279.637 211.2 280.837 210.4 282.037 210C284.837 210 286.037 208.4 289.237 208.8C289.237 208.4 289.637 208.4 290.037 208.4C290.037 208 290.437 207.6 290.837 207.6C291.237 206.8 292.437 207.2 292.837 206.8C294.437 206.4 295.237 205.2 296.837 204.8C297.637 204.4 299.637 204.8 300.437 204.4L303.637 202.8L306.837 201.2H309.237C309.637 200.4 310.437 200 310.837 200L312.437 199.2C312.437 198.8 313.637 198.8 314.037 198.8L314.437 198.4C315.237 198 315.637 198 316.437 198C316.437 198 316.837 197.2 317.237 197.2C318.037 197.2 318.037 197.2 318.437 196.8C320.037 196.8 320.837 195.6 322.037 195.2H324.437C324.837 194.4 325.637 193.6 326.437 193.6C327.237 193.6 327.637 193.2 328.837 193.2C329.237 191.6 332.437 192 332.437 189.6C331.637 189.6 332.037 188 330.837 188C330.837 187.6 330.037 188 329.637 188C329.237 188 328.437 187.6 328.437 188C326.837 188.8 325.237 189.2 324.037 190C322.837 190 322.437 190.4 321.637 190.4C321.237 191.2 320.037 190.8 319.637 191.6C318.437 191.6 318.037 192.4 316.837 192.4C315.637 193.2 313.637 193.6 311.637 194C310.837 194.8 310.037 195.2 308.837 195.6C307.237 195.6 306.837 196.4 305.637 196.8C304.837 197.6 303.237 197.2 302.437 198C300.037 198 298.437 199.2 296.437 200C294.037 200.4 292.037 200.8 290.037 201.6C288.037 202.4 286.437 204 284.037 203.6C283.237 204.4 282.037 204.4 281.237 205.2C277.237 206 274.037 207.2 270.437 208.4H267.637C267.637 208.8 266.837 208.8 266.037 208.8C265.237 208.8 265.237 209.6 264.437 209.2L262.837 210C262.437 210.4 262.037 210.4 261.237 210.4C260.037 210 259.637 208.8 259.237 207.2ZM149.237 279.2C150.437 279.2 150.837 278 152.837 278.4C154.037 280.8 151.637 282.4 150.037 283.2C149.637 284.8 149.237 286.4 147.237 286.8C147.237 288 146.437 288.8 146.037 290C143.237 292.4 141.237 295.2 139.237 298C138.437 298.8 137.637 299.2 136.837 299.6C136.037 302 134.437 302.8 133.237 304.8C132.837 304.8 132.437 305.2 132.437 305.6C132.437 306 132.037 306.4 131.637 306.8C130.837 307.2 130.037 308.4 129.637 309.6C127.637 310.8 126.437 312.8 125.237 314C124.037 315.2 123.237 315.6 122.437 317.2C122.037 317.2 122.037 316.8 122.037 317.2C122.037 317.6 121.237 318.4 120.837 318.4C120.437 319.2 119.637 320 118.437 320.4C118.037 321.2 117.637 322.4 116.837 322.8C115.237 323.6 113.637 324.8 113.237 326.8C112.037 326.8 111.637 327.6 110.837 327.6L109.637 329.6C108.437 330 108.037 330.8 106.837 331.2C106.437 332 104.837 332.4 104.037 331.6C103.637 330 105.637 330 106.437 328.8C106.437 328 106.837 327.6 107.237 326.8C107.637 326.4 107.237 325.2 107.637 325.2C108.037 324 109.237 323.6 110.037 322.8C110.037 320.8 111.637 320.4 112.037 318.8C114.437 317.6 116.037 316 116.837 313.6L119.237 312C119.237 311.2 120.037 310.4 120.037 309.6C120.837 309.2 120.837 308.8 121.637 308.8L123.237 306.4C124.037 306.4 123.637 305.6 124.037 305.2C124.437 305.2 124.837 304.8 124.837 304C125.637 304 126.437 303.2 126.837 302.4C128.437 301.6 129.237 300 131.237 299.2C131.237 298.4 131.637 297.6 131.637 296.8L134.037 295.2L135.637 293.2C138.037 292.4 139.237 290 141.237 288.4C141.237 287.6 141.637 286.8 142.037 286L144.437 284.8C145.637 284 146.037 282.8 147.237 282C148.437 281.6 148.437 280.4 149.237 279.2ZM529.318 105.2C529.718 104.8 529.718 103.6 530.518 103.6C530.918 102.8 531.718 102.4 532.118 102L533.718 100.4L534.918 98.4C536.918 98.4 537.318 96.4 539.318 96C539.718 95.6 540.118 94.8 540.918 94.4C540.918 94 541.318 94 541.718 94C542.118 93.6 542.118 93.2 542.518 93.2C543.318 91.6 545.318 90.8 545.718 88.8C546.518 88.4 546.918 88.4 547.318 88.4L547.718 87.6L548.918 86.4H549.718V85.6L550.518 84.8L551.718 83.2C552.118 82.8 552.518 82 552.518 81.6L554.118 80.4C555.318 79.6 555.718 78.4 556.518 77.2C556.518 77.2 556.518 76.8 556.918 76.4C557.318 75.2 558.118 74.8 558.518 74C558.518 71.2 560.118 70 559.718 67.2C559.718 66.4 559.318 66 558.918 66V65.2C558.918 65.2 558.518 65.6 558.518 65.2C558.518 65.2 558.918 64.8 558.518 64.8C558.118 64.4 557.318 63.6 556.918 63.6C556.518 63.6 556.518 63.2 556.518 63.2C555.718 62.8 554.918 62 554.118 62H549.718C548.518 62.8 546.918 63.2 544.918 63.6C543.718 64.8 541.718 65.2 540.518 66.8C539.718 67.2 538.918 67.6 538.518 68.4C536.518 69.2 536.118 71.2 534.118 71.6C533.718 72.8 532.518 72.8 532.118 73.6C530.918 74.8 529.318 75.6 527.718 76.8C527.318 77.6 526.918 78.4 526.118 79.2C524.518 79.6 523.718 80.8 523.318 82C521.318 82.4 520.918 84 520.118 85.2C518.918 84.8 517.318 86.4 517.318 87.2C517.318 88 515.718 88 515.318 88.4C515.318 88.4 514.918 88.8 514.518 88.8L512.518 91.6C511.318 93.2 509.718 94.4 508.118 95.6C507.318 96.8 506.518 98.4 504.918 98.8C504.518 100.8 502.918 101.6 502.518 103.2C501.718 103.2 500.918 104 500.118 104C499.718 105.2 499.318 106.4 498.518 106.8L494.518 108C491.318 108 488.518 108.8 485.718 108C483.718 108.8 480.118 109.2 477.718 108.4C476.518 108.8 474.918 108.8 474.118 109.2C472.518 108.8 470.918 109.2 469.718 109.2C468.918 109.6 468.118 109.2 467.718 109.2C466.518 109.6 465.718 110 464.918 110C462.118 110.4 459.318 110.4 455.718 110.4C454.918 110.4 454.518 111.2 453.318 110.8C450.918 110.4 448.518 111.6 446.518 110.8C446.518 111.2 446.118 111.2 445.718 111.2L438.518 112.4C437.318 111.6 435.318 112.8 433.718 112.4C432.518 112.8 431.718 113.6 430.518 113.6C428.118 113.2 426.918 114.4 424.918 114.4C423.318 115.6 420.918 116 420.918 119.2C421.718 120.4 423.318 120.4 424.118 121.2H425.318C425.718 121.2 425.718 121.6 425.718 121.6H427.318C427.718 121.6 428.118 122 428.118 122C428.518 122 428.518 121.6 428.518 121.6H430.518C430.918 121.6 431.318 122 431.718 121.6C434.118 121.2 435.718 121.6 438.518 121.2C440.118 122 441.318 123.2 443.318 124L446.518 122.4C447.318 121.6 447.718 120 448.918 119.6C450.518 119.2 451.718 118.4 452.918 118.4C453.718 118.4 454.518 118.8 455.318 118.8H458.118C458.918 118.8 459.718 118.4 459.718 118C459.718 118 460.918 118.4 460.918 118C462.518 118.8 464.518 117.6 466.118 117.6C467.318 117.6 467.718 118 468.918 118L472.518 117.2H473.718C474.118 117.2 474.118 117.6 474.118 117.6C474.918 117.6 475.718 117.2 476.518 117.2V116.8C476.918 116.8 477.318 117.2 477.718 117.2C479.718 117.2 481.318 116.8 483.318 116.8C483.318 116.8 483.318 117.2 483.718 117.2H484.518C485.718 118 486.918 118.4 486.918 120C486.918 121.6 484.918 121.2 484.918 122.8C483.718 123.2 483.718 124.8 483.318 125.2C481.318 126.4 480.118 128.4 478.118 129.6C478.118 131.2 477.318 131.6 476.918 132.8C476.118 132.8 476.118 133.6 475.718 134C475.718 134 475.318 133.6 474.918 134C474.918 134 474.918 134.8 474.518 134.8H473.718C473.718 134.8 473.718 135.2 473.318 135.6H472.518C472.518 136 472.518 136.4 472.118 136.4H471.718C471.318 136.4 471.318 136.8 471.318 137.2C471.318 137.2 470.918 136.8 470.518 137.2C470.518 137.2 470.518 137.6 470.118 138C469.718 138 469.318 138 468.918 138.4H468.518C468.118 138.8 468.518 138.8 468.118 138.8L466.518 139.6C466.518 139.6 466.518 140 466.118 140C466.118 140.4 465.718 140.4 465.318 140.4C465.318 140.4 465.318 140.8 464.918 140.8C464.118 141.2 463.318 141.6 462.518 142.4C461.718 142.8 460.518 143.2 459.718 144.4C458.918 144.8 458.118 145.6 456.918 146C456.118 146.8 454.918 147.2 453.318 147.6C452.518 148.8 451.718 150 450.518 150.8C449.718 151.2 448.518 151.6 447.318 151.6C447.318 152.8 446.118 152.4 445.718 153.2C444.918 153.6 444.918 154.4 444.118 154.8C443.318 155.2 442.518 156 441.318 156C440.518 157.2 439.318 158 438.518 158.8C436.118 159.6 434.918 160.8 432.518 161.6C432.118 162.4 431.318 163.6 430.518 164C429.718 164.4 428.518 164.4 428.118 164.8C426.918 165.6 426.518 167.2 424.918 167.2L422.118 169.6C420.518 169.6 420.518 170.4 419.318 170.8C419.318 171.2 418.518 170.8 418.518 171.2C417.718 171.2 417.718 172 417.318 172L414.918 173.2C414.118 173.6 414.118 174.8 413.318 174.8C410.518 176 407.718 177.2 405.318 179.2C402.518 180.4 400.118 182 397.318 184C396.918 184.4 396.118 184.8 394.918 184.8C393.718 186 392.518 186.8 390.918 187.6C390.918 188 390.118 187.6 390.118 188.4C388.918 188.4 388.118 189.2 387.718 189.6C387.318 189.6 386.918 190 386.518 190C386.118 190 384.518 190.8 384.518 191.2C384.118 191.2 384.118 191.6 383.718 191.6L382.118 192.8C380.518 193.2 379.318 194.8 376.918 194.8C376.518 196 375.318 196.4 374.518 197.2C373.318 197.2 372.518 198.4 370.918 198.4C369.718 200 367.318 200.4 365.318 201.6C364.518 201.6 364.518 202.4 363.318 202C362.918 202.4 362.518 202.8 362.118 202.8C361.718 203.2 361.718 203.6 361.718 204C361.318 204 360.918 204 360.918 204.4C360.118 204.8 359.318 205.2 358.518 205.2C357.718 205.2 357.318 205.6 356.518 206C356.118 206 354.918 206.4 354.518 206.8C354.518 206.8 354.118 206.8 354.118 207.2C353.318 207.6 352.118 208 350.918 208C350.918 208.4 350.918 208.4 350.518 208.4C349.718 208.8 349.318 210 348.118 210.4C346.918 210 346.118 210.4 344.918 210.4C344.918 211.2 343.718 211.2 343.318 211.6C343.318 212 342.518 212.4 341.718 212.8C339.318 212.4 338.918 214 337.318 214.4H334.518C333.718 214.8 332.918 214.8 331.718 214.8V215.2C331.318 215.6 330.918 215.2 330.518 215.6H330.118C328.118 216.4 326.118 217.2 323.318 216.8C322.518 216 320.918 215.6 320.918 214C320.918 213.6 320.518 213.6 320.518 213.2C320.918 210.8 321.718 208.8 322.918 207.2C323.718 206 323.718 204 324.918 203.6C326.918 203.2 328.518 202.4 331.318 202.8L333.718 201.6C336.518 201.6 338.518 201.2 341.318 200.8C341.318 200.4 342.118 200.8 342.118 200C342.918 200.4 342.918 200 343.318 200C343.718 199.2 344.918 199.2 346.118 199.2C347.318 198 348.518 196.8 350.918 196.8C352.518 194.8 354.518 193.6 354.918 190.4C354.918 188.8 353.318 188.4 353.318 186.4C352.118 185.6 352.118 184 350.918 183.2C349.718 182.8 348.918 182.4 347.718 182.4V182C346.118 181.6 344.518 182 342.918 181.2L340.118 182.4C335.318 182 332.918 184.4 329.718 185.6L327.318 187.6C326.918 188.4 325.318 188.4 324.918 189.6C322.518 191.2 320.518 193.6 318.118 195.6C317.718 196.4 318.118 196.8 317.718 197.2C317.718 197.6 317.318 197.6 316.918 197.6C316.918 198 316.518 198.4 316.518 198.4L315.318 199.6C315.318 199.6 315.718 200 315.318 200C315.318 200.4 314.918 200.4 314.918 200.4C314.518 200.8 314.918 201.2 314.518 201.6C314.518 202 314.118 202 313.718 202C313.718 202 314.118 202.4 313.718 202.8C313.718 203.2 312.918 203.2 312.918 203.6C312.518 205.6 312.118 207.6 310.918 208.8C310.918 210.8 310.118 212 310.118 213.6C309.718 214.4 310.518 215.2 310.918 215.2C311.318 215.6 310.518 216.8 310.918 217.2C311.318 217.2 310.918 217.6 310.918 217.6H311.318V218.4C311.718 218.8 312.118 219.2 312.118 220C313.318 220.8 314.918 221.2 315.718 222.4C317.318 222.4 318.118 222.8 319.718 223.2C320.518 223.2 321.318 222.8 322.118 222.8C323.318 222.8 324.118 223.6 325.318 223.2C328.118 222.4 330.918 221.6 334.518 221.6C334.918 221.2 335.718 221.2 336.118 220.4C336.518 220 338.118 220.4 338.518 220C339.718 219.6 340.918 218.4 342.918 218.8C343.318 218 344.118 218.4 344.518 217.6C345.318 217.2 345.718 216.8 346.918 217.2C347.718 216.4 348.118 215.6 349.718 215.6C349.718 215.2 350.118 215.2 350.518 215.2C351.318 214.8 351.318 214 352.518 214C354.918 213.6 356.118 211.6 359.318 211.6C360.518 210 362.918 208.8 365.318 208.4C366.518 207.2 367.718 206.4 369.318 206C370.518 204.8 372.118 204.4 373.318 203.2C374.518 203.2 375.318 202.8 376.118 202.4C376.918 201.6 378.118 201.6 378.918 201.2C378.918 200.4 380.118 200.8 379.718 200C380.118 200 380.518 199.2 381.318 199.2C382.118 199.2 382.118 198.8 383.318 198.8L385.318 197.2C386.118 196.8 386.918 196.8 387.718 196C388.118 195.6 388.118 195.2 388.918 194.8C389.718 194.8 390.118 194.4 390.918 194.4C391.718 193.2 393.718 192 394.918 191.6H395.718L396.118 191.2C396.518 190.8 396.918 190.8 397.318 190.8C397.718 190.8 397.718 190.4 398.118 190C398.518 190 398.918 190 398.918 189.6C400.118 189.2 401.318 188.8 402.118 188C402.518 187.6 402.918 186.8 403.718 186.8L406.118 185.6C406.918 185.6 406.918 184.8 407.318 184.4L408.918 183.6C409.718 182.8 410.918 182.4 412.118 182.4C412.518 181.6 413.318 181.2 414.118 180.8C414.518 180 415.318 180.4 415.718 180C415.718 180 416.118 179.6 416.518 179.6L417.718 178.4L419.318 177.6C419.718 177.6 419.718 177.2 420.118 176.8C420.518 176.8 420.918 176.8 420.918 176.4C421.318 176.4 421.318 176 421.718 176C423.318 174.8 424.918 174 426.518 173.2C427.718 172 429.718 171.2 431.318 170.4C432.518 170 432.918 168.4 434.118 168H436.118C436.918 166.4 438.518 165.6 439.718 164.8C442.518 164 444.518 162 446.918 160.8C447.318 159.6 448.518 159.2 450.118 158.8C450.118 158.4 450.518 158.4 450.518 158C450.918 158 450.918 157.2 451.318 157.2C452.118 156.4 453.718 156.8 454.118 157.2C454.518 157.2 455.318 157.6 455.318 158.4C455.318 159.6 454.518 160 454.118 160.8C453.718 162 452.918 162.4 452.118 163.2C452.118 164 451.718 164.4 451.718 165.6C451.318 166.4 450.118 166.4 449.718 167.2C448.918 167.6 448.518 168.8 447.718 169.2C446.918 170 446.518 170.8 446.118 171.6C445.718 172.4 444.518 172.8 444.118 173.6C443.718 175.2 442.518 176 442.118 176.8C441.718 177.6 440.918 178.8 440.118 179.2V179.6C440.118 180 439.718 180 439.718 180.4C439.318 180.8 438.518 181.2 438.518 181.6C437.718 182.4 436.918 183.6 436.918 184.8C435.718 185.2 434.918 186 434.118 186.8C434.118 187.6 433.718 188.4 433.718 189.2C432.518 189.6 432.118 190.4 430.918 191.2C430.518 193.6 428.918 194.4 427.718 196.4C426.918 196.8 426.918 198.4 425.718 198.8C425.318 200 424.118 200.4 423.718 201.6C422.918 202.4 422.518 203.2 422.118 204.4C420.118 205.6 419.718 208 418.118 209.6C418.118 210 417.718 210.4 417.718 211.2C417.318 211.6 416.118 211.6 416.518 212.4C415.718 212.4 416.118 213.6 415.318 214C415.318 214.8 414.518 216 413.718 216.4C413.318 217.2 412.518 218 411.718 218.8L410.918 221.2L408.918 222.8C408.518 224.4 407.718 225.2 406.918 226.4C405.718 227.2 405.718 228.8 404.518 229.2C404.118 231.2 402.918 232.8 401.718 234.4C400.918 236 399.718 237.6 398.518 238.4L397.318 241.6C396.518 242.4 396.118 243.6 395.718 244.8C395.318 245.6 394.918 245.2 394.518 246C393.718 246 394.118 247.2 393.318 247.2C392.918 248.8 392.118 249.6 391.718 250.8C390.918 251.6 390.918 253.2 389.718 254C389.718 255.6 388.518 256.4 388.518 258C388.118 258.8 387.318 258.4 387.318 259.6C386.518 259.2 387.318 260.8 386.518 261.2C386.118 264 386.518 266.4 387.718 268C388.118 268 388.518 268.4 388.918 268.4C389.318 268.4 389.318 268.8 389.318 268.8C391.318 268.8 392.918 268 394.118 267.2C394.518 265.6 395.318 264 394.918 261.6C396.918 260 397.318 256.4 399.718 254.8C399.718 252.8 401.718 251.2 402.118 250C402.518 249.2 402.918 248 402.918 248C402.918 247.6 402.918 247.6 403.318 247.6V246.4C403.718 246 404.118 246 404.118 245.6L404.518 245.2L406.118 244C406.118 242.8 406.518 242.8 406.518 242C407.718 241.2 408.518 240.4 408.918 239.2C410.118 238.4 410.518 236.8 411.718 236.4C411.718 235.2 412.118 235.2 412.518 234.8L413.318 233.6C413.718 233.2 413.318 232.8 413.318 232.8C413.718 232.8 414.118 232.4 414.118 232.4V231.6C414.118 231.6 414.518 231.2 414.918 231.2C415.318 230.8 415.318 230 416.118 229.6C416.118 228.4 416.918 228.4 416.918 226.8C418.518 225.6 419.718 224 420.918 222C422.118 220.8 423.318 218.8 424.918 217.6C424.918 216 425.718 214.8 426.518 214C427.318 212.4 428.518 211.6 428.918 210.4C430.118 210 430.518 208.8 431.318 208.4C431.318 206.8 432.518 206 432.518 204.4C433.318 203.6 435.318 203.6 435.318 202C436.518 201.6 436.518 200 436.918 199.2C439.718 197.2 441.318 193.6 443.718 191.2C444.118 189.6 445.318 188.8 445.718 187.6C447.318 186.4 448.118 184.4 449.718 183.6C449.718 182 450.918 181.2 451.718 180C452.518 179.2 452.918 178 454.118 177.2C454.518 176 454.918 174.8 456.118 174C456.918 173.2 457.718 171.6 458.918 170.8C458.918 170.4 459.318 170 459.718 169.2C460.518 169.6 460.518 168.8 460.918 168.4C461.318 168.4 461.318 168 461.718 168V166.8C462.118 166.8 462.518 166.4 462.518 166.4C462.518 166 462.518 165.6 462.918 165.2L464.118 164V163.6C464.118 163.2 464.918 163.2 464.918 162.8L466.118 161.2L468.918 159.2C469.318 157.2 470.918 156 471.318 154C472.118 153.2 473.318 152.8 473.318 151.6L476.118 149.6L477.318 147.2L477.718 146.8C478.118 146.8 478.518 146.4 478.518 146.4L478.918 145.6C478.918 145.2 479.318 145.2 479.318 144.8C479.718 144.4 479.318 144 479.718 144C481.718 142.4 482.518 140.4 484.518 139.2C484.918 138.4 485.318 136.8 486.118 136C487.718 135.6 488.918 134 490.918 134C491.318 133.2 491.718 132 492.518 131.6L494.518 130.4C495.718 130 496.518 128.8 497.318 128.4C497.718 128 498.118 128 498.518 128L498.918 127.2C499.718 126.8 500.118 126.4 500.918 126.4L504.118 122.8C505.318 122.8 505.718 122 507.318 122C508.118 120.8 508.518 119.6 510.118 118.8L514.918 116.4C516.918 116.4 517.718 115.6 519.318 115.2C520.518 115.2 520.918 116 521.718 116C524.918 115.2 528.118 116 530.518 116C530.918 116 530.918 115.6 530.918 115.6C532.518 115.2 532.918 115.6 533.718 115.6C534.518 116 534.918 115.6 535.718 115.2H536.918C538.918 115.2 540.918 115.6 542.918 115.2C544.118 115.2 544.918 116 546.118 116C550.118 116 553.318 115.6 556.518 116C558.518 116 560.118 116.8 562.518 116.4C562.918 117.2 563.718 117.2 564.118 117.6C565.318 119.2 568.518 121.6 570.918 119.6L572.918 118C572.518 116.4 573.318 114.4 572.118 114L570.118 111.2C568.518 111.6 567.718 110.8 566.518 110.4C564.918 110.4 564.118 109.6 562.918 109.2C560.118 109.6 558.918 108.8 556.918 108.4C555.718 108.4 554.518 108.8 552.518 108.8C551.318 108.8 550.918 107.6 549.718 107.6C546.918 108.4 543.718 107.2 540.918 108C539.718 108.4 539.718 107.6 538.918 107.6C538.518 108 537.718 108 536.918 108C535.718 107.6 534.118 107.2 532.118 107.6C531.718 106.4 529.318 106.8 529.318 105.2ZM546.118 72.8C547.718 72.4 547.718 73.2 548.518 73.6C548.518 74.8 547.318 75.6 546.518 76.4L545.718 78.4C544.518 79.2 543.718 80 542.918 81.6C541.718 82.4 540.118 83.2 539.318 84.4C538.918 84.4 538.918 84.8 538.918 85.2C538.918 85.2 538.518 85.2 538.118 85.6V86.4C537.718 86.4 537.318 86.8 537.718 87.2C535.718 88 534.518 89.2 533.718 90.4C531.718 90.8 531.318 92.4 529.718 92.8L528.518 95.2C527.318 95.2 526.918 96 526.118 96C524.918 96.8 524.518 98 523.318 98C521.718 99.2 520.918 102 518.118 100.4C517.718 98.8 519.718 98.8 520.118 97.6C520.518 96.8 521.318 96 521.718 94.8C522.518 94.8 522.918 94 523.718 94L525.318 91.6C526.518 90.8 526.918 89.6 528.118 89.2C529.318 87.6 530.518 86 532.118 85.2C532.518 84 533.318 83.2 533.718 82.4C536.118 82 536.518 79.6 538.518 79.2L540.918 76.4C542.518 75.6 543.718 74 545.318 73.6C545.718 73.2 546.118 73.2 546.118 72.8ZM338.118 192.8C338.118 190.4 341.318 190.8 341.718 192.4C341.718 194 339.718 194 338.518 193.6C338.518 193.2 338.518 193.2 338.118 192.8ZM766.265 190C765.865 190 765.865 189.2 765.065 189.6C765.065 188.8 763.465 189.6 763.465 189.6C762.265 189.6 762.265 190.8 761.465 190.8C761.065 191.6 760.265 191.6 759.865 192.4C759.065 192.4 759.065 193.6 757.865 193.6C757.865 194.4 757.065 194.4 756.665 195.2C756.265 195.6 755.465 195.6 755.065 196.4C753.865 196.4 754.265 197.6 753.465 197.6C753.065 198.4 751.865 198.4 751.465 198.8L748.665 202.4C746.665 202.8 745.865 204.4 744.265 204.8C743.465 206.4 742.265 207.2 740.265 208C739.865 209.6 737.865 210 736.665 211.2C736.265 211.2 735.865 211.6 735.865 212C735.065 212 735.465 212.8 734.665 212.8C732.665 214 731.065 216 728.665 217.2C728.265 218 727.065 218.8 726.665 220C724.265 220.4 723.465 222.4 721.865 223.2C721.465 223.6 720.265 223.6 719.865 224C719.065 224.4 719.065 225.6 718.265 225.6C717.465 226 716.265 226 716.265 226.8C715.865 227.6 715.465 228 714.265 228C713.865 228.8 713.065 229.2 712.665 229.2L711.065 230.4C710.665 230.8 710.265 230.8 710.265 230.8L709.465 231.6C708.665 232 707.865 232.4 707.065 233.2V233.6C707.065 233.6 706.665 233.2 706.665 233.6C706.265 233.6 705.865 234 705.865 234C705.465 234.4 705.065 234.8 704.665 234.8C703.465 236 701.465 236.4 700.665 238C700.265 238 698.665 238 698.665 238.8L696.265 240C694.265 242 690.665 243.2 688.665 245.2C687.065 245.2 686.665 246 685.865 246L684.265 246.8C684.265 248 683.465 247.6 683.065 248C681.065 248 680.265 249.2 678.665 249.6C677.065 250 676.265 251.2 674.665 252C673.465 251.6 672.265 252.8 671.465 252.8C671.065 252.8 671.465 253.2 671.465 253.2L669.865 253.6L665.865 255.6C665.065 255.6 664.265 256.4 662.665 256C661.865 256.8 661.065 257.6 659.065 257.2C658.265 258 657.465 258.8 656.265 258.8C653.865 258.4 652.665 259.2 651.065 259.6H648.265C646.665 260.8 644.265 260.4 642.265 260.8C640.665 261.2 639.065 261.6 637.465 261.2C636.665 261.2 635.865 261.2 635.465 260.8C634.265 260.8 633.465 261.6 632.265 261.2C630.665 260.8 628.665 260.4 625.865 260.4C623.865 260 622.665 258.4 619.865 258.4C619.065 257.2 617.465 256.8 615.865 256.4C615.065 254.8 613.065 254 611.865 252.8C611.465 252.4 611.065 252 611.065 251.6V251.2C611.065 251.2 610.265 251.6 610.265 251.2C610.265 251.2 609.865 250.8 609.865 250.4C609.465 250 609.065 249.6 608.665 249.6V248.8L607.465 247.6C607.065 246.8 606.265 246.8 605.465 246C605.865 244.8 605.065 244.8 605.465 243.6C604.665 242.4 603.865 242 603.465 240.8C603.465 239.6 602.265 238.4 602.265 238C601.865 237.2 601.865 236.8 601.865 236.4C601.865 236 601.865 236 601.465 235.6C601.465 235.2 601.465 235.2 601.065 234.8L600.665 234.4C600.265 234 600.665 233.2 600.265 233.2C600.265 230.4 599.465 228.4 598.665 226.4C599.865 223.6 597.865 220.8 597.865 217.6C597.865 217.2 597.865 216.4 598.265 215.6V210C598.665 208.8 599.465 208 599.465 207.2C599.465 205.6 598.665 205.2 599.065 204C599.465 202.4 600.265 201.2 599.465 199.2C600.265 198.8 600.265 198.4 600.265 198C600.665 197.6 601.065 196.8 601.065 196.4C601.065 194.4 601.465 193.2 601.465 191.6C601.465 191.2 601.865 191.2 601.865 190.8H602.265C602.665 190 602.665 189.2 602.665 189.2C603.065 188.4 603.065 187.6 603.865 187.2V184C604.265 183.6 604.265 182.4 605.065 182C605.865 180.8 605.465 178.4 607.065 177.6C607.065 176.8 607.065 176 607.465 174.8C609.465 172.4 609.465 168.4 611.865 166.4C612.665 162.8 615.065 160.8 615.865 157.2C616.665 156.4 616.665 155.6 617.065 154.8C617.465 154 618.665 154 618.665 152.8C619.465 152 619.065 150.8 619.465 150L620.665 148.4C621.465 148 622.265 147.6 622.265 146.8C622.265 146 623.065 145.2 623.065 144.8C623.465 144.4 623.465 144.4 623.465 144C623.465 143.6 624.265 143.6 624.265 143.6C624.265 143.2 624.265 142.8 624.665 142.8C624.665 142 625.065 141.6 625.065 141.2C626.265 140 627.065 138.8 627.865 137.2C629.465 136.4 629.865 134.8 630.665 133.6L633.465 132.4C633.865 131.6 633.865 130.8 634.665 130.4C635.865 130 636.265 129.2 637.465 128.8C638.665 126.8 639.865 125.2 642.265 124.4C642.665 123.6 642.665 122.8 643.465 122C643.865 122 645.065 121.6 645.465 121.2C646.265 120.4 646.665 118.8 647.865 118.8C649.065 118 649.465 116.8 650.665 116C651.865 114.8 653.065 114 654.265 113.2C655.465 111.6 657.065 110.8 658.265 108.8C659.865 109.2 660.265 108 660.665 107.2C661.465 106.4 662.265 105.6 663.465 105.6C664.265 103.2 666.665 102.4 667.865 100.4C669.065 100.4 669.865 99.2 670.665 98.8C671.465 97.6 672.665 97.2 673.465 96.4C674.265 95.6 675.065 94.8 675.465 93.6C677.065 93.6 677.465 92 678.665 91.2C678.665 90.8 679.465 90.8 680.265 90C680.265 89.6 681.065 89.2 681.465 88.4L684.265 86C685.465 85.2 685.465 83.6 687.465 83.6C687.865 82.4 689.065 81.6 689.865 80.8C690.665 80.8 691.065 80 691.865 79.6C691.865 79.2 692.265 78.4 693.065 78L698.265 72.4C700.665 71.6 702.265 69.6 703.465 68C703.865 68 704.265 67.6 704.665 67.6L705.465 66.4C705.865 64.8 708.265 64.8 708.665 63.2C709.865 62 711.065 61.2 712.265 60.4C713.065 59.2 713.465 58 714.265 57.2C715.065 56.4 716.265 56 716.665 55.2C717.465 55.2 717.065 54 717.865 54C717.865 53.2 718.665 53.2 718.665 52.8C719.865 52.4 720.265 51.6 721.065 51.2L724.265 47.6C725.065 47.6 725.065 46.4 725.465 46C725.465 44.8 727.065 45.2 727.065 44.4C729.465 42 731.065 39.6 733.465 37.6C733.465 36 734.665 36 735.065 34.4C735.865 33.6 737.065 33.2 737.465 32.4C738.265 31.6 738.665 30.4 739.865 30C740.265 28.8 741.065 28 741.865 26.8C742.665 26.4 742.665 24.8 743.065 24C744.265 23.6 745.065 22.8 745.865 22.4C746.265 19.6 748.265 18.4 749.065 15.6C749.465 15.6 749.465 14.8 749.465 14C750.665 11.6 752.265 9.59998 751.865 5.19999C751.065 5.19999 751.465 4.39997 751.065 3.99998C750.665 3.99998 750.265 3.59999 750.265 3.19999C749.465 3.19999 749.465 2.39998 749.065 1.99998L747.865 1.19999C745.865 1.19999 744.665 0.799997 743.065 0.399979C742.665 0.399979 742.665 0.799997 741.865 0.399979L735.065 2.8C734.665 3.59999 733.465 3.19999 733.065 3.99998C731.865 4.39997 730.665 5.59998 729.865 5.99998C728.265 6.79999 727.465 7.99998 725.865 9.19998C724.665 9.59998 723.465 9.99997 723.065 10.8C722.665 10.8 721.865 11.6 721.465 12C721.065 12.4 720.665 12.4 720.265 13.2C718.265 14.4 717.065 16.4 714.665 17.2C713.865 18 713.465 19.6 712.665 20.4C712.265 20.8 711.865 21.2 711.065 21.2C711.065 22.4 709.865 22.4 709.465 23.2C707.865 23.6 707.465 25.2 706.665 26L703.465 28.8L700.265 31.6C699.065 34.4 696.265 35.6 694.665 38.4C691.865 39.2 691.065 42.4 689.065 44C687.865 44.4 687.865 45.2 687.465 46L683.065 50C683.065 51.2 682.265 51.6 681.465 52C681.465 53.2 680.265 53.2 680.265 54.4C679.065 54.8 679.065 56 678.665 56.8C677.065 57.6 676.265 58.8 675.465 60C674.665 61.2 673.465 62.4 673.065 63.6L669.865 66.4C669.865 68 667.865 68 667.065 69.2C666.265 69.6 666.665 70.8 665.865 70.8L662.265 75.6L661.065 76.8V77.2L659.865 79.2C657.465 80.4 657.065 83.6 654.665 85.2C653.865 86.4 653.065 87.6 651.865 88.4C651.465 90 650.265 90.8 649.865 92.8L646.265 96C645.865 97.6 644.665 98 644.665 99.6C643.465 100.4 642.265 101.6 641.065 103.2L640.665 103.6C640.665 104.4 640.265 104.4 639.865 104.4C639.865 104.8 639.465 105.6 639.465 105.6C639.465 106 639.065 106 639.065 106C638.665 106.4 638.665 107.2 638.665 107.6C636.265 110 633.865 112.4 632.265 116.4C630.665 116.8 630.665 118.8 629.065 119.6C629.065 120.4 628.265 121.2 627.865 121.6L626.265 123.6C625.465 124.8 624.265 126 623.865 127.6C623.065 128.8 621.465 129.6 621.465 132C619.465 133.2 617.865 135.6 616.665 138.4C613.865 139.6 611.865 142.4 609.865 144.4C607.065 145.2 606.265 147.6 603.865 148.4C602.265 150 600.665 151.6 598.265 152.8C597.465 154 596.265 155.2 595.065 156C595.065 156.8 593.865 156.8 593.865 157.6C593.065 158 593.065 159.2 592.265 159.6C589.465 160.4 587.865 162 586.265 163.6C585.465 163.6 585.465 164.8 585.065 164.8C584.665 166 583.465 166 582.665 166.4C581.865 167.2 581.865 168 581.065 168.8C580.265 168.8 579.465 168.8 579.065 169.2L575.465 173.2L571.465 176.4L568.665 177.2C568.265 178 567.465 178.4 567.065 178.8C566.265 179.2 565.865 180 565.465 180.4H564.665L564.265 181.2C563.465 182.4 562.665 182.4 561.865 183.2C560.665 183.2 560.665 184.8 559.865 185.2L557.465 186C556.265 187.6 555.065 188.8 553.465 190C550.665 191.6 547.865 193.2 545.465 195.6C542.665 197.2 540.265 199.6 537.865 201.6C535.865 202.4 534.265 204.4 532.265 204.8L530.665 206C530.265 206.8 529.065 206.8 529.065 207.2C527.465 207.6 527.065 209.2 525.865 210C522.665 211.2 519.865 213.2 517.465 215.6C514.265 216 513.465 218.8 510.265 218.8C509.865 220 508.665 220 508.265 220.8C507.465 221.6 506.265 221.2 505.865 222C504.265 223.2 502.665 224 500.265 224.4C499.465 225.2 498.665 225.6 497.465 226L491.065 227.6H486.265C485.865 227.2 485.065 227.2 484.265 226.8C483.865 226.4 483.065 226.4 482.665 225.6V219.6L483.465 218.4H483.865C483.865 218.4 483.465 218 483.865 217.6L484.265 217.2L485.065 215.6H485.465C485.865 215.2 485.465 214 485.865 214.4L487.065 210.8C487.865 209.6 488.665 208.4 489.865 207.2L492.665 202.8C493.865 202 494.265 201.2 495.065 200.8C495.465 199.2 496.665 197.6 497.465 196.8L499.465 194C499.065 192.8 499.865 192 499.865 190.8C498.665 188 495.065 186 490.665 187.2C490.265 187.6 489.865 188 489.465 188C488.665 189.6 487.465 190.8 487.065 192.8C486.665 193.2 486.265 194 485.865 194V194.8C485.865 194.8 485.465 194.8 485.465 195.2C485.065 195.2 485.465 195.6 485.465 195.6L484.265 196.8C483.465 198 482.665 199.6 481.065 200.4C481.065 201.6 480.265 202 480.265 203.2C479.065 203.6 479.465 205.2 479.065 206C477.865 207.2 477.065 208.8 476.265 210L475.065 213.6C474.265 214.8 473.865 216 473.465 217.2C472.665 220.4 473.465 223.6 473.065 226.8C473.065 228.4 474.665 228.4 474.665 230.4C475.065 230.4 474.665 231.6 475.465 232C475.865 232.4 476.665 232.8 476.665 233.6C478.665 234 480.265 234.8 481.865 235.2C485.065 235.6 487.465 234.8 490.665 234.8C491.065 234.4 491.865 234.4 491.865 234.4C492.265 234.4 492.265 234 492.665 234C493.465 233.6 494.665 233.2 495.065 233.2C495.865 232.8 496.665 232.4 497.065 232.4C498.265 232.4 498.265 232.4 499.065 232L501.465 230.8C501.865 230.8 502.665 230 503.065 230V229.6H504.265L504.665 229.2H505.465C506.665 228.4 507.865 227.6 509.465 227.6C510.665 226 512.665 225.2 514.665 224.8L515.865 223.2L517.465 222.4C518.265 221.6 519.465 220.8 521.065 220.8C522.665 218.8 525.065 217.6 526.665 216C527.865 215.6 528.265 214.8 529.465 214.8C530.265 214.4 531.065 214 531.465 212.8C532.265 212.4 533.465 212.4 533.865 211.6C534.665 210.8 535.465 210.4 536.665 210C537.465 209.2 538.265 208.8 539.465 208.4C539.865 207.2 540.665 206.4 542.265 206C543.065 204.8 544.665 204.8 545.465 203.6C546.265 202.4 547.865 202.4 548.665 201.2C549.865 200.8 550.665 199.6 552.265 199.2L554.665 196.4C555.065 196 555.465 196.4 555.865 196C555.865 196 556.265 195.6 556.265 195.2C556.665 195.2 556.665 194.8 557.065 194.8C557.465 194.4 557.865 194.8 558.265 194.4L558.665 194L560.265 192.8C560.665 192.8 560.665 192 561.065 192C563.865 190.8 564.665 188.4 567.065 186.8C568.665 186.4 569.465 184.8 571.465 184.4C573.465 181.6 577.065 179.6 579.465 177.2C580.265 176.8 581.465 176.4 581.865 175.6C582.665 175.6 582.265 174.8 582.665 174.8C583.465 174.8 583.065 173.6 583.865 174C584.665 173.6 584.665 172 585.865 172C586.665 171.6 586.665 170.4 587.865 170C588.665 169.2 589.465 168.8 590.665 168.4L591.865 166.8C591.865 166 593.065 166.4 593.465 165.6C594.265 165.6 594.665 164.8 595.065 164.4L596.665 163.2C599.465 162 600.265 159.2 603.865 158.8C603.865 159.6 604.265 160.4 603.865 161.2V161.6L603.065 162.8V163.2H602.665C602.265 163.6 603.065 165.2 602.665 166C601.865 166.4 601.865 168 601.065 168.8C600.665 170 600.265 171.2 599.465 172V174.8C599.065 174.8 599.065 175.6 598.665 176H598.265C598.265 176 598.665 176.4 598.265 176.4C598.265 176.8 597.865 176.8 597.865 177.2C597.465 178.4 596.665 178.8 596.665 180.8C596.265 180.8 596.265 181.6 596.265 182C596.265 182.4 595.865 182 595.865 182C595.865 182.4 595.465 183.2 595.465 183.2V183.6C595.065 184.8 594.665 186 595.065 187.6C594.265 188 594.265 189.2 593.865 189.6C593.465 191.2 593.865 191.2 593.865 192.4C593.065 193.6 592.265 194 592.265 195.2C591.865 196.4 592.665 196.4 592.265 197.6C592.265 198.4 591.465 198.4 591.465 199.6C591.465 201.6 591.465 203.2 591.065 204.8C591.065 205.2 591.065 205.6 590.665 206C590.665 208 590.665 208.8 590.265 210C590.665 210.8 590.665 211.6 590.665 212.8V213.2C590.265 214.4 589.865 214.8 589.865 216C590.665 218.8 590.665 222.4 590.665 226C590.665 227.2 591.465 227.2 591.465 228.8V232.4C592.265 234 593.065 236 593.065 238.4C593.865 239.2 593.865 240 594.265 240.8C594.665 241.2 594.665 241.6 594.665 242C594.665 242.4 595.065 242.8 595.065 243.2C595.465 243.6 595.865 244 595.865 244.4C595.865 244.8 596.665 245.2 596.665 245.6V246C597.465 246.8 598.265 247.2 598.265 248C598.665 249.2 599.465 250.4 599.465 251.6C600.265 252 600.665 252.4 601.065 253.2C601.865 253.2 602.265 254 602.665 254.4L604.665 257.2C605.065 257.6 605.465 258.4 605.865 258.4C606.265 258.8 606.665 258.8 607.065 258.8C607.065 259.2 607.065 259.6 607.465 259.6C608.265 259.6 608.665 260 609.465 260.4C609.865 260.4 610.265 261.2 610.665 261.6L611.865 262.4L612.265 262.8C612.665 263.2 613.465 263.2 614.265 263.6L614.665 264C615.065 264.4 615.465 264.4 615.865 264.4C617.465 265.2 618.665 266 620.265 265.6C621.065 266.4 622.665 266 623.065 266.8C624.265 266.8 625.465 267.6 626.665 267.6C627.065 267.6 627.465 267.6 628.265 267.2C630.665 267.2 631.465 268 633.465 268C635.865 267.6 638.665 267.2 641.465 267.6C643.065 267.2 645.065 267.2 646.665 266.4C647.465 267.2 649.465 266.4 651.065 266.8C652.265 266.8 652.665 265.2 653.865 265.2H657.065C657.865 264.4 659.065 264.8 659.465 264C661.465 263.2 663.465 262.8 665.065 262L668.265 261.2C668.265 260.8 668.665 261.2 669.065 260.8C669.065 260 669.865 260 669.865 259.6C671.865 259.6 673.065 258.4 675.465 258.4L677.465 257.2C678.265 256.8 679.065 256.4 679.865 255.6C681.065 255.6 681.865 254.8 683.065 254.8L684.665 253.6C685.465 253.2 685.465 252.4 686.265 252.4C686.665 252 686.665 252 687.465 252V251.6C688.265 251.2 689.065 251.2 689.065 250.8C689.465 250.8 689.865 251.2 689.865 250.8C689.865 250.4 690.265 250.8 690.265 250.8C690.665 250.8 690.265 250.4 690.265 250.4H691.065C691.465 250.4 691.465 250 691.865 249.6C692.665 249.6 692.665 249.2 693.065 248.8H693.465C693.865 248.8 693.865 248.4 694.265 248C694.665 248 694.665 248 694.665 247.6H695.465C695.465 247.6 695.465 247.2 695.865 246.8C696.265 246.8 696.665 247.2 696.665 246.4C697.465 246.4 697.865 245.6 698.265 245.2H699.065C699.865 244.8 700.265 244 700.665 244C701.065 244 701.465 243.6 701.865 243.2H702.265V242.8H703.065C703.065 242.8 703.065 242.4 703.465 242.4C703.465 242 704.265 242 704.265 242C705.065 241.2 705.865 240.8 707.065 240.8C709.465 238 712.665 236 716.265 234.4C717.065 233.2 717.865 232.4 718.665 232C719.065 231.2 719.865 231.2 720.265 230.8C721.065 230.8 721.065 230 721.865 229.6C722.665 228.8 724.265 228.4 725.065 227.6C726.665 227.2 727.065 226 728.665 225.6C729.865 223.6 731.865 222 734.265 220.8C735.065 220 735.465 218.8 736.665 218C738.265 217.6 739.065 216.8 739.865 216H740.265C740.665 215.6 740.265 215.2 740.265 215.2C741.065 214.8 741.465 214 741.865 213.6C743.465 213.2 744.265 212 745.465 211.6C746.665 209.6 747.865 208.4 749.465 207.2C751.065 206.4 751.865 205.2 753.465 204.8C754.665 203.2 756.665 202 757.865 200.4C758.265 200.8 758.665 199.6 759.065 199.6L760.265 198.4L762.265 196C764.265 195.2 766.265 194 766.665 191.2C766.665 190.8 766.265 190.8 766.265 190ZM656.265 98.4C656.265 98 656.665 98.4 656.665 98C656.665 97.6 657.065 97.2 657.465 96.8C658.665 95.2 659.465 93.2 661.065 92C661.065 90.4 662.665 90 662.665 88.4C663.465 88 663.865 87.2 665.065 86.8C665.065 86 665.865 85.6 665.865 84.8L668.665 82.4C669.065 81.2 670.265 80.4 670.665 79.2C671.465 78.8 671.865 78 672.665 78C672.665 76.8 673.065 76.4 673.065 75.6C675.065 74.8 675.465 72.8 677.065 72.4C677.465 71.2 677.865 70.4 677.865 69.6C678.665 69.6 678.665 69.2 679.065 68.8C679.465 68.4 680.265 68.4 680.265 68C680.665 68 680.265 67.6 680.265 67.6C681.065 67.2 681.065 66.4 681.865 66C682.265 65.2 683.065 65.6 683.065 64.8C683.865 64.4 683.865 63.6 684.265 63.2L685.465 62C686.665 61.2 686.665 60 687.865 59.2C688.265 58 689.065 57.6 689.465 56L691.865 54.4C692.665 52.4 693.865 51.6 694.665 50C698.265 48.4 699.865 45.6 701.465 42.8C703.065 41.6 703.865 40.4 705.465 39.6C706.665 37.2 709.465 36 710.665 33.2C711.865 33.2 712.265 32 713.465 31.2L714.665 28.8L716.665 27.2C718.665 26 719.865 23.2 722.265 22.4C722.665 20.4 724.265 20.4 724.665 18.8C726.265 18.4 727.065 17.2 728.265 16.8L731.465 14.4C732.665 14 733.065 12.8 734.265 12.4L737.065 9.99997C737.065 9.99997 737.465 9.99997 737.465 9.59998C739.065 9.99997 739.865 9.19998 741.465 9.19998C743.065 12 741.465 15.2 739.865 16.4C739.465 18.8 737.065 19.6 736.265 22.4L734.265 24C733.865 25.6 732.265 26.4 731.465 27.6C730.665 28.4 729.865 29.6 729.065 31.2C727.465 32 726.665 33.2 725.465 34.4C724.265 36.4 722.265 37.6 721.465 40C720.665 40.4 719.465 40.8 718.665 41.6C717.865 42.8 717.465 44 716.665 44.8L711.865 48.8C711.465 49.6 710.665 50.4 710.665 51.6C709.465 51.6 708.665 52.4 707.865 52.8C706.665 54 705.465 55.2 705.065 56.8C703.465 57.2 702.665 58.8 701.865 60C700.665 60 700.265 60.8 699.865 61.6L697.865 62.8C696.665 64.4 694.665 65.6 693.865 68C692.665 68.8 691.865 69.6 690.665 70C690.665 70.4 690.665 70.8 690.265 70.8C689.865 71.6 689.065 72 688.265 72.4C687.865 73.2 686.665 73.6 685.865 74.8C685.865 75.6 685.065 76.4 684.665 77.2C684.265 77.6 684.265 77.6 683.865 77.6L683.465 78H682.665L681.865 79.2C681.865 79.2 681.465 79.2 681.065 79.6C680.265 80 679.865 81.2 679.065 81.6C679.065 82 678.265 81.6 678.265 82C677.065 82.8 676.265 84 675.465 84.8C674.665 85.6 673.065 86.4 673.065 87.6C672.265 87.6 671.865 88 671.865 88.4L669.865 89.6C669.465 90.4 669.065 91.6 668.265 92.4C666.665 92.4 666.665 93.6 665.865 94.4C664.665 94.4 665.065 95.6 664.265 95.6C663.865 96.4 663.065 96.4 662.665 97.2C661.865 96.8 661.465 97.6 661.065 97.6C659.865 98.4 659.065 99.6 657.865 100C657.465 101.6 656.665 102.4 654.665 102.4C655.065 101.2 655.465 99.6 656.265 98.4ZM504.265 178.4C505.865 178.4 505.465 177.2 506.665 176.8C507.065 176 508.265 175.6 508.665 174.8C509.465 174 509.865 173.2 510.265 172.4C511.865 171.6 513.065 170 514.665 168.8C514.665 168.8 514.665 168.4 515.065 168.4C515.465 168.4 515.465 168.4 515.465 168C516.665 167.2 517.465 166 519.065 166C519.865 164.8 520.665 164 521.865 163.2C523.465 162 524.665 160.8 526.265 160L528.265 158.8C528.265 158.4 528.665 158.8 529.065 158.8V158.4H529.465C529.865 158 529.865 157.6 529.865 157.6C530.265 157.2 531.065 157.6 531.465 157.2L532.665 155.6V154.8C533.065 154.4 534.265 154 533.865 152.8C533.865 151.2 532.665 150.4 532.265 149.2C529.065 148.8 527.465 150.4 525.065 150.8C525.065 151.2 524.265 151.2 523.865 151.6C523.465 152 523.065 152.8 522.265 152.8L519.065 156.4C518.265 156.4 517.865 157.2 517.065 157.2C516.265 158.4 515.465 159.2 514.265 160C514.265 161.2 513.065 161.6 513.065 162.8C510.265 164.4 509.065 167.2 506.265 168.8C506.265 169.6 505.865 170.4 505.465 170.8L504.265 172C504.265 172.8 503.865 173.2 503.865 173.2C503.465 174 503.065 174.4 503.065 174.8C502.265 175.2 502.265 175.6 502.265 176.4C502.665 177.2 503.065 178.4 504.265 178.4ZM784.502 184.4C785.302 183.2 785.302 181.6 786.102 180C785.302 179.6 785.702 178.4 784.902 177.6C784.902 176.8 784.502 176.4 783.702 175.6C782.502 175.2 781.702 174.8 780.502 174.8C779.702 174.8 779.302 175.6 778.902 175.6C778.102 176 777.702 176 776.902 176C776.102 176.8 774.902 176.8 773.302 177.2C772.902 178 772.102 178.4 770.902 178.8L768.502 182C767.302 182 766.902 183.2 765.702 183.6C764.502 184.8 763.702 186.4 761.702 186.8C760.902 188.4 759.702 189.6 758.102 190.8C757.702 192.4 756.102 192.8 755.702 194.4C754.902 195.6 754.102 196.8 752.902 198C752.902 200 751.702 201.2 750.502 202.4C750.502 203.2 750.102 203.6 749.702 204C749.702 204.8 749.702 205.6 748.902 205.6C748.902 206.8 748.502 208 748.502 209.2C748.502 209.6 748.102 209.6 748.102 209.6C747.302 211.6 748.102 214 747.302 216.4C748.102 217.2 749.302 217.2 749.702 218C750.902 218.4 750.902 219.2 751.302 219.6C751.302 220 751.702 220 751.702 220.4C754.102 220.4 755.302 220.4 756.902 219.6C758.102 219.6 758.102 220 758.902 219.6L762.502 217.2C763.302 216 764.502 215.6 765.702 214.8L769.302 210C770.102 209.6 770.502 209.2 770.902 208.4C770.902 208.4 771.702 208 771.702 207.6V207.2L773.302 205.6C773.702 203.2 775.302 202.8 775.302 200.8C776.902 199.2 778.102 197.6 780.102 196.8C785.702 196.8 790.902 196 795.302 195.2C796.902 195.6 798.902 195.2 799.702 194.8C800.502 195.2 801.702 195.2 802.502 195.2C804.902 194 809.302 194.4 812.502 194C812.902 193.6 813.702 193.6 814.502 193.6C814.502 193.6 814.102 193.2 814.502 193.2H815.702V192.8C817.702 192.4 819.702 192.4 821.702 192.4C822.502 191.6 824.502 191.2 824.502 189.2C824.102 188 822.502 188.4 821.702 188C818.502 187.6 815.302 188 812.502 188.8C809.702 188.8 807.702 189.2 805.302 189.6C803.302 189.6 802.902 189.6 801.302 190C800.102 190.4 800.102 189.6 798.902 189.6C797.702 190.4 796.102 190.4 794.902 190.8C792.902 190 791.702 190.4 789.702 190.8L786.902 190C786.102 190.8 783.702 190.8 782.502 190.8L782.102 190.4H780.502V190C780.102 190 779.302 190 778.902 189.6L778.102 188C778.102 186.4 779.702 186.4 780.502 185.6C781.302 184.8 783.302 184.8 784.502 184.4ZM762.502 204C763.302 204.4 763.702 204.8 763.702 205.6C763.702 206.8 761.702 207.6 760.502 207.2C760.502 205.2 762.102 205.2 762.502 204Z" fill="black"/>
</svg>
