<svg width="528" height="490" viewBox="0 0 528 490" fill="none" xmlns="http://www.w3.org/2000/svg">
<path d="M467.825 281.037C439.204 306.003 413.651 355.111 401.6 372.828C387.403 396.351 321.157 409.337 307.974 415.908C291.495 424.122 290.019 438.578 238.328 453.896C186.636 469.214 167.89 434.271 148.54 410.048C129.189 385.825 134.074 373.718 101.895 343.433C69.7153 313.148 69.2724 324.534 57.1952 309.831C45.1179 295.128 29.6324 242.831 44.2328 220.973C58.8331 199.115 102.996 157.068 120.951 143.21C139.795 128.667 170.482 64.6198 232.211 49.6945C293.94 34.7692 339.525 45.5997 348.838 51.8069C358.151 58.0142 388.787 92.1969 406.822 122.73C424.858 153.262 466.028 179.611 475.287 191.471C484.546 203.33 503.601 249.83 467.825 281.037Z" stroke="#FF58BC"/>
</svg>
