<svg width="496" height="444" viewBox="0 0 496 444" fill="none" xmlns="http://www.w3.org/2000/svg">
<path d="M39.1735 129.642C76.3335 110.148 116.463 63.7746 133.977 47.7836C155.298 26.0816 229.694 29.3559 245.533 25.7009C265.331 21.132 270.661 5.90252 330.056 2.85663C389.451 -0.189268 400.493 42.4533 414.961 73.6737C429.429 104.894 421.053 116.697 447.704 157.817C474.356 198.936 477.782 186.753 486.92 205.789C496.058 224.826 499.104 285.363 477.782 305.162C456.461 324.96 398.208 358.846 375.364 369.126C351.39 379.914 301.882 441.085 231.826 441.085C161.771 441.085 115.701 417.479 107.325 408.342C98.9491 399.204 74.9626 354.277 63.5405 316.584C52.1184 278.891 14.8064 239.675 7.9531 224.446C1.09983 209.216 -7.27638 154.009 39.1735 129.642Z" stroke="url(#paint0_linear)" stroke-width="4"/>
<defs>
<linearGradient id="paint0_linear" x1="248.231" y1="2.70215" x2="248.231" y2="441.085" gradientUnits="userSpaceOnUse">
<stop stop-color="#FD4C6C"/>
<stop offset="1" stop-color="#FF58BC"/>
</linearGradient>
</defs>
</svg>
