<svg width="552" height="541" viewBox="0 0 552 541" fill="none" xmlns="http://www.w3.org/2000/svg">
<path d="M88.7494 310.451C104.456 278.951 108.988 227.709 113.051 208.235C116.9 183.008 169.111 148.716 178.09 138.455C189.313 125.629 185.463 112.654 224.368 81.4263C263.272 50.199 291.714 73.7839 316.881 87.9176C342.047 102.051 342.143 114.191 380.456 129.077C418.768 143.964 415.118 133.995 430.678 142.458C446.239 150.921 478.026 190.602 473.243 214.535C468.459 238.467 445.47 290.111 434.977 308.317C423.966 327.423 420.319 393.333 372.668 427.721C325.018 462.11 282.095 468.668 271.912 466.564C261.729 464.461 223.36 445.676 197.088 425.645C170.817 405.614 126.188 397.255 114.05 390.26C101.913 383.266 69.1161 349.826 88.7494 310.451Z" stroke="#FD4C6C"/>
</svg>
